<svg width="56" height="26" viewBox="0 0 56 26" fill="none" xmlns="http://www.w3.org/2000/svg">
<g clip-path="url(#clip0_991_367)">
<path d="M24.3977 10.8317V9.72727H30.2003V10.8317H27.9524V17H26.6456V10.8317H24.3977ZM32.8503 17.1065C32.3176 17.1065 31.856 16.9893 31.4654 16.755C31.0748 16.5206 30.7717 16.1927 30.5563 15.7713C30.3432 15.3499 30.2367 14.8575 30.2367 14.294C30.2367 13.7306 30.3432 13.237 30.5563 12.8132C30.7717 12.3894 31.0748 12.0604 31.4654 11.826C31.856 11.5916 32.3176 11.4744 32.8503 11.4744C33.383 11.4744 33.8446 11.5916 34.2353 11.826C34.6259 12.0604 34.9277 12.3894 35.1408 12.8132C35.3562 13.237 35.464 13.7306 35.464 14.294C35.464 14.8575 35.3562 15.3499 35.1408 15.7713C34.9277 16.1927 34.6259 16.5206 34.2353 16.755C33.8446 16.9893 33.383 17.1065 32.8503 17.1065ZM32.8574 16.0767C33.1462 16.0767 33.3877 15.9974 33.5819 15.8388C33.776 15.6778 33.9204 15.4624 34.0151 15.1925C34.1122 14.9226 34.1607 14.6219 34.1607 14.2905C34.1607 13.9567 34.1122 13.6548 34.0151 13.3849C33.9204 13.1127 33.776 12.8961 33.5819 12.7351C33.3877 12.5741 33.1462 12.4936 32.8574 12.4936C32.5615 12.4936 32.3153 12.5741 32.1188 12.7351C31.9247 12.8961 31.7791 13.1127 31.682 13.3849C31.5873 13.6548 31.54 13.9567 31.54 14.2905C31.54 14.6219 31.5873 14.9226 31.682 15.1925C31.7791 15.4624 31.9247 15.6778 32.1188 15.8388C32.3153 15.9974 32.5615 16.0767 32.8574 16.0767ZM38.5792 17.0959C38.1507 17.0959 37.7672 16.9858 37.4286 16.7656C37.0901 16.5455 36.8226 16.2259 36.6261 15.8068C36.4296 15.3878 36.3313 14.8788 36.3313 14.2798C36.3313 13.6738 36.4308 13.1624 36.6296 12.7457C36.8308 12.3267 37.1019 12.0107 37.4428 11.7976C37.7837 11.5821 38.1637 11.4744 38.5827 11.4744C38.9023 11.4744 39.1651 11.5289 39.3711 11.6378C39.5771 11.7443 39.7404 11.8733 39.8612 12.0249C39.9819 12.174 40.0754 12.3149 40.1417 12.4474H40.195V9.72727H41.484V17H40.2198V16.1406H40.1417C40.0754 16.2732 39.9795 16.4141 39.854 16.5632C39.7286 16.71 39.5629 16.8355 39.3569 16.9396C39.1509 17.0438 38.8917 17.0959 38.5792 17.0959ZM38.9379 16.0412C39.2101 16.0412 39.4421 15.9678 39.6339 15.821C39.8256 15.6719 39.9712 15.4647 40.0707 15.1996C40.1701 14.9344 40.2198 14.6255 40.2198 14.2727C40.2198 13.92 40.1701 13.6134 40.0707 13.353C39.9736 13.0926 39.8292 12.8902 39.6374 12.7457C39.448 12.6013 39.2148 12.5291 38.9379 12.5291C38.6514 12.5291 38.4123 12.6037 38.2205 12.7528C38.0288 12.902 37.8844 13.108 37.7873 13.3707C37.6902 13.6335 37.6417 13.9342 37.6417 14.2727C37.6417 14.6136 37.6902 14.9179 37.7873 15.1854C37.8867 15.4505 38.0323 15.66 38.2241 15.8139C38.4182 15.9654 38.6561 16.0412 38.9379 16.0412ZM45.2331 17.1065C44.7005 17.1065 44.2388 16.9893 43.8482 16.755C43.4576 16.5206 43.1545 16.1927 42.9391 15.7713C42.726 15.3499 42.6195 14.8575 42.6195 14.294C42.6195 13.7306 42.726 13.237 42.9391 12.8132C43.1545 12.3894 43.4576 12.0604 43.8482 11.826C44.2388 11.5916 44.7005 11.4744 45.2331 11.4744C45.7658 11.4744 46.2275 11.5916 46.6181 11.826C47.0087 12.0604 47.3105 12.3894 47.5236 12.8132C47.7391 13.237 47.8468 13.7306 47.8468 14.294C47.8468 14.8575 47.7391 15.3499 47.5236 15.7713C47.3105 16.1927 47.0087 16.5206 46.6181 16.755C46.2275 16.9893 45.7658 17.1065 45.2331 17.1065ZM45.2402 16.0767C45.5291 16.0767 45.7705 15.9974 45.9647 15.8388C46.1588 15.6778 46.3032 15.4624 46.3979 15.1925C46.495 14.9226 46.5435 14.6219 46.5435 14.2905C46.5435 13.9567 46.495 13.6548 46.3979 13.3849C46.3032 13.1127 46.1588 12.8961 45.9647 12.7351C45.7705 12.5741 45.5291 12.4936 45.2402 12.4936C44.9443 12.4936 44.6981 12.5741 44.5016 12.7351C44.3075 12.8961 44.1619 13.1127 44.0648 13.3849C43.9701 13.6548 43.9228 13.9567 43.9228 14.2905C43.9228 14.6219 43.9701 14.9226 44.0648 15.1925C44.1619 15.4624 44.3075 15.6778 44.5016 15.8388C44.6981 15.9974 44.9443 16.0767 45.2402 16.0767ZM53.2489 12.9872L52.0771 13.1151C52.0439 12.9967 51.9859 12.8854 51.9031 12.7812C51.8226 12.6771 51.7137 12.593 51.5763 12.5291C51.439 12.4652 51.271 12.4332 51.0721 12.4332C50.8046 12.4332 50.5797 12.4912 50.3974 12.6072C50.2174 12.7232 50.1287 12.8736 50.131 13.0582C50.1287 13.2169 50.1867 13.3459 50.305 13.4453C50.4258 13.5447 50.6246 13.6264 50.9016 13.6903L51.832 13.8892C52.3481 14.0005 52.7317 14.1768 52.9826 14.4183C53.2359 14.6598 53.3638 14.9759 53.3661 15.3665C53.3638 15.7098 53.2631 16.0128 53.0643 16.2756C52.8678 16.536 52.5943 16.7396 52.244 16.8864C51.8936 17.0331 51.4911 17.1065 51.0366 17.1065C50.369 17.1065 49.8316 16.9669 49.4244 16.6875C49.0172 16.4058 48.7745 16.014 48.6964 15.5121L49.9499 15.3913C50.0067 15.6375 50.1275 15.8234 50.3121 15.9489C50.4968 16.0743 50.7371 16.1371 51.033 16.1371C51.3384 16.1371 51.5835 16.0743 51.7681 15.9489C51.9551 15.8234 52.0487 15.6683 52.0487 15.4837C52.0487 15.3274 51.9883 15.1984 51.8675 15.0966C51.7492 14.9948 51.5645 14.9167 51.3136 14.8622L50.3832 14.6669C49.86 14.558 49.4729 14.3745 49.2219 14.1165C48.971 13.8561 48.8467 13.527 48.8491 13.1293C48.8467 12.7931 48.9379 12.5019 49.1225 12.2557C49.3095 12.0071 49.5688 11.8153 49.9002 11.6804C50.234 11.5431 50.6187 11.4744 51.0543 11.4744C51.6935 11.4744 52.1966 11.6106 52.5636 11.8828C52.9329 12.1551 53.1613 12.5232 53.2489 12.9872Z" fill="black"/>
<path d="M15 4H21V10" stroke="black" stroke-linecap="round" stroke-linejoin="round"/>
<path d="M9 22H3V16" stroke="black" stroke-linecap="round" stroke-linejoin="round"/>
<path d="M21 4L14 11" stroke="black" stroke-linecap="round" stroke-linejoin="round"/>
<path d="M3 22L10 15" stroke="black" stroke-linecap="round" stroke-linejoin="round"/>
</g>
<defs>
<clipPath id="clip0_991_367">
<rect width="56" height="26" fill="white"/>
</clipPath>
</defs>
</svg>
