<svg width="100" height="100" viewBox="0 0 100 100" fill="none" xmlns="http://www.w3.org/2000/svg">
<path d="M87.5 41.6667C87.5 70.8333 50 95.8333 50 95.8333C50 95.8333 12.5 70.8333 12.5 41.6667C12.5 31.721 16.4509 22.1828 23.4835 15.1502C30.5161 8.11754 40.0544 4.16666 50 4.16666C59.9456 4.16666 69.4839 8.11754 76.5165 15.1502C83.5491 22.1828 87.5 31.721 87.5 41.6667Z" fill="#FFEFE4" stroke="#180B38" stroke-width="2" stroke-linecap="round" stroke-linejoin="round"/>
<g clip-path="url(#clip0_433_109)">
<path d="M36.2178 57.2905L25.4466 52.9695C25.212 52.8704 24.944 52.8172 24.6705 52.8156C24.397 52.8139 24.1278 52.8638 23.8908 52.9601C23.6538 53.0564 23.4576 53.1956 23.3225 53.3633C23.1874 53.531 23.1183 53.7211 23.1223 53.9139V66.9416C23.0643 67.0362 23.0271 67.1366 23.0122 67.2391C22.9803 67.4282 23.0182 67.6198 23.1223 67.7954V71.103C23.1223 71.3409 23.2564 71.5691 23.4949 71.7373C23.7335 71.9055 24.0571 72 24.3946 72C24.732 72 25.0556 71.9055 25.2942 71.7373C25.5328 71.5691 25.6668 71.3409 25.6668 71.103V68.5544C26.0332 68.4988 26.3616 68.3563 26.5971 68.1507C26.8326 67.9451 26.9611 67.6888 26.9611 67.4246C26.9611 67.1603 26.8326 66.904 26.5971 66.6984C26.3616 66.4928 26.0332 66.3503 25.6668 66.2947V63.6297L36.2484 59.1664C36.4784 59.0678 36.6684 58.9291 36.8002 58.7637C36.932 58.5983 37.001 58.4117 37.0008 58.222C36.9971 58.032 36.9229 57.846 36.7856 57.6826C36.6482 57.5191 36.4524 57.3839 36.2178 57.2905V57.2905ZM25.6668 61.5425V55.1257L33.4654 58.2521L25.6668 61.5425Z" fill="#171B25"/>
<path d="M63.0206 45.66C62.8697 45.5446 62.6871 45.4518 62.4841 45.3874C62.281 45.3229 62.0615 45.2881 61.8388 45.285C61.6161 45.2819 61.3949 45.3106 61.1883 45.3694C60.9818 45.4281 60.7942 45.5157 60.637 45.6269C60.4797 45.7381 60.3559 45.8705 60.2731 46.0163C60.1903 46.1621 60.1502 46.3181 60.1552 46.4751C60.1602 46.6321 60.2101 46.7868 60.3021 46.9298C60.394 47.0728 60.526 47.2012 60.6902 47.3073C60.9654 47.5014 61.2284 47.7041 61.467 47.9068C61.6194 48.0404 61.8122 48.1484 62.0311 48.223C62.2501 48.2975 62.4899 48.3368 62.7331 48.338C63.0488 48.3374 63.3575 48.273 63.6229 48.1525C63.8882 48.032 64.099 47.8604 64.2303 47.658C64.3616 47.4556 64.4079 47.2309 64.3637 47.0106C64.3195 46.7903 64.1866 46.5834 63.9809 46.4147C63.6934 46.1603 63.3692 45.8929 63.0206 45.66Z" fill="#171B25"/>
<path d="M46.4142 32.0933C46.6835 32.2208 47.001 32.2884 47.3255 32.2874C47.599 32.2839 47.867 32.2323 48.1051 32.1375C48.3433 32.0426 48.5441 31.9074 48.6895 31.744C48.8954 31.5258 49.118 31.3156 49.3562 31.1144C49.5753 30.8767 49.6638 30.5908 49.6052 30.3104C49.5466 30.0299 49.3449 29.7742 49.038 29.5911C48.731 29.408 48.3399 29.3102 47.9379 29.3159C47.5359 29.3217 47.1507 29.4306 46.8545 29.6223C46.539 29.8904 46.243 30.1696 45.9676 30.4589C45.8424 30.5863 45.7545 30.7301 45.7091 30.8818C45.6638 31.0335 45.6618 31.1901 45.7034 31.3423C45.745 31.4945 45.8293 31.6394 45.9513 31.7683C46.0734 31.8973 46.2307 32.0078 46.4142 32.0933V32.0933Z" fill="#171B25"/>
<path d="M60.9227 28.4493C61.3203 28.4838 61.7178 28.5227 62.1093 28.5701C62.2049 28.5763 62.3012 28.5763 62.3968 28.5701C62.8155 28.5772 63.2222 28.4714 63.5341 28.2744C63.8461 28.0774 64.0397 27.8039 64.0756 27.5098C64.1114 27.2156 63.9869 26.9228 63.7272 26.6912C63.4676 26.4595 63.0924 26.3064 62.6781 26.263C62.2194 26.2069 61.7545 26.1595 61.2958 26.1207C60.8578 26.0858 60.4181 26.175 60.0734 26.3687C59.7287 26.5624 59.5073 26.8447 59.4578 27.1535C59.4083 27.4623 59.5348 27.7723 59.8096 28.0153C60.0843 28.2583 60.4847 28.4145 60.9227 28.4493Z" fill="#171B25"/>
<path d="M50.2615 39.351C50.1073 39.2384 49.9224 39.1489 49.718 39.0878C49.5136 39.0267 49.2937 38.9953 49.0717 38.9954C48.8497 38.9956 48.63 39.0273 48.4257 39.0887C48.2215 39.1501 48.0369 39.24 47.883 39.3528C47.7291 39.4657 47.609 39.5992 47.5301 39.7455C47.4511 39.8918 47.4147 40.0479 47.4232 40.2043C47.4317 40.3607 47.4848 40.5144 47.5795 40.656C47.6741 40.7976 47.8083 40.9243 47.9739 41.0285C48.2981 41.2528 48.6529 41.4598 49.026 41.697C49.3644 41.8817 49.7915 41.9666 50.217 41.9338C50.6426 41.9009 51.0334 41.7528 51.307 41.5207C51.5807 41.2886 51.7158 40.9906 51.684 40.6897C51.6521 40.3887 51.4557 40.1082 51.1362 39.9073C50.8304 39.7262 50.5245 39.5365 50.2615 39.351Z" fill="#171B25"/>
<path d="M48.1207 66.0101C47.7232 66.0834 47.3256 66.1567 46.8974 66.2214C46.503 66.286 46.156 66.4504 45.9224 66.6836C45.6887 66.9167 45.5846 67.2022 45.6299 67.4858C45.6752 67.7695 45.8667 68.0315 46.168 68.2222C46.4694 68.4128 46.8595 68.5188 47.2644 68.5199C47.3899 68.5181 47.5148 68.508 47.6375 68.4897C48.0779 68.4178 48.5183 68.3402 48.9587 68.2569C49.1739 68.2208 49.3766 68.1546 49.5548 68.0623C49.733 67.9699 49.8831 67.8533 49.9961 67.7193C50.1092 67.5852 50.1829 67.4366 50.2129 67.2821C50.2429 67.1276 50.2286 66.9704 50.1708 66.8199C50.1131 66.6694 50.013 66.5286 49.8766 66.4059C49.7401 66.2831 49.5701 66.181 49.3766 66.1055C49.1832 66.0299 48.9701 65.9826 48.7502 65.9662C48.5302 65.9498 48.3079 65.9647 48.0963 66.0101H48.1207Z" fill="#171B25"/>
<path d="M46.1389 37.4536C46.5634 37.3789 46.9294 37.1898 47.1581 36.9269C47.3869 36.664 47.4602 36.3483 47.3623 36.0477C47.2876 35.8181 47.2406 35.5844 47.2216 35.3491C47.1907 35.0409 46.9875 34.7539 46.6566 34.5514C46.3257 34.3488 45.8941 34.2472 45.4569 34.2689C45.0198 34.2906 44.6127 34.4339 44.3254 34.6672C44.038 34.9005 43.8939 35.2048 43.9247 35.513C43.9608 35.8643 44.0344 36.2131 44.1449 36.5566V36.5997C44.2342 36.8485 44.4396 37.0688 44.7281 37.2253C45.0165 37.3817 45.3713 37.4652 45.7352 37.4622C45.8698 37.4711 46.0054 37.4682 46.1389 37.4536V37.4536Z" fill="#171B25"/>
<path d="M60.4334 60.8008C60.1826 61.0121 59.9135 61.232 59.6382 61.4261C59.3365 61.6502 59.1734 61.9497 59.1849 62.2587C59.1964 62.5676 59.3814 62.8606 59.6994 63.0734C60.0173 63.2861 60.4421 63.4011 60.8803 63.393C61.3185 63.3849 61.7342 63.2544 62.0359 63.0303C62.354 62.7888 62.6476 62.5386 62.9656 62.2885C63.1042 62.1713 63.2086 62.036 63.273 61.8903C63.3374 61.7446 63.3604 61.5914 63.3409 61.4394C63.3213 61.2875 63.2594 61.1397 63.1588 61.0046C63.0582 60.8695 62.9209 60.7497 62.7546 60.652C62.5883 60.5543 62.3964 60.4807 62.1898 60.4353C61.9831 60.3899 61.7658 60.3736 61.5503 60.3874C61.3347 60.4012 61.1252 60.4449 60.9335 60.5158C60.7419 60.5867 60.5719 60.6835 60.4334 60.8008V60.8008Z" fill="#171B25"/>
<path d="M54.91 64.0394C54.5614 64.186 54.2005 64.324 53.8396 64.4706C53.5099 64.5904 53.2469 64.785 53.0932 65.0231C52.9394 65.2611 52.9039 65.5287 52.9922 65.7827C53.0805 66.0368 53.2876 66.2625 53.58 66.4234C53.8724 66.5843 54.2332 66.6712 54.6042 66.6699C54.8687 66.6696 55.1291 66.6237 55.3627 66.5362C55.7725 66.3853 56.1762 66.23 56.586 66.0662C56.7823 65.9926 56.9556 65.8918 57.0954 65.7698C57.2351 65.6478 57.3385 65.5072 57.3993 65.3564C57.4601 65.2056 57.4771 65.0477 57.4492 64.8921C57.4213 64.7365 57.3492 64.5865 57.237 64.4511C57.1249 64.3157 56.9752 64.1977 56.7968 64.104C56.6184 64.0104 56.415 63.9432 56.1988 63.9063C55.9826 63.8695 55.7582 63.8638 55.5388 63.8896C55.3194 63.9155 55.1097 63.9722 54.9223 64.0566L54.91 64.0394Z" fill="#171B25"/>
<path d="M53.9498 28.9151C54.3045 28.8288 54.6777 28.7469 55.0569 28.6779C55.2665 28.64 55.4635 28.5733 55.6366 28.4817C55.8097 28.39 55.9555 28.2753 56.0657 28.1439C56.1759 28.0126 56.2483 27.8672 56.2788 27.7162C56.3093 27.5651 56.2973 27.4112 56.2435 27.2634C56.1897 27.1156 56.0951 26.9768 55.9651 26.8547C55.8352 26.7327 55.6724 26.6299 55.4861 26.5522C55.2998 26.4745 55.0937 26.4235 54.8794 26.402C54.6651 26.3804 54.4469 26.3889 54.2373 26.4268C53.7663 26.5088 53.3014 26.608 52.8549 26.7201C52.4905 26.8127 52.1838 26.9926 51.9885 27.2285C51.7932 27.4644 51.7218 27.7412 51.7866 28.0104C51.8515 28.2797 52.0486 28.5243 52.3434 28.7015C52.6382 28.8787 53.0119 28.9772 53.3993 28.9798C53.5865 28.9793 53.7725 28.9575 53.9498 28.9151Z" fill="#171B25"/>
<path d="M57.4668 42.7923L56.3291 42.3223C55.9524 42.1811 55.5128 42.1481 55.1024 42.2304C54.692 42.3126 54.3427 42.5036 54.1277 42.7634C53.9126 43.0232 53.8485 43.3316 53.9487 43.6239C54.049 43.9163 54.3058 44.17 54.6654 44.3318L55.7787 44.7889C56.0313 44.8968 56.3213 44.9534 56.6166 44.9528C56.975 44.9505 57.3226 44.8662 57.607 44.7124C57.8913 44.5586 58.0971 44.3438 58.193 44.1004C58.289 43.8569 58.2701 43.5981 58.1391 43.3629C58.0081 43.1277 57.7721 42.9289 57.4668 42.7966V42.7923Z" fill="#171B25"/>
<path d="M40.738 66.8208L39.5147 66.8597C39.0767 66.8648 38.6595 66.9924 38.355 67.2144C38.0504 67.4364 37.8834 67.7346 37.8907 68.0434C37.898 68.3522 38.079 68.6463 38.3939 68.861C38.7088 69.0757 39.1317 69.1935 39.5697 69.1883H39.6248C40.0713 69.1883 40.5239 69.1625 40.9704 69.1409C41.1954 69.1402 41.4179 69.107 41.6241 69.0435C41.8303 68.98 42.0159 68.8875 42.1695 68.7716C42.3232 68.6557 42.4416 68.5188 42.5175 68.3695C42.5935 68.2202 42.6253 68.0615 42.6111 67.9031C42.5969 67.7448 42.537 67.5902 42.435 67.4488C42.333 67.3074 42.1911 67.1821 42.018 67.0808C41.8449 66.9794 41.6442 66.9041 41.4283 66.8594C41.2124 66.8147 40.9858 66.8016 40.7625 66.8208H40.738Z" fill="#171B25"/>
<path d="M33.1718 66.7777C32.7498 66.7777 32.3216 66.7389 31.8996 66.713C31.6786 66.6948 31.4547 66.7082 31.2413 66.7526C31.0278 66.7969 30.8293 66.8711 30.6576 66.9709C30.4859 67.0706 30.3445 67.1938 30.242 67.333C30.1395 67.4722 30.078 67.6246 30.061 67.781C30.0441 67.9374 30.0722 68.0946 30.1436 68.2432C30.215 68.3917 30.3283 68.5286 30.4766 68.6455C30.6249 68.7625 30.8051 68.8571 31.0066 68.9237C31.208 68.9903 31.4265 69.0275 31.6488 69.0331C32.0831 69.059 32.5235 69.0805 32.9639 69.0978H33.0679C33.4909 69.0916 33.8944 68.9713 34.1953 68.7615C34.4961 68.5517 34.6712 68.2685 34.6846 67.9704C34.6979 67.6722 34.5484 67.3818 34.2669 67.1591C33.9855 66.9364 33.5935 66.7983 33.1718 66.7734V66.7777Z" fill="#171B25"/>
<path d="M67.1125 51.0117C67.0695 50.8606 66.9843 50.717 66.862 50.5892C66.7396 50.4615 66.5825 50.3521 66.3997 50.2675C66.2169 50.1829 66.0121 50.1248 65.7972 50.0964C65.5823 50.0681 65.3616 50.0701 65.1478 50.1023C64.934 50.1346 64.7314 50.1964 64.5518 50.2843C64.3722 50.3722 64.2191 50.4844 64.1014 50.6143C63.9838 50.7442 63.9039 50.8893 63.8664 51.0412C63.8289 51.1931 63.8345 51.3487 63.883 51.499C63.9625 51.762 64.0298 52.0337 64.0726 52.3054C64.1231 52.5871 64.3174 52.8461 64.619 53.0342C64.9207 53.2223 65.3092 53.3265 65.7119 53.3274H65.9137C66.3466 53.2886 66.7403 53.131 67.0094 52.8888C67.2785 52.6466 67.4013 52.3393 67.3511 52.0337C67.2899 51.6758 67.2104 51.3394 67.1125 51.0117Z" fill="#171B25"/>
<path d="M65.669 55.5742C65.2457 55.4967 64.796 55.5409 64.4187 55.6969C64.0415 55.853 63.7674 56.1081 63.6567 56.4065C63.5588 56.6738 63.4426 56.9412 63.3142 57.1999C63.2289 57.3462 63.1868 57.5032 63.1904 57.6613C63.194 57.8195 63.2433 57.9754 63.3352 58.1197C63.4271 58.2639 63.5598 58.3935 63.725 58.5004C63.8903 58.6073 64.0848 58.6894 64.2965 58.7416C64.5082 58.7938 64.7329 58.8151 64.9566 58.8041C65.1804 58.7931 65.3986 58.75 65.598 58.6776C65.7974 58.6052 65.9738 58.5048 66.1164 58.3828C66.259 58.2607 66.3649 58.1194 66.4275 57.9675C66.5804 57.6527 66.715 57.3293 66.8373 57.0102C66.8955 56.8618 66.9115 56.7068 66.8842 56.554C66.8569 56.4013 66.7869 56.2538 66.6782 56.1203C66.5696 55.9867 66.4244 55.8697 66.2512 55.776C66.078 55.6822 65.8801 55.6136 65.669 55.5742V55.5742Z" fill="#171B25"/>
<path d="M70.4584 28.0785L69.2351 27.6947C68.8295 27.5746 68.3729 27.573 67.9657 27.6903C67.5585 27.8075 67.2341 28.034 67.0637 28.32C66.8934 28.6059 66.8911 28.9278 67.0575 29.2149C67.2238 29.502 67.5451 29.7308 67.9506 29.8509C68.336 29.9673 68.7152 30.0837 69.0944 30.2088C69.3102 30.2763 69.5434 30.3116 69.7795 30.3123C70.1555 30.3118 70.52 30.2209 70.8128 30.0546C71.1056 29.8882 71.3091 29.6564 71.3897 29.3975C71.4703 29.1385 71.4231 28.868 71.256 28.6305C71.0889 28.393 70.8118 28.2028 70.4706 28.0914L70.4584 28.0785Z" fill="#171B25"/>
<path d="M77.2355 17.147C77.0017 17.0529 76.7371 17.0033 76.4678 17.0033C76.1986 17.0033 75.934 17.0529 75.7002 17.147L64.9045 21.4594C64.6707 21.5533 64.4759 21.6887 64.3393 21.8522C64.2028 22.0157 64.1293 22.2015 64.1262 22.3912C64.1231 22.5809 64.1905 22.7678 64.3217 22.9335C64.4529 23.0991 64.6432 23.2376 64.8739 23.3353L75.4556 27.7986V30.0885C75.111 30.1138 74.7865 30.2149 74.5279 30.3775C74.2693 30.54 74.0898 30.7557 74.0147 30.9942C73.9397 31.2326 73.9728 31.4817 74.1096 31.7061C74.2463 31.9305 74.4796 32.1189 74.7766 32.2447L75.3577 32.4732C75.3892 32.4838 75.4219 32.4924 75.4556 32.4991V35.2504C75.4556 35.4883 75.5896 35.7164 75.8282 35.8846C76.0668 36.0528 76.3904 36.1473 76.7278 36.1473C77.0652 36.1473 77.3888 36.0528 77.6274 35.8846C77.866 35.7164 78 35.4883 78 35.2504V18.0871C77.9998 17.8971 77.9291 17.7103 77.795 17.5454C77.6609 17.3805 77.468 17.2432 77.2355 17.147V17.147ZM75.4556 19.3032V25.7157L67.6508 22.4211L75.4556 19.3032Z" fill="#171B25"/>
</g>
<defs>
<clipPath id="clip0_433_109">
<rect width="55" height="55" fill="white" transform="translate(23 17)"/>
</clipPath>
</defs>
</svg>
