<svg width="100" height="100" viewBox="0 0 100 100" fill="none" xmlns="http://www.w3.org/2000/svg">
<path d="M87.5 41.6667C87.5 70.8333 50 95.8333 50 95.8333C50 95.8333 12.5 70.8333 12.5 41.6667C12.5 31.721 16.4509 22.1828 23.4835 15.1502C30.5161 8.11754 40.0544 4.16666 50 4.16666C59.9456 4.16666 69.4839 8.11754 76.5165 15.1502C83.5491 22.1828 87.5 31.721 87.5 41.6667Z" fill="#EABC92" stroke="#180B38" stroke-width="2" stroke-linecap="round" stroke-linejoin="round"/>
<path d="M32.9066 48.0019C32.9066 51.1609 33.9567 54.249 35.924 56.8757C37.8913 59.5023 40.6875 61.5496 43.959 62.7585C47.2305 63.9674 50.8304 64.2837 54.3034 63.6674C57.7764 63.0511 60.9665 61.5299 63.4704 59.2961C65.9743 57.0623 67.6795 54.2163 68.3703 51.1179C69.0612 48.0196 68.7066 44.8081 67.3515 41.8895C65.9964 38.9709 63.7016 36.4764 60.7573 34.7213C57.8131 32.9662 54.3515 32.0295 50.8105 32.0295C46.064 32.0349 41.5136 33.7195 38.1573 36.7137C34.801 39.708 32.9128 43.7674 32.9066 48.0019V48.0019ZM50.8105 34.3904C53.8281 34.3904 56.778 35.1887 59.2871 36.6843C61.7962 38.18 63.7518 40.3058 64.9066 42.793C66.0614 45.2802 66.3635 48.017 65.7748 50.6574C65.1861 53.2977 63.7329 55.7231 61.5991 57.6267C59.4654 59.5303 56.7467 60.8266 53.7871 61.3518C50.8274 61.877 47.7596 61.6075 44.9717 60.5773C42.1838 59.547 39.8009 57.8024 38.1244 55.564C36.4479 53.3256 35.553 50.694 35.553 48.0019C35.5561 44.3927 37.1646 40.9322 40.0252 38.3801C42.8859 35.8281 46.7649 34.3931 50.8105 34.3904V34.3904Z" fill="#171B25"/>
<path d="M50.5958 49.1875H57.0725C57.4091 49.1676 57.7245 49.0344 57.955 48.8147C58.1855 48.595 58.3138 48.3054 58.3138 48.0045C58.3138 47.7036 58.1855 47.4139 57.955 47.1943C57.7245 46.9746 57.4091 46.8413 57.0725 46.8214H51.919V39.3038C51.919 38.9907 51.7796 38.6904 51.5314 38.4691C51.2833 38.2477 50.9467 38.1233 50.5958 38.1233C50.2449 38.1233 49.9083 38.2477 49.6601 38.4691C49.412 38.6904 49.2726 38.9907 49.2726 39.3038V48.0019C49.2726 48.3154 49.4118 48.6162 49.6598 48.8384C49.9078 49.0606 50.2443 49.1862 50.5958 49.1875V49.1875Z" fill="#171B25"/>
<path d="M23 33.1323V33.9244C23.1741 40.3605 24.2921 46.7485 26.3254 52.9256C30.7361 66.1333 38.9539 74.7744 50.085 77.9172L50.3868 78L50.7002 77.9534C50.9672 77.9172 57.3395 76.9179 63.9032 70.8914C74.6514 61.018 77.4951 45.3614 77.971 33.9658V33.1478L50.7989 23L23 33.1323ZM62.1448 69.1155C56.9216 73.9564 51.8029 75.3284 50.5377 75.5666C28.0549 68.9498 25.9018 39.8836 25.6696 34.7114L50.7873 25.5577L75.284 34.6958C74.7326 45.5271 71.9643 59.9928 62.1448 69.1155Z" fill="#171B25"/>
</svg>
