<svg width="100" height="100" viewBox="0 0 100 100" fill="none" xmlns="http://www.w3.org/2000/svg">
<path d="M87.5 41.6667C87.5 70.8333 50 95.8333 50 95.8333C50 95.8333 12.5 70.8333 12.5 41.6667C12.5 31.721 16.4509 22.1828 23.4835 15.1502C30.5161 8.11754 40.0544 4.16666 50 4.16666C59.9456 4.16666 69.4839 8.11754 76.5165 15.1502C83.5491 22.1828 87.5 31.721 87.5 41.6667Z" fill="#CEEA92" stroke="#180B38" stroke-width="2" stroke-linecap="round" stroke-linejoin="round"/>
<g clip-path="url(#clip0_433_99)">
<path d="M67.5645 58.9048H59.4434C59.1338 58.9048 58.8292 58.9048 58.7277 58.6048C59.3238 58.3274 59.8913 57.999 60.423 57.6238C60.6197 57.4419 60.8709 57.3207 61.1431 57.2764C61.4152 57.2321 61.6952 57.267 61.9457 57.3762C62.7527 57.6428 63.5953 57.8238 64.4531 58.0524C64.6155 57.5048 64.7678 57.019 64.9251 56.5L62.1538 55.7381C62.9507 54.7857 63.0015 53.7095 62.971 52.6286C62.9918 52.5372 63.034 52.4513 63.0946 52.3772C63.1551 52.3031 63.2326 52.2425 63.3212 52.2C63.8745 51.9428 64.4531 51.7238 65.0368 51.4952C64.7932 50.9762 64.58 50.5143 64.3516 50.0143L63.0979 50.5238C63.0369 50.1324 62.9279 49.7489 62.773 49.3809C62.0015 48.1095 61.1844 46.8619 60.3773 45.6095C59.9357 44.9286 59.3622 44.8667 58.7531 45.4286C58.144 45.9905 57.5147 46.6524 56.8345 47.2333C56.5858 47.3919 56.3184 47.5229 56.0376 47.6238V46.9524C56.0376 44.0952 56.0681 41.2381 56.0376 38.3524C55.997 37.9936 56.0534 37.6311 56.2015 37.2982C56.3497 36.9653 56.5848 36.6728 56.8853 36.4476C57.1338 36.2395 57.4471 36.1119 57.7788 36.0836C58.1106 36.0553 58.4433 36.1278 58.7277 36.2905C59.3825 36.6905 60.022 37.1048 60.6819 37.5C60.7847 37.5876 60.908 37.6514 61.0419 37.6862C61.1757 37.721 61.3165 37.7259 61.4527 37.7004C61.5889 37.6749 61.7169 37.6199 61.8263 37.5396C61.9358 37.4593 62.0236 37.356 62.0828 37.2381C62.6309 36.4905 63.1588 35.7333 63.6968 34.9762C63.8154 34.8296 63.8796 34.6507 63.8796 34.4667C63.8796 34.2827 63.8154 34.1037 63.6968 33.9571C62.5649 32.3667 61.4534 30.7667 60.291 29.1952C60.0633 28.9544 59.7449 28.8059 59.4028 28.7809C58.6618 28.719 57.9105 28.7809 57.1644 28.7524C56.9268 28.7244 56.6861 28.7709 56.4795 28.8845C56.273 28.9982 56.1123 29.1727 56.0224 29.3809C55.6316 30.1571 55.2001 30.9143 54.8093 31.6905C54.7708 31.7932 54.6958 31.8805 54.597 31.9377C54.4982 31.9949 54.3814 32.0186 54.2662 32.0048C51.3968 32.0048 48.5206 32.0048 45.6376 32.0048C45.5145 32.0134 45.392 31.9828 45.2897 31.918C45.1875 31.8532 45.1115 31.7579 45.0742 31.6476C44.6681 30.8619 44.2367 30.0857 43.8256 29.3C43.7479 29.1223 43.6123 28.9722 43.4381 28.8713C43.264 28.7704 43.0602 28.7237 42.8561 28.7381C41.7851 28.7381 40.7142 28.7095 39.6483 28.7381C39.3012 28.7609 38.9772 28.9095 38.7448 29.1524C37.3084 30.9857 35.9075 32.8428 34.5066 34.7048C34.429 34.7857 34.3699 34.8808 34.3331 34.984C34.2962 35.0873 34.2824 35.1965 34.2924 35.305C34.3023 35.4135 34.336 35.5189 34.3912 35.6147C34.4464 35.7105 34.5219 35.7946 34.6132 35.8619C35.1208 36.3809 35.6892 36.8809 36.2323 37.3857C36.3825 37.5419 36.589 37.6405 36.812 37.6625C37.035 37.6844 37.2588 37.6283 37.4404 37.5048C37.8071 37.3064 38.1582 37.0836 38.491 36.8381C38.8787 36.518 39.3361 36.281 39.8314 36.1436C40.3267 36.0063 40.8479 35.9719 41.3588 36.0428C41.9273 36.1 42.1252 36.2286 42.1252 36.7619C42.1252 39.4524 42.1252 42.1428 42.1252 44.8333C42.1252 45.1714 41.9729 45.2762 41.6887 45.4143C40.2878 46.0107 38.9313 46.6948 37.6282 47.4619C32.3799 50.9143 29.7152 55.6571 29.7761 61.6809C29.7761 62.8619 30.0096 64.0619 30.1365 65.2428C29.6289 64.9524 29.0909 64.6333 28.5478 64.3524C28.4335 64.304 28.339 64.2222 28.2786 64.1191C28.2182 64.0161 28.1951 63.8974 28.2128 63.7809C28.2128 62.9333 28.2483 62.0905 28.2128 61.2476C28.2042 60.7966 28.0556 60.3577 27.7851 59.9847C27.5146 59.6117 27.1341 59.3208 26.6901 59.1476C26.2854 58.97 25.8387 58.8934 25.3932 58.9253C24.9477 58.9573 24.5185 59.0967 24.1473 59.3299C23.7761 59.5632 23.4755 59.8825 23.2745 60.2569C23.0735 60.6312 22.9789 61.048 23.0001 61.4667C23.0001 63.2381 23.0001 65.0048 23.0001 66.7714C22.9792 67.0106 23.034 67.2503 23.1577 67.4604C23.2814 67.6705 23.4685 67.8416 23.6954 67.9524C25.8069 69.1714 27.893 70.4238 30.0096 71.6238C30.3969 71.8405 30.8378 71.9586 31.2886 71.9667C43.12 71.9667 54.9565 71.9428 66.7828 72.0143C69.0923 72.0143 71.1885 71.7333 73.1833 70.5857C73.5199 70.4287 73.8188 70.2087 74.0614 69.9392C74.3041 69.6698 74.4854 69.3567 74.5943 69.019C74.8024 68.2905 74.9851 67.5476 75.1729 66.8095V65.2809C75.1303 65.1622 75.0948 65.0414 75.0663 64.919C74.7409 63.2614 73.8179 61.7591 72.452 60.664C71.0861 59.569 69.3605 58.9479 67.5645 58.9048V58.9048ZM50.8046 70.3333H49.0992C49.0866 69.7675 48.9206 69.2139 48.6169 68.7249C48.3132 68.2359 47.8818 67.8274 47.3633 67.5381C46.2923 66.9095 45.0945 67.1381 43.8814 67.0619C43.8707 65.8561 43.5449 64.6711 42.9326 63.611C42.3202 62.5508 41.44 61.6477 40.369 60.9809C38.8483 60.027 37.0232 59.5947 35.202 59.7571V61.2857C35.911 61.3171 36.6176 61.3855 37.3185 61.4905C38.6961 61.7557 39.9305 62.4666 40.8063 63.4988C41.682 64.5311 42.1435 65.8191 42.11 67.1381C42.11 68.6952 42.5465 68.7238 43.8205 68.6952C44.416 68.6952 45.0099 68.6952 45.602 68.6952C45.831 68.6933 46.058 68.7344 46.2696 68.8163C46.4813 68.8982 46.6733 69.0191 46.8342 69.1718C46.9951 69.3246 47.1217 69.5061 47.2065 69.7056C47.2913 69.9051 47.3325 70.1186 47.3278 70.3333H46.7897C41.7141 70.3333 36.6384 70.3333 31.5627 70.3333C31.2643 70.329 30.9722 70.2518 30.7151 70.1095C28.8472 69.0381 26.9997 67.9381 25.1318 66.8619C24.9989 66.7994 24.8897 66.7001 24.8189 66.5775C24.7481 66.4548 24.7191 66.3148 24.7359 66.1762C24.7359 64.6524 24.7359 63.119 24.7359 61.5905C24.7074 61.4048 24.738 61.2154 24.8237 61.046C24.9095 60.8765 25.0467 60.7346 25.2181 60.6381C25.3499 60.5716 25.4981 60.5389 25.6476 60.5435C25.7972 60.5481 25.9428 60.5898 26.0696 60.6643C26.1964 60.7388 26.3 60.8434 26.3698 60.9676C26.4395 61.0918 26.473 61.2312 26.4667 61.3714C26.4871 62.3619 26.4871 63.3492 26.4667 64.3333C26.4466 64.5631 26.5001 64.7933 26.6204 64.9944C26.7407 65.1955 26.9222 65.3583 27.1418 65.4619C28.4361 66.1619 29.7101 66.8905 30.9892 67.6143C31.3902 67.8429 31.7911 68 32.2124 67.6952C32.6337 67.3905 32.5779 66.9714 32.4256 66.5286C31.1692 63.1964 31.1692 59.5607 32.4256 56.2286C33.6074 53.0779 35.9086 50.4045 38.9428 48.6571C40.2916 47.9301 41.6866 47.2812 43.12 46.7143C43.3529 46.6417 43.5539 46.4994 43.6924 46.3093C43.8308 46.1192 43.899 45.8918 43.8865 45.6619C43.8865 42.5428 43.8865 39.419 43.8865 36.3C43.8099 35.8391 43.5795 35.4128 43.2283 35.0825C42.8772 34.7522 42.4234 34.5349 41.9323 34.4619C41.2014 34.4619 40.4705 34.4333 39.7447 34.4619C39.4276 34.4857 39.1203 34.5769 38.8463 34.7286C38.2372 35.0667 37.6535 35.4571 37.0343 35.8428L36.344 35.1762C36.4303 35.0476 36.5115 34.9286 36.5978 34.8143C37.6434 33.4381 38.6991 32.0714 39.7295 30.6905C39.7966 30.5827 39.8957 30.4956 40.0147 30.4398C40.1336 30.384 40.2673 30.3619 40.3995 30.3762C41.0847 30.4095 41.9222 30.2 42.4297 30.4905C42.9373 30.7809 43.0947 31.5571 43.4043 32.1238C44.3179 33.8286 43.988 33.6667 46.0385 33.6667C48.9063 33.6667 51.7741 33.6667 54.6672 33.6667C55.0067 33.7048 55.3497 33.6305 55.637 33.4567C55.9243 33.2828 56.1378 33.0202 56.2407 32.7143C56.5676 32.015 56.9318 31.3316 57.3319 30.6667C57.3892 30.5872 57.4643 30.5204 57.552 30.471C57.6396 30.4217 57.7378 30.3909 57.8395 30.3809C59.0374 30.3333 59.0374 30.3571 59.7276 31.3238C60.4179 32.2905 61.0727 33.2286 61.7579 34.1809C61.831 34.2556 61.8716 34.3533 61.8716 34.4548C61.8716 34.5562 61.831 34.6539 61.7579 34.7286C61.494 35.0571 61.2503 35.4048 61.0016 35.7714C60.4941 35.4667 60.0474 35.2048 59.6211 34.9C59.1604 34.6021 58.6171 34.4366 58.0577 34.4238C57.5647 34.3834 57.0685 34.4539 56.6104 34.6295C56.1522 34.8051 55.7453 35.0806 55.4235 35.4333C55.0248 35.7668 54.7125 36.1811 54.5102 36.6449C54.3079 37.1086 54.221 37.6095 54.2561 38.1095C54.3373 41.0381 54.2561 43.9714 54.2561 46.9V47.4857C53.5252 47.4857 52.8196 47.4857 52.1141 47.4857C51.9923 47.4857 51.8603 47.3476 51.7588 47.2476C51.1548 46.6571 50.5254 46.0476 49.9011 45.4619C49.2768 44.8762 48.6931 44.9428 48.2363 45.6476C47.4191 46.8857 46.6121 48.119 45.8406 49.3809C45.6781 49.7508 45.564 50.1377 45.5005 50.5333L44.2164 50.0238L43.5362 51.5143C44.1504 51.7619 44.7341 51.9905 45.2873 52.2381C45.3726 52.2842 45.4453 52.3482 45.4999 52.425C45.5545 52.5018 45.5894 52.5894 45.602 52.6809C45.4653 53.9535 45.8621 55.2259 46.7085 56.2286L43.5768 57.3428C43.7697 57.819 43.9626 58.2952 44.1758 58.8619L45.2721 58.4857C45.5638 58.3991 45.8502 58.2973 46.1299 58.1809C47.1958 57.6762 48.2059 57.4048 49.2667 58.2762C49.7385 58.5417 50.2525 58.7346 50.7894 58.8476V63.7952H45.7137V65.4143H50.7894L50.8046 70.3333ZM73.3863 66.8333C73.3863 66.9619 73.3508 67.0857 73.3305 67.2143C73.305 67.7159 73.129 68.2006 72.8228 68.6126C72.5166 69.0246 72.0926 69.347 71.5996 69.5428C70.3821 70.1199 69.0293 70.4 67.666 70.3571C65.8895 70.2762 64.113 70.3286 62.3213 70.3571C62.191 70.3767 62.0577 70.3478 61.9497 70.2767C61.8417 70.2056 61.7674 70.0978 61.7427 69.9762C61.3019 68.9549 61.1279 67.8496 61.2351 66.7524C61.235 66.6261 61.2681 66.5018 61.3316 66.3905C61.6513 65.9143 61.9711 65.4381 62.3467 65C62.3916 64.9131 62.4551 64.8359 62.5333 64.7732C62.6115 64.7105 62.7027 64.6637 62.8011 64.6356C62.8995 64.6076 63.0031 64.5989 63.1053 64.6102C63.2074 64.6215 63.306 64.6524 63.3948 64.7012C63.4836 64.7499 63.5607 64.8153 63.6213 64.8934C63.6818 64.9714 63.7245 65.0603 63.7467 65.1546C63.7688 65.2488 63.77 65.3463 63.75 65.441C63.7301 65.5357 63.6895 65.6255 63.6308 65.7048C63.4836 65.9905 63.3314 66.2762 63.174 66.5571C63.0435 66.7462 62.9911 66.9734 63.0266 67.1961C63.0621 67.4189 63.1831 67.6218 63.3669 67.7667C63.5847 67.9909 63.8169 68.2024 64.0623 68.4C64.2654 68.5658 64.5161 68.6718 64.783 68.7048C66.1839 68.7048 67.5949 68.7048 69.0364 68.7048V67.0762H65.6357C64.8795 67.0762 64.8795 67.0762 65.184 66.4429C65.9504 64.8476 65.0469 63.2381 63.2349 63.0238C62.8603 62.9605 62.4744 62.9925 62.1174 63.1164C61.7603 63.2403 61.4452 63.4517 61.2047 63.7286C60.6311 64.3952 60.1489 65.1571 59.6414 65.8476C59.5569 65.9676 59.5127 66.1086 59.5145 66.2524C59.5145 67.4667 59.3064 68.7095 59.8748 69.8762C59.9282 70.0172 59.9689 70.1622 59.9967 70.3095H56.9512V64.6571H55.1849V70.3333H52.5659V69.7524C52.5659 65.9968 52.5659 62.2397 52.5659 58.4809C52.5659 57.6238 52.3831 57.4333 51.5 57.2619C51.022 57.1764 50.5591 57.0289 50.1245 56.8238L51.1396 56.4286C50.9467 55.9524 50.7538 55.4762 50.5407 54.9286C49.9367 55.1381 49.3479 55.3238 48.7794 55.5476C48.7274 55.5794 48.6686 55.6002 48.6072 55.6085C48.5457 55.6168 48.4831 55.6124 48.4236 55.5957C48.3641 55.5789 48.3093 55.5501 48.2629 55.5114C48.2166 55.4727 48.1798 55.4249 48.1551 55.3714C47.6881 54.7 47.2415 54.0286 47.4039 53.1L49.6321 53.9762L50.3173 52.4857L48.886 51.8857C48.617 51.7809 48.348 51.6857 48.0942 51.5619C47.8404 51.4381 47.4496 51.3238 47.4191 51.1619C47.3353 50.7593 47.3777 50.3425 47.5409 49.9619C48.0485 49.0095 48.6728 48.1571 49.3022 47.1762C49.8098 47.6809 50.3529 48.1524 50.8249 48.6476C50.9817 48.8136 51.1776 48.943 51.3969 49.0257C51.6163 49.1083 51.8531 49.1419 52.0888 49.1238C53.581 49.1048 55.0749 49.1048 56.5706 49.1238C56.8045 49.1404 57.0394 49.1061 57.2569 49.0235C57.4743 48.9409 57.6685 48.8122 57.8243 48.6476C58.3318 48.1714 58.8394 47.6952 59.347 47.1714C59.9865 48.1714 60.6159 49.0762 61.1742 50.0571C61.2699 50.3661 61.3026 50.6892 61.2706 51.0095C61.3113 51.4857 60.8595 51.4476 60.5854 51.5714C59.8647 51.8857 59.1287 52.1667 58.3318 52.4905C58.5501 52.9667 58.7683 53.4428 59.0069 53.9809L61.2047 53.1143C61.4483 53.9619 61.0016 54.5857 60.5804 55.2095C60.5347 55.2714 60.3012 55.2619 60.1692 55.2095C59.7581 55.119 59.3571 55 58.9105 54.8809C58.748 55.4048 58.5958 55.9 58.4435 56.4143L58.9511 56.6048L58.9866 56.7381C58.3623 56.9095 57.7431 57.1095 57.1137 57.2476C56.6873 57.3381 56.2762 57.4095 56.0985 57.8619C55.9209 58.3143 56.195 58.5905 56.4944 58.8714C56.9208 59.2619 57.3573 59.6428 57.7481 60.0571C57.9101 60.2252 58.1097 60.3575 58.3326 60.4448C58.5554 60.532 58.7961 60.572 59.0374 60.5619C61.8747 60.5619 64.7069 60.5619 67.5442 60.5619C68.3767 60.5798 69.1962 60.7597 69.9508 61.0902C70.7054 61.4207 71.3786 61.8946 71.9278 62.4819C72.477 63.0692 72.8902 63.7572 73.1413 64.5021C73.3923 65.247 73.4757 66.0328 73.3863 66.8095V66.8333Z" fill="#171B25"/>
<path d="M52.2866 39.4905H49.0737V40.9524H52.2866V39.4905Z" fill="#171B25"/>
<path d="M49.028 36.4238H47.4546V37.8952H49.028V36.4238Z" fill="#171B25"/>
<path d="M53.9158 36.4238H52.3525V37.9095H53.9158V36.4238Z" fill="#171B25"/>
<path d="M53.9058 49.4428H52.3475V50.9286H53.9058V49.4428Z" fill="#171B25"/>
<path d="M58.8037 49.4571H57.2354V50.9286H58.8037V49.4571Z" fill="#171B25"/>
<path d="M56.3726 51.7667H54.7889V53.219H56.3726V51.7667Z" fill="#171B25"/>
<path d="M69.6251 17.0764C66.5036 16.7288 63.4024 17.6192 60.5854 18.8145C59.5702 19.2478 60.4483 20.6669 61.4685 20.243C65.2651 18.6383 69.9906 17.7335 73.6248 20.1954C76.7311 22.3002 77.1777 26.7383 74.2897 29.2097C73.5362 29.8367 72.6351 30.2873 71.6603 30.5249C70.6855 30.7624 69.6646 30.7801 68.6811 30.5764C68.5514 30.5446 68.4157 30.5409 68.2843 30.5655C68.1529 30.5902 68.0292 30.6426 67.9226 30.7188C67.816 30.795 67.7292 30.8929 67.6689 31.0052C67.6086 31.1175 67.5764 31.2411 67.5746 31.3669L66.732 42.8621C66.6559 43.9192 68.4121 43.9145 68.4882 42.8621C68.742 39.3478 68.9974 35.8319 69.2546 32.3145C71.1539 32.4908 73.0588 32.0339 74.6348 31.024C75.5715 30.4115 76.354 29.6142 76.9274 28.6879C77.5009 27.7616 77.8514 26.7289 77.9543 25.6621C78.0744 24.5884 77.9426 23.503 77.5682 22.4821C77.1938 21.4613 76.5859 20.5296 75.787 19.7526C74.1188 18.2269 71.9444 17.2826 69.6251 17.0764V17.0764Z" fill="#171B25"/>
<path d="M68.5897 46.4238C68.5897 46.2062 68.5209 45.9936 68.3921 45.8127C68.2633 45.6318 68.0802 45.4908 67.8659 45.4075C67.6517 45.3243 67.4159 45.3025 67.1885 45.3449C66.9611 45.3874 66.7521 45.4922 66.5882 45.646C66.4242 45.7998 66.3125 45.9958 66.2673 46.2092C66.222 46.4226 66.2453 46.6438 66.334 46.8448C66.4227 47.0458 66.573 47.2176 66.7658 47.3384C66.9586 47.4593 67.1853 47.5238 67.4172 47.5238C67.5714 47.5244 67.7242 47.4964 67.8667 47.4414C68.0093 47.3863 68.1388 47.3053 68.2478 47.203C68.3568 47.1008 68.4431 46.9792 68.5018 46.8455C68.5605 46.7118 68.5904 46.5684 68.5897 46.4238V46.4238Z" fill="#171B25"/>
</g>
<defs>
<clipPath id="clip0_433_99">
<rect width="55" height="55" fill="white" transform="translate(23 17)"/>
</clipPath>
</defs>
</svg>
