<svg width="100" height="100" viewBox="0 0 100 100" fill="none" xmlns="http://www.w3.org/2000/svg">
<path d="M87.5 41.6667C87.5 70.8333 50 95.8333 50 95.8333C50 95.8333 12.5 70.8333 12.5 41.6667C12.5 31.721 16.4509 22.1828 23.4835 15.1502C30.5161 8.11754 40.0544 4.16666 50 4.16666C59.9456 4.16666 69.4839 8.11754 76.5165 15.1502C83.5491 22.1828 87.5 31.721 87.5 41.6667Z" fill="#BDEDD0" stroke="#180B38" stroke-width="2" stroke-linecap="round" stroke-linejoin="round"/>
<path d="M59.6666 73.4167V64.5479C59.7526 63.4552 59.605 62.3566 59.2336 61.3254C58.8621 60.2941 58.2754 59.3537 57.5125 58.5667C64.7083 57.7646 72.2708 55.0375 72.2708 42.525C72.2702 39.3254 71.0395 36.2486 68.8333 33.9313C69.878 31.132 69.8041 28.0379 68.6271 25.2917C68.6271 25.2917 65.9229 24.4896 59.6666 28.6833C54.4142 27.2598 48.8775 27.2598 43.625 28.6833C37.3687 24.4896 34.6646 25.2917 34.6646 25.2917C33.4875 28.0379 33.4136 31.132 34.4583 33.9313C32.2357 36.2658 31.0037 39.3704 31.0208 42.5938C31.0208 55.0146 38.5833 57.7417 45.7791 58.6354C45.0252 59.4145 44.4437 60.3436 44.0726 61.3623C43.7014 62.381 43.5489 63.4664 43.625 64.5479V73.4167M43.625 66.5417C32.1666 69.9792 32.1666 60.8125 27.5833 59.6667L43.625 66.5417Z" stroke="#171B25" stroke-width="2" stroke-linecap="round" stroke-linejoin="round"/>
</svg>
