<svg width="100" height="100" viewBox="0 0 100 100" fill="none" xmlns="http://www.w3.org/2000/svg">
<path d="M87.5 41.6667C87.5 70.8333 50 95.8333 50 95.8333C50 95.8333 12.5 70.8333 12.5 41.6667C12.5 31.721 16.4509 22.1828 23.4835 15.1502C30.5161 8.11754 40.0544 4.16666 50 4.16666C59.9456 4.16666 69.4839 8.11754 76.5165 15.1502C83.5491 22.1828 87.5 31.721 87.5 41.6667Z" fill="#FFBAC7" fill-opacity="0.62" stroke="#180B38" stroke-width="2" stroke-linecap="round" stroke-linejoin="round"/>
<path d="M35.1936 39.3428C35.44 39.1851 35.7269 39.1012 36.0199 39.1012C36.3129 39.1012 36.5997 39.1851 36.8462 39.3428C36.9229 39.3977 37.0102 39.4361 37.1026 39.4556C37.195 39.4751 37.2905 39.4753 37.383 39.4562C37.4755 39.4371 37.563 39.399 37.64 39.3445C37.7169 39.2899 37.7816 39.2201 37.83 39.1393C37.8784 39.0586 37.9095 38.9687 37.9212 38.8754C37.9329 38.7821 37.9249 38.6875 37.8979 38.5974C37.8709 38.5073 37.8254 38.4237 37.7643 38.3521C37.7031 38.2804 37.6277 38.2221 37.5428 38.181C37.0624 37.9419 36.5579 37.7985 36.0295 37.5929C35.501 37.7937 34.9822 37.9419 34.5162 38.1762C34.4352 38.2147 34.3633 38.2697 34.3049 38.3375C34.2465 38.4053 34.2031 38.4846 34.1773 38.5701C34.1515 38.6556 34.144 38.7456 34.1552 38.8342C34.1664 38.9228 34.1961 39.0081 34.2424 39.0846C34.2842 39.1673 34.3429 39.2403 34.4149 39.2989C34.4869 39.3575 34.5705 39.4003 34.6602 39.4247C34.7499 39.449 34.8437 39.4543 34.9356 39.4402C35.0275 39.4261 35.1154 39.3929 35.1936 39.3428Z" fill="#180B38"/>
<path d="M36.6733 43.6365C37.0348 44.0699 37.4874 44.4192 37.9992 44.6597C38.1546 44.7104 38.2846 44.8185 38.3623 44.9617C38.4401 45.1049 38.4597 45.2723 38.4171 45.4295C38.3787 45.7976 38.052 45.8359 37.8022 45.8454C37.5147 45.8451 37.2303 45.7865 36.9663 45.6733C36.5147 45.4964 36.1544 45.5633 35.9671 45.9124C35.9217 45.9958 35.8942 46.0876 35.8862 46.1821C35.8782 46.2766 35.8899 46.3717 35.9206 46.4615C35.9513 46.5513 36.0003 46.6338 36.0645 46.7038C36.1287 46.7739 36.2067 46.83 36.2937 46.8686C36.6618 47.0979 37.0835 47.2278 37.5174 47.2454C37.9513 47.263 38.3822 47.1677 38.7678 46.969C38.8775 46.9066 39.0017 46.8737 39.1281 46.8737C39.2545 46.8737 39.3787 46.9066 39.4884 46.969C39.844 47.155 40.2397 47.2521 40.6414 47.2521C41.0431 47.2521 41.4388 47.155 41.7944 46.969C42.318 46.7156 42.491 46.3427 42.2748 45.9506C42.0586 45.5586 41.7367 45.5251 41.1651 45.7068C40.7908 45.7954 40.4008 45.7954 40.0265 45.7068C39.916 45.7068 39.8151 45.353 39.8007 45.1522C39.8335 44.992 39.9285 44.8511 40.0649 44.7601C40.581 44.4625 41.0641 44.1115 41.5062 43.713C41.7203 43.4788 41.875 43.1971 41.9573 42.8913C42.0397 42.5855 42.0474 42.2645 41.9796 41.9551C41.9119 41.6458 41.7708 41.3571 41.5681 41.1131C41.3654 40.8691 41.1069 40.6769 40.8144 40.5526C40.2655 40.3452 39.6998 40.1852 39.1233 40.0745C38.5507 40.1878 37.9883 40.3478 37.4419 40.5526C37.1564 40.6725 36.9029 40.8569 36.7015 41.0914C36.5002 41.3258 36.3565 41.6037 36.2819 41.903C36.2072 42.2024 36.2038 42.5149 36.2717 42.8158C36.3397 43.1167 36.4771 43.3977 36.6733 43.6365ZM37.9704 41.8483C38.3364 41.6871 38.7157 41.5575 39.1041 41.461C39.4926 41.5542 39.8733 41.6773 40.2427 41.8292C40.3414 41.8672 40.4286 41.9296 40.4962 42.0107C40.5637 42.0917 40.6093 42.1886 40.6285 42.2922C40.6478 42.3957 40.6401 42.5024 40.6062 42.6021C40.5723 42.7019 40.5133 42.7913 40.4348 42.8619C40.287 43.073 40.0901 43.2454 39.8609 43.3645C39.6317 43.4835 39.377 43.5457 39.1185 43.5457C38.86 43.5457 38.6053 43.4835 38.3761 43.3645C38.1469 43.2454 37.95 43.073 37.8022 42.8619C37.4996 42.4603 37.538 42.0778 37.9704 41.8483Z" fill="#180B38"/>
<path d="M57.5806 44.8702C57.6345 44.7931 57.671 44.7054 57.6877 44.613C57.7043 44.5206 57.7006 44.4257 57.6769 44.3348C57.6531 44.2439 57.6099 44.1593 57.5501 44.0866C57.4904 44.014 57.4156 43.955 57.3308 43.9139C56.8331 43.7003 56.3248 43.512 55.8079 43.3497C55.3077 43.5121 54.8169 43.7021 54.3378 43.9187C54.252 43.9551 54.1751 44.0095 54.1123 44.0783C54.0495 44.147 54.0024 44.2284 53.9741 44.3169C53.9458 44.4054 53.9371 44.4989 53.9484 44.5911C53.9598 44.6833 53.991 44.772 54.04 44.851C54.0851 44.9318 54.1463 45.0025 54.2198 45.0589C54.2934 45.1153 54.3777 45.1561 54.4676 45.1789C54.5576 45.2018 54.6512 45.2061 54.7429 45.1916C54.8346 45.1772 54.9223 45.1443 55.0008 45.0949C55.2464 44.9348 55.5336 44.8496 55.8271 44.8496C56.1206 44.8496 56.4078 44.9348 56.6534 45.0949C56.7288 45.1416 56.8129 45.173 56.9007 45.187C56.9884 45.201 57.0781 45.1974 57.1645 45.1765C57.2508 45.1556 57.3321 45.1177 57.4036 45.0651C57.475 45.0125 57.5352 44.9462 57.5806 44.8702Z" fill="#180B38"/>
<path d="M41.4101 39.3335C41.6511 39.1802 41.9312 39.0988 42.2172 39.0988C42.5032 39.0988 42.7833 39.1802 43.0243 39.3335C43.1014 39.3885 43.1891 39.4268 43.282 39.4461C43.3748 39.4654 43.4707 39.4652 43.5634 39.4456C43.6562 39.4259 43.7438 39.3873 43.8207 39.332C43.8976 39.2768 43.9621 39.2062 44.01 39.1248C44.058 39.0434 44.0883 38.9529 44.0992 38.8591C44.11 38.7654 44.1011 38.6704 44.073 38.5802C44.0449 38.4901 43.9982 38.4068 43.9359 38.3356C43.8736 38.2644 43.7971 38.207 43.7113 38.1669C43.2309 37.9374 42.7504 37.7939 42.2028 37.5979C41.7049 37.7605 41.2158 37.9488 40.7375 38.1621C40.6502 38.2003 40.5724 38.2572 40.5096 38.3288C40.4469 38.4004 40.4008 38.4848 40.3747 38.5761C40.3485 38.6675 40.343 38.7634 40.3583 38.8571C40.3737 38.9509 40.4097 39.0401 40.4637 39.1184C40.5098 39.1963 40.5715 39.264 40.6448 39.3174C40.7182 39.3708 40.8017 39.4087 40.8903 39.4289C40.9789 39.449 41.0707 39.451 41.1601 39.4346C41.2495 39.4182 41.3346 39.3838 41.4101 39.3335Z" fill="#180B38"/>
<path d="M61.2222 45.0803C61.4554 44.9301 61.7274 44.8501 62.0052 44.8501C62.2831 44.8501 62.555 44.9301 62.7883 45.0803C62.8685 45.1365 62.9597 45.1751 63.056 45.1935C63.1523 45.212 63.2515 45.2098 63.3469 45.1872C63.4423 45.1646 63.5318 45.1221 63.6094 45.0624C63.687 45.0028 63.751 44.9274 63.7971 44.8412C63.8462 44.7584 63.8766 44.6659 63.8863 44.5702C63.896 44.4745 63.8847 44.3779 63.8531 44.287C63.8216 44.1961 63.7707 44.113 63.7038 44.0436C63.6369 43.9742 63.5556 43.9201 63.4657 43.885C62.9969 43.6782 62.5155 43.501 62.0244 43.3543C61.5345 43.5136 61.0534 43.6987 60.5832 43.9089C60.4938 43.9446 60.4133 43.9994 60.3475 44.0695C60.2817 44.1396 60.2322 44.2231 60.2024 44.3144C60.1726 44.4056 60.1633 44.5022 60.1752 44.5973C60.187 44.6925 60.2197 44.7839 60.2709 44.8652C60.3696 45.0178 60.5245 45.1259 60.7024 45.1661C60.8802 45.2063 61.0669 45.1755 61.2222 45.0803Z" fill="#180B38"/>
<path d="M79.8425 48.8482C79.6954 48.6239 79.4935 48.4405 79.2557 48.315C79.018 48.1896 78.7521 48.1263 78.483 48.131H69.1583C69.0478 46.8448 68.1975 45.6591 67.7171 44.5068C67.5974 44.2146 67.5291 43.9041 67.5153 43.5888C67.5014 41.6481 67.1369 39.7257 66.4392 37.9135C66.3807 37.6794 66.2505 37.4693 66.0667 37.3122C65.8828 37.1552 65.6544 37.0589 65.4131 37.0368C65.1718 37.0148 64.9296 37.068 64.7201 37.1891C64.5106 37.3102 64.3441 37.4931 64.2437 37.7126C63.8642 38.2816 63.4559 38.8315 63.0667 39.3861C61.7879 38.7068 60.3607 38.3514 58.9112 38.3514C57.4617 38.3514 56.0345 38.7068 54.7557 39.3861C54.3521 38.798 53.9486 38.2386 53.5643 37.6696C53.4577 37.4638 53.2933 37.2933 53.0912 37.1787C52.8891 37.0641 52.6579 37.0104 52.4257 37.0241C52.1835 37.0378 51.9525 37.1304 51.7685 37.2877C51.5844 37.4449 51.4575 37.6581 51.4072 37.8943C51.0416 39.0287 50.748 40.1849 50.5281 41.356C50.3071 42.886 50.3167 44.4542 49.6105 45.8982C49.4934 46.2057 49.4175 46.5272 49.3847 46.8544C49.3031 47.2847 49.2406 47.7198 49.1733 48.1406H46.9443L48.6977 45.1427C49.5192 45.0997 49.7931 44.9562 49.8123 44.4925C49.8315 44.0287 49.5865 43.8613 48.8515 43.6988V42.6612C49.5769 42.4891 49.8123 42.2883 49.8123 41.8771C49.8123 41.4659 49.5336 41.2842 48.7794 41.2077L47.7706 38.4298C47.7366 38.3115 47.7172 38.1895 47.7129 38.0665C47.6841 37.5501 47.6697 37.0289 47.6264 36.5125C47.5327 34.9968 47.192 33.5063 46.6176 32.0994C46.5482 31.8777 46.4136 31.6817 46.2312 31.5368C46.0488 31.392 45.827 31.3048 45.5943 31.2866C45.3733 31.2723 45.1528 31.3198 44.9575 31.4237C44.7622 31.5276 44.6001 31.6839 44.4894 31.8747C44.1002 32.458 43.6919 33.0318 43.2835 33.6199C42.0037 32.9385 40.5747 32.582 39.1232 32.582C37.6718 32.582 36.2427 32.9385 34.9629 33.6199C34.5401 33.0366 34.1558 32.4485 33.7331 31.8747C33.5715 31.6528 33.359 31.4725 33.1133 31.3488C32.9769 31.2916 32.8302 31.263 32.6822 31.2646C32.5343 31.2662 32.3882 31.298 32.2531 31.358C32.118 31.4181 31.9967 31.5051 31.8968 31.6138C31.7968 31.7224 31.7204 31.8503 31.6721 31.9895C31.0859 33.3415 30.7396 34.7845 30.6488 36.2544C30.658 36.9442 30.6082 37.6336 30.4999 38.3151C30.2453 39.2952 29.8177 40.2276 29.4526 41.2316C29.0587 41.203 28.5735 41.1886 28.463 41.7624C28.3285 42.4748 28.9434 42.5465 29.3854 42.6708V43.7131C29.2414 43.7254 29.0986 43.7478 28.9578 43.7801C28.7952 43.8126 28.6515 43.9063 28.5566 44.0417C28.4617 44.1771 28.423 44.3437 28.4486 44.5068C28.4472 44.5926 28.4643 44.6776 28.4989 44.7562C28.5335 44.8348 28.5846 44.905 28.6489 44.9622C28.7131 45.0193 28.789 45.062 28.8713 45.0874C28.9536 45.1128 29.0405 45.1202 29.1259 45.1092C29.6064 45.0471 29.7313 45.2718 29.8946 45.6495C30.1664 46.1955 30.4696 46.7255 30.8026 47.2369C30.9515 47.4951 31.1148 47.7533 31.3406 48.1071H21.6892C21.4194 48.1086 21.1542 48.1778 20.9183 48.3083C20.6825 48.4388 20.4835 48.6264 20.3398 48.8538C20.1961 49.0812 20.1124 49.341 20.0963 49.6091C20.0803 49.8772 20.1325 50.145 20.248 50.3878L30.1684 71.3201L30.2789 71.5496C30.423 71.7361 30.7017 71.7887 31.2061 71.7887H68.9277C69.4369 71.7887 69.7108 71.7361 69.8597 71.5496L69.9654 71.3201L79.9386 50.3878C80.055 50.1441 80.1072 49.8749 80.0904 49.6056C80.0736 49.3363 79.9883 49.0757 79.8425 48.8482ZM65.1949 38.7597H65.3439C65.56 39.716 65.7858 40.634 66.002 41.5711L65.8867 41.6141L64.2774 40.1128L65.1949 38.7597ZM52.4689 38.7597H52.6083C52.7716 38.9892 52.9253 39.2379 53.0887 39.4435L53.5691 40.1367L51.9549 41.6141H51.8348L52.4689 38.7597ZM52.6707 42.9577C53.3233 42.0901 54.1452 41.3626 55.0871 40.8187C56.029 40.2748 57.0715 39.9258 58.1522 39.7925C60.4581 39.5391 62.4134 40.3471 64.1044 41.8532C65.8289 43.3901 66.932 45.4993 67.2078 47.7868C67.2078 47.8872 67.2078 47.9971 67.2078 48.131H61.8753C61.6639 46.4671 60.1843 45.8312 58.5701 45.9412C57.1289 46.032 56.2305 46.7683 55.9951 48.131H50.5905C50.7416 46.2338 51.4669 44.4268 52.6707 42.9481V42.9577ZM60.3957 48.131H57.446C57.5613 47.6003 57.9888 47.3469 58.8103 47.3182C59.7135 47.2752 60.2275 47.5333 60.3957 48.131ZM45.4021 33.0079H45.5607C45.7769 33.9641 45.9979 34.8965 46.214 35.8432L46.118 35.8862L44.475 34.361C44.768 33.9354 45.0851 33.4764 45.4021 33.0079ZM32.6906 33.0079H32.8251L33.7859 34.3753L32.1813 35.8432L32.0468 35.8193C32.2582 34.879 32.4728 33.9386 32.6906 32.9983V33.0079ZM30.9995 44.961C31.9603 44.8558 32.8059 44.7602 33.6562 44.6789C34.3864 44.6024 34.7179 44.349 34.6602 43.8757C34.6026 43.4023 34.2807 43.235 33.5505 43.2972C32.6521 43.3832 31.7538 43.4836 30.8122 43.584V42.7808L33.5265 43.0581C33.6514 43.0581 33.7715 43.0916 33.8964 43.0963C33.9886 43.1049 34.0815 43.0952 34.1699 43.0678C34.2583 43.0404 34.3404 42.9958 34.4114 42.9367C34.4824 42.8776 34.5409 42.8051 34.5837 42.7233C34.6264 42.6416 34.6524 42.5522 34.6602 42.4604C34.6688 42.3689 34.6586 42.2767 34.6302 42.1892C34.6019 42.1018 34.556 42.021 34.4954 41.9517C34.4348 41.8824 34.3606 41.8261 34.2775 41.7861C34.1943 41.7462 34.1039 41.7235 34.0117 41.7193C33.1422 41.6237 32.2726 41.5376 31.3983 41.4468L30.9947 41.3942C31.5136 38.0473 34.3288 34.098 39.0464 34.0406C43.6487 33.9928 46.632 37.6935 47.2757 41.3894C46.5984 41.4659 45.921 41.5472 45.2388 41.6189C44.9313 41.6572 44.6239 41.6811 44.3212 41.7146C43.8408 41.7671 43.543 42.0732 43.591 42.4843C43.6037 42.5832 43.6372 42.6783 43.6894 42.7633C43.7416 42.8484 43.8112 42.9215 43.8938 42.978C43.9763 43.0344 44.0699 43.0728 44.1684 43.0908C44.2669 43.1087 44.3681 43.1057 44.4654 43.082C45.4262 42.9912 46.4254 42.8764 47.4535 42.7712V43.5697L45.0995 43.3497C44.8545 43.3497 44.6191 43.2972 44.3597 43.2876C44.2681 43.2742 44.1749 43.2795 44.0855 43.3031C43.996 43.3267 43.9124 43.3682 43.8396 43.425C43.7668 43.4818 43.7064 43.5527 43.662 43.6335C43.6176 43.7143 43.5902 43.8032 43.5814 43.8948C43.5722 43.9869 43.5818 44.0799 43.6098 44.1682C43.6378 44.2565 43.6835 44.3382 43.7441 44.4084C43.8047 44.4786 43.8791 44.5358 43.9626 44.5766C44.0461 44.6173 44.1371 44.6407 44.23 44.6455C44.9313 44.7363 45.6375 44.7985 46.3389 44.8654L47.2085 44.9706C46.5839 46.0464 45.993 47.0696 45.3973 48.088C45.4286 48.1159 45.4575 48.1463 45.4838 48.1788H45.0322C41.0929 48.1788 37.152 48.1788 33.2094 48.1788C33.1412 48.1897 33.0716 48.1871 33.0045 48.1711C32.9373 48.1551 32.874 48.126 32.8182 48.0856C32.7624 48.0451 32.7152 47.9941 32.6793 47.9354C32.6433 47.8768 32.6194 47.8116 32.6089 47.7437C32.4164 47.2967 32.1866 46.8665 31.9219 46.4576C31.6433 45.9699 31.3454 45.5109 30.9995 44.9515V44.961ZM69.9654 66.9548L69.4225 68.0641L68.6539 69.6275L68.2887 70.3734H31.8835L31.5184 69.6467L30.2117 66.9739L21.6892 49.5654L30.7017 49.6514H31.97L31.9315 49.5654H68.2407L68.2023 49.6562H69.4706L78.483 49.5654L69.9654 66.9548Z" fill="#180B38"/>
<path d="M53.353 31.3391C54.5973 31.5447 55.9088 31.7551 57.2251 31.846V34.2366C57.2213 34.4699 57.3108 34.6952 57.4738 34.8629C57.6369 35.0305 57.8602 35.1269 58.0947 35.1307C58.3291 35.1345 58.5555 35.0454 58.7239 34.8831C58.8924 34.7208 58.9892 34.4986 58.993 34.2653V31.8746C59.5551 31.8577 60.1154 31.8018 60.6696 31.7073V33.1751C60.6696 33.4085 60.7628 33.6322 60.9285 33.7972C61.0943 33.9622 61.3192 34.0549 61.5536 34.0549C61.788 34.0549 62.0129 33.9622 62.1786 33.7972C62.3444 33.6322 62.4375 33.4085 62.4375 33.1751V31.2387C62.8496 31.078 63.248 30.8845 63.6289 30.6602C64.2674 30.3261 64.8153 29.8433 65.226 29.2531C65.6367 28.6629 65.898 27.9827 65.9877 27.2703C66.0342 26.6087 65.8932 25.9473 65.5806 25.3616C65.2681 24.7758 64.7966 24.2891 64.2198 23.9569C63.6696 23.6359 63.0659 23.4156 62.4375 23.3066V17.8321C63.1485 17.8321 63.8788 17.8321 64.5754 17.8321C64.7929 17.8159 64.9963 17.7185 65.1448 17.5593C65.2932 17.4001 65.3757 17.191 65.3757 16.9738C65.3757 16.7567 65.2932 16.5476 65.1448 16.3884C64.9963 16.2292 64.7929 16.1318 64.5754 16.1156H62.4327V12.6683C62.4327 12.435 62.3396 12.2112 62.1738 12.0462C62.0081 11.8813 61.7832 11.7886 61.5488 11.7886C61.3143 11.7886 61.0895 11.8813 60.9237 12.0462C60.758 12.2112 60.6648 12.435 60.6648 12.6683V16.1443C60.1028 16.173 59.5407 16.2208 58.9882 16.3021V13.7441C58.9972 13.6234 58.981 13.5022 58.9408 13.3881C58.9005 13.2739 58.8371 13.1692 58.7543 13.0806C58.6716 12.9919 58.5714 12.9212 58.4599 12.8729C58.3485 12.8245 58.2282 12.7995 58.1067 12.7995C57.9851 12.7995 57.8648 12.8245 57.7534 12.8729C57.642 12.9212 57.5417 12.9919 57.459 13.0806C57.3763 13.1692 57.3128 13.2739 57.2726 13.3881C57.2323 13.5022 57.2162 13.6234 57.2251 13.7441V16.6941C55.2603 17.3014 53.3482 18.7883 53.2233 20.9973C53.2013 21.668 53.3824 22.3298 53.7431 22.8967C54.1037 23.4637 54.6273 23.9097 55.2458 24.1768C55.8732 24.4561 56.5414 24.6336 57.2251 24.7028V30.139C56.0769 30.0578 54.9288 29.8665 53.8094 29.6848C53.5886 29.6311 53.3555 29.6635 53.158 29.7756C52.9605 29.8877 52.8137 30.0708 52.7477 30.2873C52.6888 30.5066 52.7194 30.7402 52.8327 30.9373C52.9461 31.1343 53.1331 31.2787 53.353 31.3391ZM63.0092 25.2574C63.2573 25.3495 63.4835 25.4917 63.6738 25.675C63.864 25.8583 64.0142 26.0788 64.1147 26.3226C64.2153 26.5663 64.2642 26.8282 64.2583 27.0916C64.2524 27.3551 64.1919 27.6145 64.0805 27.8536C63.7255 28.5367 63.143 29.0758 62.4327 29.3788V25.0757C62.6292 25.122 62.8218 25.1827 63.0092 25.2574ZM59.6031 17.9803C59.9586 17.9468 60.3141 17.9229 60.6648 17.899V23.1584C60.1076 23.1584 59.5455 23.1584 58.9882 23.1584V18.0616L59.6031 17.9803ZM56.3268 22.7616C55.2458 22.3886 54.6453 21.4563 55.1113 20.3709C55.5371 19.5363 56.2624 18.8913 57.1435 18.5636H57.1963H57.2251V23.0484C56.9185 22.9747 56.6181 22.8772 56.3268 22.7568V22.7616ZM59.166 24.8175C59.6464 24.8175 60.1604 24.8175 60.6648 24.8175V29.9621L60.1124 30.0625C59.7397 30.1168 59.3645 30.1519 58.9882 30.1677V24.8079L59.166 24.8175Z" fill="#180B38"/>
<path d="M67.4 49.6608L67.3616 49.7516L67.7939 49.7421L67.4 49.6608Z" fill="#180B38"/>
<path d="M56.2161 58.879H52.8532V58.4009C52.8619 58.2893 52.8472 58.177 52.8102 58.0713C52.7732 57.9655 52.7146 57.8685 52.6382 57.7863C52.5617 57.7042 52.469 57.6386 52.3659 57.5938C52.2628 57.5489 52.1515 57.5258 52.039 57.5258C51.9264 57.5258 51.8151 57.5489 51.712 57.5938C51.6089 57.6386 51.5162 57.7042 51.4397 57.7863C51.3633 57.8685 51.3047 57.9655 51.2677 58.0713C51.2307 58.177 51.216 58.2893 51.2247 58.4009V58.879H48.9764V58.6113C48.985 58.4996 48.9703 58.3874 48.9333 58.2816C48.8963 58.1759 48.8377 58.0789 48.7613 57.9967C48.6848 57.9145 48.5921 57.849 48.489 57.8042C48.3859 57.7593 48.2746 57.7362 48.1621 57.7362C48.0495 57.7362 47.9382 57.7593 47.8351 57.8042C47.732 57.849 47.6393 57.9145 47.5629 57.9967C47.4864 58.0789 47.4278 58.1759 47.3908 58.2816C47.3538 58.3874 47.3392 58.4996 47.3478 58.6113V58.879H47.0691C46.8627 58.879 46.6648 58.9606 46.5188 59.1059C46.3729 59.2512 46.2909 59.4482 46.2909 59.6536C46.2909 59.859 46.3729 60.056 46.5188 60.2013C46.6648 60.3466 46.8627 60.4282 47.0691 60.4282H47.3478V63.0865H44.9457C44.7393 63.0865 44.5414 63.1681 44.3954 63.3134C44.2495 63.4587 44.1675 63.6557 44.1675 63.8611C44.1675 64.0665 44.2495 64.2635 44.3954 64.4088C44.5414 64.5541 44.7393 64.6357 44.9457 64.6357H47.3478V64.7791C47.3392 64.8908 47.3538 65.003 47.3908 65.1088C47.4278 65.2145 47.4864 65.3115 47.5629 65.3937C47.6393 65.4759 47.732 65.5414 47.8351 65.5862C47.9382 65.6311 48.0495 65.6542 48.1621 65.6542C48.2746 65.6542 48.3859 65.6311 48.489 65.5862C48.5921 65.5414 48.6848 65.4759 48.7613 65.3937C48.8377 65.3115 48.8963 65.2145 48.9333 65.1088C48.9703 65.003 48.985 64.8908 48.9764 64.7791V64.6357H51.2151C51.2376 64.8414 51.3387 65.0307 51.4973 65.1645C51.656 65.2983 51.8602 65.3664 52.0678 65.3547C52.2755 65.3431 52.4707 65.2526 52.6133 65.1019C52.7558 64.9512 52.8348 64.7518 52.834 64.5448V60.4282H56.1969C56.4033 60.4282 56.6012 60.3466 56.7472 60.2013C56.8931 60.056 56.9751 59.859 56.9751 59.6536C56.9751 59.4482 56.8931 59.2512 56.7472 59.1059C56.6012 58.9606 56.4033 58.879 56.1969 58.879H56.2161ZM51.2054 63.0865H48.9764V60.4282H51.2054V63.0865Z" fill="#180B38"/>
<path d="M40.6366 57.7318H36.3802V55.9292H38.7822C38.9886 55.9292 39.1866 55.8476 39.3325 55.7024C39.4785 55.5571 39.5605 55.3601 39.5605 55.1547C39.5605 54.9492 39.4785 54.7522 39.3325 54.607C39.1866 54.4617 38.9886 54.3801 38.7822 54.3801H36.3802V53.6629C36.3888 53.5513 36.3742 53.439 36.3371 53.3333C36.3001 53.2275 36.2416 53.1305 36.1651 53.0483C36.0886 52.9662 35.996 52.9006 35.8928 52.8558C35.7897 52.811 35.6784 52.7878 35.5659 52.7878C35.4534 52.7878 35.3421 52.811 35.2389 52.8558C35.1358 52.9006 35.0431 52.9662 34.9667 53.0483C34.8902 53.1305 34.8317 53.2275 34.7946 53.3333C34.7576 53.439 34.743 53.5513 34.7516 53.6629V54.3801H32.6522V52.3385C32.6522 52.1229 32.5662 51.9162 32.413 51.7638C32.2599 51.6113 32.0521 51.5257 31.8355 51.5257C31.6189 51.5257 31.4112 51.6113 31.258 51.7638C31.1049 51.9162 31.0188 52.1229 31.0188 52.3385V54.3801H29.6545C29.4481 54.3801 29.2501 54.4617 29.1042 54.607C28.9582 54.7522 28.8762 54.9492 28.8762 55.1547C28.8762 55.3601 28.9582 55.5571 29.1042 55.7024C29.2501 55.8476 29.4481 55.9292 29.6545 55.9292H31.0188V57.7318H30.4952C30.2888 57.7318 30.0908 57.8134 29.9449 57.9586C29.7989 58.1039 29.7169 58.3009 29.7169 58.5063C29.7169 58.7118 29.7989 58.9088 29.9449 59.054C30.0908 59.1993 30.2888 59.2809 30.4952 59.2809H31.0188V60.2037C31.0188 60.4193 31.1049 60.626 31.258 60.7784C31.4112 60.9309 31.6189 61.0165 31.8355 61.0165C32.0521 61.0165 32.2599 60.9309 32.413 60.7784C32.5662 60.626 32.6522 60.4193 32.6522 60.2037V59.2809H34.7516V59.826C34.743 59.9376 34.7576 60.0499 34.7946 60.1556C34.8317 60.2614 34.8902 60.3584 34.9667 60.4405C35.0431 60.5227 35.1358 60.5883 35.2389 60.6331C35.3421 60.6779 35.4534 60.7011 35.5659 60.7011C35.6784 60.7011 35.7897 60.6779 35.8928 60.6331C35.996 60.5883 36.0886 60.5227 36.1651 60.4405C36.2416 60.3584 36.3001 60.2614 36.3371 60.1556C36.3742 60.0499 36.3888 59.9376 36.3802 59.826V59.2809H40.6366C40.843 59.2809 41.041 59.1993 41.1869 59.054C41.3329 58.9088 41.4149 58.7118 41.4149 58.5063C41.4149 58.3009 41.3329 58.1039 41.1869 57.9586C41.041 57.8134 40.843 57.7318 40.6366 57.7318ZM34.7516 57.7318H32.6522V55.9292H34.7516V57.7318Z" fill="#180B38"/>
<path d="M67.6405 58.7742C67.8571 58.7742 68.0648 58.6886 68.218 58.5361C68.3711 58.3837 68.4572 58.177 68.4572 57.9614C68.4572 57.7458 68.3711 57.5391 68.218 57.3866C68.0648 57.2342 67.8571 57.1486 67.6405 57.1486H67.0976V52.9124C67.0976 52.707 67.0156 52.5099 66.8697 52.3647C66.7237 52.2194 66.5258 52.1378 66.3194 52.1378C66.113 52.1378 65.915 52.2194 65.7691 52.3647C65.6231 52.5099 65.5411 52.707 65.5411 52.9124V57.1486H63.73V54.7579C63.73 54.5525 63.648 54.3555 63.502 54.2102C63.3561 54.065 63.1581 53.9834 62.9517 53.9834C62.7453 53.9834 62.5474 54.065 62.4014 54.2102C62.2554 54.3555 62.1735 54.5525 62.1735 54.7579V57.1486H61.448C61.2314 57.1486 61.0237 57.2342 60.8705 57.3866C60.7174 57.5391 60.6313 57.7458 60.6313 57.9614C60.6313 58.177 60.7174 58.3837 60.8705 58.5361C61.0237 58.6886 61.2314 58.7742 61.448 58.7742H62.1735V60.8588H60.1221C59.9055 60.8588 59.6978 60.9445 59.5446 61.0969C59.3915 61.2493 59.3054 61.4561 59.3054 61.6716C59.3054 61.8872 59.3915 62.094 59.5446 62.2464C59.6978 62.3988 59.9055 62.4845 60.1221 62.4845H62.1735V63.8423C62.1735 64.0478 62.2554 64.2448 62.4014 64.39C62.5474 64.5353 62.7453 64.6169 62.9517 64.6169C63.1581 64.6169 63.3561 64.5353 63.502 64.39C63.648 64.2448 63.73 64.0478 63.73 63.8423V62.4749H65.7189C65.791 62.57 65.8842 62.6471 65.9914 62.7002C66.0985 62.7533 66.2165 62.7809 66.3362 62.7809C66.4559 62.7809 66.5739 62.7533 66.681 62.7002C66.7881 62.6471 66.8814 62.57 66.9535 62.4749H67.6405C67.8571 62.4749 68.0648 62.3893 68.218 62.2368C68.3711 62.0844 68.4572 61.8777 68.4572 61.6621C68.4572 61.4465 68.3711 61.2398 68.218 61.0873C68.0648 60.9349 67.8571 60.8493 67.6405 60.8493H67.0976V58.7742H67.6405ZM65.5363 58.7742V60.8588H63.73V58.7742H65.5363Z" fill="#180B38"/>
</svg>
