<svg width="100" height="100" viewBox="0 0 100 100" fill="none" xmlns="http://www.w3.org/2000/svg">
<path d="M87.5 41.6667C87.5 70.8333 50 95.8333 50 95.8333C50 95.8333 12.5 70.8333 12.5 41.6667C12.5 31.721 16.4509 22.1828 23.4835 15.1502C30.5161 8.11754 40.0544 4.16666 50 4.16666C59.9456 4.16666 69.4839 8.11754 76.5165 15.1502C83.5491 22.1828 87.5 31.721 87.5 41.6667Z" fill="#D2BDED" stroke="#180B38" stroke-width="2" stroke-linecap="round" stroke-linejoin="round"/>
<g clip-path="url(#clip0_433_123)">
<path d="M70.7174 68.0422C70.5228 67.3667 70.0582 66.777 69.4102 66.3827C68.7621 65.9885 67.9747 65.8165 67.1944 65.8988C66.7055 65.967 66.2296 66.0948 65.7801 66.2784C65.5335 66.3677 65.2768 66.4615 65.0252 66.5329L64.8188 66.5954L60.1885 61.0048L60.4804 60.7503C61.1699 60.1564 61.8796 59.5357 62.0507 58.6203C62.1535 58.1652 62.1347 57.6951 61.9957 57.2476C61.8568 56.8002 61.6015 56.3879 61.2504 56.0438C59.7406 54.5032 57.6469 55.1507 56.1672 55.9723L55.9306 56.1018L55.7746 55.9053C55.7348 55.8595 55.6979 55.8118 55.6639 55.7624C55.5882 55.6549 55.5023 55.5534 55.4072 55.4588L51.0336 51.5784C48.1413 49.0063 45.244 46.4313 42.3417 43.8533C41.9286 43.437 41.4024 43.1213 40.8131 42.936C40.2238 42.7508 39.591 42.7023 38.9746 42.795H38.8388C38.3703 42.8564 37.9064 42.9429 37.4497 43.054C37.144 43.1568 36.809 43.1689 36.495 43.0884C36.181 43.0078 35.9049 42.8391 35.7083 42.6074C35.2598 42.1633 34.7807 41.7443 34.2739 41.3527L34.1531 41.25C33.7875 40.9197 33.2967 40.7218 32.7759 40.6945C32.255 40.6673 31.7414 40.8127 31.3346 41.1026L31.1685 41.1964L30.8263 41.4063L29.2057 39.9684C27.8267 38.7404 26.4577 37.5169 25.0837 36.3068C24.8675 36.1238 24.6407 35.9509 24.4043 35.7888C24.3036 35.7218 24.208 35.6504 24.1174 35.5789H23.7148C23.2719 35.829 23.0353 36.0791 23.0001 36.3157C22.9649 36.5524 23.1561 36.8873 23.5738 37.2624C24.6408 38.218 25.7128 39.1646 26.7899 40.1158L27.6254 40.8615C28.2041 41.3795 28.788 41.9019 29.3718 42.411L29.5479 42.5673L29.407 42.7414C28.4508 43.956 28.5263 44.7508 29.6989 45.7868L29.8348 45.9208C29.9075 45.9948 29.9884 46.0621 30.0764 46.1217C31.4001 46.9121 31.7725 47.957 31.244 49.4037C30.7961 50.6362 31.1786 51.757 32.4117 52.8376C35.4113 55.4811 38.4059 58.1335 41.3955 60.7949L45.4218 64.3672L45.7792 64.6976L46.0812 64.9924L45.905 65.171C45.4982 65.5242 45.2015 65.9648 45.0436 66.45C44.8857 66.9351 44.8721 67.4483 45.0041 67.9395C45.1282 68.4453 45.3979 68.9139 45.7869 69.2997C46.1759 69.6855 46.6709 69.9754 47.2236 70.1409C47.7879 70.2988 48.3887 70.3242 48.9674 70.2147C49.546 70.1051 50.0828 69.8643 50.5252 69.5158C50.792 69.3148 51.0285 69.096 51.25 68.9174L51.6375 68.5959L51.8288 68.7209L56.7208 71.8869L58.1149 72.78L57.979 72.9854C57.0328 74.325 56.8919 75.3208 57.5059 76.3478C57.7425 76.7679 58.088 77.1323 58.5141 77.411C58.9402 77.6896 59.4347 77.8747 59.957 77.9509C60.5134 78.0223 61.081 77.9762 61.6136 77.8164C62.1462 77.6565 62.6287 77.3875 63.022 77.031C63.9431 76.2228 64.854 75.4145 65.765 74.6018C66.842 73.6463 67.9191 72.6862 69.0112 71.7395C69.8502 71.1144 70.4831 70.2998 70.8432 69.3818V68.3191C70.8459 68.3073 70.8459 68.2951 70.8432 68.2833C70.7888 68.2086 70.7464 68.1274 70.7174 68.0422V68.0422ZM61.8041 65.7202C62.3376 66.4034 62.8912 67.1134 63.475 67.7743L63.6361 67.9574L63.4448 68.1226L62.6446 68.7745L62.247 69.1005L62.0507 68.9264C60.373 67.423 58.6501 65.8884 56.8819 64.3226L56.6755 64.1395L58.7793 62.2953L58.9856 62.4918C60.0165 63.5026 60.9587 64.5819 61.8041 65.7202V65.7202ZM32.6482 45.952L32.4469 45.7779C31.9738 45.376 31.4756 44.9428 30.9823 44.5186L30.5948 44.1793L32.6482 42.3217L32.8596 42.5137C33.1264 42.7593 33.4082 43.0093 33.685 43.2683L34.5104 44.0096L34.7117 44.2016L34.4953 44.3757L32.8546 45.7734L32.6482 45.952ZM46.5996 63.108C42.3769 59.3526 38.0083 55.4722 33.7001 51.6766C33.4013 51.434 33.179 51.1263 33.0554 50.784C32.9319 50.4418 32.9112 50.0768 32.9955 49.7252C33.1748 48.3496 33.9139 47.0793 35.0741 46.153C36.0305 45.2923 37.2592 44.7098 38.5972 44.4829C39.941 44.2507 40.8519 44.599 41.6169 45.6618L41.7579 45.8448L41.5716 45.9922C41.3955 46.1396 41.2093 46.2824 41.0231 46.4387C40.6154 46.7736 40.1976 47.113 39.8101 47.4702C39.6583 47.5941 39.5654 47.7647 39.5504 47.9473C39.5355 48.1298 39.5995 48.3105 39.7296 48.4526C39.8182 48.5977 39.9617 48.7104 40.1348 48.7708C40.3079 48.8313 40.4995 48.8356 40.6758 48.7831C40.927 48.6993 41.1527 48.5648 41.3351 48.3901C41.6572 48.1133 41.9692 47.8141 42.2763 47.5238L42.7795 47.0773L42.9809 46.8853L45.2004 48.859L44.3196 49.6136L42.9003 50.8684L42.8299 50.9354C42.675 51.0646 42.5288 51.2018 42.392 51.3462C42.3087 51.4212 42.2429 51.5101 42.1984 51.6077C42.1538 51.7054 42.1314 51.8098 42.1323 51.9151C42.1332 52.0205 42.1575 52.1246 42.2038 52.2216C42.2501 52.3186 42.3175 52.4065 42.4021 52.4804C42.4867 52.5543 42.5869 52.6127 42.6969 52.6522C42.8069 52.6917 42.9246 52.7117 43.0433 52.7108C43.1621 52.71 43.2794 52.6884 43.3887 52.6474C43.498 52.6063 43.5972 52.5465 43.6804 52.4715C44.3599 51.8999 45.0293 51.3015 45.6936 50.7166L45.8698 50.5558C45.9584 50.4699 46.036 50.3755 46.1013 50.2745C46.1416 50.2209 46.1818 50.1629 46.2271 50.1093L46.4284 49.8503L47.1431 50.5156C47.6112 50.9622 48.049 51.3596 48.5574 51.8195L48.7587 52.0026L48.5423 52.1857C48.3661 52.3286 48.195 52.4759 48.0088 52.6322C47.6061 52.9582 47.1934 53.2931 46.7958 53.6503C46.646 53.7675 46.5492 53.9289 46.5232 54.1046C46.4973 54.2804 46.5441 54.4585 46.6549 54.6059C46.7385 54.7562 46.8794 54.8754 47.0526 54.9424C47.2257 55.0095 47.4201 55.0199 47.6011 54.9721C47.8316 54.9107 48.0398 54.7968 48.2051 54.6416C48.5876 54.3112 48.9499 53.9629 49.3123 53.628L49.9414 53.0386L52.1358 55.0569L51.9294 55.2311C51.7332 55.4052 51.5318 55.5838 51.3205 55.758C50.7316 56.2715 50.1276 56.7895 49.564 57.3566C49.3166 57.5832 49.1762 57.8851 49.1714 58.2005C49.2861 58.4729 49.5151 58.6954 49.8106 58.8212C50.1729 59.0088 50.5454 58.723 50.6913 58.5935C51.3054 58.0532 51.9093 57.5039 52.5384 56.9368L53.4997 56.075L54.6573 57.2807L54.466 57.4548C52.9562 58.7944 51.4161 60.134 49.8357 61.563L47.1884 63.9073L47.0072 63.6349L46.9368 63.5143C46.8833 63.4158 46.8175 63.3229 46.7405 63.2375L46.5996 63.108ZM49.5086 68.1628C49.349 68.3132 49.1575 68.434 48.945 68.5183C48.7324 68.6026 48.5032 68.6487 48.2705 68.654V68.654C48.0729 68.6525 47.8777 68.6153 47.6969 68.5446C47.516 68.474 47.3533 68.3714 47.2186 68.2432C47.073 68.1078 46.9601 67.9475 46.8868 67.7721C46.8134 67.5967 46.7812 67.4099 46.792 67.223C46.8028 67.0362 46.8565 66.8533 46.9498 66.6855C47.043 66.5177 47.1739 66.3685 47.3344 66.2471C50.74 63.2077 54.1574 60.1727 57.5865 57.1422C57.7975 56.9088 58.0958 56.7502 58.4273 56.6953C58.7589 56.6404 59.1016 56.6928 59.3933 56.8431C59.6625 57.0156 59.8972 57.2269 60.0878 57.4682C60.173 57.5798 60.2672 57.6858 60.3697 57.7852L60.5106 57.9281L60.4049 58.0889C60.3143 58.2229 60.2439 58.3524 60.1734 58.4729C60.0637 58.6946 59.9179 58.9007 59.7406 59.0847C56.3316 62.1181 52.9209 65.1442 49.5086 68.1628V68.1628ZM57.058 70.074C55.7525 69.3088 54.5096 68.4628 53.3387 67.5421L53.1071 67.3545L53.3286 67.1625L54.5063 66.1712L55.3015 65.5014L60.8478 70.4669L59.4688 71.6324L59.2675 71.4984C58.5478 71.0028 57.7777 70.5339 57.0328 70.074H57.058ZM69.0515 69.0201C68.9961 69.105 68.9408 69.1943 68.8905 69.2881C68.7722 69.5209 68.6144 69.7363 68.4224 69.9266C66.2079 71.9182 63.938 73.9186 61.7487 75.8566C61.4114 76.17 60.9485 76.3529 60.4603 76.3657C60.0728 76.3601 59.7025 76.2226 59.4261 75.9815C59.1497 75.7405 58.9884 75.4144 58.9756 75.0707C58.9804 74.8617 59.0323 74.6556 59.1282 74.4647C59.2242 74.2737 59.3622 74.1017 59.5342 73.9588C61.2152 72.4347 62.9029 70.9283 64.5974 69.4399L66.223 68.0065C66.4375 67.7758 66.7306 67.6132 67.0583 67.5431C67.386 67.473 67.7305 67.4993 68.0399 67.618C68.3129 67.7281 68.5491 67.8991 68.7255 68.1143C68.9019 68.3295 69.0125 68.5816 69.0465 68.846V68.9442L69.0515 69.0201Z" fill="#171B25"/>
<path d="M76.9229 28.4121C75.861 27.7333 74.7487 27.0724 73.6767 26.4562L73.0124 26.0677L72.0058 25.4828L71.0294 24.9023C70.1234 24.3664 69.1974 23.8306 68.2764 23.3171C67.761 23.0441 67.1526 22.9436 66.561 23.0337C65.9694 23.1238 65.4336 23.3985 65.0502 23.8083C64.5002 24.407 64.0037 25.043 63.5655 25.7105C63.3226 26.0586 63.194 26.4599 63.194 26.8693C63.194 27.2787 63.3226 27.6799 63.5655 28.028C63.6759 28.1709 63.7272 28.3432 63.7107 28.5157C63.6941 28.6883 63.6109 28.8504 63.4749 28.9747C63.2014 29.3107 62.8538 29.594 62.4533 29.8074C62.0527 30.0208 61.6075 30.1598 61.1447 30.2161C60.3314 30.3167 59.555 30.5815 58.8752 30.9903C58.1955 31.3991 57.6306 31.9408 57.224 32.5738C56.5546 33.5294 55.8299 34.4805 55.1303 35.4004C54.8283 35.7889 54.5314 36.1773 54.2344 36.5703L53.102 38.0796C52.3421 39.0843 51.5921 40.0845 50.8372 41.0937C50.4936 41.5525 50.2557 42.0671 50.1372 42.6079C50.0188 43.1486 50.0221 43.7048 50.147 44.2444C50.2719 44.784 50.5159 45.2964 50.865 45.7519C51.2141 46.2075 51.6614 46.5972 52.181 46.8987C53.5953 47.7427 55.0196 48.5777 56.4389 49.4172L58.5426 50.6853C59.0639 51.0238 59.6588 51.2624 60.2896 51.3858C60.9204 51.5093 61.5733 51.5149 62.2066 51.4023C62.84 51.2898 63.44 51.0615 63.9686 50.732C64.4971 50.4026 64.9426 49.9791 65.2767 49.4886C67.4811 46.5712 69.6755 43.6524 71.8598 40.732C72.1039 40.3982 72.3064 40.0419 72.4638 39.6693C72.8068 38.8058 72.835 37.8685 72.5443 36.99C72.4173 36.5601 72.3966 36.1108 72.4834 35.6731C72.5703 35.2353 72.7627 34.8194 73.0476 34.4537C73.1238 34.335 73.2401 34.2406 73.3801 34.1837C73.52 34.1268 73.6766 34.1103 73.8277 34.1367C74.2668 34.2087 74.7196 34.1737 75.138 34.0353C75.5564 33.8969 75.9246 33.6603 76.2032 33.3508C76.7805 32.7207 77.2863 32.0417 77.7131 31.3235C78.0114 30.8376 78.0958 30.2707 77.9498 29.7328C77.8038 29.1949 77.4379 28.7242 76.9229 28.4121V28.4121ZM57.6669 34.4135L64.5822 38.5038L59.972 44.6392L53.0567 40.5489L57.6669 34.4135ZM71.8497 33.5517C71.7843 33.6589 71.7239 33.7705 71.6585 33.8821C71.5019 34.1381 71.3624 34.402 71.2408 34.6725C70.8813 35.4599 70.8195 36.3296 71.0646 37.1508C71.2373 37.7075 71.2617 38.2922 71.1359 38.8587C71.0101 39.4252 70.7376 39.958 70.3399 40.415C68.9357 42.2458 67.5315 44.1168 66.1776 45.9297L64.0889 48.7072C63.6855 49.2772 63.0879 49.7182 62.3828 49.9664C61.7057 50.189 60.9611 50.189 60.284 49.9664C59.9281 49.8569 59.5897 49.7068 59.2775 49.5199C58.0695 48.8143 56.8667 48.1044 55.6588 47.3899L53.1423 45.894C51.728 45.0634 51.1845 43.8131 51.6878 42.4914C51.7431 42.3465 51.8157 42.2073 51.9042 42.0761C51.9394 42.0091 51.9797 41.9421 52.0149 41.8662L52.1357 41.6474L59.4737 45.9922C60.1834 46.412 60.5256 46.3495 60.9836 45.7198L66.1273 38.9235C66.5752 38.3207 66.5098 38.0037 65.8303 37.5839L58.5376 33.2704L58.6433 33.1007C58.882 32.7125 59.214 32.3756 59.6159 32.114C60.0177 31.8524 60.4795 31.6725 60.9685 31.5869C61.5998 31.4775 62.2194 31.3207 62.8206 31.1181C63.696 30.7821 64.424 30.2021 64.8942 29.4659L65.02 29.2739L71.9403 33.3686L71.8497 33.5517ZM76.1378 31.0868C75.856 31.4753 75.5641 31.8817 75.247 32.2701C75.1571 32.4136 75.0325 32.5376 74.882 32.6331C74.7315 32.7285 74.559 32.7931 74.3769 32.8222C74.1948 32.8513 74.0077 32.844 73.8292 32.8011C73.6507 32.7581 73.4851 32.6805 73.3445 32.5738L70.0781 30.6403L65.4025 27.8717C65.2376 27.7967 65.0937 27.6897 64.9816 27.5586C64.8695 27.4276 64.7919 27.2759 64.7547 27.1148C64.7175 26.9536 64.7216 26.7871 64.7667 26.6275C64.8117 26.4679 64.8966 26.3193 65.015 26.1928C65.2969 25.7998 65.5888 25.4158 65.8807 25.0362L66.0971 25.13L65.9008 25.0139C66.4746 24.2682 67.0936 24.1521 67.914 24.6477C68.7344 25.1434 69.6654 25.6793 70.5261 26.1838L73.118 27.7155L75.71 29.2515C76.5656 29.7561 76.7015 30.3232 76.1378 31.0868Z" fill="#171B25"/>
<path d="M64.874 42.9111C64.5721 43.3353 64.6073 43.7238 64.9747 43.9605C65.1197 44.0544 65.3003 44.0944 65.478 44.0721C65.602 44.046 65.7188 43.9982 65.8217 43.9315C65.9245 43.8648 66.0113 43.7805 66.0769 43.6836C66.6507 42.9334 67.1741 42.2502 67.6573 41.6117C68.226 40.8526 68.7394 40.156 69.2175 39.4862C69.3476 39.293 69.3908 39.0633 69.3383 38.8431C69.2006 38.6355 68.985 38.4775 68.7293 38.3966C68.4072 38.3028 68.1505 38.5306 67.9894 38.736C67.6321 39.1825 67.2848 39.6692 66.9376 40.1381L65.8907 41.5268C65.5585 41.9957 65.2163 42.4512 64.874 42.9111Z" fill="#171B25"/>
<path d="M64.1645 45.05C64.0403 44.9691 63.8879 44.9296 63.7341 44.9386C63.5804 44.9476 63.4351 45.0044 63.324 45.0991C62.821 45.6633 62.3667 46.2604 61.9651 46.8853C61.9003 47.0188 61.8943 47.1691 61.9484 47.3063C62.0024 47.4436 62.1126 47.5579 62.257 47.6265C62.3966 47.7027 62.5616 47.7336 62.724 47.7141C62.8864 47.6945 63.0361 47.6257 63.1478 47.5194C63.324 47.3452 63.485 47.1443 63.6511 46.9567C63.7165 46.8719 63.782 46.7915 63.8524 46.7111C63.9229 46.6307 63.9732 46.5325 64.0336 46.4477C64.1691 46.2601 64.2934 46.0663 64.4061 45.8672C64.4822 45.7312 64.5012 45.5756 64.4597 45.4283C64.4182 45.281 64.3189 45.1516 64.1796 45.0634L64.1645 45.05Z" fill="#171B25"/>
<path d="M57.8884 38.8208L57.6821 38.6556L57.4807 38.5618C57.3517 38.5003 57.219 38.4452 57.0831 38.3966C56.6906 38.2716 56.5345 38.285 56.3987 38.4457C56.2628 38.6065 56.2426 38.8565 56.454 39.1691C56.4857 39.2207 56.5265 39.2674 56.5748 39.3075C56.766 39.4379 56.9012 39.6224 56.9579 39.8303C57.0147 40.0382 56.9896 40.2571 56.8869 40.4507C56.8016 40.6996 56.8016 40.9654 56.8869 41.2143C56.896 41.255 56.9164 41.293 56.9463 41.325C56.9762 41.357 57.0146 41.3818 57.058 41.3973C57.1096 41.4129 57.1646 41.4178 57.2187 41.4116C57.2728 41.4054 57.3245 41.3883 57.37 41.3616C57.6967 41.2007 57.9711 40.9679 58.1668 40.6855C58.3625 40.4032 58.4729 40.0808 58.4873 39.7496C58.5377 39.3343 58.2307 39.0753 57.8884 38.8208Z" fill="#171B25"/>
<path d="M58.2759 37.7714H58.447C58.822 37.7082 59.1533 37.5155 59.3681 37.2356V37.2356C59.4038 37.187 59.4277 37.1324 59.4385 37.0752C59.4492 37.0179 59.4464 36.9594 59.4303 36.9031C59.4142 36.8469 59.3852 36.7943 59.345 36.7485C59.3049 36.7027 59.2544 36.6649 59.197 36.6372C59.0196 36.5442 58.8087 36.5154 58.6081 36.5569C58.4425 36.5787 58.2834 36.6294 58.1401 36.706C57.9967 36.7827 57.8718 36.8837 57.7726 37.0034C57.7222 37.0506 57.6839 37.107 57.6606 37.1687C57.6372 37.2303 57.6294 37.2958 57.6375 37.3604C57.6457 37.4251 57.6696 37.4874 57.7078 37.5429C57.7459 37.5985 57.7972 37.646 57.8582 37.6821C57.9827 37.7515 58.1294 37.7829 58.2759 37.7714Z" fill="#171B25"/>
<path d="M59.4234 38.9012C59.5458 38.9759 59.6929 39.0121 59.8411 39.0039C59.8981 39.0082 59.9553 39.0082 60.0123 39.0039C60.3608 38.9604 60.6775 38.8007 60.8981 38.5574V38.5574C60.9435 38.5074 60.9763 38.4494 60.9942 38.3873C61.0121 38.3251 61.0147 38.2602 61.0018 38.1971C60.9889 38.1339 60.9608 38.074 60.9195 38.0214C60.8781 37.9687 60.8245 37.9246 60.7622 37.892C60.6094 37.8015 60.4269 37.759 60.2438 37.7715C60.0741 37.7914 59.9106 37.8412 59.7628 37.9179C59.615 37.9945 59.486 38.0966 59.3831 38.218C59.1516 38.4948 59.1667 38.7181 59.4234 38.9012Z" fill="#171B25"/>
<path d="M60.1833 39.6023C59.9777 39.6392 59.7968 39.7467 59.6801 39.9014C59.4838 40.2051 59.6801 40.3971 59.8814 40.5444C60.0912 40.6511 60.3291 40.7066 60.5709 40.7052C60.6848 40.7056 60.7983 40.6921 60.9081 40.665C61.0094 40.6535 61.1068 40.6228 61.1936 40.575C61.2804 40.5273 61.3547 40.4635 61.4114 40.3882V40.3882C61.4506 40.3329 61.4758 40.2707 61.485 40.2059C61.4942 40.1411 61.4873 40.0753 61.4647 40.0132C61.4422 39.951 61.4045 39.894 61.3544 39.8461C61.3044 39.7983 61.243 39.7608 61.1748 39.7362C61.0289 39.6545 60.8655 39.6005 60.6949 39.5774C60.5242 39.5543 60.3501 39.5628 60.1833 39.6023V39.6023Z" fill="#171B25"/>
<path d="M60.4501 42.0761C60.6212 41.826 60.5558 41.6295 60.2337 41.4107C59.9548 41.2604 59.6215 41.2109 59.3026 41.2723C59.1951 41.2851 59.0918 41.3174 58.9991 41.3674C58.9064 41.4173 58.8264 41.4838 58.7641 41.5625C58.7238 41.6118 58.6952 41.6678 58.6802 41.7272C58.6652 41.7866 58.664 41.848 58.6767 41.9078C58.6894 41.9676 58.7158 42.0245 58.7542 42.0749C58.7926 42.1254 58.8422 42.1683 58.9 42.2011C59.1238 42.3281 59.3842 42.3948 59.6499 42.3931C59.7446 42.3933 59.8391 42.3843 59.9317 42.3663C60.0356 42.351 60.1349 42.3174 60.2239 42.2676C60.3129 42.2178 60.3898 42.1526 60.4501 42.0761V42.0761Z" fill="#171B25"/>
</g>
<defs>
<clipPath id="clip0_433_123">
<rect width="55" height="55" fill="white" transform="translate(23 23)"/>
</clipPath>
</defs>
</svg>
