<svg width="100" height="100" viewBox="0 0 100 100" fill="none" xmlns="http://www.w3.org/2000/svg">
<path d="M87.5 41.6667C87.5 70.8333 50 95.8333 50 95.8333C50 95.8333 12.5 70.8333 12.5 41.6667C12.5 31.721 16.4509 22.1828 23.4835 15.1502C30.5161 8.11754 40.0544 4.16666 50 4.16666C59.9456 4.16666 69.4839 8.11754 76.5165 15.1502C83.5491 22.1828 87.5 31.721 87.5 41.6667Z" fill="#92DEEA" stroke="#180B38" stroke-width="2" stroke-linecap="round" stroke-linejoin="round"/>
<g clip-path="url(#clip0_433_84)">
<path d="M77.0379 36.7462C75.6944 36.7462 74.3627 36.7462 73.0251 36.7462H69.5051V35.1803C69.5051 31.3447 69.5051 27.5111 69.5051 23.6794C69.5051 22.788 69.3291 22.612 68.4491 22.6062H62.5296H62.0016L61.0688 22.5534V21.4449C61.0688 21.1928 61.0688 20.964 61.0688 20.7236C61.0688 18.4422 59.6256 17.017 57.3728 17.0112C53.2661 16.9994 48.4085 16.9994 43.5333 16.9994C43.0485 16.973 42.5636 17.0493 42.1102 17.2231C41.6569 17.397 41.2454 17.6645 40.9026 18.0083C40.5598 18.3521 40.2935 18.7643 40.121 19.2181C39.9486 19.6718 39.8739 20.1569 39.9019 20.6415C39.9019 20.9054 39.9019 21.1693 39.9019 21.4567V22.6296H32.5861C31.6123 22.6296 31.4656 22.7821 31.4656 23.7615V36.7462H24.2261C23.0939 36.7462 23 36.84 23 37.9543V70.7502C23 71.9232 23.0704 71.9994 24.2496 71.9994H76.7504C77.9237 71.9994 77.9941 71.9291 77.9941 70.7502C77.9941 62.7741 77.9941 54.798 77.9941 46.8219C77.9941 43.7839 77.9941 40.7284 77.9941 37.6963C77.9941 36.9397 77.8005 36.7462 77.0379 36.7462ZM31.4245 70.545H24.4491V38.2006H31.4245V70.545ZM41.3333 20.8174C41.3333 19.2398 42.1547 18.4128 43.7211 18.4128C48.2384 18.4128 52.7557 18.4128 57.2731 18.4128C58.8395 18.4128 59.6667 19.2398 59.6667 20.8174V34.3709C59.6667 35.8958 58.8336 36.7169 57.32 36.7169H43.7504C42.1488 36.7169 41.3333 35.8899 41.3333 34.2771C41.3294 29.7964 41.3294 25.3098 41.3333 20.8174ZM68.0853 70.5508H55.3957H45.6043H32.9147V24.0958H39.9547V28.4416C39.9547 30.3946 39.9547 32.3534 39.9547 34.3064C39.9547 36.7403 41.3568 38.1361 43.7739 38.142C48.2677 38.142 52.7655 38.142 57.2672 38.142C59.6901 38.142 61.0864 36.7403 61.0923 34.3123C61.0923 32.3769 61.0923 30.4415 61.0923 28.5003V24.1193H68.1323L68.0853 70.5508ZM76.5451 70.5508H69.5872V38.1831H76.5451V70.5508Z" fill="#171B25"/>
<path d="M46.4138 28.6357C46.8949 28.6357 47.376 28.6357 47.8688 28.6357H49.4293V30.5183C49.4293 32.1077 49.6874 32.5182 49.8634 32.6707C49.93 32.7327 50.0087 32.7803 50.0944 32.8106C50.1802 32.8408 50.2713 32.8531 50.3621 32.8467H50.4853C51.2949 32.788 51.6586 32.4185 51.5765 30.5711C51.5765 30.2192 51.5765 29.8732 51.5765 29.5389V28.6475H52.8378C53.4714 28.6475 54.0698 28.6475 54.6858 28.6475C54.8309 28.6532 54.9757 28.629 55.111 28.5762C55.2463 28.5235 55.3692 28.4435 55.4722 28.3411C55.5752 28.2387 55.6559 28.1162 55.7094 27.9812C55.7628 27.8463 55.7878 27.7017 55.7829 27.5566C55.7707 27.2735 55.6488 27.0062 55.4429 26.8113C55.2371 26.6165 54.9634 26.5094 54.68 26.5127C54.3397 26.5127 54.0112 26.5127 53.7002 26.5127H51.5706V24.8295C51.5706 24.3896 51.5706 23.9615 51.5706 23.5392C51.5706 22.6009 51.025 22.4191 50.8549 22.3663C50.7042 22.31 50.5425 22.2898 50.3825 22.3071C50.2226 22.3244 50.069 22.3788 49.9338 22.466C49.7796 22.5819 49.6551 22.7326 49.5704 22.906C49.4858 23.0793 49.4434 23.2702 49.4469 23.463C49.4469 23.985 49.4469 24.548 49.4469 25.2987C49.4469 25.5802 49.4469 25.8852 49.4469 26.1667V26.5186H48.2266C47.6048 26.5186 47.0181 26.5186 46.4314 26.5186C46.1854 26.4955 45.9388 26.5567 45.732 26.692C45.5253 26.8273 45.3706 27.0287 45.2933 27.2634C45.2425 27.4119 45.2267 27.5701 45.247 27.7258C45.2674 27.8814 45.3234 28.0302 45.4106 28.1607C45.5299 28.3118 45.6825 28.4333 45.8566 28.5157C46.0306 28.5981 46.2213 28.6392 46.4138 28.6357V28.6357Z" fill="#171B25"/>
<path d="M49.6171 50.3296C49.6182 49.2225 49.2908 48.14 48.6763 47.219C48.0617 46.298 47.1877 45.5799 46.1648 45.1557C45.1419 44.7315 44.016 44.6203 42.9298 44.836C41.8436 45.0517 40.8458 45.5846 40.0627 46.3675C39.2796 47.1503 38.7465 48.1478 38.5307 49.2336C38.315 50.3195 38.4263 51.445 38.8506 52.4676C39.275 53.4902 39.9932 54.3639 40.9145 54.9783C41.8358 55.5926 42.9187 55.9199 44.0261 55.9187C45.508 55.9156 46.9283 55.3258 47.9761 54.2783C49.0239 53.2308 49.614 51.811 49.6171 50.3296V50.3296ZM40.1776 50.3296C40.1764 49.5684 40.4012 48.824 40.8233 48.1906C41.2455 47.5571 41.8462 47.0631 42.5493 46.771C43.2524 46.4789 44.0264 46.4019 44.7733 46.5496C45.5203 46.6974 46.2066 47.0634 46.7454 47.6012C47.2842 48.139 47.6513 48.8245 47.8003 49.571C47.9493 50.3175 47.8734 51.0913 47.5823 51.7947C47.2912 52.498 46.7979 53.0992 46.1649 53.5222C45.5319 53.9453 44.7875 54.171 44.0261 54.171C43.0064 54.171 42.0284 53.7665 41.3069 53.0463C40.5853 52.326 40.1791 51.349 40.1776 50.3296V50.3296Z" fill="#171B25"/>
<path d="M56.9563 44.7346C55.8494 44.7346 54.7673 45.0627 53.8469 45.6775C52.9265 46.2923 52.2091 47.1661 51.7855 48.1885C51.3619 49.2108 51.2511 50.3358 51.467 51.4211C51.683 52.5065 52.216 53.5034 52.9988 54.2859C53.7815 55.0683 54.7787 55.6012 55.8644 55.8171C56.9501 56.033 58.0754 55.9222 59.0981 55.4987C60.1208 55.0752 60.9949 54.3581 61.6099 53.438C62.2249 52.5179 62.5531 51.4362 62.5531 50.3296C62.5515 48.8462 61.9614 47.424 60.9121 46.375C59.8629 45.3261 58.4402 44.7361 56.9563 44.7346V44.7346ZM56.9563 54.171C56.1946 54.1722 55.4498 53.9474 54.816 53.5251C54.1822 53.1028 53.688 52.502 53.396 51.7987C53.104 51.0955 53.0273 50.3215 53.1756 49.5746C53.3239 48.8278 53.6905 48.1417 54.2291 47.6033C54.7677 47.0649 55.454 46.6983 56.2011 46.5501C56.9482 46.4018 57.7224 46.4785 58.4259 46.7704C59.1294 47.0623 59.7304 47.5564 60.1528 48.1899C60.5753 48.8235 60.8001 49.5682 60.799 50.3296C60.7974 51.3479 60.3921 52.3241 59.6718 53.0442C58.9515 53.7643 57.975 54.1695 56.9563 54.171V54.171Z" fill="#171B25"/>
<path d="M59.256 63.1735V61.4141L55.9179 61.3789L59.303 59.5432L58.464 58.0008L54.7328 60.0476C54.8948 59.4302 55.0182 58.8034 55.1024 58.1708C55.1306 57.9611 55.1133 57.7477 55.0515 57.5453C54.9898 57.3429 54.8851 57.1562 54.7446 56.9979C54.583 56.8116 54.3828 56.6626 54.1579 56.5614C53.933 56.4601 53.6888 56.4089 53.4422 56.4114H48.2736C48.0399 56.4088 47.8081 56.4538 47.5923 56.5435C47.3765 56.6332 47.1811 56.7659 47.0182 56.9334C46.8746 57.0808 46.7633 57.2566 46.6916 57.4495C46.6199 57.6424 46.5892 57.8481 46.6016 58.0535C46.6338 58.8707 46.7598 59.6814 46.9771 60.4698L43.2694 58.0535L42.3131 59.5197L45.44 61.5724L42.4304 61.6486L42.4774 63.4081L45.751 63.326L42.36 65.2555L43.2459 66.7686L48.9131 63.4667C49.4852 63.8947 50.1663 64.1529 50.8784 64.2116C51.324 64.213 51.7645 64.1178 52.1696 63.9325C52.5748 63.7472 52.9349 63.4762 53.2251 63.1383L58.4347 66.7334L59.4262 65.2907L56.311 63.1442L59.256 63.1735ZM50.9371 62.4639C50.8374 62.4639 48.6432 62.2527 48.3616 58.1767H53.3307C53.008 60.2939 52.2102 62.4639 50.9371 62.4639Z" fill="#171B25"/>
</g>
<defs>
<clipPath id="clip0_433_84">
<rect width="55" height="55" fill="white" transform="translate(23 17)"/>
</clipPath>
</defs>
</svg>
