<svg width="70" height="30" viewBox="0 0 70 30" fill="none" xmlns="http://www.w3.org/2000/svg">
<path d="M62.875 14.9792C62.8786 16.3541 62.5574 17.7103 61.9375 18.9375C61.2025 20.4081 60.0727 21.645 58.6744 22.5097C57.2762 23.3744 55.6648 23.8327 54.0208 23.8334C52.646 23.8369 51.2897 23.5157 50.0625 22.8959L46.0224 24.2426C45.2406 24.5032 44.4969 23.7594 44.7575 22.9777L46.1042 18.9375C45.4843 17.7103 45.1631 16.3541 45.1667 14.9792C45.1673 13.3352 45.6256 11.7238 46.4903 10.3256C47.355 8.92737 48.5919 7.7975 50.0625 7.06253C51.2897 6.44267 52.646 6.12145 54.0208 6.12503H54.5417C56.7129 6.24481 58.7636 7.16124 60.3012 8.69884C61.8388 10.2364 62.7552 12.2872 62.875 14.4584V14.9792Z" fill="#993789" stroke="#993789" stroke-width="1.5" stroke-linecap="round" stroke-linejoin="round"/>
<circle cx="50" cy="15" r="1" fill="white"/>
<circle cx="54" cy="15" r="1" fill="white"/>
<circle cx="58" cy="15" r="1" fill="white"/>
<rect width="70" height="30" rx="3" fill="#993789" fill-opacity="0.25"/>
<path d="M16.2074 13.1108H14.8778C14.8267 12.8267 14.7315 12.5767 14.5923 12.3608C14.4531 12.1449 14.2827 11.9616 14.081 11.8111C13.8793 11.6605 13.6534 11.5469 13.4034 11.4702C13.1563 11.3935 12.8935 11.3551 12.6151 11.3551C12.1122 11.3551 11.6619 11.4815 11.2642 11.7344C10.8693 11.9872 10.5568 12.358 10.3267 12.8466C10.0994 13.3352 9.9858 13.9318 9.9858 14.6364C9.9858 15.3466 10.0994 15.946 10.3267 16.4347C10.5568 16.9233 10.8707 17.2926 11.2685 17.5426C11.6662 17.7926 12.1136 17.9176 12.6108 17.9176C12.8864 17.9176 13.1477 17.8807 13.3949 17.8068C13.6449 17.7301 13.8707 17.6179 14.0724 17.4702C14.2741 17.3224 14.4446 17.142 14.5838 16.929C14.7259 16.7131 14.8239 16.4659 14.8778 16.1875L16.2074 16.1918C16.1364 16.6207 15.9986 17.0156 15.794 17.3764C15.5923 17.7344 15.3324 18.044 15.0142 18.3054C14.6989 18.5639 14.3381 18.7642 13.9318 18.9062C13.5256 19.0483 13.0824 19.1193 12.6023 19.1193C11.8466 19.1193 11.1733 18.9403 10.5824 18.5824C9.99148 18.2216 9.52557 17.706 9.18466 17.0355C8.84659 16.3651 8.67756 15.5653 8.67756 14.6364C8.67756 13.7045 8.84801 12.9048 9.18892 12.2372C9.52983 11.5668 9.99574 11.0526 10.5866 10.6946C11.1776 10.3338 11.8494 10.1534 12.6023 10.1534C13.0653 10.1534 13.4972 10.2202 13.8977 10.3537C14.3011 10.4844 14.6634 10.6776 14.9844 10.9332C15.3054 11.1861 15.571 11.4957 15.7812 11.8622C15.9915 12.2259 16.1335 12.642 16.2074 13.1108ZM18.9549 15.1136V19H17.6808V10.2727H18.9379V13.5199H19.0188C19.1722 13.1676 19.4066 12.8878 19.7219 12.6804C20.0373 12.473 20.4492 12.3693 20.9577 12.3693C21.4066 12.3693 21.7987 12.4616 22.1339 12.6463C22.4719 12.831 22.7333 13.1065 22.918 13.473C23.1055 13.8366 23.1992 14.2912 23.1992 14.8366V19H21.9251V14.9901C21.9251 14.5099 21.8015 14.1378 21.5543 13.8736C21.3072 13.6065 20.9634 13.473 20.5231 13.473C20.2219 13.473 19.9521 13.5369 19.7134 13.6648C19.4776 13.7926 19.2915 13.9801 19.1552 14.2273C19.0217 14.4716 18.9549 14.767 18.9549 15.1136ZM26.8043 19.1449C26.3896 19.1449 26.0146 19.0682 25.6793 18.9148C25.3441 18.7585 25.0785 18.5327 24.8825 18.2372C24.6893 17.9418 24.5927 17.5795 24.5927 17.1506C24.5927 16.7812 24.6637 16.4773 24.8058 16.2386C24.9478 16 25.1396 15.8111 25.381 15.6719C25.6225 15.5327 25.8924 15.4276 26.1907 15.3565C26.489 15.2855 26.793 15.2315 27.1026 15.1946C27.4947 15.1491 27.8129 15.1122 28.0572 15.0838C28.3015 15.0526 28.479 15.0028 28.5898 14.9347C28.7006 14.8665 28.756 14.7557 28.756 14.6023V14.5724C28.756 14.2003 28.6509 13.9119 28.4407 13.7074C28.2333 13.5028 27.9237 13.4006 27.5117 13.4006C27.0827 13.4006 26.7447 13.4957 26.4975 13.6861C26.2532 13.8736 26.0842 14.0824 25.9904 14.3125L24.793 14.0398C24.935 13.642 25.1424 13.321 25.4151 13.0767C25.6907 12.8295 26.0075 12.6506 26.3654 12.5398C26.7234 12.4261 27.0998 12.3693 27.4947 12.3693C27.756 12.3693 28.033 12.4006 28.3256 12.4631C28.6211 12.5227 28.8967 12.6335 29.1523 12.7955C29.4109 12.9574 29.6225 13.1889 29.7873 13.4901C29.9521 13.7884 30.0344 14.1761 30.0344 14.6534V19H28.7901V18.1051H28.739C28.6566 18.2699 28.533 18.4318 28.3683 18.5909C28.2035 18.75 27.9918 18.8821 27.7333 18.9872C27.4748 19.0923 27.1651 19.1449 26.8043 19.1449ZM27.0813 18.1222C27.4336 18.1222 27.7347 18.0526 27.9847 17.9134C28.2376 17.7741 28.4293 17.5923 28.56 17.3679C28.6935 17.1406 28.7603 16.8977 28.7603 16.6392V15.7955C28.7148 15.8409 28.6268 15.8835 28.4961 15.9233C28.3683 15.9602 28.2219 15.9929 28.0572 16.0213C27.8924 16.0469 27.7319 16.071 27.5756 16.0938C27.4194 16.1136 27.2887 16.1307 27.1836 16.1449C26.9364 16.1761 26.7106 16.2287 26.506 16.3026C26.3043 16.3764 26.1424 16.483 26.0202 16.6222C25.9009 16.7585 25.8413 16.9403 25.8413 17.1676C25.8413 17.483 25.9577 17.7216 26.1907 17.8835C26.4237 18.0426 26.7205 18.1222 27.0813 18.1222ZM34.7869 12.4545V13.4773H31.2116V12.4545H34.7869ZM32.1705 10.8864H33.4446V17.0781C33.4446 17.3253 33.4815 17.5114 33.5554 17.6364C33.6293 17.7585 33.7244 17.8423 33.8409 17.8878C33.9602 17.9304 34.0895 17.9517 34.2287 17.9517C34.331 17.9517 34.4205 17.9446 34.4972 17.9304C34.5739 17.9162 34.6335 17.9048 34.6761 17.8963L34.9062 18.9489C34.8324 18.9773 34.7273 19.0057 34.5909 19.0341C34.4545 19.0653 34.2841 19.0824 34.0795 19.0852C33.7443 19.0909 33.4318 19.0312 33.142 18.9062C32.8523 18.7812 32.6179 18.5881 32.4389 18.3267C32.2599 18.0653 32.1705 17.7372 32.1705 17.3423V10.8864Z" fill="#993789"/>
</svg>
