<svg width="70" height="30" viewBox="0 0 70 30" fill="none" xmlns="http://www.w3.org/2000/svg">
<rect width="70" height="30" rx="3" fill="#67C8E4" fill-opacity="0.25"/>
<path d="M7.125 13.8424C7.125 12.9166 7.55242 12.0427 8.28318 11.4744L14.6582 6.51602C15.7415 5.67343 17.2585 5.67343 18.3418 6.51602L24.7168 11.4744C25.4476 12.0427 25.875 12.9166 25.875 13.8424V23.8335C25.875 24.386 25.6555 24.9159 25.2648 25.3066C24.8741 25.6973 24.3442 25.9168 23.7917 25.9168H9.20833C8.6558 25.9168 8.12589 25.6973 7.73519 25.3066C7.34449 24.9159 7.125 24.386 7.125 23.8335V13.8424Z" fill="#67C8E4" stroke="#67C8E4" stroke-linecap="round" stroke-linejoin="round"/>
<path d="M12.3335 21.75H20.6668" stroke="white" stroke-linecap="round"/>
<path d="M32.9588 20V11.2727H34.2756V15.0653H38.6264V11.2727H39.9474V20H38.6264V16.1946H34.2756V20H32.9588ZM44.5199 20.1321C43.9063 20.1321 43.3707 19.9915 42.9134 19.7102C42.456 19.429 42.1009 19.0355 41.848 18.5298C41.5952 18.0241 41.4688 17.4332 41.4688 16.7571C41.4688 16.0781 41.5952 15.4844 41.848 14.9759C42.1009 14.4673 42.456 14.0724 42.9134 13.7912C43.3707 13.5099 43.9063 13.3693 44.5199 13.3693C45.1335 13.3693 45.669 13.5099 46.1264 13.7912C46.5838 14.0724 46.9389 14.4673 47.1918 14.9759C47.4446 15.4844 47.571 16.0781 47.571 16.7571C47.571 17.4332 47.4446 18.0241 47.1918 18.5298C46.9389 19.0355 46.5838 19.429 46.1264 19.7102C45.669 19.9915 45.1335 20.1321 44.5199 20.1321ZM44.5241 19.0625C44.9219 19.0625 45.2514 18.9574 45.5128 18.7472C45.7741 18.5369 45.9673 18.2571 46.0923 17.9077C46.2202 17.5582 46.2841 17.1733 46.2841 16.7528C46.2841 16.3352 46.2202 15.9517 46.0923 15.6023C45.9673 15.25 45.7741 14.9673 45.5128 14.7543C45.2514 14.5412 44.9219 14.4347 44.5241 14.4347C44.1236 14.4347 43.7912 14.5412 43.527 14.7543C43.2656 14.9673 43.071 15.25 42.9432 15.6023C42.8182 15.9517 42.7557 16.3352 42.7557 16.7528C42.7557 17.1733 42.8182 17.5582 42.9432 17.9077C43.071 18.2571 43.2656 18.5369 43.527 18.7472C43.7912 18.9574 44.1236 19.0625 44.5241 19.0625ZM48.9933 20V13.4545H50.2163V14.5199H50.2972C50.4336 14.1591 50.6566 13.8778 50.9663 13.6761C51.2759 13.4716 51.6467 13.3693 52.0785 13.3693C52.516 13.3693 52.8825 13.4716 53.1779 13.6761C53.4762 13.8807 53.6964 14.1619 53.8384 14.5199H53.9066C54.0629 14.1705 54.3114 13.892 54.6523 13.6847C54.9933 13.4744 55.3995 13.3693 55.8711 13.3693C56.4648 13.3693 56.9492 13.5554 57.3242 13.9276C57.7021 14.2997 57.891 14.8608 57.891 15.6108V20H56.6168V15.7301C56.6168 15.2869 56.4961 14.9659 56.2546 14.767C56.0131 14.5682 55.7248 14.4688 55.3896 14.4688C54.9748 14.4688 54.6523 14.5966 54.4222 14.8523C54.1921 15.1051 54.0771 15.4304 54.0771 15.8281V20H52.8072V15.6491C52.8072 15.294 52.6964 15.0085 52.4748 14.7926C52.2532 14.5767 51.9648 14.4688 51.6097 14.4688C51.3683 14.4688 51.1452 14.5327 50.9407 14.6605C50.739 14.7855 50.5756 14.9602 50.4506 15.1847C50.3285 15.4091 50.2674 15.669 50.2674 15.9645V20H48.9933ZM62.4197 20.1321C61.7749 20.1321 61.2195 19.9943 60.7536 19.7188C60.2905 19.4403 59.9325 19.0497 59.6797 18.5469C59.4297 18.0412 59.3047 17.4489 59.3047 16.7699C59.3047 16.0994 59.4297 15.5085 59.6797 14.9972C59.9325 14.4858 60.2848 14.0866 60.7365 13.7997C61.1911 13.5128 61.7223 13.3693 62.3303 13.3693C62.6996 13.3693 63.0575 13.4304 63.4041 13.5526C63.7507 13.6747 64.0618 13.8665 64.3374 14.1278C64.6129 14.3892 64.8303 14.7287 64.9893 15.1463C65.1484 15.5611 65.228 16.0653 65.228 16.6591V17.1108H60.0249V16.1562H63.9794C63.9794 15.821 63.9112 15.5241 63.7749 15.2656C63.6385 15.0043 63.4467 14.7983 63.1996 14.6477C62.9553 14.4972 62.6683 14.4219 62.3388 14.4219C61.9808 14.4219 61.6683 14.5099 61.4013 14.6861C61.1371 14.8594 60.9325 15.0866 60.7876 15.3679C60.6456 15.6463 60.5746 15.9489 60.5746 16.2756V17.0213C60.5746 17.4588 60.6513 17.831 60.8047 18.1378C60.9609 18.4446 61.1783 18.679 61.4567 18.8409C61.7351 19 62.0604 19.0795 62.4325 19.0795C62.674 19.0795 62.8942 19.0455 63.093 18.9773C63.2919 18.9062 63.4638 18.8011 63.6087 18.6619C63.7536 18.5227 63.8643 18.3509 63.9411 18.1463L65.147 18.3636C65.0504 18.7187 64.8771 19.0298 64.6271 19.2969C64.38 19.5611 64.0689 19.767 63.6939 19.9148C63.3217 20.0597 62.897 20.1321 62.4197 20.1321Z" fill="#67C8E4"/>
</svg>
