<svg width="70" height="30" viewBox="0 0 70 30" fill="none" xmlns="http://www.w3.org/2000/svg">
<rect width="70" height="30" rx="3" fill="#67C8E4" fill-opacity="0.25"/>
<path d="M26.8333 13.796C26.8333 19.0519 22.5035 23.2991 20.0859 25.2608C19.1546 26.0165 17.8574 26.0024 16.9384 25.2318C14.4902 23.1791 10.0249 18.7096 10.0249 13.4168C10.0249 10.9304 11.0126 8.92498 12.7708 7.16683C14.5289 5.40868 17.4583 5.0835 18.5 5.0835C19.5417 5.0835 22.3293 5.40868 24.0874 7.16683C25.8456 8.92498 26.8333 11.3096 26.8333 13.796Z" fill="#67C8E4" stroke="#67C8E4" stroke-linecap="round" stroke-linejoin="round"/>
<path d="M18.5 16.5415C20.2259 16.5415 21.625 15.1424 21.625 13.4165C21.625 11.6906 20.2259 10.2915 18.5 10.2915C16.7741 10.2915 15.375 11.6906 15.375 13.4165C15.375 15.1424 16.7741 16.5415 18.5 16.5415Z" fill="white" fill-opacity="0.25" stroke="#67C8E4" stroke-linecap="round" stroke-linejoin="round"/>
<path d="M32.9588 11.2727H34.5568L37.3352 18.0568H37.4375L40.2159 11.2727H41.8139V20H40.5611V13.6847H40.4801L37.9062 19.9872H36.8665L34.2926 13.6804H34.2116V20H32.9588V11.2727ZM45.5309 20.1449C45.1161 20.1449 44.7411 20.0682 44.4059 19.9148C44.0707 19.7585 43.805 19.5327 43.609 19.2372C43.4158 18.9418 43.3192 18.5795 43.3192 18.1506C43.3192 17.7812 43.3903 17.4773 43.5323 17.2386C43.6744 17 43.8661 16.8111 44.1076 16.6719C44.3491 16.5327 44.619 16.4276 44.9173 16.3565C45.2156 16.2855 45.5195 16.2315 45.8292 16.1946C46.2212 16.1491 46.5394 16.1122 46.7837 16.0838C47.0281 16.0526 47.2056 16.0028 47.3164 15.9347C47.4272 15.8665 47.4826 15.7557 47.4826 15.6023V15.5724C47.4826 15.2003 47.3775 14.9119 47.1673 14.7074C46.9599 14.5028 46.6502 14.4006 46.2383 14.4006C45.8093 14.4006 45.4712 14.4957 45.2241 14.6861C44.9798 14.8736 44.8107 15.0824 44.717 15.3125L43.5195 15.0398C43.6616 14.642 43.869 14.321 44.1417 14.0767C44.4173 13.8295 44.734 13.6506 45.092 13.5398C45.4499 13.4261 45.8263 13.3693 46.2212 13.3693C46.4826 13.3693 46.7596 13.4006 47.0522 13.4631C47.3477 13.5227 47.6232 13.6335 47.8789 13.7955C48.1374 13.9574 48.3491 14.1889 48.5138 14.4901C48.6786 14.7884 48.761 15.1761 48.761 15.6534V20H47.5167V19.1051H47.4656C47.3832 19.2699 47.2596 19.4318 47.0948 19.5909C46.93 19.75 46.7184 19.8821 46.4599 19.9872C46.2013 20.0923 45.8917 20.1449 45.5309 20.1449ZM45.8079 19.1222C46.1602 19.1222 46.4613 19.0526 46.7113 18.9134C46.9641 18.7741 47.1559 18.5923 47.2866 18.3679C47.4201 18.1406 47.4869 17.8977 47.4869 17.6392V16.7955C47.4414 16.8409 47.3533 16.8835 47.2227 16.9233C47.0948 16.9602 46.9485 16.9929 46.7837 17.0213C46.619 17.0469 46.4585 17.071 46.3022 17.0938C46.146 17.1136 46.0153 17.1307 45.9102 17.1449C45.663 17.1761 45.4371 17.2287 45.2326 17.3026C45.0309 17.3764 44.869 17.483 44.7468 17.6222C44.6275 17.7585 44.5678 17.9403 44.5678 18.1676C44.5678 18.483 44.6843 18.7216 44.9173 18.8835C45.1502 19.0426 45.4471 19.1222 45.8079 19.1222ZM50.4581 22.4545V13.4545H51.7024V14.5156H51.8089C51.8828 14.3793 51.9893 14.2216 52.1286 14.0426C52.2678 13.8636 52.4609 13.7074 52.7081 13.5739C52.9553 13.4375 53.282 13.3693 53.6882 13.3693C54.2166 13.3693 54.6882 13.5028 55.103 13.7699C55.5178 14.0369 55.843 14.4219 56.0788 14.9247C56.3175 15.4276 56.4368 16.0327 56.4368 16.7401C56.4368 17.4474 56.3189 18.054 56.0831 18.5597C55.8473 19.0625 55.5234 19.4503 55.1115 19.723C54.6996 19.9929 54.2294 20.1278 53.701 20.1278C53.3033 20.1278 52.978 20.0611 52.7251 19.9276C52.4751 19.794 52.2791 19.6378 52.1371 19.4588C51.995 19.2798 51.8857 19.1207 51.8089 18.9815H51.7322V22.4545H50.4581ZM51.7067 16.7273C51.7067 17.1875 51.7734 17.5909 51.907 17.9375C52.0405 18.2841 52.2337 18.5554 52.4865 18.7514C52.7393 18.9446 53.049 19.0412 53.4155 19.0412C53.7962 19.0412 54.1143 18.9403 54.37 18.7386C54.6257 18.5341 54.8189 18.2571 54.9496 17.9077C55.0831 17.5582 55.1499 17.1648 55.1499 16.7273C55.1499 16.2955 55.0845 15.9077 54.9538 15.5639C54.826 15.2202 54.6328 14.9489 54.3743 14.75C54.1186 14.5511 53.799 14.4517 53.4155 14.4517C53.0462 14.4517 52.7337 14.5469 52.478 14.7372C52.2251 14.9276 52.0334 15.1932 51.9027 15.5341C51.772 15.875 51.7067 16.2727 51.7067 16.7273ZM59.7692 20.1449C59.3544 20.1449 58.9794 20.0682 58.6442 19.9148C58.3089 19.7585 58.0433 19.5327 57.8473 19.2372C57.6541 18.9418 57.5575 18.5795 57.5575 18.1506C57.5575 17.7812 57.6286 17.4773 57.7706 17.2386C57.9126 17 58.1044 16.8111 58.3459 16.6719C58.5874 16.5327 58.8572 16.4276 59.1555 16.3565C59.4538 16.2855 59.7578 16.2315 60.0675 16.1946C60.4595 16.1491 60.7777 16.1122 61.022 16.0838C61.2663 16.0526 61.4439 16.0028 61.5547 15.9347C61.6655 15.8665 61.7209 15.7557 61.7209 15.6023V15.5724C61.7209 15.2003 61.6158 14.9119 61.4055 14.7074C61.1982 14.5028 60.8885 14.4006 60.4766 14.4006C60.0476 14.4006 59.7095 14.4957 59.4624 14.6861C59.218 14.8736 59.049 15.0824 58.9553 15.3125L57.7578 15.0398C57.8999 14.642 58.1072 14.321 58.38 14.0767C58.6555 13.8295 58.9723 13.6506 59.3303 13.5398C59.6882 13.4261 60.0646 13.3693 60.4595 13.3693C60.7209 13.3693 60.9979 13.4006 61.2905 13.4631C61.5859 13.5227 61.8615 13.6335 62.1172 13.7955C62.3757 13.9574 62.5874 14.1889 62.7521 14.4901C62.9169 14.7884 62.9993 15.1761 62.9993 15.6534V20H61.755V19.1051H61.7038C61.6214 19.2699 61.4979 19.4318 61.3331 19.5909C61.1683 19.75 60.9567 19.8821 60.6982 19.9872C60.4396 20.0923 60.13 20.1449 59.7692 20.1449ZM60.0462 19.1222C60.3984 19.1222 60.6996 19.0526 60.9496 18.9134C61.2024 18.7741 61.3942 18.5923 61.5249 18.3679C61.6584 18.1406 61.7251 17.8977 61.7251 17.6392V16.7955C61.6797 16.8409 61.5916 16.8835 61.4609 16.9233C61.3331 16.9602 61.1868 16.9929 61.022 17.0213C60.8572 17.0469 60.6967 17.071 60.5405 17.0938C60.3842 17.1136 60.2536 17.1307 60.1484 17.1449C59.9013 17.1761 59.6754 17.2287 59.4709 17.3026C59.2692 17.3764 59.1072 17.483 58.9851 17.6222C58.8658 17.7585 58.8061 17.9403 58.8061 18.1676C58.8061 18.483 58.9226 18.7216 59.1555 18.8835C59.3885 19.0426 59.6854 19.1222 60.0462 19.1222Z" fill="#67C8E4"/>
</svg>
