<svg width="70" height="30" viewBox="0 0 70 30" fill="none" xmlns="http://www.w3.org/2000/svg">
<path d="M6.0835 11.125C6.0835 9.46815 7.42664 8.125 9.0835 8.125H12.3335C13.4386 8.125 14.4984 8.56399 15.2798 9.34539C16.0612 10.1268 16.5002 11.1866 16.5002 12.2917V26.875C16.5002 26.0462 16.1709 25.2513 15.5849 24.6653C14.9988 24.0792 14.204 23.75 13.3752 23.75H9.08349C7.42664 23.75 6.0835 22.4069 6.0835 20.75V11.125Z" fill="#FFD43E" stroke="#FFD43E" stroke-linecap="round" stroke-linejoin="round"/>
<path d="M26.9167 11.125C26.9167 9.46815 25.5735 8.125 23.9167 8.125H20.6667C19.5616 8.125 18.5018 8.56399 17.7204 9.34539C16.939 10.1268 16.5 11.1866 16.5 12.2917V26.875C16.5 26.0462 16.8292 25.2513 17.4153 24.6653C18.0013 24.0792 18.7962 23.75 19.625 23.75H23.9167C25.5735 23.75 26.9167 22.4069 26.9167 20.75V11.125Z" fill="#FFD43E" stroke="#FFD43E" stroke-linecap="round" stroke-linejoin="round"/>
<rect x="9" y="11" width="6" height="1" fill="white"/>
<rect width="6" height="1" transform="matrix(-1 0 0 1 24 11)" fill="white"/>
<rect x="10" y="14" width="5" height="1" fill="white"/>
<rect width="5" height="1" transform="matrix(-1 0 0 1 23 14)" fill="white"/>
<rect x="8" y="17" width="7" height="1" fill="white"/>
<rect width="7" height="1" transform="matrix(-1 0 0 1 25 17)" fill="white"/>
<rect x="9" y="20" width="6" height="1" fill="white"/>
<rect width="6" height="1" transform="matrix(-1 0 0 1 24 20)" fill="white"/>
<rect width="70" height="30" rx="3" fill="#FFD43E" fill-opacity="0.25"/>
<path d="M32.9588 20V11.2727H36.1548C36.7741 11.2727 37.2869 11.375 37.6932 11.5795C38.0994 11.7812 38.4034 12.0554 38.6051 12.402C38.8068 12.7457 38.9077 13.1335 38.9077 13.5653C38.9077 13.929 38.8409 14.2358 38.7074 14.4858C38.5739 14.733 38.3949 14.9318 38.1705 15.0824C37.9489 15.2301 37.7045 15.3381 37.4375 15.4062V15.4915C37.7273 15.5057 38.0099 15.5994 38.2855 15.7727C38.5639 15.9432 38.794 16.1861 38.9759 16.5014C39.1577 16.8168 39.2486 17.2003 39.2486 17.652C39.2486 18.098 39.1435 18.4986 38.9332 18.8537C38.7259 19.206 38.4048 19.4858 37.9702 19.6932C37.5355 19.8977 36.9801 20 36.304 20H32.9588ZM34.2756 18.8707H36.1761C36.8068 18.8707 37.2585 18.7486 37.5312 18.5043C37.804 18.2599 37.9403 17.9545 37.9403 17.5881C37.9403 17.3125 37.8707 17.0597 37.7315 16.8295C37.5923 16.5994 37.3935 16.4162 37.1349 16.2798C36.8793 16.1435 36.5753 16.0753 36.223 16.0753H34.2756V18.8707ZM34.2756 15.0483H36.0398C36.3352 15.0483 36.6009 14.9915 36.8366 14.8778C37.0753 14.7642 37.2642 14.6051 37.4034 14.4006C37.5455 14.1932 37.6165 13.9489 37.6165 13.6676C37.6165 13.3068 37.4901 13.0043 37.2372 12.7599C36.9844 12.5156 36.5966 12.3935 36.0739 12.3935H34.2756V15.0483ZM41.9822 11.2727V20H40.7081V11.2727H41.9822ZM46.4535 20.1321C45.8398 20.1321 45.3043 19.9915 44.8469 19.7102C44.3896 19.429 44.0344 19.0355 43.7816 18.5298C43.5288 18.0241 43.4023 17.4332 43.4023 16.7571C43.4023 16.0781 43.5288 15.4844 43.7816 14.9759C44.0344 14.4673 44.3896 14.0724 44.8469 13.7912C45.3043 13.5099 45.8398 13.3693 46.4535 13.3693C47.0671 13.3693 47.6026 13.5099 48.06 13.7912C48.5174 14.0724 48.8725 14.4673 49.1254 14.9759C49.3782 15.4844 49.5046 16.0781 49.5046 16.7571C49.5046 17.4332 49.3782 18.0241 49.1254 18.5298C48.8725 19.0355 48.5174 19.429 48.06 19.7102C47.6026 19.9915 47.0671 20.1321 46.4535 20.1321ZM46.4577 19.0625C46.8555 19.0625 47.185 18.9574 47.4464 18.7472C47.7077 18.5369 47.9009 18.2571 48.0259 17.9077C48.1538 17.5582 48.2177 17.1733 48.2177 16.7528C48.2177 16.3352 48.1538 15.9517 48.0259 15.6023C47.9009 15.25 47.7077 14.9673 47.4464 14.7543C47.185 14.5412 46.8555 14.4347 46.4577 14.4347C46.0572 14.4347 45.7248 14.5412 45.4606 14.7543C45.1992 14.9673 45.0046 15.25 44.8768 15.6023C44.7518 15.9517 44.6893 16.3352 44.6893 16.7528C44.6893 17.1733 44.7518 17.5582 44.8768 17.9077C45.0046 18.2571 45.1992 18.5369 45.4606 18.7472C45.7248 18.9574 46.0572 19.0625 46.4577 19.0625ZM53.6712 22.5909C53.1513 22.5909 52.7038 22.5227 52.3288 22.3864C51.9567 22.25 51.6527 22.0696 51.4169 21.8452C51.1811 21.6207 51.005 21.375 50.8885 21.108L51.9837 20.6562C52.0604 20.7812 52.1626 20.9134 52.2905 21.0526C52.4212 21.1946 52.5973 21.3153 52.8189 21.4148C53.0433 21.5142 53.3317 21.5639 53.6839 21.5639C54.1669 21.5639 54.5661 21.446 54.8814 21.2102C55.1967 20.9773 55.3544 20.6051 55.3544 20.0938V18.8068H55.2734C55.1967 18.946 55.0859 19.1009 54.9411 19.2713C54.799 19.4418 54.603 19.5895 54.353 19.7145C54.103 19.8395 53.7777 19.902 53.3771 19.902C52.8601 19.902 52.3942 19.7812 51.9794 19.5398C51.5675 19.2955 51.2408 18.9361 50.9993 18.4616C50.7607 17.9844 50.6413 17.3977 50.6413 16.7017C50.6413 16.0057 50.7592 15.4091 50.995 14.9119C51.2337 14.4148 51.5604 14.0341 51.9751 13.7699C52.3899 13.5028 52.8601 13.3693 53.3857 13.3693C53.7919 13.3693 54.12 13.4375 54.37 13.5739C54.62 13.7074 54.8146 13.8636 54.9538 14.0426C55.0959 14.2216 55.2053 14.3793 55.282 14.5156H55.3757V13.4545H56.6243V20.1449C56.6243 20.7074 56.4936 21.169 56.2322 21.5298C55.9709 21.8906 55.6172 22.1577 55.1712 22.331C54.728 22.5043 54.228 22.5909 53.6712 22.5909ZM53.6584 18.8452C54.0249 18.8452 54.3345 18.7599 54.5874 18.5895C54.843 18.4162 55.0362 18.169 55.1669 17.848C55.3004 17.5241 55.3672 17.1364 55.3672 16.6847C55.3672 16.2443 55.3018 15.8565 55.1712 15.5213C55.0405 15.1861 54.8487 14.9247 54.5959 14.7372C54.343 14.5469 54.0305 14.4517 53.6584 14.4517C53.2749 14.4517 52.9553 14.5511 52.6996 14.75C52.4439 14.946 52.2507 15.2131 52.12 15.5511C51.9922 15.8892 51.9283 16.267 51.9283 16.6847C51.9283 17.1136 51.9936 17.4901 52.1243 17.8139C52.255 18.1378 52.4482 18.3906 52.7038 18.5724C52.9624 18.7543 53.2805 18.8452 53.6584 18.8452Z" fill="#FFD43E"/>
</svg>
