<svg width="25" height="25" viewBox="0 0 25 25" fill="none" xmlns="http://www.w3.org/2000/svg">
<path d="M2.0835 6.125C2.0835 4.46815 3.42664 3.125 5.0835 3.125H8.3335C9.43857 3.125 10.4984 3.56399 11.2798 4.34539C12.0612 5.12679 12.5002 6.1866 12.5002 7.29167V21.875C12.5002 21.0462 12.1709 20.2513 11.5849 19.6653C10.9988 19.0792 10.204 18.75 9.37516 18.75H5.08349C3.42664 18.75 2.0835 17.4069 2.0835 15.75V6.125Z" fill="#D9D9D9" stroke="#D9D9D9" stroke-linecap="round" stroke-linejoin="round"/>
<path d="M22.9167 6.125C22.9167 4.46815 21.5735 3.125 19.9167 3.125H16.6667C15.5616 3.125 14.5018 3.56399 13.7204 4.34539C12.939 5.12679 12.5 6.1866 12.5 7.29167V21.875C12.5 21.0462 12.8292 20.2513 13.4153 19.6653C14.0013 19.0792 14.7962 18.75 15.625 18.75H19.9167C21.5735 18.75 22.9167 17.4069 22.9167 15.75V6.125Z" fill="#D9D9D9" stroke="#D9D9D9" stroke-linecap="round" stroke-linejoin="round"/>
<rect x="5" y="6" width="6" height="1" fill="white"/>
<rect width="6" height="1" transform="matrix(-1 0 0 1 20 6)" fill="white"/>
<rect x="6" y="9" width="5" height="1" fill="white"/>
<rect width="5" height="1" transform="matrix(-1 0 0 1 19 9)" fill="white"/>
<rect x="4" y="12" width="7" height="1" fill="white"/>
<rect width="7" height="1" transform="matrix(-1 0 0 1 21 12)" fill="white"/>
<rect x="5" y="15" width="6" height="1" fill="white"/>
<rect width="6" height="1" transform="matrix(-1 0 0 1 20 15)" fill="white"/>
</svg>
