<svg width="25" height="25" viewBox="0 0 25 25" fill="none" xmlns="http://www.w3.org/2000/svg">
<path d="M20.8333 10.796C20.8333 16.0519 16.5035 20.2991 14.0859 22.2608C13.1546 23.0165 11.8574 23.0024 10.9384 22.2318C8.49023 20.1791 4.0249 15.7096 4.0249 10.4168C4.0249 7.93042 5.01263 5.92498 6.77078 4.16683C8.52894 2.40868 11.4583 2.0835 12.5 2.0835C13.5417 2.0835 16.3293 2.40868 18.0874 4.16683C19.8456 5.92498 20.8333 8.30955 20.8333 10.796Z" fill="#D9D9D9" stroke="#D9D9D9" stroke-linecap="round" stroke-linejoin="round"/>
<path d="M12.5 13.5415C14.2259 13.5415 15.625 12.1424 15.625 10.4165C15.625 8.69061 14.2259 7.2915 12.5 7.2915C10.7741 7.2915 9.375 8.69061 9.375 10.4165C9.375 12.1424 10.7741 13.5415 12.5 13.5415Z" fill="white" stroke="#D9D9D9" stroke-linecap="round" stroke-linejoin="round"/>
</svg>
