<svg width="70" height="30" viewBox="0 0 70 30" fill="none" xmlns="http://www.w3.org/2000/svg">
<path d="M60.8332 24.875V22.7917C60.8332 21.6866 60.3942 20.6268 59.6128 19.8454C58.8314 19.064 57.7716 18.625 56.6665 18.625H48.3332C47.2281 18.625 46.1683 19.064 45.3869 19.8454C44.6055 20.6268 44.1665 21.6866 44.1665 22.7917V24.875" fill="#FFD43D" stroke="#FFD43D" stroke-linecap="round" stroke-linejoin="round"/>
<path d="M52.4997 14.4583C54.8009 14.4583 56.6663 12.5929 56.6663 10.2917C56.6663 7.99048 54.8009 6.125 52.4997 6.125C50.1985 6.125 48.333 7.99048 48.333 10.2917C48.333 12.5929 50.1985 14.4583 52.4997 14.4583Z" fill="#FFD43D" stroke="#FFD43D" stroke-linecap="round" stroke-linejoin="round"/>
<rect width="70" height="30" rx="3" fill="#FFD43E" fill-opacity="0.25"/>
<path d="M5.95881 18V9.27273H9.0696C9.74858 9.27273 10.3111 9.39631 10.7571 9.64347C11.2031 9.89062 11.5369 10.2287 11.7585 10.6577C11.9801 11.0838 12.0909 11.5639 12.0909 12.098C12.0909 12.6349 11.9787 13.1179 11.7543 13.5469C11.5327 13.973 11.1974 14.3111 10.7486 14.5611C10.3026 14.8082 9.74148 14.9318 9.06534 14.9318H6.92614V13.8153H8.94602C9.375 13.8153 9.72301 13.7415 9.99006 13.5938C10.2571 13.4432 10.4531 13.2386 10.5781 12.9801C10.7031 12.7216 10.7656 12.4276 10.7656 12.098C10.7656 11.7685 10.7031 11.4759 10.5781 11.2202C10.4531 10.9645 10.2557 10.7642 9.9858 10.6193C9.71875 10.4744 9.36648 10.402 8.92898 10.402H7.27557V18H5.95881ZM16.2713 18.1321C15.6264 18.1321 15.071 17.9943 14.6051 17.7188C14.142 17.4403 13.7841 17.0497 13.5312 16.5469C13.2812 16.0412 13.1562 15.4489 13.1562 14.7699C13.1562 14.0994 13.2812 13.5085 13.5312 12.9972C13.7841 12.4858 14.1364 12.0866 14.5881 11.7997C15.0426 11.5128 15.5739 11.3693 16.1818 11.3693C16.5511 11.3693 16.9091 11.4304 17.2557 11.5526C17.6023 11.6747 17.9134 11.8665 18.1889 12.1278C18.4645 12.3892 18.6818 12.7287 18.8409 13.1463C19 13.5611 19.0795 14.0653 19.0795 14.6591V15.1108H13.8764V14.1562H17.831C17.831 13.821 17.7628 13.5241 17.6264 13.2656C17.4901 13.0043 17.2983 12.7983 17.0511 12.6477C16.8068 12.4972 16.5199 12.4219 16.1903 12.4219C15.8324 12.4219 15.5199 12.5099 15.2528 12.6861C14.9886 12.8594 14.7841 13.0866 14.6392 13.3679C14.4972 13.6463 14.4261 13.9489 14.4261 14.2756V15.0213C14.4261 15.4588 14.5028 15.831 14.6562 16.1378C14.8125 16.4446 15.0298 16.679 15.3082 16.8409C15.5866 17 15.9119 17.0795 16.2841 17.0795C16.5256 17.0795 16.7457 17.0455 16.9446 16.9773C17.1435 16.9062 17.3153 16.8011 17.4602 16.6619C17.6051 16.5227 17.7159 16.3509 17.7926 16.1463L18.9986 16.3636C18.902 16.7187 18.7287 17.0298 18.4787 17.2969C18.2315 17.5611 17.9205 17.767 17.5455 17.9148C17.1733 18.0597 16.7486 18.1321 16.2713 18.1321ZM20.4933 18V11.4545H21.7248V12.4943H21.793C21.9123 12.142 22.1225 11.8651 22.4237 11.6634C22.7276 11.4588 23.0714 11.3565 23.4549 11.3565C23.5344 11.3565 23.6282 11.3594 23.7362 11.3651C23.8469 11.3707 23.9336 11.3778 23.9961 11.3864V12.6051C23.945 12.5909 23.854 12.5753 23.7234 12.5582C23.5927 12.5384 23.462 12.5284 23.3313 12.5284C23.0302 12.5284 22.7617 12.5923 22.5259 12.7202C22.293 12.8452 22.1083 13.0199 21.9719 13.2443C21.8356 13.4659 21.7674 13.7187 21.7674 14.0028V18H20.4933ZM28.6005 11.4545V12.4773H24.9016V11.4545H28.6005ZM25.9158 18V10.696C25.9158 10.2869 26.0053 9.94744 26.1843 9.67756C26.3633 9.40483 26.6005 9.2017 26.896 9.06818C27.1914 8.93182 27.5124 8.86364 27.859 8.86364C28.1147 8.86364 28.3335 8.88494 28.5153 8.92756C28.6971 8.96733 28.832 9.00426 28.9201 9.03835L28.6218 10.0696C28.5621 10.0526 28.4854 10.0327 28.3917 10.0099C28.2979 9.98437 28.1843 9.97159 28.0508 9.97159C27.7411 9.97159 27.5195 10.0483 27.386 10.2017C27.2553 10.3551 27.19 10.5767 27.19 10.8665V18H25.9158ZM29.9151 18V11.4545H31.1893V18H29.9151ZM30.5586 10.4446C30.337 10.4446 30.1467 10.3707 29.9876 10.223C29.8313 10.0724 29.7532 9.89347 29.7532 9.68608C29.7532 9.47585 29.8313 9.29687 29.9876 9.14915C30.1467 8.99858 30.337 8.9233 30.5586 8.9233C30.7802 8.9233 30.9691 8.99858 31.1254 9.14915C31.2844 9.29687 31.364 9.47585 31.364 9.68608C31.364 9.89347 31.2844 10.0724 31.1254 10.223C30.9691 10.3707 30.7802 10.4446 30.5586 10.4446ZM34.1776 9.27273V18H32.9034V9.27273H34.1776Z" fill="#FFD43E"/>
</svg>
