<svg xmlns="http://www.w3.org/2000/svg" viewBox="0 0 600.74 129.35"><defs><style>.cls-1{fill:#171b25;}.cls-2{fill:#0f0d0e;}.cls-3{fill:#e3f2a9;}.cls-4{fill:#8ddbe8;}.cls-5{fill:#f7a2c7;}</style></defs><g id="Capa_2" data-name="Capa 2"><g id="Capa_1-2" data-name="Capa 1"><path class="cls-1" d="M290.13,32.44q8.25,8.34,8.25,25.49V93.81c0,3.5-1,6.22-3,8.18s-4.82,2.94-8.42,2.94a11,11,0,0,1-8.18-3.1,10.85,10.85,0,0,1-3.1-8V92.7a18.61,18.61,0,0,1-7.94,9.21,24.73,24.73,0,0,1-13,3.34,32,32,0,0,1-14.37-3.18,25,25,0,0,1-10.16-8.89,22.74,22.74,0,0,1-3.73-12.71q0-8.56,4.36-13.49t14.06-7.15q9.67-2.22,26.52-2.22h4.13V54.75q0-6.68-2.94-9.69t-9.77-3q-6.83,0-19.69,4.76a14.92,14.92,0,0,1-6.19,1.75,6.85,6.85,0,0,1-5.56-2.47,9.64,9.64,0,0,1-2.06-6.43,9,9,0,0,1,1.42-5.24,13.4,13.4,0,0,1,4.61-3.81,51.24,51.24,0,0,1,13.58-4.76,73.68,73.68,0,0,1,15.8-1.75Q281.86,24.1,290.13,32.44Zm-18.9,51.61q4.29-4.68,4.29-12.15V69.2h-2.7q-12.87,0-18,2.06a7.48,7.48,0,0,0-5.16,7.47A9.48,9.48,0,0,0,252.57,86,10.29,10.29,0,0,0,260,88.73,14.58,14.58,0,0,0,271.23,84.05Z"/><path class="cls-1" d="M204.88,29.27a34.18,34.18,0,0,1,12,14.49,50.68,50.68,0,0,1,4.29,21.41,49.55,49.55,0,0,1-4.29,21.25A33,33,0,0,1,205,100.51a31.82,31.82,0,0,1-17.64,4.93,30.46,30.46,0,0,1-14.14-3.26A23.43,23.43,0,0,1,163.43,93v25.81a9.87,9.87,0,0,1-3.13,7.64,11.76,11.76,0,0,1-8.27,2.87,12.68,12.68,0,0,1-8.83-3,10.17,10.17,0,0,1-3.35-7.95V35.72a10.89,10.89,0,0,1,3.2-8.2,11.69,11.69,0,0,1,8.51-3.1,11.42,11.42,0,0,1,8.43,3.1,11.07,11.07,0,0,1,3.12,8.2V37A24.16,24.16,0,0,1,173,27.52a30,30,0,0,1,14.37-3.42A30.91,30.91,0,0,1,204.88,29.27ZM193.25,81.49q4.53-5.65,4.53-16.32,0-10.83-4.53-16.79t-12.8-6q-8.28,0-12.81,5.81t-4.53,16.63q0,10.66,4.53,16.48t12.81,5.81Q188.72,87.14,193.25,81.49Z"/><path class="cls-1" d="M375.18,29.27a34.35,34.35,0,0,1,12.25,14.49,49.78,49.78,0,0,1,4.38,21.41,48.68,48.68,0,0,1-4.38,21.25,32,32,0,0,1-30.16,19,31.52,31.52,0,0,1-14.41-3.26A23.78,23.78,0,0,1,332.91,93v25.81a9.77,9.77,0,0,1-3.18,7.64,12.16,12.16,0,0,1-8.44,2.87,13.06,13.06,0,0,1-9-3,10.1,10.1,0,0,1-3.42-7.95V35.72a10.79,10.79,0,0,1,3.26-8.2,12.05,12.05,0,0,1,8.67-3.1,11.78,11.78,0,0,1,8.6,3.1,11,11,0,0,1,3.18,8.2V37a24.47,24.47,0,0,1,10-9.47,31.09,31.09,0,0,1,14.65-3.42A32,32,0,0,1,375.18,29.27ZM363.32,81.49q4.6-5.65,4.61-16.32,0-10.83-4.61-16.79t-13.06-6q-8.43,0-13.05,5.81t-4.62,16.63q0,10.66,4.62,16.48t13.05,5.81Q358.71,87.14,363.32,81.49Z"/><path class="cls-1" d="M468.6,83.33a10.3,10.3,0,0,1,2,6.51,8.64,8.64,0,0,1-1.59,5,13,13,0,0,1-4.44,3.89A56.74,56.74,0,0,1,452,103.42a53.4,53.4,0,0,1-13.18,1.83q-12.7,0-22.15-4.93a34.44,34.44,0,0,1-14.53-14q-5.08-9.13-5.08-21.52A44.13,44.13,0,0,1,402,43.63a36,36,0,0,1,13.66-14.37,38.25,38.25,0,0,1,19.85-5.16,36.27,36.27,0,0,1,18.66,4.69,32,32,0,0,1,12.46,13.33,43.86,43.86,0,0,1,4.45,20.25,7.63,7.63,0,0,1-1.67,5.32,6,6,0,0,1-4.68,1.83H420.24Q421.35,78.9,426,83.1t13.18,4.2a28.42,28.42,0,0,0,8.26-1.11,80.66,80.66,0,0,0,8.1-3c1.48-.63,2.91-1.19,4.28-1.66a11.34,11.34,0,0,1,3.66-.72A6.27,6.27,0,0,1,468.6,83.33ZM425.16,45c-2.75,2.92-4.39,7.12-4.92,12.63h30.65q-.48-8.41-4.21-12.71t-10.56-4.28A14.39,14.39,0,0,0,425.16,45Z"/><path class="cls-1" d="M529.36,89.84a9.08,9.08,0,0,1-1.47,13.37q-3.75,2.45-10.76,2l-4.56-.33Q484,102.56,484,75V42.72h-6.52q-5.37,0-8.15-2.37a8.38,8.38,0,0,1-2.77-6.76q0-4.56,2.77-6.93t8.15-2.37H484V11.58a11,11,0,0,1,3.35-8.48Q490.71,0,496.43,0t9,3.1a11.1,11.1,0,0,1,3.26,8.48V24.29h11.42q11.08,0,11.09,9.3a8.39,8.39,0,0,1-2.78,6.76q-2.77,2.37-8.31,2.37H508.65V76.8q0,4.89,2.29,7.41a9.54,9.54,0,0,0,6.68,2.86l4.57.32Q527.08,87.72,529.36,89.84Z"/><path class="cls-1" d="M551.23,103.66a36.3,36.3,0,0,1-12.18-5.08,9.63,9.63,0,0,1-3.55-3.81,11.61,11.61,0,0,1-1.23-5.4,9.37,9.37,0,0,1,2-6.12,6.14,6.14,0,0,1,4.94-2.46,11.84,11.84,0,0,1,4,.72c1.33.47,2.72,1,4.16,1.66a53.88,53.88,0,0,0,8.48,3.26,38.37,38.37,0,0,0,10.34,1.19c3.59,0,6.4-.58,8.4-1.75a5.3,5.3,0,0,0,3-4.76,4.92,4.92,0,0,0-1.31-3.57,12,12,0,0,0-4.86-2.46q-3.56-1.11-11.26-2.7-13.73-2.7-19.74-8.1t-6-15.09a21,21,0,0,1,4.24-12.86,28.28,28.28,0,0,1,11.64-9A41,41,0,0,1,569,24.1a48.21,48.21,0,0,1,12.95,1.75,40.4,40.4,0,0,1,11.26,4.92A9.87,9.87,0,0,1,598,39.66,10,10,0,0,1,596,46,6.1,6.1,0,0,1,591,48.56c-2.37,0-5.19-1-8.48-2.86a44,44,0,0,0-7-3.1,24.14,24.14,0,0,0-7.48-1,13.62,13.62,0,0,0-7.56,1.83,5.67,5.67,0,0,0-2.77,5A5.5,5.5,0,0,0,561,53.48q3.24,1.76,12.49,3.49,10.34,2.07,16.19,5a19.74,19.74,0,0,1,8.48,7.39,21.88,21.88,0,0,1,2.63,11.27,21.18,21.18,0,0,1-9,18q-9,6.66-24.13,6.67A74,74,0,0,1,551.23,103.66Z"/><ellipse class="cls-2" cx="95.46" cy="44.8" rx="9.15" ry="14.25"/><path class="cls-1" d="M75.48,84.19c-.67-.66-4.44-1.1-7.43.43a7.49,7.49,0,0,0-2.18,1.71l-7.05,7.92-4.31-9.69a3.58,3.58,0,0,0-.93-1.29C52,82,48.91,82.2,48.14,82.88a3,3,0,0,0-.43,1.67C47.48,88,49.33,92.86,52,95.92a11.62,11.62,0,0,0,7.49,4.29c1.57.17,7.08.16,12.26-7.09C74.83,88.85,75.79,85.13,75.48,84.19Zm0,0c-.67-.66-4.44-1.1-7.43.43a7.49,7.49,0,0,0-2.18,1.71l-7.05,7.92-4.31-9.69a3.58,3.58,0,0,0-.93-1.29C52,82,48.91,82.2,48.14,82.88a3,3,0,0,0-.43,1.67C47.48,88,49.33,92.86,52,95.92a11.62,11.62,0,0,0,7.49,4.29c1.57.17,7.08.16,12.26-7.09C74.83,88.85,75.79,85.13,75.48,84.19Zm0,0c-.67-.66-4.44-1.1-7.43.43a7.49,7.49,0,0,0-2.18,1.71l-7.05,7.92-4.31-9.69a3.58,3.58,0,0,0-.93-1.29C52,82,48.91,82.2,48.14,82.88a3,3,0,0,0-.43,1.67C47.48,88,49.33,92.86,52,95.92a11.62,11.62,0,0,0,7.49,4.29c1.57.17,7.08.16,12.26-7.09C74.83,88.85,75.79,85.13,75.48,84.19Zm0,0c-.67-.66-4.44-1.1-7.43.43a7.49,7.49,0,0,0-2.18,1.71l-7.05,7.92-4.31-9.69a3.58,3.58,0,0,0-.93-1.29C52,82,48.91,82.2,48.14,82.88a3,3,0,0,0-.43,1.67C47.48,88,49.33,92.86,52,95.92a11.62,11.62,0,0,0,7.49,4.29c1.57.17,7.08.16,12.26-7.09C74.83,88.85,75.79,85.13,75.48,84.19ZM113.61,0H15.75A15.75,15.75,0,0,0,0,15.74v28.4q7.11-.39,14.23-.34a243.78,243.78,0,0,1,47,4.86l-2.72,13.4a230.73,230.73,0,0,0-44.38-4.58c-4.7,0-9.43.09-14.15.36V113.6a15.75,15.75,0,0,0,15.75,15.75h97.86a15.75,15.75,0,0,0,15.74-15.75V15.74A15.74,15.74,0,0,0,113.61,0ZM87.42,92.93a39.77,39.77,0,0,1-4.52,8.15C80.65,104.23,72.7,114,60.54,114a21.31,21.31,0,0,1-2.5-.14A25,25,0,0,1,41.74,105c-5.06-5.77-8.15-14.33-7.69-21.3a15.71,15.71,0,0,1,5.08-11.07c5.93-5.18,16.23-5.23,22.76-.18A24.33,24.33,0,0,1,74,69.93c5.27.32,9.66,2.45,12.36,6C88.73,79,90.81,84.47,87.42,92.93Zm24.81-29.09c-4.29,5.64-10.4,8.89-16.77,8.89S83,69.48,78.7,63.84a31.62,31.62,0,0,1-6.07-19,31.65,31.65,0,0,1,6.07-19c4.29-5.64,10.4-8.88,16.76-8.88s12.48,3.24,16.77,8.88a31.65,31.65,0,0,1,6.07,19A31.62,31.62,0,0,1,112.23,63.84ZM68.05,84.62a7.49,7.49,0,0,0-2.18,1.71l-7.05,7.92-4.31-9.69a3.58,3.58,0,0,0-.93-1.29C52,82,48.91,82.2,48.14,82.88a3,3,0,0,0-.43,1.67C47.48,88,49.33,92.86,52,95.92a11.62,11.62,0,0,0,7.49,4.29c1.57.17,7.08.16,12.26-7.09,3.06-4.27,4-8,3.71-8.93C74.81,83.53,71,83.09,68.05,84.62Zm7.43-.43c-.67-.66-4.44-1.1-7.43.43a7.49,7.49,0,0,0-2.18,1.71l-7.05,7.92-4.31-9.69a3.58,3.58,0,0,0-.93-1.29C52,82,48.91,82.2,48.14,82.88a3,3,0,0,0-.43,1.67C47.48,88,49.33,92.86,52,95.92a11.62,11.62,0,0,0,7.49,4.29c1.57.17,7.08.16,12.26-7.09C74.83,88.85,75.79,85.13,75.48,84.19Zm0,0c-.67-.66-4.44-1.1-7.43.43a7.49,7.49,0,0,0-2.18,1.71l-7.05,7.92-4.31-9.69a3.58,3.58,0,0,0-.93-1.29C52,82,48.91,82.2,48.14,82.88a3,3,0,0,0-.43,1.67C47.48,88,49.33,92.86,52,95.92a11.62,11.62,0,0,0,7.49,4.29c1.57.17,7.08.16,12.26-7.09C74.83,88.85,75.79,85.13,75.48,84.19Z"/><path class="cls-3" d="M112.23,25.75c-4.29-5.64-10.4-8.88-16.77-8.88S83,20.11,78.7,25.75a31.65,31.65,0,0,0-6.07,19,31.62,31.62,0,0,0,6.07,19c4.29,5.64,10.4,8.89,16.76,8.89s12.48-3.25,16.77-8.89a31.62,31.62,0,0,0,6.07-19A31.65,31.65,0,0,0,112.23,25.75ZM95.46,59c-4.87,0-9.15-6.65-9.15-14.24s4.28-14.25,9.15-14.25,9.16,6.66,9.16,14.25S100.34,59,95.46,59Z"/><path class="cls-4" d="M86.39,75.94c-2.7-3.56-7.09-5.69-12.36-6A24.33,24.33,0,0,0,61.89,72.4c-6.53-5.05-16.83-5-22.76.18a15.71,15.71,0,0,0-5.08,11.07c-.46,7,2.63,15.53,7.69,21.3A25,25,0,0,0,58,113.81a21.31,21.31,0,0,0,2.5.14c12.16,0,20.11-9.72,22.36-12.87a39.77,39.77,0,0,0,4.52-8.15C90.81,84.47,88.73,79,86.39,75.94ZM71.77,93.12c-5.18,7.25-10.69,7.26-12.26,7.09A11.62,11.62,0,0,1,52,95.92c-2.69-3.06-4.54-8-4.31-11.37a3,3,0,0,1,.43-1.67c.77-.68,3.85-.93,5.44.39a3.58,3.58,0,0,1,.93,1.29l4.31,9.69,7.05-7.92a7.49,7.49,0,0,1,2.18-1.71c3-1.53,6.76-1.09,7.43-.43C75.79,85.13,74.83,88.85,71.77,93.12Z"/><path class="cls-5" d="M61.25,48.66l-2.72,13.4a230.73,230.73,0,0,0-44.38-4.58c-4.7,0-9.43.09-14.15.36V44.14q7.11-.39,14.23-.34A243.78,243.78,0,0,1,61.25,48.66Z"/></g></g></svg>