<svg xmlns="http://www.w3.org/2000/svg" viewBox="0 0 555.86 119.69"><defs><style>.cls-1{fill:#171b25;}.cls-2{fill:#0f0d0e;}</style></defs><g id="Capa_2" data-name="Capa 2"><g id="Capa_1-2" data-name="Capa 1"><path class="cls-1" d="M268.45,30q-7.63-7.72-23.51-7.72a68.36,68.36,0,0,0-14.62,1.62,47.33,47.33,0,0,0-12.56,4.4,12.37,12.37,0,0,0-4.26,3.53,8.28,8.28,0,0,0-1.32,4.85,9,9,0,0,0,1.9,5.95,6.38,6.38,0,0,0,5.15,2.28A13.69,13.69,0,0,0,225,43.31q11.91-4.41,18.23-4.4c4.21,0,7.21.92,9,2.78s2.72,4.85,2.72,9v2.65h-3.82q-15.59,0-24.54,2t-13,6.62c-2.71,3-4.05,7.19-4.05,12.48A21.09,21.09,0,0,0,213,86.22a23.3,23.3,0,0,0,9.41,8.22,29.47,29.47,0,0,0,13.3,3,23,23,0,0,0,12.05-3.09,17.34,17.34,0,0,0,7.34-8.53v1a10,10,0,0,0,2.86,7.42,10.22,10.22,0,0,0,7.57,2.87q5,0,7.79-2.72a10.07,10.07,0,0,0,2.8-7.57V53.6Q276.1,37.73,268.45,30ZM254.94,66.53a16,16,0,0,1-4,11.24,13.49,13.49,0,0,1-10.43,4.33,9.53,9.53,0,0,1-6.84-2.57A8.78,8.78,0,0,1,231,72.85a6.91,6.91,0,0,1,4.78-6.91Q240.53,64,252.44,64h2.5Z"/><path class="cls-1" d="M200.7,40.49a31.55,31.55,0,0,0-11.12-13.41,28.62,28.62,0,0,0-16.25-4.78A27.77,27.77,0,0,0,160,25.46a22.37,22.37,0,0,0-9.1,8.77V33.05A10.27,10.27,0,0,0,148,25.46a10.6,10.6,0,0,0-7.8-2.86,10.84,10.84,0,0,0-7.88,2.86,10.12,10.12,0,0,0-3,7.59v76.48a9.43,9.43,0,0,0,3.11,7.35,11.68,11.68,0,0,0,8.16,2.81,10.89,10.89,0,0,0,7.66-2.66,9.12,9.12,0,0,0,2.89-7.07V86.08a21.74,21.74,0,0,0,9,8.47,28.22,28.22,0,0,0,13.08,3A29.39,29.39,0,0,0,189.65,93a30.27,30.27,0,0,0,11-13,45.76,45.76,0,0,0,4-19.66A46.84,46.84,0,0,0,200.7,40.49ZM178.81,75.4q-4.19,5.22-11.84,5.23t-11.85-5.38q-4.2-5.39-4.19-15.24,0-10,4.19-15.39T167,39.24q7.67,0,11.84,5.53T183,60.3Q183,70.17,178.81,75.4Z"/><path class="cls-1" d="M358.5,40.49a31.89,31.89,0,0,0-11.35-13.41,29.59,29.59,0,0,0-16.57-4.78A28.74,28.74,0,0,0,317,25.46a22.6,22.6,0,0,0-9.28,8.77V33.05a10.12,10.12,0,0,0-2.95-7.59,10.92,10.92,0,0,0-7.95-2.86,11.19,11.19,0,0,0-8,2.86,10,10,0,0,0-3,7.59v76.48a9.34,9.34,0,0,0,3.17,7.35,12.09,12.09,0,0,0,8.33,2.81,11.23,11.23,0,0,0,7.8-2.66,9.06,9.06,0,0,0,2.95-7.07V86.08a22,22,0,0,0,9.2,8.47,29.23,29.23,0,0,0,13.33,3A29.65,29.65,0,0,0,358.5,80a45.18,45.18,0,0,0,4-19.66A46.24,46.24,0,0,0,358.5,40.49ZM336.18,75.4q-4.28,5.22-12.08,5.23T312,75.25q-4.27-5.39-4.27-15.24,0-10,4.27-15.39t12.08-5.38q7.8,0,12.08,5.53t4.27,15.53Q340.45,70.17,336.18,75.4Z"/><path class="cls-1" d="M428.82,74.75a10.55,10.55,0,0,0-3.38.67c-1.28.44-2.6,1-4,1.54A75.51,75.51,0,0,1,414,79.75a26.18,26.18,0,0,1-7.65,1q-7.92,0-12.19-3.89t-5.29-12.56H430a5.55,5.55,0,0,0,4.33-1.7,7,7,0,0,0,1.55-4.92A40.47,40.47,0,0,0,431.75,39a29.63,29.63,0,0,0-11.53-12.33A33.5,33.5,0,0,0,403,22.3a35.43,35.43,0,0,0-18.37,4.77A33.46,33.46,0,0,0,372,40.37a40.78,40.78,0,0,0-4.55,19.54q0,11.48,4.7,19.91a31.84,31.84,0,0,0,13.44,13A43.74,43.74,0,0,0,406,97.39a49.26,49.26,0,0,0,12.19-1.7,52.26,52.26,0,0,0,11.61-4.33,11.86,11.86,0,0,0,4.12-3.6,8,8,0,0,0,1.46-4.63,9.58,9.58,0,0,0-1.83-6A5.8,5.8,0,0,0,428.82,74.75ZM393.41,41.62a13.28,13.28,0,0,1,10.13-4c4.22,0,7.47,1.32,9.78,4s3.6,6.57,3.89,11.76H388.85C389.34,48.21,390.85,44.32,393.41,41.62Z"/><path class="cls-1" d="M489.82,83.13c-1.41-1.31-3.63-2.07-6.64-2.27L479,80.57a8.89,8.89,0,0,1-6.19-2.65c-1.41-1.56-2.11-3.84-2.11-6.86V39.53h10.56c3.42,0,6-.73,7.7-2.19a7.81,7.81,0,0,0,2.56-6.26q0-8.61-10.26-8.6H470.66V10.71a10.28,10.28,0,0,0-3-7.84C465.63,1,462.86,0,459.34,0S453,1,451,2.87a10.15,10.15,0,0,0-3.09,7.84V22.48h-6c-3.33,0-5.84.73-7.55,2.19a8,8,0,0,0-2.57,6.41,7.79,7.79,0,0,0,2.57,6.26c1.71,1.46,4.22,2.19,7.55,2.19h6V69.4q0,25.48,26.4,27.61l4.23.3q6.48.45,9.95-1.81a8.4,8.4,0,0,0,1.36-12.37Z"/><path class="cls-1" d="M553.44,64.18a18.28,18.28,0,0,0-7.85-6.83,61.59,61.59,0,0,0-15-4.64Q522,51.11,519,49.48a5.08,5.08,0,0,1-3-4.7,5.26,5.26,0,0,1,2.58-4.62,12.53,12.53,0,0,1,7-1.7,22.19,22.19,0,0,1,6.92,1,40.36,40.36,0,0,1,6.5,2.87c3,1.75,5.66,2.64,7.85,2.64a5.62,5.62,0,0,0,4.57-2.35,9.25,9.25,0,0,0,1.85-5.88,9.12,9.12,0,0,0-4.42-8.23,37.47,37.47,0,0,0-10.42-4.55,44.74,44.74,0,0,0-12-1.62,37.87,37.87,0,0,0-15.41,3,26.14,26.14,0,0,0-10.77,8.3,19.44,19.44,0,0,0-3.93,11.9q0,9,5.57,14T520.18,67q7.14,1.47,10.42,2.5a11,11,0,0,1,4.5,2.28,4.56,4.56,0,0,1,1.21,3.3,4.9,4.9,0,0,1-2.79,4.4c-1.85,1.09-4.44,1.62-7.77,1.62a35.54,35.54,0,0,1-9.56-1.1,50,50,0,0,1-7.85-3c-1.34-.59-2.61-1.1-3.85-1.54a11,11,0,0,0-3.71-.67A5.65,5.65,0,0,0,496.22,77a8.69,8.69,0,0,0-1.86,5.66,10.86,10.86,0,0,0,1.13,5,8.94,8.94,0,0,0,3.29,3.53,33.79,33.79,0,0,0,11.28,4.7,68.34,68.34,0,0,0,15.12,1.47q14,0,22.33-6.17a19.64,19.64,0,0,0,8.35-16.61A20.35,20.35,0,0,0,553.44,64.18Z"/><path class="cls-2" d="M96.8,41.45c0,7-4,13.18-8.46,13.18s-8.47-6.15-8.47-13.18,3.95-13.18,8.47-13.18S96.8,34.43,96.8,41.45Z"/><path class="cls-1" d="M69.84,77.9c-.61-.61-4.1-1-6.87.4a7,7,0,0,0-2,1.58l-6.52,7.33-4-9a3.33,3.33,0,0,0-.86-1.19c-1.47-1.22-4.31-1-5-.36a2.88,2.88,0,0,0-.39,1.54c-.21,3.17,1.5,7.69,4,10.52a10.69,10.69,0,0,0,6.93,4c1.45.16,6.55.15,11.35-6.56C69.24,82.21,70.13,78.77,69.84,77.9Zm0,0c-.61-.61-4.1-1-6.87.4a7,7,0,0,0-2,1.58l-6.52,7.33-4-9a3.33,3.33,0,0,0-.86-1.19c-1.47-1.22-4.31-1-5-.36a2.88,2.88,0,0,0-.39,1.54c-.21,3.17,1.5,7.69,4,10.52a10.69,10.69,0,0,0,6.93,4c1.45.16,6.55.15,11.35-6.56C69.24,82.21,70.13,78.77,69.84,77.9Zm0,0c-.61-.61-4.1-1-6.87.4a7,7,0,0,0-2,1.58l-6.52,7.33-4-9a3.33,3.33,0,0,0-.86-1.19c-1.47-1.22-4.31-1-5-.36a2.88,2.88,0,0,0-.39,1.54c-.21,3.17,1.5,7.69,4,10.52a10.69,10.69,0,0,0,6.93,4c1.45.16,6.55.15,11.35-6.56C69.24,82.21,70.13,78.77,69.84,77.9Zm0,0c-.61-.61-4.1-1-6.87.4a7,7,0,0,0-2,1.58l-6.52,7.33-4-9a3.33,3.33,0,0,0-.86-1.19c-1.47-1.22-4.31-1-5-.36a2.88,2.88,0,0,0-.39,1.54c-.21,3.17,1.5,7.69,4,10.52a10.69,10.69,0,0,0,6.93,4c1.45.16,6.55.15,11.35-6.56C69.24,82.21,70.13,78.77,69.84,77.9Zm0,0c-.61-.61-4.1-1-6.87.4a7,7,0,0,0-2,1.58l-6.52,7.33-4-9a3.33,3.33,0,0,0-.86-1.19c-1.47-1.22-4.31-1-5-.36a2.88,2.88,0,0,0-.39,1.54c-.21,3.17,1.5,7.69,4,10.52a10.69,10.69,0,0,0,6.93,4c1.45.16,6.55.15,11.35-6.56C69.24,82.21,70.13,78.77,69.84,77.9Zm0,0c-.61-.61-4.1-1-6.87.4a7,7,0,0,0-2,1.58l-6.52,7.33-4-9a3.33,3.33,0,0,0-.86-1.19c-1.47-1.22-4.31-1-5-.36a2.88,2.88,0,0,0-.39,1.54c-.21,3.17,1.5,7.69,4,10.52a10.69,10.69,0,0,0,6.93,4c1.45.16,6.55.15,11.35-6.56C69.24,82.21,70.13,78.77,69.84,77.9ZM105.12,0H14.57A14.57,14.57,0,0,0,0,14.57V40.84c4.39-.24,8.79-.34,13.17-.31A225.48,225.48,0,0,1,56.67,45l-2.51,12.4a214,214,0,0,0-41.07-4.23q-6.52,0-13.09.33v51.59a14.58,14.58,0,0,0,14.57,14.58h90.55a14.58,14.58,0,0,0,14.58-14.58V14.57A14.57,14.57,0,0,0,105.12,0ZM80.9,86a37.68,37.68,0,0,1-4.18,7.54c-2.1,2.91-9.45,11.91-20.7,11.91a20.25,20.25,0,0,1-2.31-.13,23.22,23.22,0,0,1-15.09-8.2C34,91.78,31.09,83.85,31.52,77.4a14.42,14.42,0,0,1,4.69-10.24c5.49-4.8,15-4.84,21.06-.17A22.46,22.46,0,0,1,68.5,64.71c4.88.29,9,2.26,11.45,5.56C82.1,73.11,84,78.16,80.9,86Zm22.95-26.92c-4,5.22-9.62,8.23-15.51,8.23s-11.55-3-15.51-8.23A29.19,29.19,0,0,1,67.2,41.45a29.21,29.21,0,0,1,5.63-17.62c4-5.22,9.61-8.22,15.51-8.22s11.55,3,15.51,8.22a29.33,29.33,0,0,1,5.61,17.62A29.3,29.3,0,0,1,103.85,59.07ZM63,78.3a7,7,0,0,0-2,1.58l-6.52,7.33-4-9a3.33,3.33,0,0,0-.86-1.19c-1.47-1.22-4.31-1-5-.36a2.88,2.88,0,0,0-.39,1.54c-.21,3.17,1.5,7.69,4,10.52a10.69,10.69,0,0,0,6.93,4c1.45.16,6.55.15,11.35-6.56,2.82-4,3.71-7.39,3.42-8.26C69.23,77.29,65.74,76.88,63,78.3Zm6.87-.4c-.61-.61-4.1-1-6.87.4a7,7,0,0,0-2,1.58l-6.52,7.33-4-9a3.33,3.33,0,0,0-.86-1.19c-1.47-1.22-4.31-1-5-.36a2.88,2.88,0,0,0-.39,1.54c-.21,3.17,1.5,7.69,4,10.52a10.69,10.69,0,0,0,6.93,4c1.45.16,6.55.15,11.35-6.56C69.24,82.21,70.13,78.77,69.84,77.9Zm0,0c-.61-.61-4.1-1-6.87.4a7,7,0,0,0-2,1.58l-6.52,7.33-4-9a3.33,3.33,0,0,0-.86-1.19c-1.47-1.22-4.31-1-5-.36a2.88,2.88,0,0,0-.39,1.54c-.21,3.17,1.5,7.69,4,10.52a10.69,10.69,0,0,0,6.93,4c1.45.16,6.55.15,11.35-6.56C69.24,82.21,70.13,78.77,69.84,77.9Zm0,0c-.61-.61-4.1-1-6.87.4a7,7,0,0,0-2,1.58l-6.52,7.33-4-9a3.33,3.33,0,0,0-.86-1.19c-1.47-1.22-4.31-1-5-.36a2.88,2.88,0,0,0-.39,1.54c-.21,3.17,1.5,7.69,4,10.52a10.69,10.69,0,0,0,6.93,4c1.45.16,6.55.15,11.35-6.56C69.24,82.21,70.13,78.77,69.84,77.9Zm0,0c-.61-.61-4.1-1-6.87.4a7,7,0,0,0-2,1.58l-6.52,7.33-4-9a3.33,3.33,0,0,0-.86-1.19c-1.47-1.22-4.31-1-5-.36a2.88,2.88,0,0,0-.39,1.54c-.21,3.17,1.5,7.69,4,10.52a10.69,10.69,0,0,0,6.93,4c1.45.16,6.55.15,11.35-6.56C69.24,82.21,70.13,78.77,69.84,77.9Zm0,0c-.61-.61-4.1-1-6.87.4a7,7,0,0,0-2,1.58l-6.52,7.33-4-9a3.33,3.33,0,0,0-.86-1.19c-1.47-1.22-4.31-1-5-.36a2.88,2.88,0,0,0-.39,1.54c-.21,3.17,1.5,7.69,4,10.52a10.69,10.69,0,0,0,6.93,4c1.45.16,6.55.15,11.35-6.56C69.24,82.21,70.13,78.77,69.84,77.9Zm0,0c-.61-.61-4.1-1-6.87.4a7,7,0,0,0-2,1.58l-6.52,7.33-4-9a3.33,3.33,0,0,0-.86-1.19c-1.47-1.22-4.31-1-5-.36a2.88,2.88,0,0,0-.39,1.54c-.21,3.17,1.5,7.69,4,10.52a10.69,10.69,0,0,0,6.93,4c1.45.16,6.55.15,11.35-6.56C69.24,82.21,70.13,78.77,69.84,77.9Z"/></g></g></svg>