<svg xmlns="http://www.w3.org/2000/svg" viewBox="0 0 350.46 75.46"><defs><style>.cls-1{fill:#e3f2a9;}</style></defs><g id="Capa_2" data-name="Capa 2"><g id="Capa_1-2" data-name="Capa 1"><path class="cls-1" d="M169.25,18.92q4.81,4.88,4.82,14.87V54.73a6.36,6.36,0,0,1-1.76,4.77,6.75,6.75,0,0,1-4.91,1.71,6.45,6.45,0,0,1-4.77-1.8,6.37,6.37,0,0,1-1.81-4.68v-.65a10.82,10.82,0,0,1-4.63,5.37,14.43,14.43,0,0,1-7.59,1.95,18.76,18.76,0,0,1-8.39-1.85,14.75,14.75,0,0,1-5.93-5.19A13.26,13.26,0,0,1,132.11,47c0-3.34.84-6,2.54-7.88s4.43-3.3,8.2-4.17a72.85,72.85,0,0,1,15.47-1.29h2.41V31.94c0-2.59-.57-4.48-1.71-5.65s-3.05-1.76-5.7-1.76-6.48.92-11.49,2.78a8.71,8.71,0,0,1-3.61,1A4,4,0,0,1,135,26.89a5.61,5.61,0,0,1-1.21-3.75,5.24,5.24,0,0,1,.84-3.06,7.7,7.7,0,0,1,2.68-2.22,30.11,30.11,0,0,1,7.92-2.78,43.19,43.19,0,0,1,9.22-1Q164.44,14.06,169.25,18.92ZM158.23,49a10.07,10.07,0,0,0,2.5-7.09V40.37h-1.57c-5,0-8.51.4-10.52,1.2a4.37,4.37,0,0,0-3,4.36,5.53,5.53,0,0,0,1.71,4.21,6,6,0,0,0,4.31,1.63A8.51,8.51,0,0,0,158.23,49Z"/><path class="cls-1" d="M119.53,17.08a20,20,0,0,1,7,8.45A29.5,29.5,0,0,1,129,38a28.93,28.93,0,0,1-2.5,12.4,19.17,19.17,0,0,1-7,8.22,18.65,18.65,0,0,1-10.29,2.87,17.71,17.71,0,0,1-8.25-1.9,13.66,13.66,0,0,1-5.69-5.34V69.33a5.78,5.78,0,0,1-1.82,4.46,6.9,6.9,0,0,1-4.83,1.67,7.43,7.43,0,0,1-5.15-1.76,6,6,0,0,1-2-4.65V20.84a6.36,6.36,0,0,1,1.87-4.78,6.83,6.83,0,0,1,5-1.81,6.68,6.68,0,0,1,4.92,1.81,6.44,6.44,0,0,1,1.82,4.78v.74a14,14,0,0,1,5.74-5.52,17.5,17.5,0,0,1,8.38-2A18,18,0,0,1,119.53,17.08Zm-6.79,30.46q2.64-3.3,2.64-9.52t-2.64-9.8a8.83,8.83,0,0,0-7.47-3.48,8.92,8.92,0,0,0-7.47,3.39q-2.64,3.39-2.64,9.7t2.64,9.61a8.89,8.89,0,0,0,7.47,3.39A9,9,0,0,0,112.74,47.54Z"/><path class="cls-1" d="M218.87,17.08A20,20,0,0,1,226,25.53,29.06,29.06,0,0,1,228.58,38,28.49,28.49,0,0,1,226,50.42a18.65,18.65,0,0,1-17.6,11.09,18.34,18.34,0,0,1-8.4-1.9,13.83,13.83,0,0,1-5.8-5.34V69.33a5.71,5.71,0,0,1-1.86,4.46,7.1,7.1,0,0,1-4.92,1.67,7.66,7.66,0,0,1-5.25-1.76,5.92,5.92,0,0,1-2-4.65V20.84a6.28,6.28,0,0,1,1.91-4.78,7,7,0,0,1,5.06-1.81,6.86,6.86,0,0,1,5,1.81A6.36,6.36,0,0,1,194,20.84v.74a14.19,14.19,0,0,1,5.85-5.52,18.14,18.14,0,0,1,8.54-2A18.62,18.62,0,0,1,218.87,17.08ZM212,47.54q2.7-3.3,2.7-9.52t-2.7-9.8a9.05,9.05,0,0,0-7.61-3.48,9.18,9.18,0,0,0-7.62,3.39Q194,31.52,194,37.83t2.69,9.61a9.16,9.16,0,0,0,7.62,3.39A9.25,9.25,0,0,0,212,47.54Z"/><path class="cls-1" d="M273.37,48.62a6,6,0,0,1,1.16,3.79,5,5,0,0,1-.93,2.92A7.5,7.5,0,0,1,271,57.6a33.26,33.26,0,0,1-7.32,2.73A31.24,31.24,0,0,1,256,61.4a27.63,27.63,0,0,1-12.92-2.87,20.15,20.15,0,0,1-8.48-8.2,25.37,25.37,0,0,1-3-12.55,25.71,25.71,0,0,1,2.87-12.33,21,21,0,0,1,8-8.38,22.27,22.27,0,0,1,11.58-3,21.21,21.21,0,0,1,10.88,2.73,18.73,18.73,0,0,1,7.27,7.78,25.55,25.55,0,0,1,2.6,11.82,4.43,4.43,0,0,1-1,3.1,3.5,3.5,0,0,1-2.73,1.07H245.16q.65,5.46,3.34,7.92t7.69,2.45a16.23,16.23,0,0,0,4.81-.65,46.41,46.41,0,0,0,4.73-1.76c.86-.37,1.7-.69,2.5-1a6.55,6.55,0,0,1,2.13-.42A3.65,3.65,0,0,1,273.37,48.62ZM248,26.24a12.15,12.15,0,0,0-2.87,7.37H263q-.27-4.92-2.45-7.41a7.75,7.75,0,0,0-6.16-2.51A8.4,8.4,0,0,0,248,26.24Z"/><path class="cls-1" d="M308.82,52.41a5.29,5.29,0,0,1-.86,7.8c-1.45.95-3.55,1.33-6.27,1.14L299,61.16q-16.63-1.33-16.64-17.4V24.92h-3.81a7.12,7.12,0,0,1-4.75-1.38,4.89,4.89,0,0,1-1.62-3.95,5,5,0,0,1,1.62-4,7.12,7.12,0,0,1,4.75-1.38h3.81V6.75a6.4,6.4,0,0,1,1.95-4.94A7.44,7.44,0,0,1,289.61,0a7.26,7.26,0,0,1,5.23,1.81,6.47,6.47,0,0,1,1.9,4.94v7.42h6.66q6.47,0,6.47,5.42a4.89,4.89,0,0,1-1.62,3.95,7.33,7.33,0,0,1-4.85,1.38h-6.66V44.8a6.25,6.25,0,0,0,1.33,4.33,5.56,5.56,0,0,0,3.9,1.66l2.67.19A6.73,6.73,0,0,1,308.82,52.41Z"/><path class="cls-1" d="M321.58,60.47a21.06,21.06,0,0,1-7.11-3,5.66,5.66,0,0,1-2.07-2.22,6.77,6.77,0,0,1-.72-3.15,5.48,5.48,0,0,1,1.17-3.57,3.58,3.58,0,0,1,2.88-1.44,6.89,6.89,0,0,1,2.34.42c.78.28,1.59.6,2.43,1a30.74,30.74,0,0,0,4.95,1.9,22,22,0,0,0,6,.7,9.82,9.82,0,0,0,4.9-1,3.1,3.1,0,0,0,1.75-2.78,2.87,2.87,0,0,0-.76-2.09,7,7,0,0,0-2.84-1.43c-1.38-.43-3.56-1-6.56-1.58q-8-1.57-11.52-4.72t-3.51-8.8a12.31,12.31,0,0,1,2.48-7.51A16.55,16.55,0,0,1,322.21,16a23.85,23.85,0,0,1,9.72-1.9,28.23,28.23,0,0,1,7.55,1A23.91,23.91,0,0,1,346.05,18a5.75,5.75,0,0,1,2.79,5.19,5.77,5.77,0,0,1-1.17,3.7,3.55,3.55,0,0,1-2.88,1.49,10.36,10.36,0,0,1-5-1.67,26.88,26.88,0,0,0-4.09-1.81,14.18,14.18,0,0,0-4.36-.6A8,8,0,0,0,327,25.32a3.31,3.31,0,0,0-1.62,2.91,3.22,3.22,0,0,0,1.89,3,28.94,28.94,0,0,0,7.28,2A38.08,38.08,0,0,1,344,36.16a11.46,11.46,0,0,1,4.95,4.3A12.82,12.82,0,0,1,350.46,47a12.38,12.38,0,0,1-5.26,10.47q-5.26,3.89-14.08,3.89A43,43,0,0,1,321.58,60.47Z"/><path class="cls-1" d="M65.47,15a12.38,12.38,0,0,0-9.78-5.18A12.39,12.39,0,0,0,45.91,15a18.48,18.48,0,0,0-3.54,11.11,18.44,18.44,0,0,0,3.54,11.11,12.38,12.38,0,0,0,9.78,5.19,12.36,12.36,0,0,0,9.78-5.19A18.44,18.44,0,0,0,69,26.13,18.48,18.48,0,0,0,65.47,15ZM55.69,34.45c-2.84,0-5.34-3.89-5.34-8.32s2.5-8.31,5.34-8.31S61,21.71,61,26.13,58.54,34.45,55.69,34.45Z"/><path class="cls-1" d="M50.4,44.3a9.5,9.5,0,0,0-7.21-3.5,14.16,14.16,0,0,0-7.08,1.44c-3.81-3-9.82-2.92-13.28.1a9.09,9.09,0,0,0-3,6.46,18.37,18.37,0,0,0,4.48,12.42,14.16,14.16,0,0,0,11,5.26c7.09,0,11.73-5.67,13-7.51A23.78,23.78,0,0,0,51,54.21C53,49.28,51.76,46.1,50.4,44.3Zm-8.53,10c-3,4.22-6.24,4.23-7.15,4.13A6.81,6.81,0,0,1,30.35,56a10.4,10.4,0,0,1-2.52-6.64,1.88,1.88,0,0,1,.25-1,3.18,3.18,0,0,1,3.18.23,2.2,2.2,0,0,1,.54.75L34.31,55l4.12-4.62a4,4,0,0,1,1.27-1c1.74-.9,3.95-.64,4.33-.25C44.21,49.66,43.65,51.83,41.87,54.33Z"/><path class="cls-1" d="M35.73,28.38l-1.59,7.83A134.11,134.11,0,0,0,8.26,33.53c-2.75,0-5.51.06-8.26.21v-8c2.77-.15,5.54-.21,8.3-.2A142.89,142.89,0,0,1,35.73,28.38Z"/></g></g></svg>