<svg xmlns="http://www.w3.org/2000/svg" viewBox="0 0 94.12 94.11"><defs><style>.cls-1{fill:#0f0d0e;}.cls-2{fill:#171b25;}.cls-3{fill:#e3f2a9;}.cls-4{fill:#8ddbe8;}.cls-5{fill:#f7a2c7;}</style></defs><g id="Capa_2" data-name="Capa 2"><g id="Capa_1-2" data-name="Capa 1"><ellipse class="cls-1" cx="69.46" cy="32.59" rx="6.66" ry="10.36"/><path class="cls-2" d="M54.92,61.26c-.49-.48-3.23-.81-5.41.31a5.62,5.62,0,0,0-1.59,1.24l-5.13,5.77-3.13-7.06a2.5,2.5,0,0,0-.68-.93A3.93,3.93,0,0,0,35,60.3a2.18,2.18,0,0,0-.32,1.21,13,13,0,0,0,3.14,8.28,8.44,8.44,0,0,0,5.45,3.12c1.14.13,5.15.12,8.92-5.16C54.45,64.65,55.14,61.94,54.92,61.26Zm0,0c-.49-.48-3.23-.81-5.41.31a5.62,5.62,0,0,0-1.59,1.24l-5.13,5.77-3.13-7.06a2.5,2.5,0,0,0-.68-.93A3.93,3.93,0,0,0,35,60.3a2.18,2.18,0,0,0-.32,1.21,13,13,0,0,0,3.14,8.28,8.44,8.44,0,0,0,5.45,3.12c1.14.13,5.15.12,8.92-5.16C54.45,64.65,55.14,61.94,54.92,61.26Zm0,0c-.49-.48-3.23-.81-5.41.31a5.62,5.62,0,0,0-1.59,1.24l-5.13,5.77-3.13-7.06a2.5,2.5,0,0,0-.68-.93A3.93,3.93,0,0,0,35,60.3a2.18,2.18,0,0,0-.32,1.21,13,13,0,0,0,3.14,8.28,8.44,8.44,0,0,0,5.45,3.12c1.14.13,5.15.12,8.92-5.16C54.45,64.65,55.14,61.94,54.92,61.26Zm0,0c-.49-.48-3.23-.81-5.41.31a5.62,5.62,0,0,0-1.59,1.24l-5.13,5.77-3.13-7.06a2.5,2.5,0,0,0-.68-.93A3.93,3.93,0,0,0,35,60.3a2.18,2.18,0,0,0-.32,1.21,13,13,0,0,0,3.14,8.28,8.44,8.44,0,0,0,5.45,3.12c1.14.13,5.15.12,8.92-5.16C54.45,64.65,55.14,61.94,54.92,61.26ZM82.66,0H11.46A11.46,11.46,0,0,0,0,11.46V32.11c3.45-.18,6.91-.26,10.35-.24A177.15,177.15,0,0,1,44.56,35.4l-2,9.76A166.82,166.82,0,0,0,10.3,41.82c-3.43,0-6.87.07-10.3.26V82.66A11.46,11.46,0,0,0,11.46,94.11h71.2A11.46,11.46,0,0,0,94.12,82.66V11.46A11.47,11.47,0,0,0,82.66,0Zm-19,67.61a30.16,30.16,0,0,1-3.29,5.94c-1.64,2.29-7.43,9.36-16.27,9.36a16.11,16.11,0,0,1-1.82-.1,18.25,18.25,0,0,1-11.86-6.45c-3.68-4.2-5.93-10.42-5.59-15.5a11.38,11.38,0,0,1,3.69-8C32.79,49,40.28,49,45,52.68a17.76,17.76,0,0,1,8.83-1.8,11.88,11.88,0,0,1,9,4.37C64.56,57.49,66.07,61.46,63.61,67.61Zm18-21.16a15.41,15.41,0,0,1-12.19,6.46,15.44,15.44,0,0,1-12.2-6.46,23,23,0,0,1-4.42-13.86,23,23,0,0,1,4.42-13.85,15.44,15.44,0,0,1,12.2-6.46,15.41,15.41,0,0,1,12.19,6.46,23,23,0,0,1,4.42,13.85A23,23,0,0,1,81.65,46.45ZM49.51,61.57a5.62,5.62,0,0,0-1.59,1.24l-5.13,5.77-3.13-7.06a2.5,2.5,0,0,0-.68-.93A3.93,3.93,0,0,0,35,60.3a2.18,2.18,0,0,0-.32,1.21,13,13,0,0,0,3.14,8.28,8.44,8.44,0,0,0,5.45,3.12c1.14.13,5.15.12,8.92-5.16,2.23-3.1,2.92-5.81,2.7-6.49C54.43,60.78,51.69,60.45,49.51,61.57Zm5.41-.31c-.49-.48-3.23-.81-5.41.31a5.62,5.62,0,0,0-1.59,1.24l-5.13,5.77-3.13-7.06a2.5,2.5,0,0,0-.68-.93A3.93,3.93,0,0,0,35,60.3a2.18,2.18,0,0,0-.32,1.21,13,13,0,0,0,3.14,8.28,8.44,8.44,0,0,0,5.45,3.12c1.14.13,5.15.12,8.92-5.16C54.45,64.65,55.14,61.94,54.92,61.26Zm0,0c-.49-.48-3.23-.81-5.41.31a5.62,5.62,0,0,0-1.59,1.24l-5.13,5.77-3.13-7.06a2.5,2.5,0,0,0-.68-.93A3.93,3.93,0,0,0,35,60.3a2.18,2.18,0,0,0-.32,1.21,13,13,0,0,0,3.14,8.28,8.44,8.44,0,0,0,5.45,3.12c1.14.13,5.15.12,8.92-5.16C54.45,64.65,55.14,61.94,54.92,61.26Z"/><path class="cls-3" d="M81.65,18.74a15.41,15.41,0,0,0-12.19-6.46,15.44,15.44,0,0,0-12.2,6.46,23,23,0,0,0-4.42,13.85,23,23,0,0,0,4.42,13.86,15.44,15.44,0,0,0,12.2,6.46,15.41,15.41,0,0,0,12.19-6.46,23,23,0,0,0,4.42-13.86A23,23,0,0,0,81.65,18.74ZM69.46,43c-3.55,0-6.66-4.84-6.66-10.37s3.11-10.36,6.66-10.36,6.66,4.84,6.66,10.36S73,43,69.46,43Z"/><path class="cls-4" d="M62.86,55.25a11.88,11.88,0,0,0-9-4.37A17.76,17.76,0,0,0,45,52.68C40.28,49,32.79,49,28.47,52.81a11.38,11.38,0,0,0-3.69,8c-.34,5.08,1.91,11.3,5.59,15.5a18.25,18.25,0,0,0,11.86,6.45,16.11,16.11,0,0,0,1.82.1c8.84,0,14.63-7.07,16.27-9.36a30.16,30.16,0,0,0,3.29-5.94C66.07,61.46,64.56,57.49,62.86,55.25ZM52.22,67.75C48.45,73,44.44,73,43.3,72.91a8.44,8.44,0,0,1-5.45-3.12,13,13,0,0,1-3.14-8.28A2.18,2.18,0,0,1,35,60.3a3.93,3.93,0,0,1,3.95.29,2.5,2.5,0,0,1,.68.93l3.13,7.06,5.13-5.77a5.62,5.62,0,0,1,1.59-1.24c2.18-1.12,4.92-.79,5.41-.31C55.14,61.94,54.45,64.65,52.22,67.75Z"/><path class="cls-5" d="M44.56,35.4l-2,9.76A166.82,166.82,0,0,0,10.3,41.82c-3.43,0-6.87.07-10.3.26v-10c3.45-.18,6.91-.26,10.35-.24A177.15,177.15,0,0,1,44.56,35.4Z"/></g></g></svg>