<svg width="82" height="26" viewBox="0 0 82 26" fill="none" xmlns="http://www.w3.org/2000/svg">
<path d="M35.9425 10.9809H34.6143C34.5765 10.7631 34.5066 10.5702 34.4048 10.4021C34.303 10.2316 34.1764 10.0872 34.0249 9.96884C33.8733 9.85047 33.7005 9.76169 33.5064 9.7025C33.3146 9.64095 33.1075 9.61017 32.8849 9.61017C32.4896 9.61017 32.1392 9.70961 31.8338 9.90847C31.5284 10.105 31.2893 10.3938 31.1165 10.7749C30.9437 11.1537 30.8572 11.6166 30.8572 12.1634C30.8572 12.7198 30.9437 13.1885 31.1165 13.5697C31.2917 13.9485 31.5308 14.2349 31.8338 14.4291C32.1392 14.6208 32.4884 14.7167 32.8814 14.7167C33.0992 14.7167 33.3028 14.6883 33.4922 14.6315C33.6839 14.5723 33.8556 14.4859 34.0071 14.3722C34.161 14.2586 34.29 14.1189 34.3942 13.9532C34.5007 13.7875 34.5741 13.5981 34.6143 13.385L35.9425 13.3921C35.8928 13.7378 35.785 14.0621 35.6193 14.3651C35.456 14.6682 35.2417 14.9357 34.9766 15.1677C34.7114 15.3973 34.4013 15.5773 34.0462 15.7075C33.6911 15.8353 33.2969 15.8992 32.8636 15.8992C32.2244 15.8992 31.6539 15.7513 31.152 15.4553C30.6501 15.1594 30.2547 14.7321 29.9659 14.1734C29.6771 13.6147 29.5327 12.9447 29.5327 12.1634C29.5327 11.3798 29.6783 10.7098 29.9695 10.1535C30.2607 9.59479 30.6572 9.16747 31.1591 8.87154C31.661 8.57561 32.2292 8.42765 32.8636 8.42765C33.2685 8.42765 33.6449 8.48446 33.9929 8.5981C34.3409 8.71174 34.651 8.87864 34.9233 9.09881C35.1955 9.31661 35.4193 9.58413 35.5945 9.90137C35.772 10.2162 35.888 10.5761 35.9425 10.9809ZM38.6618 15.9099C38.3161 15.9099 38.0048 15.8483 37.7278 15.7252C37.4532 15.5998 37.2354 15.4151 37.0744 15.1713C36.9158 14.9274 36.8365 14.6267 36.8365 14.2693C36.8365 13.9615 36.8933 13.707 37.0069 13.5058C37.1206 13.3045 37.2756 13.1436 37.4721 13.0228C37.6686 12.9021 37.89 12.8109 38.1362 12.7494C38.3848 12.6855 38.6416 12.6393 38.9068 12.6109C39.2264 12.5777 39.4856 12.5481 39.6845 12.5221C39.8833 12.4937 40.0278 12.4511 40.1177 12.3943C40.21 12.3351 40.2562 12.2439 40.2562 12.1208V12.0995C40.2562 11.832 40.1769 11.6249 40.0183 11.4781C39.8597 11.3313 39.6312 11.2579 39.3329 11.2579C39.0181 11.2579 38.7683 11.3266 38.5836 11.4639C38.4013 11.6012 38.2782 11.7633 38.2143 11.9504L37.014 11.7799C37.1087 11.4485 37.265 11.1715 37.4828 10.949C37.7006 10.724 37.9669 10.556 38.2818 10.4447C38.5967 10.3311 38.9447 10.2742 39.3258 10.2742C39.5886 10.2742 39.8502 10.305 40.1106 10.3666C40.371 10.4281 40.609 10.5299 40.8244 10.672C41.0398 10.8116 41.2127 11.0022 41.3429 11.2437C41.4754 11.4852 41.5417 11.787 41.5417 12.1492V15.7998H40.3059V15.0505H40.2633C40.1852 15.202 40.0751 15.3441 39.9331 15.4767C39.7934 15.6069 39.617 15.7122 39.4039 15.7927C39.1932 15.8708 38.9458 15.9099 38.6618 15.9099ZM38.9956 14.9653C39.2536 14.9653 39.4773 14.9144 39.6667 14.8126C39.8561 14.7084 40.0017 14.5711 40.1035 14.4007C40.2077 14.2302 40.2598 14.0444 40.2598 13.8431V13.2004C40.2195 13.2335 40.1509 13.2643 40.0538 13.2927C39.9591 13.3211 39.8526 13.346 39.7342 13.3673C39.6158 13.3886 39.4986 13.4075 39.3826 13.4241C39.2666 13.4407 39.166 13.4549 39.0808 13.4667C38.889 13.4927 38.7174 13.5354 38.5659 13.5945C38.4144 13.6537 38.2948 13.7366 38.2072 13.8431C38.1196 13.9473 38.0758 14.0822 38.0758 14.248C38.0758 14.4847 38.1622 14.6634 38.335 14.7842C38.5079 14.9049 38.728 14.9653 38.9956 14.9653ZM42.8343 15.7998V10.3453H44.063V11.2721H44.127C44.2406 10.9596 44.4288 10.7158 44.6916 10.5406C44.9544 10.363 45.2681 10.2742 45.6326 10.2742C46.002 10.2742 46.3133 10.3642 46.5666 10.5441C46.8223 10.7217 47.0022 10.9643 47.1064 11.2721H47.1632C47.2839 10.9691 47.4875 10.7276 47.774 10.5477C48.0628 10.3654 48.4049 10.2742 48.8002 10.2742C49.3021 10.2742 49.7117 10.4329 50.0289 10.7501C50.3462 11.0673 50.5048 11.5302 50.5048 12.1386V15.7998H49.2157V12.3374C49.2157 11.9989 49.1258 11.7515 48.9458 11.5953C48.7659 11.4366 48.5458 11.3573 48.2853 11.3573C47.9752 11.3573 47.7325 11.4544 47.5574 11.6485C47.3845 11.8403 47.2981 12.0901 47.2981 12.3978V15.7998H46.0375V12.2842C46.0375 12.0025 45.9522 11.7776 45.7818 11.6095C45.6137 11.4414 45.3935 11.3573 45.1213 11.3573C44.9366 11.3573 44.7685 11.4047 44.617 11.4994C44.4655 11.5917 44.3448 11.7231 44.2548 11.8936C44.1648 12.0616 44.1199 12.2581 44.1199 12.483V15.7998H42.8343ZM51.8089 15.7998V10.3453H53.0945V15.7998H51.8089ZM52.4553 9.57111C52.2517 9.57111 52.0765 9.50364 51.9297 9.3687C51.7829 9.23139 51.7095 9.06685 51.7095 8.87509C51.7095 8.68096 51.7829 8.51642 51.9297 8.38148C52.0765 8.24417 52.2517 8.17551 52.4553 8.17551C52.6612 8.17551 52.8364 8.24417 52.9808 8.38148C53.1276 8.51642 53.201 8.68096 53.201 8.87509C53.201 9.06685 53.1276 9.23139 52.9808 9.3687C52.8364 9.50364 52.6612 9.57111 52.4553 9.57111ZM55.7019 12.6038V15.7998H54.4164V10.3453H55.6451V11.2721H55.709C55.8345 10.9667 56.0345 10.724 56.3091 10.5441C56.5861 10.3642 56.9282 10.2742 57.3354 10.2742C57.7118 10.2742 58.0397 10.3547 58.3191 10.5157C58.6008 10.6767 58.8186 10.9099 58.9725 11.2153C59.1287 11.5207 59.2057 11.8912 59.2033 12.3268V15.7998H57.9178V12.5257C57.9178 12.1611 57.8231 11.8758 57.6337 11.6698C57.4467 11.4639 57.1874 11.3609 56.856 11.3609C56.6311 11.3609 56.431 11.4106 56.2559 11.51C56.083 11.6071 55.9469 11.748 55.8475 11.9326C55.7504 12.1173 55.7019 12.341 55.7019 12.6038ZM62.0797 15.9099C61.7341 15.9099 61.4228 15.8483 61.1458 15.7252C60.8712 15.5998 60.6533 15.4151 60.4924 15.1713C60.3337 14.9274 60.2544 14.6267 60.2544 14.2693C60.2544 13.9615 60.3113 13.707 60.4249 13.5058C60.5385 13.3045 60.6936 13.1436 60.8901 13.0228C61.0866 12.9021 61.3079 12.8109 61.5542 12.7494C61.8027 12.6855 62.0596 12.6393 62.3248 12.6109C62.6444 12.5777 62.9036 12.5481 63.1025 12.5221C63.3013 12.4937 63.4457 12.4511 63.5357 12.3943C63.628 12.3351 63.6742 12.2439 63.6742 12.1208V12.0995C63.6742 11.832 63.5949 11.6249 63.4363 11.4781C63.2776 11.3313 63.0492 11.2579 62.7509 11.2579C62.436 11.2579 62.1863 11.3266 62.0016 11.4639C61.8193 11.6012 61.6962 11.7633 61.6323 11.9504L60.432 11.7799C60.5267 11.4485 60.6829 11.1715 60.9007 10.949C61.1185 10.724 61.3849 10.556 61.6998 10.4447C62.0146 10.3311 62.3626 10.2742 62.7438 10.2742C63.0066 10.2742 63.2682 10.305 63.5286 10.3666C63.789 10.4281 64.0269 10.5299 64.2424 10.672C64.4578 10.8116 64.6306 11.0022 64.7608 11.2437C64.8934 11.4852 64.9597 11.787 64.9597 12.1492V15.7998H63.7239V15.0505H63.6813C63.6032 15.202 63.4931 15.3441 63.351 15.4767C63.2114 15.6069 63.035 15.7122 62.8219 15.7927C62.6112 15.8708 62.3638 15.9099 62.0797 15.9099ZM62.4135 14.9653C62.6716 14.9653 62.8953 14.9144 63.0847 14.8126C63.2741 14.7084 63.4197 14.5711 63.5215 14.4007C63.6257 14.2302 63.6777 14.0444 63.6777 13.8431V13.2004C63.6375 13.2335 63.5688 13.2643 63.4718 13.2927C63.3771 13.3211 63.2705 13.346 63.1522 13.3673C63.0338 13.3886 62.9166 13.4075 62.8006 13.4241C62.6846 13.4407 62.584 13.4549 62.4988 13.4667C62.307 13.4927 62.1354 13.5354 61.9838 13.5945C61.8323 13.6537 61.7128 13.7366 61.6252 13.8431C61.5376 13.9473 61.4938 14.0822 61.4938 14.248C61.4938 14.4847 61.5802 14.6634 61.753 14.7842C61.9258 14.9049 62.146 14.9653 62.4135 14.9653ZM68.976 10.3453V11.3396H65.8404V10.3453H68.976ZM66.6145 9.03844H67.9V14.1592C67.9 14.332 67.9261 14.4646 67.9782 14.5569C68.0326 14.6469 68.1036 14.7084 68.1912 14.7416C68.2788 14.7747 68.3759 14.7913 68.4824 14.7913C68.5629 14.7913 68.6363 14.7854 68.7026 14.7735C68.7712 14.7617 68.8233 14.751 68.8588 14.7416L69.0755 15.7465C69.0068 15.7702 68.9086 15.7963 68.7807 15.8247C68.6552 15.8531 68.5014 15.8696 68.3191 15.8744C67.9971 15.8838 67.7071 15.8353 67.449 15.7288C67.191 15.6199 66.9862 15.4518 66.8347 15.2245C66.6855 14.9972 66.6122 14.7132 66.6145 14.3722V9.03844ZM71.6207 15.9099C71.2751 15.9099 70.9638 15.8483 70.6868 15.7252C70.4122 15.5998 70.1944 15.4151 70.0334 15.1713C69.8748 14.9274 69.7955 14.6267 69.7955 14.2693C69.7955 13.9615 69.8523 13.707 69.9659 13.5058C70.0795 13.3045 70.2346 13.1436 70.4311 13.0228C70.6276 12.9021 70.849 12.8109 71.0952 12.7494C71.3438 12.6855 71.6006 12.6393 71.8658 12.6109C72.1854 12.5777 72.4446 12.5481 72.6435 12.5221C72.8423 12.4937 72.9867 12.4511 73.0767 12.3943C73.169 12.3351 73.2152 12.2439 73.2152 12.1208V12.0995C73.2152 11.832 73.1359 11.6249 72.9773 11.4781C72.8187 11.3313 72.5902 11.2579 72.2919 11.2579C71.977 11.2579 71.7273 11.3266 71.5426 11.4639C71.3603 11.6012 71.2372 11.7633 71.1733 11.9504L69.973 11.7799C70.0677 11.4485 70.224 11.1715 70.4418 10.949C70.6596 10.724 70.9259 10.556 71.2408 10.4447C71.5556 10.3311 71.9036 10.2742 72.2848 10.2742C72.5476 10.2742 72.8092 10.305 73.0696 10.3666C73.33 10.4281 73.5679 10.5299 73.7834 10.672C73.9988 10.8116 74.1716 11.0022 74.3018 11.2437C74.4344 11.4852 74.5007 11.787 74.5007 12.1492V15.7998H73.2649V15.0505H73.2223C73.1442 15.202 73.0341 15.3441 72.892 15.4767C72.7524 15.6069 72.576 15.7122 72.3629 15.7927C72.1522 15.8708 71.9048 15.9099 71.6207 15.9099ZM71.9545 14.9653C72.2126 14.9653 72.4363 14.9144 72.6257 14.8126C72.8151 14.7084 72.9607 14.5711 73.0625 14.4007C73.1667 14.2302 73.2188 14.0444 73.2188 13.8431V13.2004C73.1785 13.2335 73.1098 13.2643 73.0128 13.2927C72.9181 13.3211 72.8116 13.346 72.6932 13.3673C72.5748 13.3886 72.4576 13.4075 72.3416 13.4241C72.2256 13.4407 72.125 13.4549 72.0398 13.4667C71.848 13.4927 71.6764 13.5354 71.5249 13.5945C71.3733 13.6537 71.2538 13.7366 71.1662 13.8431C71.0786 13.9473 71.0348 14.0822 71.0348 14.248C71.0348 14.4847 71.1212 14.6634 71.294 14.7842C71.4669 14.9049 71.687 14.9653 71.9545 14.9653ZM80.1044 11.787L78.9325 11.9149C78.8994 11.7965 78.8414 11.6852 78.7585 11.5811C78.678 11.4769 78.5691 11.3928 78.4318 11.3289C78.2945 11.265 78.1264 11.233 77.9276 11.233C77.66 11.233 77.4351 11.291 77.2528 11.407C77.0729 11.5231 76.9841 11.6734 76.9865 11.858C76.9841 12.0167 77.0421 12.1457 77.1605 12.2451C77.2813 12.3445 77.4801 12.4262 77.7571 12.4901L78.6875 12.689C79.2036 12.8003 79.5871 12.9767 79.8381 13.2181C80.0914 13.4596 80.2192 13.7757 80.2216 14.1663C80.2192 14.5096 80.1186 14.8126 79.9197 15.0754C79.7232 15.3358 79.4498 15.5394 79.0994 15.6862C78.7491 15.8329 78.3466 15.9063 77.892 15.9063C77.2244 15.9063 76.687 15.7667 76.2798 15.4873C75.8726 15.2056 75.63 14.8138 75.5518 14.3119L76.8054 14.1911C76.8622 14.4374 76.983 14.6232 77.1676 14.7487C77.3523 14.8741 77.5926 14.9369 77.8885 14.9369C78.1939 14.9369 78.4389 14.8741 78.6236 14.7487C78.8106 14.6232 78.9041 14.4681 78.9041 14.2835C78.9041 14.1272 78.8438 13.9982 78.723 13.8964C78.6046 13.7946 78.42 13.7165 78.169 13.662L77.2386 13.4667C76.7154 13.3578 76.3284 13.1743 76.0774 12.9163C75.8265 12.6559 75.7022 12.3268 75.7045 11.9291C75.7022 11.5929 75.7933 11.3017 75.978 11.0555C76.165 10.8069 76.4242 10.6151 76.7557 10.4802C77.0895 10.3429 77.4742 10.2742 77.9098 10.2742C78.549 10.2742 79.0521 10.4104 79.419 10.6826C79.7884 10.9549 80.0168 11.323 80.1044 11.787Z" fill="black"/>
<g clip-path="url(#clip0_991_364)">
<path d="M7.80052 20.4458L7.80079 20.4457C7.90733 20.4 7.99744 20.3349 8.06096 20.2551C8.12467 20.1752 8.15952 20.083 8.15939 19.9875L8.15937 19.9866C8.15754 19.8909 8.12009 19.799 8.05375 19.7201C7.98762 19.6414 7.89493 19.578 7.78632 19.5347C7.7863 19.5347 7.78627 19.5347 7.78625 19.5347L3.0866 17.6494C2.97782 17.6035 2.85449 17.5792 2.72921 17.5784C2.60376 17.5777 2.47975 17.6005 2.36985 17.6452C2.26005 17.6898 2.16695 17.7552 2.10175 17.8361C2.03645 17.9171 2.00143 18.0111 2.00333 18.1082V23.7789C1.97895 23.8218 1.96282 23.8675 1.95589 23.9146C1.94077 24.0049 1.95763 24.0957 2.00333 24.1784V25.6084C2.00333 25.7322 2.07313 25.8457 2.18712 25.926C2.30093 26.0063 2.4526 26.0498 2.60849 26.0498C2.76438 26.0498 2.91605 26.0063 3.02986 25.926C3.14385 25.8457 3.21365 25.7322 3.21365 25.6084V24.5384C3.36441 24.5089 3.50079 24.4466 3.60249 24.3578C3.71395 24.2605 3.77844 24.1357 3.77844 24.0033C3.77844 23.8708 3.71395 23.746 3.60249 23.6487C3.50079 23.56 3.36441 23.4976 3.21365 23.4682V22.3805L7.80052 20.4458ZM6.43525 20.0019L3.21365 21.3612V18.7104L6.43525 20.0019Z" fill="#171B25" stroke="black" stroke-width="0.1"/>
<path d="M19.3377 15.7246L19.3381 15.7246C19.4823 15.7243 19.6241 15.6949 19.7469 15.6392C19.8696 15.5835 19.9698 15.5029 20.0333 15.4051C20.0971 15.3067 20.1206 15.1955 20.0985 15.0855C20.0766 14.9763 20.0115 14.8767 19.9149 14.7973C19.7892 14.686 19.6465 14.5683 19.4925 14.4653C19.4218 14.4115 19.3373 14.3689 19.2444 14.3394C19.1509 14.3097 19.0503 14.2938 18.9484 14.2924C18.8466 14.291 18.7452 14.3041 18.6502 14.3311C18.5553 14.3581 18.4682 14.3986 18.3944 14.4507C18.3207 14.5029 18.2613 14.5659 18.2211 14.6368C18.1807 14.7078 18.1606 14.785 18.1631 14.8633C18.1656 14.9416 18.1905 15.0178 18.2351 15.0871C18.2794 15.1561 18.3422 15.2168 18.4185 15.2663C18.5371 15.3499 18.6503 15.4372 18.7528 15.5243C18.8249 15.5873 18.9148 15.6374 19.0155 15.6717C19.1165 15.7061 19.2265 15.7241 19.3377 15.7246Z" fill="#171B25" stroke="black" stroke-width="0.1"/>
<path d="M12.6151 8.72075L12.6151 8.72075C12.4667 8.72125 12.3207 8.69038 12.1958 8.63126L12.2172 8.58607M12.6151 8.72075L12.0224 7.87288M12.6151 8.72075L12.6155 8.72074C12.7406 8.71915 12.8636 8.69561 12.9736 8.6518C13.0832 8.60812 13.1776 8.5452 13.2469 8.46744M12.6151 8.72075L13.2469 8.46744M12.2172 8.58607L12.1961 8.63139C12.1111 8.59178 12.0371 8.54008 11.9789 8.47864C11.9207 8.41715 11.8794 8.34686 11.8588 8.27154C11.8382 8.19606 11.8392 8.11821 11.8617 8.04309C11.884 7.96826 11.9269 7.89871 11.9864 7.83812C11.9865 7.83802 11.9866 7.83793 11.9867 7.83783L12.0224 7.87288M12.2172 8.58607C12.3348 8.64173 12.4733 8.67122 12.6149 8.67075C12.7342 8.66923 12.8512 8.64675 12.9551 8.60535C13.059 8.56395 13.1466 8.50494 13.2101 8.43365M12.2172 8.58607C12.1372 8.54876 12.0685 8.50055 12.0152 8.44427C11.962 8.388 11.9252 8.32479 11.9071 8.25836C11.8889 8.19193 11.8898 8.12362 11.9096 8.05742C11.9294 7.99123 11.9677 7.92849 12.0224 7.87288M12.0224 7.87288C12.1425 7.74665 12.2717 7.62481 12.4094 7.50782C12.5386 7.42417 12.7067 7.37663 12.8821 7.37413C13.0575 7.37162 13.2282 7.41432 13.3621 7.49421C13.4961 7.57409 13.5841 7.68569 13.6097 7.80806C13.6352 7.93044 13.5966 8.05519 13.501 8.15891C13.397 8.2467 13.2999 8.33842 13.2101 8.43365M13.2101 8.43365L13.2465 8.46796C13.2466 8.46779 13.2468 8.46761 13.2469 8.46744M13.2101 8.43365L13.2474 8.46688C13.2473 8.46707 13.2471 8.46725 13.2469 8.46744" fill="#171B25" stroke="black" stroke-width="0.1"/>
<path d="M19.0599 7.09827L19.0599 7.09835L19.0627 7.09853C19.1059 7.10134 19.1493 7.10138 19.1926 7.09866C19.3829 7.10152 19.5694 7.05341 19.7144 6.96189C19.8598 6.87005 19.9556 6.73886 19.9736 6.592C19.9916 6.44438 19.9283 6.30125 19.8052 6.19144C19.6827 6.08216 19.5087 6.01209 19.3198 5.99221C19.1191 5.96769 18.9158 5.94695 18.7151 5.92997L18.7151 5.92997L18.7149 5.92995C18.515 5.91403 18.313 5.95452 18.153 6.04443C17.9932 6.13427 17.8841 6.26888 17.8595 6.42257C17.8347 6.57737 17.8991 6.7289 18.0293 6.844C18.1587 6.95853 18.3443 7.02984 18.544 7.04578C18.7171 7.0608 18.8899 7.07767 19.0599 7.09827Z" fill="#171B25" stroke="black" stroke-width="0.1"/>
<path d="M13.3298 12.8187L13.3298 12.8188L13.3327 12.8204C13.4898 12.9061 13.686 12.9447 13.8802 12.9297C14.0744 12.9147 14.2555 12.847 14.3844 12.7377C14.5137 12.628 14.5822 12.4827 14.5662 12.3317C14.5503 12.1814 14.453 12.0468 14.3041 11.9532L14.3041 11.9532L14.303 11.9525C14.1701 11.8738 14.038 11.7919 13.9249 11.7122C13.8526 11.6594 13.7668 11.6181 13.6729 11.59C13.5789 11.5619 13.4781 11.5476 13.3766 11.5477C13.275 11.5477 13.1743 11.5622 13.0803 11.5905C12.9864 11.6187 12.9006 11.6603 12.8283 11.7133C12.7561 11.7663 12.6984 11.83 12.6599 11.9012C12.6213 11.9726 12.6031 12.0498 12.6073 12.1279C12.6116 12.2059 12.6381 12.2814 12.6839 12.35C12.7294 12.4182 12.7931 12.478 12.87 12.5266C12.9638 12.5914 13.0642 12.6535 13.1676 12.7174C13.2211 12.7505 13.2753 12.784 13.3298 12.8187Z" fill="#171B25" stroke="black" stroke-width="0.1"/>
<path d="M12.9411 23.3393C12.7715 23.3705 12.6024 23.4016 12.4208 23.429L12.4208 23.429L12.4202 23.4291C12.24 23.4586 12.0783 23.5342 11.9674 23.6447C11.8561 23.7558 11.8031 23.8959 11.8258 24.0381C11.8483 24.1793 11.9428 24.3049 12.0832 24.3938C12.2237 24.4826 12.4035 24.5309 12.5882 24.5314L12.5891 24.5314C12.646 24.5306 12.7028 24.526 12.7586 24.5177L12.7586 24.5177L12.7592 24.5176C12.9517 24.4862 13.1441 24.4523 13.3365 24.4159C13.4349 24.3993 13.5282 24.3689 13.6108 24.3261C13.6936 24.2832 13.7645 24.2284 13.8186 24.1643C13.8728 24.1 13.9092 24.0275 13.9241 23.9508C13.939 23.874 13.9318 23.7959 13.9033 23.7217C13.8749 23.6477 13.8263 23.5799 13.7617 23.5218C13.6971 23.4637 13.6176 23.4161 13.5283 23.3813C13.4389 23.3464 13.3411 23.3247 13.2404 23.3172C13.1398 23.3097 13.038 23.3165 12.9409 23.3373L12.9411 23.3393Z" fill="#171B25" stroke="black" stroke-width="0.1"/>
<path d="M12.0969 10.9251L12.1023 10.9748C12.0417 10.9814 11.9803 10.9828 11.9193 10.9789C11.7536 10.98 11.591 10.9419 11.4574 10.8695C11.3234 10.7968 11.2237 10.6922 11.1797 10.5694L11.1768 10.5612V10.5525V10.5415C11.1288 10.3908 11.0968 10.2377 11.081 10.0834L11.0809 10.0833C11.0655 9.92863 11.1385 9.78047 11.274 9.67044C11.4091 9.56077 11.5974 9.49541 11.7968 9.4855C11.9963 9.47559 12.1948 9.52174 12.3489 9.61605C12.5029 9.71034 12.6037 9.84789 12.6191 10.0018L12.6192 10.0028L12.6191 10.0028C12.6271 10.1015 12.6469 10.1996 12.6782 10.2962L12.0969 10.9251ZM12.0969 10.9251L12.1055 10.9744C12.2993 10.9403 12.4703 10.8534 12.5793 10.7281C12.6893 10.6018 12.727 10.446 12.6782 10.2962L12.0969 10.9251Z" fill="#171B25" stroke="black" stroke-width="0.1"/>
<path d="M18.3346 21.1126L18.3024 21.0744C18.1932 21.1664 18.0771 21.2612 17.9588 21.3446L17.9588 21.3446L17.9578 21.3453C17.8162 21.4506 17.7341 21.5957 17.7398 21.7506C17.7456 21.9053 17.838 22.0465 17.9865 22.1459C18.1349 22.2452 18.3307 22.2975 18.5305 22.2938C18.7304 22.2901 18.9223 22.2306 19.0637 22.1256L19.0637 22.1256L19.0641 22.1253C19.1461 22.0631 19.2257 21.9984 19.3052 21.9339C19.3601 21.8893 19.4149 21.8448 19.4705 21.8011L19.4705 21.8012L19.4719 21.8C19.5373 21.7446 19.5879 21.6797 19.6194 21.6083C19.6511 21.5367 19.6627 21.4607 19.6529 21.3849C19.6431 21.3093 19.6125 21.2368 19.564 21.1717C19.5156 21.1067 19.4503 21.0501 19.3728 21.0046C19.2953 20.9591 19.2066 20.9251 19.1117 20.9043C19.0169 20.8835 18.9174 20.876 18.8188 20.8824C18.7201 20.8887 18.6239 20.9087 18.5355 20.9414C18.4471 20.9741 18.3677 21.0191 18.3023 21.0744L18.3346 21.1126ZM18.3346 21.1126C18.3951 21.0615 18.4692 21.0192 18.5528 20.9883C18.6365 20.9573 18.7279 20.9383 18.822 20.9323C18.916 20.9262 19.0108 20.9333 19.101 20.9531C19.1912 20.9729 19.2749 21.0051 19.3475 21.0477C19.42 21.0903 19.48 21.1426 19.5239 21.2016C19.5678 21.2605 19.5948 21.325 19.6033 21.3913C19.6119 21.4576 19.6018 21.5245 19.5737 21.5881C19.5456 21.6516 19.5 21.7107 19.4396 21.7618C19.3825 21.8067 19.3273 21.8515 19.2724 21.8961C19.1937 21.96 19.1156 22.0234 19.0339 22.0855C18.9022 22.1833 18.7208 22.2402 18.5296 22.2438C18.3384 22.2473 18.153 22.1971 18.0143 22.1043C17.8756 22.0115 17.7948 21.8836 17.7898 21.7488C17.7848 21.614 17.8559 21.4833 17.9876 21.3855C18.1077 21.3008 18.2252 21.2048 18.3346 21.1126Z" fill="#171B25" stroke="black" stroke-width="0.1"/>
<path d="M15.7912 23.7238C15.6218 23.7243 15.4558 23.6848 15.32 23.61C15.1843 23.5353 15.0839 23.4282 15.0404 23.3031C14.9965 23.1768 15.0148 23.044 15.0897 22.928C15.1638 22.8132 15.2882 22.7225 15.4394 22.6674C15.5014 22.6422 15.5629 22.6178 15.6238 22.5936C15.7189 22.5559 15.8126 22.5187 15.9051 22.4798L15.9421 22.4642L15.9474 22.4718C16.024 22.4416 16.1071 22.421 16.193 22.4109C16.2934 22.3991 16.3962 22.4017 16.4953 22.4185C16.5943 22.4354 16.6881 22.4663 16.771 22.5098C16.8539 22.5533 16.9247 22.6088 16.9784 22.6737C17.0322 22.7386 17.0679 22.8119 17.0817 22.8892C17.0956 22.9666 17.087 23.045 17.0571 23.1193C17.0272 23.1934 16.977 23.261 16.911 23.3187C16.845 23.3762 16.7642 23.423 16.6739 23.4569C16.4948 23.5285 16.3184 23.5964 16.1393 23.6623C16.0315 23.7027 15.9121 23.7236 15.7912 23.7238ZM15.7912 23.7238C15.7911 23.7238 15.7911 23.7238 15.7911 23.7238L15.791 23.6738L15.7912 23.7238C15.7912 23.7238 15.7912 23.7238 15.7912 23.7238Z" fill="#171B25" stroke="black" stroke-width="0.1"/>
<path d="M15.517 7.2475L15.5172 7.24745C15.6712 7.21 15.8331 7.17446 15.9974 7.14456C16.0935 7.12717 16.1844 7.09651 16.2648 7.05393C16.3453 7.01136 16.4142 6.95742 16.467 6.89451C16.5198 6.83152 16.5555 6.7606 16.5707 6.6856C16.5858 6.61047 16.5798 6.534 16.5532 6.46105C16.5267 6.38827 16.4807 6.32124 16.419 6.26335C16.3574 6.20549 16.2811 6.15755 16.195 6.12164C16.1089 6.08573 16.0141 6.06232 15.916 6.05248C15.818 6.04264 15.7181 6.04649 15.6221 6.06386C15.4154 6.09982 15.2114 6.14335 15.0154 6.19256L15.0153 6.19259C14.8484 6.235 14.7044 6.31823 14.611 6.43103C14.517 6.54461 14.4804 6.68125 14.5128 6.81583C14.545 6.94935 14.6414 7.06608 14.7786 7.14854C14.9159 7.23104 15.088 7.27593 15.2648 7.2771L15.2653 7.2771C15.3508 7.2769 15.4357 7.26693 15.517 7.2475Z" fill="#171B25" stroke="black" stroke-width="0.1"/>
<path d="M17.0902 13.2246V13.2214L17.0593 13.2086L16.5629 13.0035L16.5629 13.0035L16.5613 13.0029C16.3878 12.9378 16.1865 12.9229 15.9987 12.9606C15.8111 12.9981 15.6474 13.0861 15.5446 13.2103C15.4409 13.3356 15.4078 13.4881 15.4577 13.6339C15.5071 13.778 15.6314 13.8976 15.7973 13.9722L15.7973 13.9722L15.7988 13.9728L16.2843 14.1722C16.4011 14.222 16.5343 14.2479 16.6693 14.2476L16.6695 14.2476C16.8332 14.2465 16.9931 14.2081 17.1252 14.1366C17.2571 14.0653 17.3565 13.9635 17.4036 13.8439C17.4512 13.7233 17.4415 13.5947 17.3773 13.4795C17.3182 13.3734 17.217 13.2855 17.0902 13.2246Z" fill="#171B25" stroke="black" stroke-width="0.1"/>
<path d="M9.7401 23.6896V23.6896H9.74865C9.85015 23.6811 9.95312 23.6871 10.0515 23.7075C10.1505 23.728 10.2432 23.7627 10.3239 23.8099C10.4045 23.8571 10.472 23.9162 10.5212 23.9844C10.5704 24.0526 10.6002 24.1285 10.6073 24.2074C10.6143 24.2864 10.5983 24.365 10.5612 24.438C10.5241 24.5109 10.4671 24.5763 10.3949 24.6307C10.3227 24.6852 10.2363 24.7281 10.1415 24.7573C10.0469 24.7864 9.94534 24.8015 9.84282 24.802C9.8169 24.8032 9.79089 24.8045 9.76481 24.8058C9.59592 24.8142 9.42411 24.8227 9.25433 24.8227H9.2306H9.23031V24.7727C9.03918 24.7749 8.85462 24.7236 8.71722 24.6299C8.57982 24.5362 8.50084 24.4078 8.49766 24.2731C8.49447 24.1383 8.56734 24.0082 8.70024 23.9113C8.83313 23.8145 9.01516 23.7588 9.20629 23.7565L9.7401 23.6896ZM9.7401 23.6896L9.73851 23.6896L9.2052 23.7065L9.7401 23.6896Z" fill="#171B25" stroke="black" stroke-width="0.1"/>
<path d="M6.38862 23.6662V23.6707C6.26805 23.6688 6.14672 23.6605 6.02444 23.6521C5.97877 23.649 5.93297 23.6458 5.88704 23.643C5.78609 23.6347 5.68376 23.6409 5.58603 23.6612C5.48815 23.6815 5.39639 23.7157 5.31638 23.7622C5.2364 23.8086 5.16925 23.8668 5.11989 23.9338C5.07046 24.0009 5.03989 24.0757 5.03147 24.1535C5.02305 24.2315 5.03717 24.3094 5.07216 24.3823C5.10707 24.4549 5.16173 24.5204 5.23155 24.5754C5.30136 24.6305 5.38534 24.6743 5.47809 24.705C5.57061 24.7356 5.67051 24.7526 5.7719 24.7552C5.96148 24.7665 6.15371 24.7759 6.34591 24.7835L6.34591 24.7835H6.34787H6.39324V24.7835L6.39397 24.7835C6.58697 24.7807 6.77314 24.7259 6.9138 24.6278C7.05459 24.5296 7.142 24.393 7.14867 24.2438C7.15536 24.0943 7.08005 23.9532 6.94751 23.8483C6.8153 23.7437 6.63393 23.6807 6.44157 23.6693L6.38862 23.6662Z" fill="#171B25" stroke="black" stroke-width="0.1"/>
<path d="M19.8731 17.4135L19.873 17.4135L21.297 16.8272C21.2756 16.7526 21.234 16.683 21.1757 16.6222C21.1174 16.5614 21.0435 16.5102 20.9589 16.4711C20.8742 16.4319 20.7799 16.4052 20.6815 16.3922C20.5831 16.3792 20.4821 16.3801 20.3841 16.3949C20.2862 16.4097 20.1929 16.4381 20.1096 16.4789C20.0263 16.5196 19.9541 16.5722 19.898 16.6342C19.8417 16.6963 19.8025 16.7668 19.7839 16.8421C19.7653 16.9173 19.7681 16.9945 19.792 17.0687C19.8261 17.1818 19.8548 17.2979 19.8731 17.4135Z" fill="#171B25" stroke="black" stroke-width="0.1"/>
<path d="M19.6943 19.178L19.6943 19.178L19.6942 19.1782C19.6524 19.2925 19.6027 19.407 19.5476 19.5179C19.5067 19.5887 19.4859 19.6658 19.4877 19.7441C19.4895 19.823 19.5141 19.8998 19.5587 19.9698C19.6032 20.0397 19.6666 20.1011 19.7438 20.1511C19.8211 20.2011 19.9112 20.2389 20.0084 20.2629C20.1056 20.2869 20.2085 20.2966 20.3109 20.2915C20.4132 20.2865 20.5134 20.2668 20.6054 20.2334C20.6973 20.2 20.7797 20.1534 20.847 20.0957C20.914 20.0385 20.9651 19.9711 20.9959 19.8971C21.0631 19.7585 21.1222 19.6165 21.1757 19.4769C21.2043 19.4039 21.2123 19.3269 21.1987 19.251C21.1852 19.1751 21.1506 19.1031 21.0984 19.039C21.0463 18.9749 20.9776 18.9199 20.8971 18.8763C20.8166 18.8327 20.7252 18.8011 20.6285 18.783L20.6193 18.8322L20.6283 18.783C20.4346 18.7476 20.2286 18.7676 20.0546 18.8396C19.881 18.9114 19.7487 19.0313 19.6943 19.178Z" fill="#171B25" stroke="black" stroke-width="0.1"/>
<path d="M22.7422 6.79643L22.7365 6.79043L22.7241 6.78653L22.1903 6.61905L22.1903 6.61905L22.1896 6.61882C22.0034 6.5637 21.7945 6.56299 21.6076 6.61679C21.4212 6.67048 21.2674 6.7756 21.1849 6.91403C21.1013 7.05432 21.1002 7.21417 21.1819 7.3552C21.2624 7.49432 21.4149 7.60054 21.6005 7.65555C21.7685 7.70631 21.9335 7.75696 22.0983 7.81131L22.0983 7.81132L22.099 7.81155C22.1982 7.84258 22.305 7.85866 22.4128 7.85899L22.413 7.85899C22.5847 7.85878 22.7524 7.81734 22.8885 7.74001C23.0245 7.66274 23.1235 7.55253 23.1633 7.42466C23.2034 7.29568 23.1792 7.16162 23.0981 7.04634C23.0197 6.93495 22.8935 6.84814 22.7422 6.79643Z" fill="#171B25" stroke="black" stroke-width="0.1"/>
<path d="M20.2669 3.8995L20.2668 3.89953C20.1586 3.94302 20.0662 4.00654 20.0005 4.08527C19.9345 4.16424 19.8974 4.25609 19.8959 4.3517C19.8943 4.44735 19.9284 4.53996 19.9919 4.62019C20.0553 4.70016 20.1457 4.76526 20.2526 4.81054L20.2527 4.81057L24.8396 6.7453V7.66591C24.6992 7.68246 24.5669 7.72677 24.4582 7.79511C24.3376 7.8709 24.2502 7.97382 24.2132 8.09154C24.1758 8.21012 24.1928 8.33369 24.2595 8.44322C24.3258 8.55194 24.4368 8.64025 24.5738 8.69826L24.5738 8.69828L24.575 8.69875L24.8286 8.79848L24.8285 8.79854L24.8309 8.79935C24.8338 8.80031 24.8367 8.80124 24.8396 8.80213V9.96381C24.8396 10.0876 24.9094 10.2011 25.0234 10.2814C25.1372 10.3617 25.2888 10.4052 25.4447 10.4052C25.6006 10.4052 25.7523 10.3617 25.8661 10.2814C25.9801 10.2011 26.0499 10.0876 26.0499 9.96381V2.47439V2.47433C26.0498 2.37855 26.0141 2.2862 25.9492 2.20646C25.8846 2.12697 25.7931 2.06252 25.6854 2.01796L25.6663 2.06415L25.6849 2.01779C25.5766 1.97415 25.4547 1.95146 25.3313 1.95146C25.2079 1.95146 25.086 1.97414 24.9777 2.01777C24.9777 2.01777 24.9777 2.01778 24.9776 2.01779L20.2669 3.8995ZM21.6155 4.36684L24.8396 3.07887V5.72785L21.6155 4.36684Z" fill="#171B25" stroke="black" stroke-width="0.1"/>
</g>
<defs>
<clipPath id="clip0_991_364">
<rect width="24" height="24" fill="white" transform="translate(2 2)"/>
</clipPath>
</defs>
</svg>
