<svg width="84" height="26" viewBox="0 0 84 26" fill="none" xmlns="http://www.w3.org/2000/svg">
<path d="M34.5895 10.8495C34.5303 10.6578 34.4486 10.4861 34.3445 10.3346C34.2427 10.1807 34.1196 10.0493 33.9751 9.94043C33.8331 9.83153 33.6697 9.74985 33.4851 9.6954C33.3004 9.63858 33.0992 9.61017 32.8814 9.61017C32.4908 9.61017 32.1428 9.70842 31.8374 9.90492C31.532 10.1014 31.2917 10.3902 31.1165 10.7714C30.9437 11.1502 30.8572 11.6118 30.8572 12.1563C30.8572 12.7056 30.9437 13.1708 31.1165 13.5519C31.2893 13.9331 31.5296 14.2231 31.8374 14.422C32.1451 14.6185 32.5026 14.7167 32.9098 14.7167C33.2791 14.7167 33.5987 14.6457 33.8686 14.5036C34.1409 14.3616 34.3504 14.1604 34.4972 13.8999C34.6439 13.6372 34.7173 13.3294 34.7173 12.9767L35.0156 13.0228H33.0412V11.993H35.9922V12.8666C35.9922 13.4892 35.8596 14.0278 35.5945 14.4823C35.3293 14.9369 34.9647 15.2873 34.5007 15.5335C34.0367 15.7773 33.504 15.8992 32.9027 15.8992C32.2327 15.8992 31.6444 15.7489 31.1378 15.4482C30.6335 15.1452 30.2393 14.7155 29.9553 14.1592C29.6735 13.6005 29.5327 12.9376 29.5327 12.1705C29.5327 11.5834 29.6155 11.059 29.7812 10.5974C29.9493 10.1357 30.1837 9.74393 30.4844 9.42196C30.785 9.09763 31.1378 8.85141 31.5426 8.68333C31.9474 8.51287 32.3878 8.42765 32.8636 8.42765C33.2661 8.42765 33.6413 8.48683 33.9893 8.6052C34.3374 8.72121 34.6463 8.88693 34.9162 9.10236C35.1884 9.3178 35.4122 9.57348 35.5874 9.86941C35.7625 10.1653 35.8774 10.492 35.9318 10.8495H34.5895ZM40.6859 13.5058V10.3453H41.9714V15.7998H40.725V14.8303H40.6681C40.545 15.1357 40.3426 15.3855 40.0609 15.5796C39.7815 15.7738 39.4371 15.8708 39.0275 15.8708C38.67 15.8708 38.354 15.7915 38.0794 15.6329C37.8071 15.4719 37.594 15.2387 37.4402 14.9333C37.2863 14.6256 37.2093 14.2539 37.2093 13.8183V10.3453H38.4949V13.6194C38.4949 13.9651 38.5895 14.2397 38.7789 14.4433C38.9683 14.6469 39.2169 14.7487 39.5247 14.7487C39.7141 14.7487 39.8975 14.7025 40.0751 14.6102C40.2527 14.5178 40.3983 14.3805 40.5119 14.1982C40.6279 14.0136 40.6859 13.7828 40.6859 13.5058ZM44.8629 15.9099C44.5173 15.9099 44.206 15.8483 43.929 15.7252C43.6544 15.5998 43.4366 15.4151 43.2756 15.1713C43.117 14.9274 43.0376 14.6267 43.0376 14.2693C43.0376 13.9615 43.0945 13.707 43.2081 13.5058C43.3217 13.3045 43.4768 13.1436 43.6733 13.0228C43.8698 12.9021 44.0911 12.8109 44.3374 12.7494C44.5859 12.6855 44.8428 12.6393 45.108 12.6109C45.4276 12.5777 45.6868 12.5481 45.8857 12.5221C46.0845 12.4937 46.2289 12.4511 46.3189 12.3943C46.4112 12.3351 46.4574 12.2439 46.4574 12.1208V12.0995C46.4574 11.832 46.3781 11.6249 46.2195 11.4781C46.0608 11.3313 45.8324 11.2579 45.5341 11.2579C45.2192 11.2579 44.9695 11.3266 44.7848 11.4639C44.6025 11.6012 44.4794 11.7633 44.4155 11.9504L43.2152 11.7799C43.3099 11.4485 43.4661 11.1715 43.6839 10.949C43.9018 10.724 44.1681 10.556 44.483 10.4447C44.7978 10.3311 45.1458 10.2742 45.527 10.2742C45.7898 10.2742 46.0514 10.305 46.3118 10.3666C46.5722 10.4281 46.8101 10.5299 47.0256 10.672C47.241 10.8116 47.4138 11.0022 47.544 11.2437C47.6766 11.4852 47.7429 11.787 47.7429 12.1492V15.7998H46.5071V15.0505H46.4645C46.3864 15.202 46.2763 15.3441 46.1342 15.4767C45.9946 15.6069 45.8182 15.7122 45.6051 15.7927C45.3944 15.8708 45.147 15.9099 44.8629 15.9099ZM45.1967 14.9653C45.4548 14.9653 45.6785 14.9144 45.8679 14.8126C46.0573 14.7084 46.2029 14.5711 46.3047 14.4007C46.4089 14.2302 46.4609 14.0444 46.4609 13.8431V13.2004C46.4207 13.2335 46.352 13.2643 46.255 13.2927C46.1603 13.3211 46.0537 13.346 45.9354 13.3673C45.817 13.3886 45.6998 13.4075 45.5838 13.4241C45.4678 13.4407 45.3672 13.4549 45.282 13.4667C45.0902 13.4927 44.9186 13.5354 44.767 13.5945C44.6155 13.6537 44.496 13.7366 44.4084 13.8431C44.3208 13.9473 44.277 14.0822 44.277 14.248C44.277 14.4847 44.3634 14.6634 44.5362 14.7842C44.709 14.9049 44.9292 14.9653 45.1967 14.9653ZM49.0355 15.7998V10.3453H50.282V11.2544H50.3388C50.4382 10.9395 50.6087 10.6968 50.8501 10.5264C51.094 10.3535 51.3722 10.2671 51.6847 10.2671C51.7557 10.2671 51.835 10.2707 51.9226 10.2778C52.0125 10.2825 52.0871 10.2908 52.1463 10.3026V11.4852C52.0919 11.4662 52.0054 11.4497 51.8871 11.4355C51.7711 11.4189 51.6586 11.4106 51.5497 11.4106C51.3153 11.4106 51.1046 11.4615 50.9176 11.5633C50.733 11.6627 50.5874 11.8012 50.4808 11.9788C50.3743 12.1563 50.321 12.3611 50.321 12.5931V15.7998H49.0355ZM54.7999 15.8957C54.3714 15.8957 53.9879 15.7856 53.6493 15.5654C53.3108 15.3453 53.0433 15.0257 52.8468 14.6066C52.6503 14.1876 52.552 13.6786 52.552 13.0796C52.552 12.4736 52.6515 11.9622 52.8503 11.5455C53.0516 11.1265 53.3226 10.8105 53.6635 10.5974C54.0044 10.382 54.3844 10.2742 54.8034 10.2742C55.123 10.2742 55.3858 10.3287 55.5918 10.4376C55.7978 10.5441 55.9611 10.6731 56.0819 10.8247C56.2026 10.9738 56.2961 11.1147 56.3624 11.2472H56.4157V8.52708H57.7047V15.7998H56.4405V14.9404H56.3624C56.2961 15.073 56.2002 15.2139 56.0748 15.363C55.9493 15.5098 55.7836 15.6353 55.5776 15.7394C55.3716 15.8436 55.1124 15.8957 54.7999 15.8957ZM55.1586 14.841C55.4308 14.841 55.6628 14.7676 55.8546 14.6208C56.0463 14.4717 56.1919 14.2645 56.2914 13.9994C56.3908 13.7342 56.4405 13.4253 56.4405 13.0725C56.4405 12.7198 56.3908 12.4132 56.2914 12.1528C56.1943 11.8924 56.0499 11.69 55.8581 11.5455C55.6687 11.4011 55.4355 11.3289 55.1586 11.3289C54.8721 11.3289 54.633 11.4035 54.4412 11.5526C54.2495 11.7018 54.1051 11.9078 54.008 12.1705C53.9109 12.4333 53.8624 12.734 53.8624 13.0725C53.8624 13.4134 53.9109 13.7177 54.008 13.9852C54.1074 14.2503 54.253 14.4598 54.4448 14.6137C54.6389 14.7652 54.8768 14.841 55.1586 14.841ZM61.4893 15.9063C60.9425 15.9063 60.4702 15.7927 60.0724 15.5654C59.6771 15.3358 59.3729 15.0115 59.1598 14.5924C58.9467 14.171 58.8402 13.675 58.8402 13.1045C58.8402 12.5434 58.9467 12.051 59.1598 11.6272C59.3752 11.2011 59.6759 10.8696 60.0618 10.6329C60.4477 10.3938 60.901 10.2742 61.4219 10.2742C61.758 10.2742 62.0753 10.3287 62.3736 10.4376C62.6742 10.5441 62.9394 10.7098 63.169 10.9347C63.401 11.1597 63.5833 11.4461 63.7159 11.7941C63.8485 12.1398 63.9148 12.5517 63.9148 13.0299V13.4241H59.4439V12.5576H62.6825C62.6802 12.3114 62.6269 12.0924 62.5227 11.9007C62.4186 11.7065 62.273 11.5538 62.0859 11.4426C61.9013 11.3313 61.6858 11.2757 61.4396 11.2757C61.1768 11.2757 60.946 11.3396 60.7472 11.4674C60.5483 11.5929 60.3932 11.7586 60.282 11.9646C60.1731 12.1682 60.1174 12.3919 60.1151 12.6357V13.3921C60.1151 13.7094 60.1731 13.9816 60.2891 14.2089C60.4051 14.4338 60.5672 14.6066 60.7756 14.7274C60.9839 14.8457 61.2277 14.9049 61.5071 14.9049C61.6941 14.9049 61.8634 14.8789 62.0149 14.8268C62.1664 14.7723 62.2978 14.693 62.4091 14.5889C62.5204 14.4847 62.6044 14.3557 62.6612 14.2018L63.8615 14.3367C63.7857 14.654 63.6413 14.931 63.4283 15.1677C63.2176 15.4021 62.9477 15.5844 62.6186 15.7146C62.2895 15.8424 61.9131 15.9063 61.4893 15.9063ZM65.0023 15.7998V10.3453H66.2488V11.2544H66.3056C66.405 10.9395 66.5755 10.6968 66.8169 10.5264C67.0608 10.3535 67.339 10.2671 67.6515 10.2671C67.7225 10.2671 67.8018 10.2707 67.8894 10.2778C67.9793 10.2825 68.0539 10.2908 68.1131 10.3026V11.4852C68.0587 11.4662 67.9722 11.4497 67.8539 11.4355C67.7379 11.4189 67.6254 11.4106 67.5165 11.4106C67.2821 11.4106 67.0714 11.4615 66.8844 11.5633C66.6998 11.6627 66.5542 11.8012 66.4476 11.9788C66.3411 12.1563 66.2878 12.3611 66.2878 12.5931V15.7998H65.0023ZM68.9672 15.7998V10.3453H70.2527V15.7998H68.9672ZM69.1199 9.62793L69.9153 8.00506H71.1724L70.0822 9.62793H69.1199ZM73.1442 15.9099C72.7985 15.9099 72.4872 15.8483 72.2102 15.7252C71.9356 15.5998 71.7178 15.4151 71.5568 15.1713C71.3982 14.9274 71.3189 14.6267 71.3189 14.2693C71.3189 13.9615 71.3757 13.707 71.4893 13.5058C71.603 13.3045 71.758 13.1436 71.9545 13.0228C72.151 12.9021 72.3724 12.8109 72.6186 12.7494C72.8672 12.6855 73.1241 12.6393 73.3892 12.6109C73.7088 12.5777 73.968 12.5481 74.1669 12.5221C74.3658 12.4937 74.5102 12.4511 74.6001 12.3943C74.6925 12.3351 74.7386 12.2439 74.7386 12.1208V12.0995C74.7386 11.832 74.6593 11.6249 74.5007 11.4781C74.3421 11.3313 74.1136 11.2579 73.8153 11.2579C73.5005 11.2579 73.2507 11.3266 73.0661 11.4639C72.8838 11.6012 72.7607 11.7633 72.6967 11.9504L71.4964 11.7799C71.5911 11.4485 71.7474 11.1715 71.9652 10.949C72.183 10.724 72.4493 10.556 72.7642 10.4447C73.0791 10.3311 73.4271 10.2742 73.8082 10.2742C74.071 10.2742 74.3326 10.305 74.593 10.3666C74.8535 10.4281 75.0914 10.5299 75.3068 10.672C75.5223 10.8116 75.6951 11.0022 75.8253 11.2437C75.9579 11.4852 76.0241 11.787 76.0241 12.1492V15.7998H74.7884V15.0505H74.7457C74.6676 15.202 74.5575 15.3441 74.4155 15.4767C74.2758 15.6069 74.0994 15.7122 73.8864 15.7927C73.6757 15.8708 73.4283 15.9099 73.1442 15.9099ZM73.478 14.9653C73.736 14.9653 73.9598 14.9144 74.1491 14.8126C74.3385 14.7084 74.4841 14.5711 74.5859 14.4007C74.6901 14.2302 74.7422 14.0444 74.7422 13.8431V13.2004C74.7019 13.2335 74.6333 13.2643 74.5362 13.2927C74.4415 13.3211 74.335 13.346 74.2166 13.3673C74.0982 13.3886 73.9811 13.4075 73.8651 13.4241C73.7491 13.4407 73.6484 13.4549 73.5632 13.4667C73.3714 13.4927 73.1998 13.5354 73.0483 13.5945C72.8968 13.6537 72.7772 13.7366 72.6896 13.8431C72.602 13.9473 72.5582 14.0822 72.5582 14.248C72.5582 14.4847 72.6446 14.6634 72.8175 14.7842C72.9903 14.9049 73.2105 14.9653 73.478 14.9653ZM81.6278 11.787L80.456 11.9149C80.4228 11.7965 80.3648 11.6852 80.282 11.5811C80.2015 11.4769 80.0926 11.3928 79.9553 11.3289C79.8179 11.265 79.6499 11.233 79.451 11.233C79.1835 11.233 78.9586 11.291 78.7763 11.407C78.5964 11.5231 78.5076 11.6734 78.5099 11.858C78.5076 12.0167 78.5656 12.1457 78.6839 12.2451C78.8047 12.3445 79.0036 12.4262 79.2805 12.4901L80.2109 12.689C80.727 12.8003 81.1106 12.9767 81.3615 13.2181C81.6148 13.4596 81.7427 13.7757 81.745 14.1663C81.7427 14.5096 81.642 14.8126 81.4432 15.0754C81.2467 15.3358 80.9732 15.5394 80.6229 15.6862C80.2725 15.8329 79.87 15.9063 79.4155 15.9063C78.7479 15.9063 78.2105 15.7667 77.8033 15.4873C77.3961 15.2056 77.1534 14.8138 77.0753 14.3119L78.3288 14.1911C78.3857 14.4374 78.5064 14.6232 78.6911 14.7487C78.8757 14.8741 79.116 14.9369 79.4119 14.9369C79.7173 14.9369 79.9624 14.8741 80.147 14.7487C80.334 14.6232 80.4276 14.4681 80.4276 14.2835C80.4276 14.1272 80.3672 13.9982 80.2464 13.8964C80.1281 13.7946 79.9434 13.7165 79.6925 13.662L78.7621 13.4667C78.2389 13.3578 77.8518 13.1743 77.6009 12.9163C77.3499 12.6559 77.2256 12.3268 77.228 11.9291C77.2256 11.5929 77.3168 11.3017 77.5014 11.0555C77.6884 10.8069 77.9477 10.6151 78.2791 10.4802C78.6129 10.3429 78.9976 10.2742 79.4332 10.2742C80.0724 10.2742 80.5755 10.4104 80.9425 10.6826C81.3118 10.9549 81.5402 11.323 81.6278 11.787Z" fill="black"/>
<g clip-path="url(#clip0_991_366)">
<path d="M14.1354 4.88994L14.1353 4.88994C12.0526 4.89235 10.0549 5.63146 8.58069 6.94667C7.10625 8.26205 6.27546 10.0467 6.27275 11.9097L6.32275 11.9097H6.27275C6.27275 13.2995 6.73473 14.6574 7.59939 15.8119C8.464 16.9663 9.69226 17.8652 11.1283 18.3959C12.5643 18.9265 14.1441 19.0653 15.6683 18.7948C17.1924 18.5243 18.5931 17.8566 19.693 16.8754C20.7929 15.8941 21.5428 14.6432 21.8466 13.2803C22.1505 11.9174 21.9945 10.5048 21.3986 9.22145C20.8028 7.93816 19.7942 6.84226 18.5014 6.07161C17.2086 5.30099 15.6892 4.88994 14.1354 4.88994ZM9.46234 7.74845C10.7009 6.64347 12.3816 6.02135 14.1354 6.02016C15.4435 6.02016 16.7218 6.36623 17.8086 7.0141C18.8955 7.66196 19.7416 8.58222 20.241 9.65781C20.7404 10.7333 20.8709 11.9163 20.6164 13.0576C20.3619 14.1989 19.7336 15.2482 18.8098 16.0723C17.886 16.8965 16.7083 17.4583 15.4255 17.6859C14.1426 17.9136 12.813 17.7967 11.6049 17.3503C10.3967 16.9038 9.36504 16.1481 8.63961 15.1796C7.91426 14.2111 7.52756 13.0732 7.52755 11.9098C7.52888 10.3501 8.22393 8.85326 9.46234 7.74845Z" fill="#171B25" stroke="black" stroke-width="0.1"/>
<path d="M16.868 12.4771V12.4772L16.8709 12.477C17.0288 12.4677 17.1779 12.4052 17.2876 12.3006C17.3974 12.196 17.4596 12.0567 17.4596 11.9109C17.4596 11.7651 17.3974 11.6258 17.2876 11.5212C17.1779 11.4166 17.0288 11.3541 16.8709 11.3447L16.8709 11.3447H16.868H14.6692V8.11423C14.6692 7.96239 14.6015 7.8181 14.4833 7.71268C14.3653 7.60743 14.2064 7.54912 14.0418 7.54912C13.8771 7.54912 13.7182 7.60743 13.6002 7.71268C13.482 7.8181 13.4144 7.96239 13.4144 8.11423V11.9098C13.4144 12.0618 13.4819 12.2063 13.6 12.312C13.7178 12.4177 13.8767 12.4765 14.0416 12.4771L14.0418 12.4271V12.4771H16.868Z" fill="#171B25" stroke="black" stroke-width="0.1"/>
<path d="M1.98288 5.37437L1.95 5.38636V5.42135V5.76701H1.94998L1.95002 5.76837C2.02613 8.58174 2.51483 11.3741 3.4036 14.0741L3.40367 14.0743C5.33235 19.8497 8.92881 23.6352 13.8053 25.012L13.8057 25.0121L13.9374 25.0482L13.9475 25.051L13.958 25.0495L14.0941 25.0292C14.0942 25.0292 14.0943 25.0292 14.0944 25.0292C14.2215 25.0118 17.0107 24.5716 19.8825 21.9349L19.8488 21.8982L19.8825 21.9349C24.588 17.6124 25.8295 10.7628 26.0373 5.78718L26.0373 5.78718V5.78509V5.42813V5.39343L26.0048 5.38129L14.1479 0.95316L14.1306 0.946706L14.1133 0.953023L1.98288 5.37437ZM19.0474 21.0865C16.7925 23.1763 14.5835 23.778 14.019 23.8868C9.14191 22.4465 6.46616 18.5733 4.99631 14.7699C3.54086 11.0037 3.27107 7.31355 3.21655 6.14482L14.1252 2.16936L24.763 6.13768C24.5182 10.8569 23.3062 17.1298 19.0474 21.0865Z" fill="#171B25" stroke="black" stroke-width="0.1"/>
</g>
<defs>
<clipPath id="clip0_991_366">
<rect width="24" height="24" fill="white" transform="translate(2 1)"/>
</clipPath>
</defs>
</svg>
