<svg width="86" height="26" viewBox="0 0 86 26" fill="none" xmlns="http://www.w3.org/2000/svg">
<path d="M35.7173 3.72727H37.3295L39.4886 8.99716H39.5739L41.733 3.72727H43.3452V11H42.081V6.00355H42.0135L40.0036 10.9787H39.0589L37.049 5.9929H36.9815V11H35.7173V3.72727ZM46.2926 11.1101C45.947 11.1101 45.6357 11.0485 45.3587 10.9254C45.084 10.8 44.8662 10.6153 44.7053 10.3714C44.5466 10.1276 44.4673 9.82694 44.4673 9.46946C44.4673 9.1617 44.5241 8.9072 44.6378 8.70597C44.7514 8.50473 44.9065 8.34375 45.103 8.22301C45.2995 8.10227 45.5208 8.01113 45.767 7.94957C46.0156 7.88565 46.2725 7.83949 46.5376 7.81108C46.8572 7.77794 47.1165 7.74834 47.3153 7.7223C47.5142 7.69389 47.6586 7.65128 47.7486 7.59446C47.8409 7.53527 47.8871 7.44413 47.8871 7.32102V7.29972C47.8871 7.0322 47.8078 6.82505 47.6491 6.67827C47.4905 6.53149 47.2621 6.4581 46.9638 6.4581C46.6489 6.4581 46.3991 6.52675 46.2145 6.66406C46.0322 6.80137 45.9091 6.96354 45.8452 7.15057L44.6449 6.98011C44.7396 6.64867 44.8958 6.37169 45.1136 6.14915C45.3314 5.92424 45.5978 5.75616 45.9126 5.64489C46.2275 5.53125 46.5755 5.47443 46.9567 5.47443C47.2195 5.47443 47.4811 5.50521 47.7415 5.56676C48.0019 5.62831 48.2398 5.73011 48.4553 5.87216C48.6707 6.01184 48.8435 6.20241 48.9737 6.44389C49.1063 6.68537 49.1726 6.98722 49.1726 7.34943V11H47.9368V10.2507H47.8942C47.8161 10.4022 47.706 10.5443 47.5639 10.6768C47.4242 10.8071 47.2479 10.9124 47.0348 10.9929C46.8241 11.071 46.5767 11.1101 46.2926 11.1101ZM46.6264 10.1655C46.8845 10.1655 47.1082 10.1146 47.2976 10.0128C47.487 9.90862 47.6326 9.77131 47.7344 9.60085C47.8385 9.4304 47.8906 9.24455 47.8906 9.04332V8.40057C47.8504 8.43371 47.7817 8.46449 47.6847 8.4929C47.59 8.52131 47.4834 8.54616 47.3651 8.56747C47.2467 8.58878 47.1295 8.60772 47.0135 8.62429C46.8975 8.64086 46.7969 8.65507 46.7116 8.6669C46.5199 8.69294 46.3482 8.73556 46.1967 8.79474C46.0452 8.85393 45.9257 8.93679 45.8381 9.04332C45.7505 9.14749 45.7067 9.28243 45.7067 9.44815C45.7067 9.6849 45.7931 9.86364 45.9659 9.98438C46.1387 10.1051 46.3589 10.1655 46.6264 10.1655ZM54.7763 6.98722L53.6044 7.11506C53.5713 6.99669 53.5133 6.88542 53.4304 6.78125C53.3499 6.67708 53.241 6.59304 53.1037 6.52912C52.9664 6.4652 52.7983 6.43324 52.5994 6.43324C52.3319 6.43324 52.107 6.49124 51.9247 6.60724C51.7448 6.72325 51.656 6.87358 51.6584 7.05824C51.656 7.21686 51.714 7.34588 51.8324 7.44531C51.9531 7.54474 52.152 7.62642 52.429 7.69034L53.3594 7.8892C53.8755 8.00047 54.259 8.17685 54.5099 8.41832C54.7633 8.6598 54.8911 8.97585 54.8935 9.36648C54.8911 9.70975 54.7905 10.0128 54.5916 10.2756C54.3951 10.536 54.1217 10.7396 53.7713 10.8864C53.4209 11.0331 53.0185 11.1065 52.5639 11.1065C51.8963 11.1065 51.3589 10.9669 50.9517 10.6875C50.5445 10.4058 50.3018 10.014 50.2237 9.51207L51.4773 9.39134C51.5341 9.63755 51.6548 9.82339 51.8395 9.94886C52.0241 10.0743 52.2644 10.1371 52.5604 10.1371C52.8658 10.1371 53.1108 10.0743 53.2955 9.94886C53.4825 9.82339 53.576 9.66832 53.576 9.48366C53.576 9.32741 53.5156 9.19839 53.3949 9.09659C53.2765 8.99479 53.0919 8.91667 52.8409 8.86222L51.9105 8.6669C51.3873 8.558 51.0002 8.37453 50.7493 8.11648C50.4983 7.85606 50.3741 7.52699 50.3764 7.12926C50.3741 6.79309 50.4652 6.50189 50.6499 6.25568C50.8369 6.0071 51.0961 5.81534 51.4276 5.6804C51.7614 5.54309 52.1461 5.47443 52.5817 5.47443C53.2209 5.47443 53.724 5.61056 54.0909 5.88281C54.4602 6.15507 54.6887 6.5232 54.7763 6.98722ZM58.3327 11.1065C57.7882 11.1065 57.3207 10.987 56.93 10.7479C56.5418 10.5088 56.2423 10.1785 56.0316 9.7571C55.8233 9.33333 55.7191 8.84564 55.7191 8.29403C55.7191 7.74006 55.8256 7.25118 56.0387 6.82741C56.2518 6.40128 56.5524 6.06984 56.9407 5.8331C57.3313 5.59399 57.793 5.47443 58.3256 5.47443C58.7683 5.47443 59.1602 5.55611 59.5011 5.71946C59.8443 5.88045 60.1178 6.1089 60.3214 6.40483C60.525 6.69839 60.641 7.04167 60.6694 7.43466H59.4407C59.391 7.17187 59.2726 6.95289 59.0856 6.7777C58.9009 6.60014 58.6535 6.51136 58.3434 6.51136C58.0806 6.51136 57.8498 6.58239 57.6509 6.72443C57.4521 6.86411 57.297 7.06534 57.1857 7.32812C57.0768 7.59091 57.0224 7.90578 57.0224 8.27273C57.0224 8.64441 57.0768 8.96402 57.1857 9.23153C57.2946 9.49669 57.4473 9.70147 57.6438 9.84588C57.8427 9.98793 58.0759 10.0589 58.3434 10.0589C58.5328 10.0589 58.7021 10.0234 58.8512 9.95241C59.0027 9.87902 59.1294 9.77367 59.2312 9.63636C59.333 9.49905 59.4028 9.33215 59.4407 9.13565H60.6694C60.6386 9.52154 60.525 9.86364 60.3285 10.1619C60.132 10.4579 59.8645 10.6899 59.5259 10.858C59.1874 11.0237 58.7897 11.1065 58.3327 11.1065ZM64.1042 11.1065C63.5716 11.1065 63.1099 10.9893 62.7193 10.755C62.3287 10.5206 62.0256 10.1927 61.8102 9.77131C61.5971 9.34991 61.4906 8.85748 61.4906 8.29403C61.4906 7.73059 61.5971 7.23698 61.8102 6.81321C62.0256 6.38944 62.3287 6.06037 62.7193 5.82599C63.1099 5.59162 63.5716 5.47443 64.1042 5.47443C64.6369 5.47443 65.0985 5.59162 65.4892 5.82599C65.8798 6.06037 66.1816 6.38944 66.3947 6.81321C66.6101 7.23698 66.7179 7.73059 66.7179 8.29403C66.7179 8.85748 66.6101 9.34991 66.3947 9.77131C66.1816 10.1927 65.8798 10.5206 65.4892 10.755C65.0985 10.9893 64.6369 11.1065 64.1042 11.1065ZM64.1113 10.0767C64.4002 10.0767 64.6416 9.9974 64.8358 9.83878C65.0299 9.67779 65.1743 9.46236 65.269 9.19247C65.3661 8.92259 65.4146 8.62192 65.4146 8.29048C65.4146 7.95668 65.3661 7.65483 65.269 7.38494C65.1743 7.11269 65.0299 6.89607 64.8358 6.73509C64.6416 6.5741 64.4002 6.49361 64.1113 6.49361C63.8154 6.49361 63.5692 6.5741 63.3727 6.73509C63.1786 6.89607 63.033 7.11269 62.9359 7.38494C62.8412 7.65483 62.7939 7.95668 62.7939 8.29048C62.7939 8.62192 62.8412 8.92259 62.9359 9.19247C63.033 9.46236 63.1786 9.67779 63.3727 9.83878C63.5692 9.9974 63.8154 10.0767 64.1113 10.0767ZM70.5327 5.54545V6.53977H67.397V5.54545H70.5327ZM68.1712 4.23864H69.4567V9.35938C69.4567 9.5322 69.4827 9.66477 69.5348 9.7571C69.5893 9.84706 69.6603 9.90862 69.7479 9.94176C69.8355 9.97491 69.9325 9.99148 70.0391 9.99148C70.1196 9.99148 70.1929 9.98556 70.2592 9.97372C70.3279 9.96188 70.38 9.95123 70.4155 9.94176L70.6321 10.9467C70.5634 10.9704 70.4652 10.9964 70.3374 11.0249C70.2119 11.0533 70.058 11.0698 69.8757 11.0746C69.5537 11.084 69.2637 11.0355 69.0057 10.929C68.7476 10.8201 68.5429 10.652 68.3913 10.4247C68.2422 10.1974 68.1688 9.91335 68.1712 9.57244V4.23864ZM73.1774 11.1101C72.8317 11.1101 72.5204 11.0485 72.2434 10.9254C71.9688 10.8 71.751 10.6153 71.59 10.3714C71.4314 10.1276 71.3521 9.82694 71.3521 9.46946C71.3521 9.1617 71.4089 8.9072 71.5225 8.70597C71.6362 8.50473 71.7913 8.34375 71.9877 8.22301C72.1842 8.10227 72.4056 8.01113 72.6518 7.94957C72.9004 7.88565 73.1573 7.83949 73.4224 7.81108C73.742 7.77794 74.0012 7.74834 74.2001 7.7223C74.399 7.69389 74.5434 7.65128 74.6333 7.59446C74.7257 7.53527 74.7718 7.44413 74.7718 7.32102V7.29972C74.7718 7.0322 74.6925 6.82505 74.5339 6.67827C74.3753 6.53149 74.1468 6.4581 73.8485 6.4581C73.5337 6.4581 73.2839 6.52675 73.0993 6.66406C72.917 6.80137 72.7939 6.96354 72.7299 7.15057L71.5297 6.98011C71.6243 6.64867 71.7806 6.37169 71.9984 6.14915C72.2162 5.92424 72.4825 5.75616 72.7974 5.64489C73.1123 5.53125 73.4603 5.47443 73.8414 5.47443C74.1042 5.47443 74.3658 5.50521 74.6262 5.56676C74.8867 5.62831 75.1246 5.73011 75.34 5.87216C75.5555 6.01184 75.7283 6.20241 75.8585 6.44389C75.9911 6.68537 76.0574 6.98722 76.0574 7.34943V11H74.8216V10.2507H74.7789C74.7008 10.4022 74.5907 10.5443 74.4487 10.6768C74.309 10.8071 74.1326 10.9124 73.9196 10.9929C73.7089 11.071 73.4615 11.1101 73.1774 11.1101ZM73.5112 10.1655C73.7692 10.1655 73.993 10.1146 74.1824 10.0128C74.3717 9.90862 74.5173 9.77131 74.6191 9.60085C74.7233 9.4304 74.7754 9.24455 74.7754 9.04332V8.40057C74.7351 8.43371 74.6665 8.46449 74.5694 8.4929C74.4747 8.52131 74.3682 8.54616 74.2498 8.56747C74.1315 8.58878 74.0143 8.60772 73.8983 8.62429C73.7823 8.64086 73.6816 8.65507 73.5964 8.6669C73.4047 8.69294 73.233 8.73556 73.0815 8.79474C72.93 8.85393 72.8104 8.93679 72.7228 9.04332C72.6352 9.14749 72.5914 9.28243 72.5914 9.44815C72.5914 9.6849 72.6779 9.86364 72.8507 9.98438C73.0235 10.1051 73.2437 10.1655 73.5112 10.1655ZM81.661 6.98722L80.4892 7.11506C80.456 6.99669 80.398 6.88542 80.3152 6.78125C80.2347 6.67708 80.1258 6.59304 79.9885 6.52912C79.8511 6.4652 79.6831 6.43324 79.4842 6.43324C79.2167 6.43324 78.9918 6.49124 78.8095 6.60724C78.6296 6.72325 78.5408 6.87358 78.5431 7.05824C78.5408 7.21686 78.5988 7.34588 78.7172 7.44531C78.8379 7.54474 79.0368 7.62642 79.3137 7.69034L80.2441 7.8892C80.7602 8.00047 81.1438 8.17685 81.3947 8.41832C81.648 8.6598 81.7759 8.97585 81.7782 9.36648C81.7759 9.70975 81.6752 10.0128 81.4764 10.2756C81.2799 10.536 81.0065 10.7396 80.6561 10.8864C80.3057 11.0331 79.9032 11.1065 79.4487 11.1065C78.7811 11.1065 78.2437 10.9669 77.8365 10.6875C77.4293 10.4058 77.1866 10.014 77.1085 9.51207L78.362 9.39134C78.4189 9.63755 78.5396 9.82339 78.7243 9.94886C78.9089 10.0743 79.1492 10.1371 79.4451 10.1371C79.7505 10.1371 79.9956 10.0743 80.1802 9.94886C80.3672 9.82339 80.4608 9.66832 80.4608 9.48366C80.4608 9.32741 80.4004 9.19839 80.2797 9.09659C80.1613 8.99479 79.9766 8.91667 79.7257 8.86222L78.7953 8.6669C78.2721 8.558 77.885 8.37453 77.6341 8.11648C77.3831 7.85606 77.2588 7.52699 77.2612 7.12926C77.2588 6.79309 77.35 6.50189 77.5346 6.25568C77.7217 6.0071 77.9809 5.81534 78.3123 5.6804C78.6461 5.54309 79.0308 5.47443 79.4664 5.47443C80.1056 5.47443 80.6087 5.61056 80.9757 5.88281C81.345 6.15507 81.5734 6.5232 81.661 6.98722ZM35.6605 25.0455V17.5455H36.9247V18.4474H36.9993C37.0656 18.3149 37.1591 18.174 37.2798 18.0249C37.4006 17.8733 37.5639 17.7443 37.7699 17.6378C37.9759 17.5289 38.2386 17.4744 38.5582 17.4744C38.9796 17.4744 39.3596 17.5821 39.6982 17.7976C40.0391 18.0107 40.3089 18.3267 40.5078 18.7457C40.709 19.1624 40.8097 19.6738 40.8097 20.2798C40.8097 20.8788 40.7114 21.3878 40.5149 21.8068C40.3184 22.2259 40.0509 22.5455 39.7124 22.7656C39.3738 22.9858 38.9903 23.0959 38.5618 23.0959C38.2493 23.0959 37.9901 23.0438 37.7841 22.9396C37.5781 22.8355 37.4124 22.71 37.2869 22.5632C37.1638 22.4141 37.0679 22.2732 36.9993 22.1406H36.946V25.0455H35.6605ZM36.9212 20.2727C36.9212 20.6255 36.9709 20.9344 37.0703 21.1996C37.1721 21.4647 37.3177 21.6719 37.5071 21.821C37.6989 21.9678 37.9309 22.0412 38.2031 22.0412C38.4872 22.0412 38.7251 21.9654 38.9169 21.8139C39.1087 21.66 39.2531 21.4505 39.3501 21.1854C39.4496 20.9179 39.4993 20.6136 39.4993 20.2727C39.4993 19.9342 39.4508 19.6335 39.3537 19.3707C39.2566 19.108 39.1122 18.902 38.9205 18.7528C38.7287 18.6037 38.4896 18.5291 38.2031 18.5291C37.9285 18.5291 37.6953 18.6013 37.5036 18.7457C37.3118 18.8902 37.1662 19.0926 37.0668 19.353C36.9697 19.6134 36.9212 19.92 36.9212 20.2727ZM44.3253 23.1065C43.7784 23.1065 43.3061 22.9929 42.9084 22.7656C42.513 22.536 42.2088 22.2116 41.9957 21.7926C41.7827 21.3712 41.6761 20.8752 41.6761 20.3047C41.6761 19.7436 41.7827 19.2512 41.9957 18.8274C42.2112 18.4013 42.5118 18.0698 42.8977 17.8331C43.2836 17.594 43.737 17.4744 44.2578 17.4744C44.594 17.4744 44.9112 17.5289 45.2095 17.6378C45.5102 17.7443 45.7753 17.91 46.005 18.1349C46.237 18.3598 46.4193 18.6463 46.5518 18.9943C46.6844 19.34 46.7507 19.7519 46.7507 20.2301V20.6243H42.2798V19.7578H45.5185C45.5161 19.5116 45.4628 19.2926 45.3587 19.1009C45.2545 18.9067 45.1089 18.754 44.9219 18.6428C44.7372 18.5315 44.5218 18.4759 44.2756 18.4759C44.0128 18.4759 43.782 18.5398 43.5831 18.6676C43.3842 18.7931 43.2292 18.9588 43.1179 19.1648C43.009 19.3684 42.9534 19.5921 42.951 19.8359V20.5923C42.951 20.9096 43.009 21.1818 43.125 21.4091C43.241 21.634 43.4032 21.8068 43.6115 21.9276C43.8198 22.0459 44.0637 22.1051 44.343 22.1051C44.5301 22.1051 44.6993 22.0791 44.8509 22.027C45.0024 21.9725 45.1338 21.8932 45.245 21.7891C45.3563 21.6849 45.4403 21.5559 45.4972 21.402L46.6974 21.5369C46.6217 21.8542 46.4773 22.1312 46.2642 22.3679C46.0535 22.6023 45.7836 22.7846 45.4545 22.9148C45.1255 23.0426 44.7491 23.1065 44.3253 23.1065ZM47.8382 23V17.5455H49.0847V18.4545H49.1415C49.2409 18.1397 49.4114 17.897 49.6529 17.7266C49.8967 17.5537 50.1749 17.4673 50.4874 17.4673C50.5584 17.4673 50.6377 17.4709 50.7253 17.478C50.8153 17.4827 50.8899 17.491 50.949 17.5028V18.6854C50.8946 18.6664 50.8082 18.6499 50.6898 18.6357C50.5738 18.6191 50.4614 18.6108 50.3525 18.6108C50.1181 18.6108 49.9074 18.6617 49.7203 18.7635C49.5357 18.8629 49.3901 19.0014 49.2836 19.179C49.177 19.3565 49.1238 19.5613 49.1238 19.7933V23H47.8382ZM53.6026 23.0959C53.1741 23.0959 52.7906 22.9858 52.4521 22.7656C52.1135 22.5455 51.846 22.2259 51.6495 21.8068C51.453 21.3878 51.3548 20.8788 51.3548 20.2798C51.3548 19.6738 51.4542 19.1624 51.6531 18.7457C51.8543 18.3267 52.1254 18.0107 52.4663 17.7976C52.8072 17.5821 53.1871 17.4744 53.6062 17.4744C53.9258 17.4744 54.1886 17.5289 54.3945 17.6378C54.6005 17.7443 54.7638 17.8733 54.8846 18.0249C55.0053 18.174 55.0988 18.3149 55.1651 18.4474H55.2184V15.7273H56.5075V23H55.2433V22.1406H55.1651C55.0988 22.2732 55.003 22.4141 54.8775 22.5632C54.752 22.71 54.5863 22.8355 54.3803 22.9396C54.1744 23.0438 53.9151 23.0959 53.6026 23.0959ZM53.9613 22.0412C54.2335 22.0412 54.4656 21.9678 54.6573 21.821C54.8491 21.6719 54.9947 21.4647 55.0941 21.1996C55.1935 20.9344 55.2433 20.6255 55.2433 20.2727C55.2433 19.92 55.1935 19.6134 55.0941 19.353C54.997 19.0926 54.8526 18.8902 54.6609 18.7457C54.4715 18.6013 54.2383 18.5291 53.9613 18.5291C53.6748 18.5291 53.4357 18.6037 53.244 18.7528C53.0522 18.902 52.9078 19.108 52.8107 19.3707C52.7137 19.6335 52.6651 19.9342 52.6651 20.2727C52.6651 20.6136 52.7137 20.9179 52.8107 21.1854C52.9102 21.4505 53.0558 21.66 53.2475 21.8139C53.4416 21.9654 53.6796 22.0412 53.9613 22.0412ZM57.8773 23V17.5455H59.1628V23H57.8773ZM58.5236 16.7713C58.32 16.7713 58.1448 16.7038 57.998 16.5689C57.8513 16.4316 57.7779 16.267 57.7779 16.0753C57.7779 15.8812 57.8513 15.7166 57.998 15.5817C58.1448 15.4444 58.32 15.3757 58.5236 15.3757C58.7296 15.3757 58.9048 15.4444 59.0492 15.5817C59.196 15.7166 59.2694 15.8812 59.2694 16.0753C59.2694 16.267 59.196 16.4316 59.0492 16.5689C58.9048 16.7038 58.7296 16.7713 58.5236 16.7713ZM62.5089 23.0959C62.0804 23.0959 61.6969 22.9858 61.3583 22.7656C61.0198 22.5455 60.7522 22.2259 60.5558 21.8068C60.3593 21.3878 60.261 20.8788 60.261 20.2798C60.261 19.6738 60.3604 19.1624 60.5593 18.7457C60.7605 18.3267 61.0316 18.0107 61.3725 17.7976C61.7134 17.5821 62.0934 17.4744 62.5124 17.4744C62.832 17.4744 63.0948 17.5289 63.3008 17.6378C63.5067 17.7443 63.6701 17.8733 63.7908 18.0249C63.9116 18.174 64.0051 18.3149 64.0714 18.4474H64.1246V15.7273H65.4137V23H64.1495V22.1406H64.0714C64.0051 22.2732 63.9092 22.4141 63.7837 22.5632C63.6583 22.71 63.4925 22.8355 63.2866 22.9396C63.0806 23.0438 62.8214 23.0959 62.5089 23.0959ZM62.8675 22.0412C63.1398 22.0412 63.3718 21.9678 63.5636 21.821C63.7553 21.6719 63.9009 21.4647 64.0004 21.1996C64.0998 20.9344 64.1495 20.6255 64.1495 20.2727C64.1495 19.92 64.0998 19.6134 64.0004 19.353C63.9033 19.0926 63.7589 18.8902 63.5671 18.7457C63.3777 18.6013 63.1445 18.5291 62.8675 18.5291C62.5811 18.5291 62.342 18.6037 62.1502 18.7528C61.9585 18.902 61.814 19.108 61.717 19.3707C61.6199 19.6335 61.5714 19.9342 61.5714 20.2727C61.5714 20.6136 61.6199 20.9179 61.717 21.1854C61.8164 21.4505 61.962 21.66 62.1538 21.8139C62.3479 21.9654 62.5858 22.0412 62.8675 22.0412ZM68.3532 23.1101C68.0075 23.1101 67.6962 23.0485 67.4192 22.9254C67.1446 22.8 66.9268 22.6153 66.7658 22.3714C66.6072 22.1276 66.5279 21.8269 66.5279 21.4695C66.5279 21.1617 66.5847 20.9072 66.6983 20.706C66.812 20.5047 66.967 20.3438 67.1635 20.223C67.36 20.1023 67.5814 20.0111 67.8276 19.9496C68.0762 19.8857 68.333 19.8395 68.5982 19.8111C68.9178 19.7779 69.177 19.7483 69.3759 19.7223C69.5748 19.6939 69.7192 19.6513 69.8091 19.5945C69.9015 19.5353 69.9476 19.4441 69.9476 19.321V19.2997C69.9476 19.0322 69.8683 18.825 69.7097 18.6783C69.5511 18.5315 69.3226 18.4581 69.0243 18.4581C68.7095 18.4581 68.4597 18.5268 68.275 18.6641C68.0927 18.8014 67.9696 18.9635 67.9057 19.1506L66.7054 18.9801C66.8001 18.6487 66.9564 18.3717 67.1742 18.1491C67.392 17.9242 67.6583 17.7562 67.9732 17.6449C68.2881 17.5312 68.6361 17.4744 69.0172 17.4744C69.28 17.4744 69.5416 17.5052 69.802 17.5668C70.0624 17.6283 70.3004 17.7301 70.5158 17.8722C70.7312 18.0118 70.9041 18.2024 71.0343 18.4439C71.1668 18.6854 71.2331 18.9872 71.2331 19.3494V23H69.9973V22.2507H69.9547C69.8766 22.4022 69.7665 22.5443 69.6245 22.6768C69.4848 22.8071 69.3084 22.9124 69.0953 22.9929C68.8846 23.071 68.6373 23.1101 68.3532 23.1101ZM68.687 22.1655C68.945 22.1655 69.1687 22.1146 69.3581 22.0128C69.5475 21.9086 69.6931 21.7713 69.7949 21.6009C69.8991 21.4304 69.9512 21.2446 69.9512 21.0433V20.4006C69.9109 20.4337 69.8423 20.4645 69.7452 20.4929C69.6505 20.5213 69.544 20.5462 69.4256 20.5675C69.3072 20.5888 69.19 20.6077 69.074 20.6243C68.958 20.6409 68.8574 20.6551 68.7722 20.6669C68.5804 20.6929 68.4088 20.7356 68.2573 20.7947C68.1058 20.8539 67.9862 20.9368 67.8986 21.0433C67.811 21.1475 67.7672 21.2824 67.7672 21.4482C67.7672 21.6849 67.8536 21.8636 68.0265 21.9844C68.1993 22.1051 68.4194 22.1655 68.687 22.1655ZM76.8368 18.9872L75.665 19.1151C75.6318 18.9967 75.5738 18.8854 75.4909 18.7812C75.4105 18.6771 75.3016 18.593 75.1642 18.5291C75.0269 18.4652 74.8588 18.4332 74.66 18.4332C74.3925 18.4332 74.1676 18.4912 73.9853 18.6072C73.8053 18.7232 73.7166 18.8736 73.7189 19.0582C73.7166 19.2169 73.7746 19.3459 73.8929 19.4453C74.0137 19.5447 74.2125 19.6264 74.4895 19.6903L75.4199 19.8892C75.936 20.0005 76.3195 20.1768 76.5705 20.4183C76.8238 20.6598 76.9516 20.9759 76.954 21.3665C76.9516 21.7098 76.851 22.0128 76.6522 22.2756C76.4557 22.536 76.1822 22.7396 75.8319 22.8864C75.4815 23.0331 75.079 23.1065 74.6245 23.1065C73.9569 23.1065 73.4194 22.9669 73.0123 22.6875C72.6051 22.4058 72.3624 22.014 72.2843 21.5121L73.5378 21.3913C73.5946 21.6375 73.7154 21.8234 73.9 21.9489C74.0847 22.0743 74.325 22.1371 74.6209 22.1371C74.9263 22.1371 75.1713 22.0743 75.356 21.9489C75.543 21.8234 75.6365 21.6683 75.6365 21.4837C75.6365 21.3274 75.5762 21.1984 75.4554 21.0966C75.3371 20.9948 75.1524 20.9167 74.9015 20.8622L73.9711 20.6669C73.4479 20.558 73.0608 20.3745 72.8098 20.1165C72.5589 19.8561 72.4346 19.527 72.437 19.1293C72.4346 18.7931 72.5257 18.5019 72.7104 18.2557C72.8974 18.0071 73.1567 17.8153 73.4881 17.6804C73.8219 17.5431 74.2066 17.4744 74.6422 17.4744C75.2814 17.4744 75.7845 17.6106 76.1515 17.8828C76.5208 18.1551 76.7492 18.5232 76.8368 18.9872Z" fill="black"/>
<g clip-path="url(#clip0_991_362)">
<mask id="path-2-outside-1_991_362" maskUnits="userSpaceOnUse" x="0.998047" y="5.1167" width="24" height="20" fill="black">
<rect fill="white" x="0.998047" y="5.1167" width="24" height="20"/>
<path d="M21.4462 19.2859H17.9025C17.7674 19.2859 17.6345 19.2859 17.5902 19.155C17.8503 19.0339 18.0979 18.8906 18.33 18.7269C18.4158 18.6475 18.5254 18.5946 18.6441 18.5753C18.7629 18.556 18.8851 18.5712 18.9944 18.6189C19.3466 18.7352 19.7142 18.8142 20.0885 18.9139C20.1594 18.675 20.2259 18.463 20.2945 18.2365L19.0852 17.9041C19.4329 17.4885 19.4551 17.0189 19.4418 16.5472C19.4509 16.5073 19.4693 16.4698 19.4957 16.4375C19.5221 16.4051 19.5559 16.3787 19.5946 16.3602C19.836 16.248 20.0885 16.1524 20.3432 16.0526C20.2369 15.8261 20.1439 15.6246 20.0442 15.4064L19.4972 15.6287C19.4705 15.4579 19.423 15.2906 19.3554 15.13C19.0188 14.5752 18.6622 14.0308 18.31 13.4843C18.1173 13.1872 17.867 13.1602 17.6013 13.4054C17.3355 13.6506 17.0608 13.9394 16.7641 14.1929C16.6555 14.2621 16.5389 14.3193 16.4163 14.3633V14.0703C16.4163 12.8235 16.4296 11.5768 16.4163 10.3176C16.3986 10.161 16.4232 10.0028 16.4879 9.85756C16.5525 9.71229 16.6551 9.58464 16.7862 9.4864C16.8947 9.39559 17.0314 9.3399 17.1761 9.32755C17.3209 9.3152 17.4661 9.34685 17.5902 9.41782C17.8759 9.59237 18.155 9.77315 18.4429 9.94562C18.4878 9.98386 18.5416 10.0117 18.6 10.0269C18.6584 10.0421 18.7198 10.0442 18.7793 10.0331C18.8387 10.022 18.8946 9.99792 18.9423 9.96288C18.9901 9.92784 19.0284 9.88279 19.0542 9.83133C19.2934 9.5051 19.5237 9.17471 19.7585 8.84432C19.8103 8.78036 19.8383 8.70227 19.8383 8.62198C19.8383 8.54169 19.8103 8.4636 19.7585 8.39964C19.2646 7.70562 18.7796 7.00744 18.2724 6.32172C18.173 6.21664 18.034 6.15183 17.8848 6.14094C17.5614 6.11393 17.2336 6.14094 16.908 6.12847C16.8043 6.11627 16.6993 6.13654 16.6092 6.18614C16.519 6.23575 16.4489 6.3119 16.4097 6.40276C16.2391 6.74146 16.0509 7.07185 15.8803 7.41055C15.8635 7.4554 15.8308 7.49347 15.7877 7.51843C15.7446 7.54339 15.6936 7.55372 15.6433 7.5477C14.3912 7.5477 13.1362 7.5477 11.8781 7.5477C11.8244 7.55147 11.7709 7.53814 11.7263 7.50985C11.6817 7.48157 11.6486 7.44 11.6323 7.39185C11.4551 7.04899 11.2668 6.71029 11.0874 6.36744C11.0535 6.2899 10.9944 6.22441 10.9184 6.18037C10.8424 6.13632 10.7535 6.11597 10.6644 6.12224C10.1971 6.12224 9.72973 6.10977 9.26461 6.12224C9.11317 6.1322 8.97179 6.19703 8.87037 6.30302C8.24357 7.10302 7.63227 7.91341 7.02098 8.72588C6.98711 8.76121 6.96134 8.80268 6.94525 8.84774C6.92917 8.8928 6.92312 8.94047 6.92748 8.98781C6.93184 9.03515 6.94652 9.08114 6.9706 9.12294C6.99469 9.16474 7.02766 9.20146 7.06749 9.23081C7.28897 9.45731 7.53704 9.67549 7.77402 9.89575C7.83957 9.96391 7.92966 10.0069 8.02698 10.0165C8.12429 10.0261 8.22195 10.0016 8.30116 9.9477C8.46119 9.86112 8.61441 9.7639 8.75963 9.65679C8.9288 9.51709 9.12839 9.41368 9.34451 9.35375C9.56063 9.29382 9.78808 9.27881 10.011 9.30977C10.2591 9.33471 10.3455 9.39081 10.3455 9.62354C10.3455 10.7976 10.3455 11.9716 10.3455 13.1456C10.3455 13.2931 10.279 13.3389 10.155 13.3991C9.54369 13.6594 8.95174 13.9579 8.38311 14.2926C6.09296 15.7991 4.93017 17.8687 4.95675 20.4973C4.95675 21.0126 5.05863 21.5363 5.114 22.0516C4.89252 21.9248 4.65775 21.7856 4.42076 21.663C4.37089 21.6419 4.32967 21.6062 4.30331 21.5612C4.27695 21.5163 4.26686 21.4645 4.27458 21.4137C4.27458 21.0438 4.29008 20.676 4.27458 20.3082C4.27083 20.1114 4.20598 19.9199 4.08796 19.7571C3.96994 19.5943 3.80388 19.4674 3.61013 19.3919C3.43354 19.3143 3.2386 19.2809 3.0442 19.2949C2.84981 19.3088 2.66255 19.3696 2.50057 19.4714C2.33859 19.5732 2.20739 19.7125 2.11967 19.8759C2.03196 20.0393 1.99072 20.2211 1.99994 20.4038C1.99994 21.1768 1.99994 21.9477 1.99994 22.7186C1.99083 22.823 2.01476 22.9276 2.06874 23.0192C2.12272 23.1109 2.20434 23.1856 2.30337 23.2339C3.22474 23.7659 4.13504 24.3124 5.05863 24.836C5.22765 24.9306 5.42003 24.9821 5.61677 24.9856C10.7796 24.9856 15.9446 24.9752 21.1051 25.0064C22.1129 25.0064 23.0276 24.8838 23.8981 24.383C24.045 24.3145 24.1754 24.2185 24.2813 24.1009C24.3871 23.9834 24.4663 23.8467 24.5138 23.6994C24.6046 23.3815 24.6843 23.0573 24.7663 22.7352V22.0682C24.7477 22.0164 24.7322 21.9637 24.7198 21.9103C24.5778 21.1869 24.175 20.5314 23.579 20.0536C22.983 19.5757 22.23 19.3047 21.4462 19.2859V19.2859ZM14.1328 24.2729H13.3886C13.3831 24.026 13.3107 23.7844 13.1782 23.571C13.0457 23.3576 12.8574 23.1794 12.6312 23.0531C12.1638 22.7789 11.6411 22.8786 11.1118 22.8454C11.1071 22.3192 10.965 21.8021 10.6978 21.3395C10.4305 20.8769 10.0464 20.4828 9.57912 20.1919C8.91552 19.7756 8.1191 19.5869 7.32441 19.6578V20.3248C7.6338 20.3385 7.94214 20.3684 8.248 20.4142C8.8491 20.5299 9.38777 20.8401 9.76992 21.2906C10.1521 21.741 10.3534 22.3031 10.3388 22.8786C10.3388 23.5581 10.5293 23.5706 11.0852 23.5581C11.3451 23.5581 11.6042 23.5581 11.8626 23.5581C11.9625 23.5572 12.0616 23.5752 12.1539 23.6109C12.2463 23.6466 12.3301 23.6994 12.4003 23.7661C12.4705 23.8327 12.5258 23.9119 12.5628 23.999C12.5998 24.086 12.6177 24.1792 12.6157 24.2729H12.3809C10.1661 24.2729 7.95121 24.2729 5.73637 24.2729C5.60614 24.271 5.47867 24.2373 5.36649 24.1752C4.55143 23.7077 3.74523 23.2277 2.93017 22.7581C2.87218 22.7308 2.82451 22.6875 2.79361 22.634C2.76272 22.5805 2.75008 22.5193 2.75741 22.4589C2.75741 21.7939 2.75741 21.1248 2.75741 20.4578C2.74497 20.3768 2.7583 20.2942 2.79573 20.2202C2.83316 20.1463 2.89303 20.0844 2.96782 20.0422C3.02532 20.0132 3.08998 19.999 3.15524 20.001C3.2205 20.003 3.28403 20.0212 3.33938 20.0537C3.39472 20.0862 3.43991 20.1319 3.47035 20.186C3.50079 20.2402 3.51539 20.301 3.51267 20.3622C3.52153 20.7944 3.52153 21.2253 3.51267 21.6547C3.50389 21.755 3.52723 21.8554 3.57972 21.9432C3.6322 22.0309 3.71144 22.102 3.80725 22.1472C4.37203 22.4526 4.92796 22.7706 5.4861 23.0864C5.66107 23.1861 5.83604 23.2547 6.01987 23.1217C6.2037 22.9887 6.17934 22.8059 6.1129 22.6126C5.56466 21.1586 5.56466 19.5721 6.1129 18.1181C6.62861 16.7432 7.63274 15.5767 8.95675 14.8142C9.54532 14.4969 10.1541 14.2138 10.7796 13.9664C10.8812 13.9347 10.9689 13.8726 11.0293 13.7897C11.0897 13.7067 11.1195 13.6075 11.114 13.5072C11.114 12.1461 11.114 10.783 11.114 9.42198C11.0806 9.22085 10.98 9.03484 10.8268 8.89071C10.6736 8.74658 10.4756 8.65177 10.2613 8.6199C9.94235 8.6199 9.62342 8.60743 9.30669 8.6199C9.1683 8.63028 9.03424 8.67007 8.91467 8.73627C8.64889 8.8838 8.39418 9.05419 8.12397 9.2225L7.82275 8.93159C7.8604 8.87549 7.89584 8.82354 7.93349 8.77367C8.38975 8.17315 8.85044 7.57679 9.30005 6.97419C9.32933 6.92717 9.37257 6.88917 9.42449 6.86482C9.4764 6.84047 9.53475 6.83082 9.59241 6.83705C9.89141 6.85159 10.2569 6.76016 10.4783 6.88692C10.6998 7.01367 10.7685 7.35237 10.9036 7.59964C11.3023 8.34354 11.1583 8.27289 12.0531 8.27289C13.3045 8.27289 14.5559 8.27289 15.8183 8.27289C15.9665 8.28955 16.1161 8.25713 16.2415 8.18125C16.3669 8.10537 16.46 7.99079 16.5049 7.85731C16.6476 7.55218 16.8065 7.25397 16.9811 6.9638C17.0061 6.92911 17.0389 6.89997 17.0771 6.87843C17.1154 6.85689 17.1582 6.84348 17.2026 6.83912C17.7253 6.81834 17.7253 6.82873 18.0265 7.25055C18.3277 7.67237 18.6134 8.08172 18.9125 8.49731C18.9444 8.5299 18.9621 8.57253 18.9621 8.61679C18.9621 8.66104 18.9444 8.70368 18.9125 8.73627C18.7973 8.87964 18.691 9.03133 18.5824 9.19133C18.361 9.05834 18.1661 8.94406 17.98 8.81107C17.779 8.68107 17.5419 8.60886 17.2978 8.60328C17.0827 8.58565 16.8662 8.61641 16.6663 8.69303C16.4663 8.76964 16.2888 8.88989 16.1483 9.0438C15.9744 9.1893 15.8381 9.37011 15.7498 9.57247C15.6615 9.77483 15.6236 9.99341 15.6389 10.2116C15.6744 11.4895 15.6389 12.7695 15.6389 14.0474V14.303C15.32 14.303 15.0121 14.303 14.7043 14.303C14.6511 14.303 14.5935 14.2428 14.5492 14.1991C14.2857 13.9415 14.011 13.6755 13.7386 13.4199C13.4662 13.1643 13.2115 13.1934 13.0121 13.5009C12.6555 14.0412 12.3034 14.5794 11.9667 15.13C11.8958 15.2914 11.846 15.4603 11.8183 15.6329L11.258 15.4106L10.9612 16.0609C11.2292 16.169 11.4839 16.2687 11.7253 16.3768C11.7625 16.3969 11.7942 16.4248 11.818 16.4583C11.8419 16.4919 11.8571 16.5301 11.8626 16.57C11.8029 17.1253 11.9761 17.6806 12.3455 18.1181L10.9789 18.6043C11.0631 18.8121 11.1472 19.0199 11.2402 19.2672L11.7187 19.103C11.8459 19.0652 11.9709 19.0208 12.093 18.97C12.5581 18.7498 12.9988 18.6313 13.4617 19.0116C13.6676 19.1275 13.8919 19.2116 14.1262 19.2609V21.4199H11.9113V22.1264H14.1262L14.1328 24.2729ZM23.9866 22.7456C23.9866 22.8017 23.9711 22.8557 23.9623 22.9119C23.9512 23.1308 23.8744 23.3423 23.7408 23.522C23.6071 23.7018 23.4221 23.8425 23.207 23.928C22.6757 24.1798 22.0854 24.302 21.4905 24.2833C20.7153 24.248 19.9401 24.2708 19.1583 24.2833C19.1014 24.2918 19.0433 24.2792 18.9961 24.2482C18.949 24.2171 18.9166 24.1701 18.9058 24.117C18.7135 23.6714 18.6375 23.1891 18.6843 22.7103C18.6843 22.6552 18.6987 22.601 18.7264 22.5524C18.8659 22.3446 19.0055 22.1368 19.1694 21.9456C19.189 21.9077 19.2167 21.874 19.2508 21.8467C19.2849 21.8193 19.3247 21.7989 19.3677 21.7866C19.4106 21.7744 19.4558 21.7706 19.5004 21.7755C19.545 21.7804 19.588 21.794 19.6267 21.8152C19.6655 21.8365 19.6991 21.865 19.7255 21.8991C19.752 21.9331 19.7706 21.9719 19.7803 22.0131C19.7899 22.0542 19.7904 22.0967 19.7817 22.1381C19.7731 22.1794 19.7553 22.2186 19.7297 22.2532C19.6655 22.3778 19.5991 22.5025 19.5304 22.6251C19.4734 22.7076 19.4506 22.8067 19.4661 22.9039C19.4816 23.0011 19.5344 23.0897 19.6146 23.1529C19.7096 23.2507 19.8109 23.343 19.918 23.4293C20.0066 23.5016 20.116 23.5479 20.2325 23.5622C20.8438 23.5622 21.4595 23.5622 22.0885 23.5622V22.8516H20.6046C20.2746 22.8516 20.2746 22.8516 20.4075 22.5752C20.7419 21.8791 20.3477 21.1768 19.557 21.0833C19.3935 21.0557 19.2251 21.0696 19.0693 21.1237C18.9135 21.1778 18.776 21.27 18.671 21.3908C18.4208 21.6817 18.2103 22.0142 17.9889 22.3155C17.952 22.3678 17.9327 22.4294 17.9335 22.4921C17.9335 23.022 17.8427 23.5643 18.0907 24.0734C18.114 24.1349 18.1318 24.1982 18.1439 24.2625H16.815V21.796H16.0442V24.2729H14.9014V24.0194C14.9014 22.3806 14.9014 20.7411 14.9014 19.1009C14.9014 18.7269 14.8216 18.6438 14.4363 18.569C14.2277 18.5317 14.0257 18.4673 13.836 18.3778L14.279 18.2054C14.1948 17.9976 14.1107 17.7898 14.0177 17.5508C13.7541 17.6422 13.4972 17.7233 13.2491 17.8209C13.2264 17.8348 13.2008 17.8439 13.1739 17.8475C13.1471 17.8512 13.1198 17.8492 13.0938 17.8419C13.0679 17.8346 13.044 17.822 13.0237 17.8051C13.0035 17.7882 12.9874 17.7674 12.9767 17.7441C12.7729 17.4511 12.578 17.1581 12.6489 16.7529L13.6212 17.1352L13.9202 16.4848L13.2956 16.223C13.1782 16.1773 13.0608 16.1357 12.9501 16.0817C12.8394 16.0277 12.6688 15.9778 12.6555 15.9072C12.619 15.7315 12.6374 15.5496 12.7087 15.3835C12.9302 14.968 13.2026 14.596 13.4772 14.168C13.6987 14.3882 13.9357 14.5939 14.1417 14.81C14.2101 14.8825 14.2956 14.9389 14.3913 14.975C14.487 15.0111 14.5904 15.0257 14.6932 15.0178C15.3443 15.0095 15.9962 15.0095 16.6489 15.0178C16.751 15.0251 16.8535 15.0101 16.9484 14.974C17.0433 14.938 17.128 14.8819 17.196 14.81C17.4174 14.6022 17.6389 14.3944 17.8604 14.1659C18.1395 14.6022 18.4141 14.997 18.6577 15.4251C18.6995 15.5599 18.7138 15.7009 18.6998 15.8407C18.7175 16.0485 18.5204 16.0319 18.4008 16.0859C18.0863 16.223 17.7652 16.3456 17.4174 16.4869C17.5127 16.6947 17.6079 16.9025 17.712 17.1373L18.671 16.7591C18.7773 17.129 18.5824 17.4012 18.3986 17.6734C18.3787 17.7004 18.2768 17.6963 18.2192 17.6734C18.0398 17.6339 17.8648 17.582 17.6699 17.53C17.5991 17.7586 17.5326 17.9747 17.4662 18.1991L17.6876 18.2822L17.7032 18.3404C17.4307 18.4152 17.1605 18.5025 16.8859 18.5628C16.6998 18.6022 16.5204 18.6334 16.4429 18.8308C16.3654 19.0282 16.485 19.1487 16.6157 19.2713C16.8017 19.4417 16.9922 19.608 17.1627 19.7887C17.2334 19.8621 17.3205 19.9198 17.4178 19.9579C17.515 19.996 17.62 20.0134 17.7253 20.009C18.9634 20.009 20.1993 20.009 21.4374 20.009C21.8007 20.0168 22.1583 20.0953 22.4875 20.2395C22.8168 20.3837 23.1106 20.5905 23.3502 20.8468C23.5899 21.1031 23.7702 21.4033 23.8797 21.7284C23.9893 22.0534 24.0257 22.3963 23.9866 22.7352V22.7456Z"/>
</mask>
<path d="M21.4462 19.2859H17.9025C17.7674 19.2859 17.6345 19.2859 17.5902 19.155C17.8503 19.0339 18.0979 18.8906 18.33 18.7269C18.4158 18.6475 18.5254 18.5946 18.6441 18.5753C18.7629 18.556 18.8851 18.5712 18.9944 18.6189C19.3466 18.7352 19.7142 18.8142 20.0885 18.9139C20.1594 18.675 20.2259 18.463 20.2945 18.2365L19.0852 17.9041C19.4329 17.4885 19.4551 17.0189 19.4418 16.5472C19.4509 16.5073 19.4693 16.4698 19.4957 16.4375C19.5221 16.4051 19.5559 16.3787 19.5946 16.3602C19.836 16.248 20.0885 16.1524 20.3432 16.0526C20.2369 15.8261 20.1439 15.6246 20.0442 15.4064L19.4972 15.6287C19.4705 15.4579 19.423 15.2906 19.3554 15.13C19.0188 14.5752 18.6622 14.0308 18.31 13.4843C18.1173 13.1872 17.867 13.1602 17.6013 13.4054C17.3355 13.6506 17.0608 13.9394 16.7641 14.1929C16.6555 14.2621 16.5389 14.3193 16.4163 14.3633V14.0703C16.4163 12.8235 16.4296 11.5768 16.4163 10.3176C16.3986 10.161 16.4232 10.0028 16.4879 9.85756C16.5525 9.71229 16.6551 9.58464 16.7862 9.4864C16.8947 9.39559 17.0314 9.3399 17.1761 9.32755C17.3209 9.3152 17.4661 9.34685 17.5902 9.41782C17.8759 9.59237 18.155 9.77315 18.4429 9.94562C18.4878 9.98386 18.5416 10.0117 18.6 10.0269C18.6584 10.0421 18.7198 10.0442 18.7793 10.0331C18.8387 10.022 18.8946 9.99792 18.9423 9.96288C18.9901 9.92784 19.0284 9.88279 19.0542 9.83133C19.2934 9.5051 19.5237 9.17471 19.7585 8.84432C19.8103 8.78036 19.8383 8.70227 19.8383 8.62198C19.8383 8.54169 19.8103 8.4636 19.7585 8.39964C19.2646 7.70562 18.7796 7.00744 18.2724 6.32172C18.173 6.21664 18.034 6.15183 17.8848 6.14094C17.5614 6.11393 17.2336 6.14094 16.908 6.12847C16.8043 6.11627 16.6993 6.13654 16.6092 6.18614C16.519 6.23575 16.4489 6.3119 16.4097 6.40276C16.2391 6.74146 16.0509 7.07185 15.8803 7.41055C15.8635 7.4554 15.8308 7.49347 15.7877 7.51843C15.7446 7.54339 15.6936 7.55372 15.6433 7.5477C14.3912 7.5477 13.1362 7.5477 11.8781 7.5477C11.8244 7.55147 11.7709 7.53814 11.7263 7.50985C11.6817 7.48157 11.6486 7.44 11.6323 7.39185C11.4551 7.04899 11.2668 6.71029 11.0874 6.36744C11.0535 6.2899 10.9944 6.22441 10.9184 6.18037C10.8424 6.13632 10.7535 6.11597 10.6644 6.12224C10.1971 6.12224 9.72973 6.10977 9.26461 6.12224C9.11317 6.1322 8.97179 6.19703 8.87037 6.30302C8.24357 7.10302 7.63227 7.91341 7.02098 8.72588C6.98711 8.76121 6.96134 8.80268 6.94525 8.84774C6.92917 8.8928 6.92312 8.94047 6.92748 8.98781C6.93184 9.03515 6.94652 9.08114 6.9706 9.12294C6.99469 9.16474 7.02766 9.20146 7.06749 9.23081C7.28897 9.45731 7.53704 9.67549 7.77402 9.89575C7.83957 9.96391 7.92966 10.0069 8.02698 10.0165C8.12429 10.0261 8.22195 10.0016 8.30116 9.9477C8.46119 9.86112 8.61441 9.7639 8.75963 9.65679C8.9288 9.51709 9.12839 9.41368 9.34451 9.35375C9.56063 9.29382 9.78808 9.27881 10.011 9.30977C10.2591 9.33471 10.3455 9.39081 10.3455 9.62354C10.3455 10.7976 10.3455 11.9716 10.3455 13.1456C10.3455 13.2931 10.279 13.3389 10.155 13.3991C9.54369 13.6594 8.95174 13.9579 8.38311 14.2926C6.09296 15.7991 4.93017 17.8687 4.95675 20.4973C4.95675 21.0126 5.05863 21.5363 5.114 22.0516C4.89252 21.9248 4.65775 21.7856 4.42076 21.663C4.37089 21.6419 4.32967 21.6062 4.30331 21.5612C4.27695 21.5163 4.26686 21.4645 4.27458 21.4137C4.27458 21.0438 4.29008 20.676 4.27458 20.3082C4.27083 20.1114 4.20598 19.9199 4.08796 19.7571C3.96994 19.5943 3.80388 19.4674 3.61013 19.3919C3.43354 19.3143 3.2386 19.2809 3.0442 19.2949C2.84981 19.3088 2.66255 19.3696 2.50057 19.4714C2.33859 19.5732 2.20739 19.7125 2.11967 19.8759C2.03196 20.0393 1.99072 20.2211 1.99994 20.4038C1.99994 21.1768 1.99994 21.9477 1.99994 22.7186C1.99083 22.823 2.01476 22.9276 2.06874 23.0192C2.12272 23.1109 2.20434 23.1856 2.30337 23.2339C3.22474 23.7659 4.13504 24.3124 5.05863 24.836C5.22765 24.9306 5.42003 24.9821 5.61677 24.9856C10.7796 24.9856 15.9446 24.9752 21.1051 25.0064C22.1129 25.0064 23.0276 24.8838 23.8981 24.383C24.045 24.3145 24.1754 24.2185 24.2813 24.1009C24.3871 23.9834 24.4663 23.8467 24.5138 23.6994C24.6046 23.3815 24.6843 23.0573 24.7663 22.7352V22.0682C24.7477 22.0164 24.7322 21.9637 24.7198 21.9103C24.5778 21.1869 24.175 20.5314 23.579 20.0536C22.983 19.5757 22.23 19.3047 21.4462 19.2859V19.2859ZM14.1328 24.2729H13.3886C13.3831 24.026 13.3107 23.7844 13.1782 23.571C13.0457 23.3576 12.8574 23.1794 12.6312 23.0531C12.1638 22.7789 11.6411 22.8786 11.1118 22.8454C11.1071 22.3192 10.965 21.8021 10.6978 21.3395C10.4305 20.8769 10.0464 20.4828 9.57912 20.1919C8.91552 19.7756 8.1191 19.5869 7.32441 19.6578V20.3248C7.6338 20.3385 7.94214 20.3684 8.248 20.4142C8.8491 20.5299 9.38777 20.8401 9.76992 21.2906C10.1521 21.741 10.3534 22.3031 10.3388 22.8786C10.3388 23.5581 10.5293 23.5706 11.0852 23.5581C11.3451 23.5581 11.6042 23.5581 11.8626 23.5581C11.9625 23.5572 12.0616 23.5752 12.1539 23.6109C12.2463 23.6466 12.3301 23.6994 12.4003 23.7661C12.4705 23.8327 12.5258 23.9119 12.5628 23.999C12.5998 24.086 12.6177 24.1792 12.6157 24.2729H12.3809C10.1661 24.2729 7.95121 24.2729 5.73637 24.2729C5.60614 24.271 5.47867 24.2373 5.36649 24.1752C4.55143 23.7077 3.74523 23.2277 2.93017 22.7581C2.87218 22.7308 2.82451 22.6875 2.79361 22.634C2.76272 22.5805 2.75008 22.5193 2.75741 22.4589C2.75741 21.7939 2.75741 21.1248 2.75741 20.4578C2.74497 20.3768 2.7583 20.2942 2.79573 20.2202C2.83316 20.1463 2.89303 20.0844 2.96782 20.0422C3.02532 20.0132 3.08998 19.999 3.15524 20.001C3.2205 20.003 3.28403 20.0212 3.33938 20.0537C3.39472 20.0862 3.43991 20.1319 3.47035 20.186C3.50079 20.2402 3.51539 20.301 3.51267 20.3622C3.52153 20.7944 3.52153 21.2253 3.51267 21.6547C3.50389 21.755 3.52723 21.8554 3.57972 21.9432C3.6322 22.0309 3.71144 22.102 3.80725 22.1472C4.37203 22.4526 4.92796 22.7706 5.4861 23.0864C5.66107 23.1861 5.83604 23.2547 6.01987 23.1217C6.2037 22.9887 6.17934 22.8059 6.1129 22.6126C5.56466 21.1586 5.56466 19.5721 6.1129 18.1181C6.62861 16.7432 7.63274 15.5767 8.95675 14.8142C9.54532 14.4969 10.1541 14.2138 10.7796 13.9664C10.8812 13.9347 10.9689 13.8726 11.0293 13.7897C11.0897 13.7067 11.1195 13.6075 11.114 13.5072C11.114 12.1461 11.114 10.783 11.114 9.42198C11.0806 9.22085 10.98 9.03484 10.8268 8.89071C10.6736 8.74658 10.4756 8.65177 10.2613 8.6199C9.94235 8.6199 9.62342 8.60743 9.30669 8.6199C9.1683 8.63028 9.03424 8.67007 8.91467 8.73627C8.64889 8.8838 8.39418 9.05419 8.12397 9.2225L7.82275 8.93159C7.8604 8.87549 7.89584 8.82354 7.93349 8.77367C8.38975 8.17315 8.85044 7.57679 9.30005 6.97419C9.32933 6.92717 9.37257 6.88917 9.42449 6.86482C9.4764 6.84047 9.53475 6.83082 9.59241 6.83705C9.89141 6.85159 10.2569 6.76016 10.4783 6.88692C10.6998 7.01367 10.7685 7.35237 10.9036 7.59964C11.3023 8.34354 11.1583 8.27289 12.0531 8.27289C13.3045 8.27289 14.5559 8.27289 15.8183 8.27289C15.9665 8.28955 16.1161 8.25713 16.2415 8.18125C16.3669 8.10537 16.46 7.99079 16.5049 7.85731C16.6476 7.55218 16.8065 7.25397 16.9811 6.9638C17.0061 6.92911 17.0389 6.89997 17.0771 6.87843C17.1154 6.85689 17.1582 6.84348 17.2026 6.83912C17.7253 6.81834 17.7253 6.82873 18.0265 7.25055C18.3277 7.67237 18.6134 8.08172 18.9125 8.49731C18.9444 8.5299 18.9621 8.57253 18.9621 8.61679C18.9621 8.66104 18.9444 8.70368 18.9125 8.73627C18.7973 8.87964 18.691 9.03133 18.5824 9.19133C18.361 9.05834 18.1661 8.94406 17.98 8.81107C17.779 8.68107 17.5419 8.60886 17.2978 8.60328C17.0827 8.58565 16.8662 8.61641 16.6663 8.69303C16.4663 8.76964 16.2888 8.88989 16.1483 9.0438C15.9744 9.1893 15.8381 9.37011 15.7498 9.57247C15.6615 9.77483 15.6236 9.99341 15.6389 10.2116C15.6744 11.4895 15.6389 12.7695 15.6389 14.0474V14.303C15.32 14.303 15.0121 14.303 14.7043 14.303C14.6511 14.303 14.5935 14.2428 14.5492 14.1991C14.2857 13.9415 14.011 13.6755 13.7386 13.4199C13.4662 13.1643 13.2115 13.1934 13.0121 13.5009C12.6555 14.0412 12.3034 14.5794 11.9667 15.13C11.8958 15.2914 11.846 15.4603 11.8183 15.6329L11.258 15.4106L10.9612 16.0609C11.2292 16.169 11.4839 16.2687 11.7253 16.3768C11.7625 16.3969 11.7942 16.4248 11.818 16.4583C11.8419 16.4919 11.8571 16.5301 11.8626 16.57C11.8029 17.1253 11.9761 17.6806 12.3455 18.1181L10.9789 18.6043C11.0631 18.8121 11.1472 19.0199 11.2402 19.2672L11.7187 19.103C11.8459 19.0652 11.9709 19.0208 12.093 18.97C12.5581 18.7498 12.9988 18.6313 13.4617 19.0116C13.6676 19.1275 13.8919 19.2116 14.1262 19.2609V21.4199H11.9113V22.1264H14.1262L14.1328 24.2729ZM23.9866 22.7456C23.9866 22.8017 23.9711 22.8557 23.9623 22.9119C23.9512 23.1308 23.8744 23.3423 23.7408 23.522C23.6071 23.7018 23.4221 23.8425 23.207 23.928C22.6757 24.1798 22.0854 24.302 21.4905 24.2833C20.7153 24.248 19.9401 24.2708 19.1583 24.2833C19.1014 24.2918 19.0433 24.2792 18.9961 24.2482C18.949 24.2171 18.9166 24.1701 18.9058 24.117C18.7135 23.6714 18.6375 23.1891 18.6843 22.7103C18.6843 22.6552 18.6987 22.601 18.7264 22.5524C18.8659 22.3446 19.0055 22.1368 19.1694 21.9456C19.189 21.9077 19.2167 21.874 19.2508 21.8467C19.2849 21.8193 19.3247 21.7989 19.3677 21.7866C19.4106 21.7744 19.4558 21.7706 19.5004 21.7755C19.545 21.7804 19.588 21.794 19.6267 21.8152C19.6655 21.8365 19.6991 21.865 19.7255 21.8991C19.752 21.9331 19.7706 21.9719 19.7803 22.0131C19.7899 22.0542 19.7904 22.0967 19.7817 22.1381C19.7731 22.1794 19.7553 22.2186 19.7297 22.2532C19.6655 22.3778 19.5991 22.5025 19.5304 22.6251C19.4734 22.7076 19.4506 22.8067 19.4661 22.9039C19.4816 23.0011 19.5344 23.0897 19.6146 23.1529C19.7096 23.2507 19.8109 23.343 19.918 23.4293C20.0066 23.5016 20.116 23.5479 20.2325 23.5622C20.8438 23.5622 21.4595 23.5622 22.0885 23.5622V22.8516H20.6046C20.2746 22.8516 20.2746 22.8516 20.4075 22.5752C20.7419 21.8791 20.3477 21.1768 19.557 21.0833C19.3935 21.0557 19.2251 21.0696 19.0693 21.1237C18.9135 21.1778 18.776 21.27 18.671 21.3908C18.4208 21.6817 18.2103 22.0142 17.9889 22.3155C17.952 22.3678 17.9327 22.4294 17.9335 22.4921C17.9335 23.022 17.8427 23.5643 18.0907 24.0734C18.114 24.1349 18.1318 24.1982 18.1439 24.2625H16.815V21.796H16.0442V24.2729H14.9014V24.0194C14.9014 22.3806 14.9014 20.7411 14.9014 19.1009C14.9014 18.7269 14.8216 18.6438 14.4363 18.569C14.2277 18.5317 14.0257 18.4673 13.836 18.3778L14.279 18.2054C14.1948 17.9976 14.1107 17.7898 14.0177 17.5508C13.7541 17.6422 13.4972 17.7233 13.2491 17.8209C13.2264 17.8348 13.2008 17.8439 13.1739 17.8475C13.1471 17.8512 13.1198 17.8492 13.0938 17.8419C13.0679 17.8346 13.044 17.822 13.0237 17.8051C13.0035 17.7882 12.9874 17.7674 12.9767 17.7441C12.7729 17.4511 12.578 17.1581 12.6489 16.7529L13.6212 17.1352L13.9202 16.4848L13.2956 16.223C13.1782 16.1773 13.0608 16.1357 12.9501 16.0817C12.8394 16.0277 12.6688 15.9778 12.6555 15.9072C12.619 15.7315 12.6374 15.5496 12.7087 15.3835C12.9302 14.968 13.2026 14.596 13.4772 14.168C13.6987 14.3882 13.9357 14.5939 14.1417 14.81C14.2101 14.8825 14.2956 14.9389 14.3913 14.975C14.487 15.0111 14.5904 15.0257 14.6932 15.0178C15.3443 15.0095 15.9962 15.0095 16.6489 15.0178C16.751 15.0251 16.8535 15.0101 16.9484 14.974C17.0433 14.938 17.128 14.8819 17.196 14.81C17.4174 14.6022 17.6389 14.3944 17.8604 14.1659C18.1395 14.6022 18.4141 14.997 18.6577 15.4251C18.6995 15.5599 18.7138 15.7009 18.6998 15.8407C18.7175 16.0485 18.5204 16.0319 18.4008 16.0859C18.0863 16.223 17.7652 16.3456 17.4174 16.4869C17.5127 16.6947 17.6079 16.9025 17.712 17.1373L18.671 16.7591C18.7773 17.129 18.5824 17.4012 18.3986 17.6734C18.3787 17.7004 18.2768 17.6963 18.2192 17.6734C18.0398 17.6339 17.8648 17.582 17.6699 17.53C17.5991 17.7586 17.5326 17.9747 17.4662 18.1991L17.6876 18.2822L17.7032 18.3404C17.4307 18.4152 17.1605 18.5025 16.8859 18.5628C16.6998 18.6022 16.5204 18.6334 16.4429 18.8308C16.3654 19.0282 16.485 19.1487 16.6157 19.2713C16.8017 19.4417 16.9922 19.608 17.1627 19.7887C17.2334 19.8621 17.3205 19.9198 17.4178 19.9579C17.515 19.996 17.62 20.0134 17.7253 20.009C18.9634 20.009 20.1993 20.009 21.4374 20.009C21.8007 20.0168 22.1583 20.0953 22.4875 20.2395C22.8168 20.3837 23.1106 20.5905 23.3502 20.8468C23.5899 21.1031 23.7702 21.4033 23.8797 21.7284C23.9893 22.0534 24.0257 22.3963 23.9866 22.7352V22.7456Z" fill="#171B25"/>
<path d="M21.4462 19.2859H17.9025C17.7674 19.2859 17.6345 19.2859 17.5902 19.155C17.8503 19.0339 18.0979 18.8906 18.33 18.7269C18.4158 18.6475 18.5254 18.5946 18.6441 18.5753C18.7629 18.556 18.8851 18.5712 18.9944 18.6189C19.3466 18.7352 19.7142 18.8142 20.0885 18.9139C20.1594 18.675 20.2259 18.463 20.2945 18.2365L19.0852 17.9041C19.4329 17.4885 19.4551 17.0189 19.4418 16.5472C19.4509 16.5073 19.4693 16.4698 19.4957 16.4375C19.5221 16.4051 19.5559 16.3787 19.5946 16.3602C19.836 16.248 20.0885 16.1524 20.3432 16.0526C20.2369 15.8261 20.1439 15.6246 20.0442 15.4064L19.4972 15.6287C19.4705 15.4579 19.423 15.2906 19.3554 15.13C19.0188 14.5752 18.6622 14.0308 18.31 13.4843C18.1173 13.1872 17.867 13.1602 17.6013 13.4054C17.3355 13.6506 17.0608 13.9394 16.7641 14.1929C16.6555 14.2621 16.5389 14.3193 16.4163 14.3633V14.0703C16.4163 12.8235 16.4296 11.5768 16.4163 10.3176C16.3986 10.161 16.4232 10.0028 16.4879 9.85756C16.5525 9.71229 16.6551 9.58464 16.7862 9.4864C16.8947 9.39559 17.0314 9.3399 17.1761 9.32755C17.3209 9.3152 17.4661 9.34685 17.5902 9.41782C17.8759 9.59237 18.155 9.77315 18.4429 9.94562C18.4878 9.98386 18.5416 10.0117 18.6 10.0269C18.6584 10.0421 18.7198 10.0442 18.7793 10.0331C18.8387 10.022 18.8946 9.99792 18.9423 9.96288C18.9901 9.92784 19.0284 9.88279 19.0542 9.83133C19.2934 9.5051 19.5237 9.17471 19.7585 8.84432C19.8103 8.78036 19.8383 8.70227 19.8383 8.62198C19.8383 8.54169 19.8103 8.4636 19.7585 8.39964C19.2646 7.70562 18.7796 7.00744 18.2724 6.32172C18.173 6.21664 18.034 6.15183 17.8848 6.14094C17.5614 6.11393 17.2336 6.14094 16.908 6.12847C16.8043 6.11627 16.6993 6.13654 16.6092 6.18614C16.519 6.23575 16.4489 6.3119 16.4097 6.40276C16.2391 6.74146 16.0509 7.07185 15.8803 7.41055C15.8635 7.4554 15.8308 7.49347 15.7877 7.51843C15.7446 7.54339 15.6936 7.55372 15.6433 7.5477C14.3912 7.5477 13.1362 7.5477 11.8781 7.5477C11.8244 7.55147 11.7709 7.53814 11.7263 7.50985C11.6817 7.48157 11.6486 7.44 11.6323 7.39185C11.4551 7.04899 11.2668 6.71029 11.0874 6.36744C11.0535 6.2899 10.9944 6.22441 10.9184 6.18037C10.8424 6.13632 10.7535 6.11597 10.6644 6.12224C10.1971 6.12224 9.72973 6.10977 9.26461 6.12224C9.11317 6.1322 8.97179 6.19703 8.87037 6.30302C8.24357 7.10302 7.63227 7.91341 7.02098 8.72588C6.98711 8.76121 6.96134 8.80268 6.94525 8.84774C6.92917 8.8928 6.92312 8.94047 6.92748 8.98781C6.93184 9.03515 6.94652 9.08114 6.9706 9.12294C6.99469 9.16474 7.02766 9.20146 7.06749 9.23081C7.28897 9.45731 7.53704 9.67549 7.77402 9.89575C7.83957 9.96391 7.92966 10.0069 8.02698 10.0165C8.12429 10.0261 8.22195 10.0016 8.30116 9.9477C8.46119 9.86112 8.61441 9.7639 8.75963 9.65679C8.9288 9.51709 9.12839 9.41368 9.34451 9.35375C9.56063 9.29382 9.78808 9.27881 10.011 9.30977C10.2591 9.33471 10.3455 9.39081 10.3455 9.62354C10.3455 10.7976 10.3455 11.9716 10.3455 13.1456C10.3455 13.2931 10.279 13.3389 10.155 13.3991C9.54369 13.6594 8.95174 13.9579 8.38311 14.2926C6.09296 15.7991 4.93017 17.8687 4.95675 20.4973C4.95675 21.0126 5.05863 21.5363 5.114 22.0516C4.89252 21.9248 4.65775 21.7856 4.42076 21.663C4.37089 21.6419 4.32967 21.6062 4.30331 21.5612C4.27695 21.5163 4.26686 21.4645 4.27458 21.4137C4.27458 21.0438 4.29008 20.676 4.27458 20.3082C4.27083 20.1114 4.20598 19.9199 4.08796 19.7571C3.96994 19.5943 3.80388 19.4674 3.61013 19.3919C3.43354 19.3143 3.2386 19.2809 3.0442 19.2949C2.84981 19.3088 2.66255 19.3696 2.50057 19.4714C2.33859 19.5732 2.20739 19.7125 2.11967 19.8759C2.03196 20.0393 1.99072 20.2211 1.99994 20.4038C1.99994 21.1768 1.99994 21.9477 1.99994 22.7186C1.99083 22.823 2.01476 22.9276 2.06874 23.0192C2.12272 23.1109 2.20434 23.1856 2.30337 23.2339C3.22474 23.7659 4.13504 24.3124 5.05863 24.836C5.22765 24.9306 5.42003 24.9821 5.61677 24.9856C10.7796 24.9856 15.9446 24.9752 21.1051 25.0064C22.1129 25.0064 23.0276 24.8838 23.8981 24.383C24.045 24.3145 24.1754 24.2185 24.2813 24.1009C24.3871 23.9834 24.4663 23.8467 24.5138 23.6994C24.6046 23.3815 24.6843 23.0573 24.7663 22.7352V22.0682C24.7477 22.0164 24.7322 21.9637 24.7198 21.9103C24.5778 21.1869 24.175 20.5314 23.579 20.0536C22.983 19.5757 22.23 19.3047 21.4462 19.2859V19.2859ZM14.1328 24.2729H13.3886C13.3831 24.026 13.3107 23.7844 13.1782 23.571C13.0457 23.3576 12.8574 23.1794 12.6312 23.0531C12.1638 22.7789 11.6411 22.8786 11.1118 22.8454C11.1071 22.3192 10.965 21.8021 10.6978 21.3395C10.4305 20.8769 10.0464 20.4828 9.57912 20.1919C8.91552 19.7756 8.1191 19.5869 7.32441 19.6578V20.3248C7.6338 20.3385 7.94214 20.3684 8.248 20.4142C8.8491 20.5299 9.38777 20.8401 9.76992 21.2906C10.1521 21.741 10.3534 22.3031 10.3388 22.8786C10.3388 23.5581 10.5293 23.5706 11.0852 23.5581C11.3451 23.5581 11.6042 23.5581 11.8626 23.5581C11.9625 23.5572 12.0616 23.5752 12.1539 23.6109C12.2463 23.6466 12.3301 23.6994 12.4003 23.7661C12.4705 23.8327 12.5258 23.9119 12.5628 23.999C12.5998 24.086 12.6177 24.1792 12.6157 24.2729H12.3809C10.1661 24.2729 7.95121 24.2729 5.73637 24.2729C5.60614 24.271 5.47867 24.2373 5.36649 24.1752C4.55143 23.7077 3.74523 23.2277 2.93017 22.7581C2.87218 22.7308 2.82451 22.6875 2.79361 22.634C2.76272 22.5805 2.75008 22.5193 2.75741 22.4589C2.75741 21.7939 2.75741 21.1248 2.75741 20.4578C2.74497 20.3768 2.7583 20.2942 2.79573 20.2202C2.83316 20.1463 2.89303 20.0844 2.96782 20.0422C3.02532 20.0132 3.08998 19.999 3.15524 20.001C3.2205 20.003 3.28403 20.0212 3.33938 20.0537C3.39472 20.0862 3.43991 20.1319 3.47035 20.186C3.50079 20.2402 3.51539 20.301 3.51267 20.3622C3.52153 20.7944 3.52153 21.2253 3.51267 21.6547C3.50389 21.755 3.52723 21.8554 3.57972 21.9432C3.6322 22.0309 3.71144 22.102 3.80725 22.1472C4.37203 22.4526 4.92796 22.7706 5.4861 23.0864C5.66107 23.1861 5.83604 23.2547 6.01987 23.1217C6.2037 22.9887 6.17934 22.8059 6.1129 22.6126C5.56466 21.1586 5.56466 19.5721 6.1129 18.1181C6.62861 16.7432 7.63274 15.5767 8.95675 14.8142C9.54532 14.4969 10.1541 14.2138 10.7796 13.9664C10.8812 13.9347 10.9689 13.8726 11.0293 13.7897C11.0897 13.7067 11.1195 13.6075 11.114 13.5072C11.114 12.1461 11.114 10.783 11.114 9.42198C11.0806 9.22085 10.98 9.03484 10.8268 8.89071C10.6736 8.74658 10.4756 8.65177 10.2613 8.6199C9.94235 8.6199 9.62342 8.60743 9.30669 8.6199C9.1683 8.63028 9.03424 8.67007 8.91467 8.73627C8.64889 8.8838 8.39418 9.05419 8.12397 9.2225L7.82275 8.93159C7.8604 8.87549 7.89584 8.82354 7.93349 8.77367C8.38975 8.17315 8.85044 7.57679 9.30005 6.97419C9.32933 6.92717 9.37257 6.88917 9.42449 6.86482C9.4764 6.84047 9.53475 6.83082 9.59241 6.83705C9.89141 6.85159 10.2569 6.76016 10.4783 6.88692C10.6998 7.01367 10.7685 7.35237 10.9036 7.59964C11.3023 8.34354 11.1583 8.27289 12.0531 8.27289C13.3045 8.27289 14.5559 8.27289 15.8183 8.27289C15.9665 8.28955 16.1161 8.25713 16.2415 8.18125C16.3669 8.10537 16.46 7.99079 16.5049 7.85731C16.6476 7.55218 16.8065 7.25397 16.9811 6.9638C17.0061 6.92911 17.0389 6.89997 17.0771 6.87843C17.1154 6.85689 17.1582 6.84348 17.2026 6.83912C17.7253 6.81834 17.7253 6.82873 18.0265 7.25055C18.3277 7.67237 18.6134 8.08172 18.9125 8.49731C18.9444 8.5299 18.9621 8.57253 18.9621 8.61679C18.9621 8.66104 18.9444 8.70368 18.9125 8.73627C18.7973 8.87964 18.691 9.03133 18.5824 9.19133C18.361 9.05834 18.1661 8.94406 17.98 8.81107C17.779 8.68107 17.5419 8.60886 17.2978 8.60328C17.0827 8.58565 16.8662 8.61641 16.6663 8.69303C16.4663 8.76964 16.2888 8.88989 16.1483 9.0438C15.9744 9.1893 15.8381 9.37011 15.7498 9.57247C15.6615 9.77483 15.6236 9.99341 15.6389 10.2116C15.6744 11.4895 15.6389 12.7695 15.6389 14.0474V14.303C15.32 14.303 15.0121 14.303 14.7043 14.303C14.6511 14.303 14.5935 14.2428 14.5492 14.1991C14.2857 13.9415 14.011 13.6755 13.7386 13.4199C13.4662 13.1643 13.2115 13.1934 13.0121 13.5009C12.6555 14.0412 12.3034 14.5794 11.9667 15.13C11.8958 15.2914 11.846 15.4603 11.8183 15.6329L11.258 15.4106L10.9612 16.0609C11.2292 16.169 11.4839 16.2687 11.7253 16.3768C11.7625 16.3969 11.7942 16.4248 11.818 16.4583C11.8419 16.4919 11.8571 16.5301 11.8626 16.57C11.8029 17.1253 11.9761 17.6806 12.3455 18.1181L10.9789 18.6043C11.0631 18.8121 11.1472 19.0199 11.2402 19.2672L11.7187 19.103C11.8459 19.0652 11.9709 19.0208 12.093 18.97C12.5581 18.7498 12.9988 18.6313 13.4617 19.0116C13.6676 19.1275 13.8919 19.2116 14.1262 19.2609V21.4199H11.9113V22.1264H14.1262L14.1328 24.2729ZM23.9866 22.7456C23.9866 22.8017 23.9711 22.8557 23.9623 22.9119C23.9512 23.1308 23.8744 23.3423 23.7408 23.522C23.6071 23.7018 23.4221 23.8425 23.207 23.928C22.6757 24.1798 22.0854 24.302 21.4905 24.2833C20.7153 24.248 19.9401 24.2708 19.1583 24.2833C19.1014 24.2918 19.0433 24.2792 18.9961 24.2482C18.949 24.2171 18.9166 24.1701 18.9058 24.117C18.7135 23.6714 18.6375 23.1891 18.6843 22.7103C18.6843 22.6552 18.6987 22.601 18.7264 22.5524C18.8659 22.3446 19.0055 22.1368 19.1694 21.9456C19.189 21.9077 19.2167 21.874 19.2508 21.8467C19.2849 21.8193 19.3247 21.7989 19.3677 21.7866C19.4106 21.7744 19.4558 21.7706 19.5004 21.7755C19.545 21.7804 19.588 21.794 19.6267 21.8152C19.6655 21.8365 19.6991 21.865 19.7255 21.8991C19.752 21.9331 19.7706 21.9719 19.7803 22.0131C19.7899 22.0542 19.7904 22.0967 19.7817 22.1381C19.7731 22.1794 19.7553 22.2186 19.7297 22.2532C19.6655 22.3778 19.5991 22.5025 19.5304 22.6251C19.4734 22.7076 19.4506 22.8067 19.4661 22.9039C19.4816 23.0011 19.5344 23.0897 19.6146 23.1529C19.7096 23.2507 19.8109 23.343 19.918 23.4293C20.0066 23.5016 20.116 23.5479 20.2325 23.5622C20.8438 23.5622 21.4595 23.5622 22.0885 23.5622V22.8516H20.6046C20.2746 22.8516 20.2746 22.8516 20.4075 22.5752C20.7419 21.8791 20.3477 21.1768 19.557 21.0833C19.3935 21.0557 19.2251 21.0696 19.0693 21.1237C18.9135 21.1778 18.776 21.27 18.671 21.3908C18.4208 21.6817 18.2103 22.0142 17.9889 22.3155C17.952 22.3678 17.9327 22.4294 17.9335 22.4921C17.9335 23.022 17.8427 23.5643 18.0907 24.0734C18.114 24.1349 18.1318 24.1982 18.1439 24.2625H16.815V21.796H16.0442V24.2729H14.9014V24.0194C14.9014 22.3806 14.9014 20.7411 14.9014 19.1009C14.9014 18.7269 14.8216 18.6438 14.4363 18.569C14.2277 18.5317 14.0257 18.4673 13.836 18.3778L14.279 18.2054C14.1948 17.9976 14.1107 17.7898 14.0177 17.5508C13.7541 17.6422 13.4972 17.7233 13.2491 17.8209C13.2264 17.8348 13.2008 17.8439 13.1739 17.8475C13.1471 17.8512 13.1198 17.8492 13.0938 17.8419C13.0679 17.8346 13.044 17.822 13.0237 17.8051C13.0035 17.7882 12.9874 17.7674 12.9767 17.7441C12.7729 17.4511 12.578 17.1581 12.6489 16.7529L13.6212 17.1352L13.9202 16.4848L13.2956 16.223C13.1782 16.1773 13.0608 16.1357 12.9501 16.0817C12.8394 16.0277 12.6688 15.9778 12.6555 15.9072C12.619 15.7315 12.6374 15.5496 12.7087 15.3835C12.9302 14.968 13.2026 14.596 13.4772 14.168C13.6987 14.3882 13.9357 14.5939 14.1417 14.81C14.2101 14.8825 14.2956 14.9389 14.3913 14.975C14.487 15.0111 14.5904 15.0257 14.6932 15.0178C15.3443 15.0095 15.9962 15.0095 16.6489 15.0178C16.751 15.0251 16.8535 15.0101 16.9484 14.974C17.0433 14.938 17.128 14.8819 17.196 14.81C17.4174 14.6022 17.6389 14.3944 17.8604 14.1659C18.1395 14.6022 18.4141 14.997 18.6577 15.4251C18.6995 15.5599 18.7138 15.7009 18.6998 15.8407C18.7175 16.0485 18.5204 16.0319 18.4008 16.0859C18.0863 16.223 17.7652 16.3456 17.4174 16.4869C17.5127 16.6947 17.6079 16.9025 17.712 17.1373L18.671 16.7591C18.7773 17.129 18.5824 17.4012 18.3986 17.6734C18.3787 17.7004 18.2768 17.6963 18.2192 17.6734C18.0398 17.6339 17.8648 17.582 17.6699 17.53C17.5991 17.7586 17.5326 17.9747 17.4662 18.1991L17.6876 18.2822L17.7032 18.3404C17.4307 18.4152 17.1605 18.5025 16.8859 18.5628C16.6998 18.6022 16.5204 18.6334 16.4429 18.8308C16.3654 19.0282 16.485 19.1487 16.6157 19.2713C16.8017 19.4417 16.9922 19.608 17.1627 19.7887C17.2334 19.8621 17.3205 19.9198 17.4178 19.9579C17.515 19.996 17.62 20.0134 17.7253 20.009C18.9634 20.009 20.1993 20.009 21.4374 20.009C21.8007 20.0168 22.1583 20.0953 22.4875 20.2395C22.8168 20.3837 23.1106 20.5905 23.3502 20.8468C23.5899 21.1031 23.7702 21.4033 23.8797 21.7284C23.9893 22.0534 24.0257 22.3963 23.9866 22.7352V22.7456Z" stroke="black" stroke-width="0.2" mask="url(#path-2-outside-1_991_362)"/>
<path d="M13.3779 10.764H13.3279V10.814V11.4519V11.5019H13.3779H14.7799H14.8299V11.4519V10.814V10.764H14.7799H13.3779Z" fill="#171B25" stroke="black" stroke-width="0.1"/>
<path d="M12.6714 9.42607H12.6214V9.47607V10.1182V10.1682H12.6714H13.358H13.408V10.1182V9.47607V9.42607H13.358H12.6714Z" fill="#171B25" stroke="black" stroke-width="0.1"/>
<path d="M14.8086 9.42607H14.7586V9.47607V10.1244V10.1744H14.8086H15.4908H15.5408V10.1244V9.47607V9.42607H15.4908H14.8086Z" fill="#171B25" stroke="black" stroke-width="0.1"/>
<path d="M14.8062 15.1072H14.7562V15.1572V15.8055V15.8555H14.8062H15.4861H15.5361V15.8055V15.1572V15.1072H15.4861H14.8062Z" fill="#171B25" stroke="black" stroke-width="0.1"/>
<path d="M16.9395 15.1131H16.8895V15.1631V15.8052V15.8552H16.9395H17.6238H17.6738V15.8052V15.1631V15.1131H17.6238H16.9395Z" fill="#171B25" stroke="black" stroke-width="0.1"/>
<path d="M15.8716 16.1209H15.8216V16.1709V16.8047V16.8547H15.8716H16.5626H16.6126V16.8047V16.1709V16.1209H16.5626H15.8716Z" fill="#171B25" stroke="black" stroke-width="0.1"/>
<path d="M18.3816 1.74607L18.3815 1.74611C18.2583 1.7987 18.1868 1.88442 18.1632 1.98373C18.1401 2.08118 18.1649 2.18405 18.2183 2.27035C18.3247 2.44244 18.5563 2.56527 18.8057 2.46165L18.8057 2.46165L18.806 2.46153C20.4594 1.76269 22.4995 1.37691 24.063 2.43609C25.3935 3.3376 25.5817 5.23481 24.349 6.28998C24.0262 6.55846 23.6401 6.75165 23.222 6.85352C22.8041 6.95534 22.3665 6.96298 21.9448 6.87578C21.8816 6.86041 21.8155 6.85867 21.7515 6.8707C21.6871 6.88278 21.6264 6.90847 21.5738 6.94602C21.5212 6.98359 21.4782 7.03208 21.4481 7.08802C21.4183 7.14352 21.4022 7.2048 21.401 7.26726L21.0335 12.2819L21.0335 12.282C21.024 12.4128 21.0719 12.5148 21.152 12.5829C21.2306 12.6497 21.3366 12.6809 21.4417 12.6808C21.6497 12.6805 21.8804 12.5537 21.8995 12.2892L21.8529 12.2858L21.8995 12.2892C22.0091 10.7725 22.1193 9.25519 22.2303 7.73717C23.0531 7.80251 23.8756 7.59981 24.5588 7.16199L24.5592 7.16174C24.9739 6.89058 25.3206 6.5374 25.5748 6.12682C25.8289 5.71634 25.9844 5.25847 26.0301 4.78533C26.0833 4.30917 26.0248 3.8279 25.8588 3.37532C25.6928 2.92264 25.4233 2.50978 25.0695 2.16561L25.0695 2.16559L25.0683 2.16455C24.3322 1.4913 23.3732 1.07492 22.3508 0.983903C20.9763 0.83098 19.6137 1.2233 18.3816 1.74607Z" fill="#171B25" stroke="black" stroke-width="0.1"/>
<path d="M21.9439 13.8393C21.9438 13.7337 21.9105 13.6309 21.8484 13.5437C21.7863 13.4565 21.6984 13.389 21.5961 13.3493C21.4939 13.3096 21.3816 13.2992 21.2732 13.3194C21.1649 13.3397 21.065 13.3896 20.9862 13.4635C20.9075 13.5374 20.8535 13.6319 20.8315 13.7354C20.8096 13.8388 20.8209 13.946 20.8638 14.0433C20.9067 14.1404 20.9791 14.223 21.0714 14.2808C21.1637 14.3387 21.2718 14.3694 21.3822 14.3694V14.3194C21.4495 14.3196 21.5162 14.3074 21.5784 14.2834C21.6406 14.2594 21.6971 14.224 21.7447 14.1794C21.7922 14.1348 21.8299 14.0817 21.8555 14.0234C21.8811 13.965 21.8942 13.9025 21.8939 13.8394L21.9439 13.8393Z" fill="#171B25" stroke="black" stroke-width="0.1"/>
</g>
<defs>
<clipPath id="clip0_991_362">
<rect width="24" height="24" fill="white" transform="translate(2 1)"/>
</clipPath>
</defs>
</svg>
