<svg width="75" height="26" viewBox="0 0 75 26" fill="none" xmlns="http://www.w3.org/2000/svg">
<path d="M17 22V20C17 18.9391 16.5786 17.9217 15.8284 17.1716C15.0783 16.4214 14.0609 16 13 16H5C3.93913 16 2.92172 16.4214 2.17157 17.1716C1.42143 17.9217 1 18.9391 1 20V22" stroke="black" stroke-width="1.2" stroke-linecap="round" stroke-linejoin="round"/>
<path d="M9 12C11.2091 12 13 10.2091 13 8C13 5.79086 11.2091 4 9 4C6.79086 4 5 5.79086 5 8C5 10.2091 6.79086 12 9 12Z" stroke="black" stroke-width="1.2" stroke-linecap="round" stroke-linejoin="round"/>
<path d="M23 21.9999V19.9999C22.9993 19.1136 22.7044 18.2527 22.1614 17.5522C21.6184 16.8517 20.8581 16.3515 20 16.1299" stroke="black" stroke-width="1.2" stroke-linecap="round" stroke-linejoin="round"/>
<path d="M16 4.12988C16.8604 4.35018 17.623 4.85058 18.1676 5.55219C18.7122 6.2538 19.0078 7.11671 19.0078 8.00488C19.0078 8.89305 18.7122 9.75596 18.1676 10.4576C17.623 11.1592 16.8604 11.6596 16 11.8799" stroke="black" stroke-width="1.2" stroke-linecap="round" stroke-linejoin="round"/>
<path d="M26.7173 15V7.72727H29.4446C30.0033 7.72727 30.4721 7.83144 30.8509 8.03977C31.232 8.24811 31.5196 8.53456 31.7138 8.89915C31.9103 9.26136 32.0085 9.6733 32.0085 10.1349C32.0085 10.6013 31.9103 11.0156 31.7138 11.3778C31.5173 11.7401 31.2273 12.0253 30.8438 12.2337C30.4602 12.4396 29.9879 12.5426 29.4268 12.5426H27.6193V11.4595H29.2493C29.576 11.4595 29.8435 11.4027 30.0518 11.2891C30.2602 11.1754 30.4141 11.0192 30.5135 10.8203C30.6153 10.6214 30.6662 10.393 30.6662 10.1349C30.6662 9.87689 30.6153 9.64962 30.5135 9.45312C30.4141 9.25663 30.259 9.10393 30.0483 8.99503C29.84 8.88376 29.5713 8.82812 29.2422 8.82812H28.0348V15H26.7173ZM35.4327 15.1065C34.8858 15.1065 34.4135 14.9929 34.0158 14.7656C33.6204 14.536 33.3162 14.2116 33.1032 13.7926C32.8901 13.3712 32.7836 12.8752 32.7836 12.3047C32.7836 11.7436 32.8901 11.2512 33.1032 10.8274C33.3186 10.4013 33.6193 10.0698 34.0051 9.8331C34.391 9.59399 34.8444 9.47443 35.3652 9.47443C35.7014 9.47443 36.0186 9.52888 36.3169 9.63778C36.6176 9.74432 36.8828 9.91004 37.1124 10.1349C37.3444 10.3598 37.5267 10.6463 37.6593 10.9943C37.7918 11.34 37.8581 11.7519 37.8581 12.2301V12.6243H33.3873V11.7578H36.6259C36.6235 11.5116 36.5703 11.2926 36.4661 11.1009C36.3619 10.9067 36.2163 10.754 36.0293 10.6428C35.8446 10.5315 35.6292 10.4759 35.383 10.4759C35.1202 10.4759 34.8894 10.5398 34.6905 10.6676C34.4917 10.7931 34.3366 10.9588 34.2253 11.1648C34.1164 11.3684 34.0608 11.5921 34.0584 11.8359V12.5923C34.0584 12.9096 34.1164 13.1818 34.2324 13.4091C34.3484 13.634 34.5106 13.8068 34.7189 13.9276C34.9273 14.0459 35.1711 14.1051 35.4505 14.1051C35.6375 14.1051 35.8068 14.0791 35.9583 14.027C36.1098 13.9725 36.2412 13.8932 36.3525 13.7891C36.4637 13.6849 36.5478 13.5559 36.6046 13.402L37.8049 13.5369C37.7291 13.8542 37.5847 14.1312 37.3716 14.3679C37.1609 14.6023 36.891 14.7846 36.562 14.9148C36.2329 15.0426 35.8565 15.1065 35.4327 15.1065ZM38.9457 15V9.54545H40.1921V10.4545H40.2489C40.3484 10.1397 40.5188 9.89702 40.7603 9.72656C41.0041 9.55374 41.2823 9.46733 41.5948 9.46733C41.6658 9.46733 41.7451 9.47088 41.8327 9.47798C41.9227 9.48272 41.9973 9.491 42.0565 9.50284V10.6854C42.002 10.6664 41.9156 10.6499 41.7972 10.6357C41.6812 10.6191 41.5688 10.6108 41.4599 10.6108C41.2255 10.6108 41.0148 10.6617 40.8278 10.7635C40.6431 10.8629 40.4975 11.0014 40.391 11.179C40.2844 11.3565 40.2312 11.5613 40.2312 11.7933V15H38.9457ZM47.2216 10.9872L46.0497 11.1151C46.0166 10.9967 45.9586 10.8854 45.8757 10.7812C45.7952 10.6771 45.6863 10.593 45.549 10.5291C45.4117 10.4652 45.2436 10.4332 45.0447 10.4332C44.7772 10.4332 44.5523 10.4912 44.37 10.6072C44.1901 10.7232 44.1013 10.8736 44.1037 11.0582C44.1013 11.2169 44.1593 11.3459 44.2777 11.4453C44.3984 11.5447 44.5973 11.6264 44.8743 11.6903L45.8047 11.8892C46.3208 12.0005 46.7043 12.1768 46.9553 12.4183C47.2086 12.6598 47.3364 12.9759 47.3388 13.3665C47.3364 13.7098 47.2358 14.0128 47.0369 14.2756C46.8404 14.536 46.567 14.7396 46.2166 14.8864C45.8662 15.0331 45.4638 15.1065 45.0092 15.1065C44.3416 15.1065 43.8042 14.9669 43.397 14.6875C42.9898 14.4058 42.7472 14.014 42.669 13.5121L43.9226 13.3913C43.9794 13.6375 44.1001 13.8234 44.2848 13.9489C44.4695 14.0743 44.7098 14.1371 45.0057 14.1371C45.3111 14.1371 45.5561 14.0743 45.7408 13.9489C45.9278 13.8234 46.0213 13.6683 46.0213 13.4837C46.0213 13.3274 45.9609 13.1984 45.8402 13.0966C45.7218 12.9948 45.5372 12.9167 45.2862 12.8622L44.3558 12.6669C43.8326 12.558 43.4455 12.3745 43.1946 12.1165C42.9437 11.8561 42.8194 11.527 42.8217 11.1293C42.8194 10.7931 42.9105 10.5019 43.0952 10.2557C43.2822 10.0071 43.5414 9.81534 43.8729 9.6804C44.2067 9.54309 44.5914 9.47443 45.027 9.47443C45.6662 9.47443 46.1693 9.61056 46.5362 9.88281C46.9055 10.1551 47.134 10.5232 47.2216 10.9872ZM50.7781 15.1065C50.2454 15.1065 49.7837 14.9893 49.3931 14.755C49.0025 14.5206 48.6995 14.1927 48.484 13.7713C48.271 13.3499 48.1644 12.8575 48.1644 12.294C48.1644 11.7306 48.271 11.237 48.484 10.8132C48.6995 10.3894 49.0025 10.0604 49.3931 9.82599C49.7837 9.59162 50.2454 9.47443 50.7781 9.47443C51.3107 9.47443 51.7724 9.59162 52.163 9.82599C52.5536 10.0604 52.8555 10.3894 53.0685 10.8132C53.284 11.237 53.3917 11.7306 53.3917 12.294C53.3917 12.8575 53.284 13.3499 53.0685 13.7713C52.8555 14.1927 52.5536 14.5206 52.163 14.755C51.7724 14.9893 51.3107 15.1065 50.7781 15.1065ZM50.7852 14.0767C51.074 14.0767 51.3155 13.9974 51.5096 13.8388C51.7037 13.6778 51.8481 13.4624 51.9428 13.1925C52.0399 12.9226 52.0884 12.6219 52.0884 12.2905C52.0884 11.9567 52.0399 11.6548 51.9428 11.3849C51.8481 11.1127 51.7037 10.8961 51.5096 10.7351C51.3155 10.5741 51.074 10.4936 50.7852 10.4936C50.4892 10.4936 50.243 10.5741 50.0465 10.7351C49.8524 10.8961 49.7068 11.1127 49.6097 11.3849C49.515 11.6548 49.4677 11.9567 49.4677 12.2905C49.4677 12.6219 49.515 12.9226 49.6097 13.1925C49.7068 13.4624 49.8524 13.6778 50.0465 13.8388C50.243 13.9974 50.4892 14.0767 50.7852 14.0767ZM55.7683 11.804V15H54.4828V9.54545H55.7115V10.4723H55.7754C55.9009 10.1669 56.1009 9.92424 56.3755 9.74432C56.6525 9.56439 56.9946 9.47443 57.4018 9.47443C57.7782 9.47443 58.1061 9.55492 58.3855 9.71591C58.6672 9.87689 58.885 10.1101 59.0389 10.4155C59.1951 10.7209 59.2721 11.0914 59.2697 11.527V15H57.9842V11.7259C57.9842 11.3613 57.8895 11.076 57.7001 10.87C57.5131 10.6641 57.2538 10.5611 56.9224 10.5611C56.6975 10.5611 56.4975 10.6108 56.3223 10.7102C56.1494 10.8073 56.0133 10.9482 55.9139 11.1328C55.8168 11.3175 55.7683 11.5412 55.7683 11.804ZM62.1461 15.1101C61.8005 15.1101 61.4892 15.0485 61.2122 14.9254C60.9376 14.8 60.7198 14.6153 60.5588 14.3714C60.4002 14.1276 60.3208 13.8269 60.3208 13.4695C60.3208 13.1617 60.3777 12.9072 60.4913 12.706C60.6049 12.5047 60.76 12.3438 60.9565 12.223C61.153 12.1023 61.3743 12.0111 61.6206 11.9496C61.8691 11.8857 62.126 11.8395 62.3912 11.8111C62.7108 11.7779 62.97 11.7483 63.1689 11.7223C63.3677 11.6939 63.5121 11.6513 63.6021 11.5945C63.6944 11.5353 63.7406 11.4441 63.7406 11.321V11.2997C63.7406 11.0322 63.6613 10.825 63.5027 10.6783C63.344 10.5315 63.1156 10.4581 62.8173 10.4581C62.5024 10.4581 62.2527 10.5268 62.068 10.6641C61.8857 10.8014 61.7626 10.9635 61.6987 11.1506L60.4984 10.9801C60.5931 10.6487 60.7493 10.3717 60.9672 10.1491C61.185 9.92424 61.4513 9.75616 61.7662 9.64489C62.081 9.53125 62.429 9.47443 62.8102 9.47443C63.073 9.47443 63.3346 9.50521 63.595 9.56676C63.8554 9.62831 64.0933 9.73011 64.3088 9.87216C64.5242 10.0118 64.697 10.2024 64.8272 10.4439C64.9598 10.6854 65.0261 10.9872 65.0261 11.3494V15H63.7903V14.2507H63.7477C63.6696 14.4022 63.5595 14.5443 63.4174 14.6768C63.2778 14.8071 63.1014 14.9124 62.8883 14.9929C62.6776 15.071 62.4302 15.1101 62.1461 15.1101ZM62.4799 14.1655C62.738 14.1655 62.9617 14.1146 63.1511 14.0128C63.3405 13.9086 63.4861 13.7713 63.5879 13.6009C63.6921 13.4304 63.7441 13.2446 63.7441 13.0433V12.4006C63.7039 12.4337 63.6352 12.4645 63.5382 12.4929C63.4435 12.5213 63.3369 12.5462 63.2186 12.5675C63.1002 12.5888 62.983 12.6077 62.867 12.6243C62.751 12.6409 62.6504 12.6551 62.5652 12.6669C62.3734 12.6929 62.2018 12.7356 62.0502 12.7947C61.8987 12.8539 61.7792 12.9368 61.6916 13.0433C61.604 13.1475 61.5602 13.2824 61.5602 13.4482C61.5602 13.6849 61.6466 13.8636 61.8194 13.9844C61.9922 14.1051 62.2124 14.1655 62.4799 14.1655ZM70.6298 10.9872L69.4579 11.1151C69.4248 10.9967 69.3668 10.8854 69.2839 10.7812C69.2034 10.6771 69.0945 10.593 68.9572 10.5291C68.8199 10.4652 68.6518 10.4332 68.4529 10.4332C68.1854 10.4332 67.9605 10.4912 67.7782 10.6072C67.5983 10.7232 67.5095 10.8736 67.5119 11.0582C67.5095 11.2169 67.5675 11.3459 67.6859 11.4453C67.8066 11.5447 68.0055 11.6264 68.2825 11.6903L69.2129 11.8892C69.729 12.0005 70.1125 12.1768 70.3635 12.4183C70.6168 12.6598 70.7446 12.9759 70.747 13.3665C70.7446 13.7098 70.644 14.0128 70.4451 14.2756C70.2486 14.536 69.9752 14.7396 69.6248 14.8864C69.2744 15.0331 68.872 15.1065 68.4174 15.1065C67.7498 15.1065 67.2124 14.9669 66.8052 14.6875C66.398 14.4058 66.1554 14.014 66.0772 13.5121L67.3308 13.3913C67.3876 13.6375 67.5083 13.8234 67.693 13.9489C67.8777 14.0743 68.118 14.1371 68.4139 14.1371C68.7193 14.1371 68.9643 14.0743 69.149 13.9489C69.336 13.8234 69.4295 13.6683 69.4295 13.4837C69.4295 13.3274 69.3691 13.1984 69.2484 13.0966C69.13 12.9948 68.9454 12.9167 68.6944 12.8622L67.764 12.6669C67.2408 12.558 66.8538 12.3745 66.6028 12.1165C66.3519 11.8561 66.2276 11.527 66.2299 11.1293C66.2276 10.7931 66.3187 10.5019 66.5034 10.2557C66.6904 10.0071 66.9496 9.81534 67.2811 9.6804C67.6149 9.54309 67.9996 9.47443 68.4352 9.47443C69.0744 9.47443 69.5775 9.61056 69.9444 9.88281C70.3137 10.1551 70.5422 10.5232 70.6298 10.9872Z" fill="black"/>
</svg>
