<svg width="86" height="26" viewBox="0 0 86 26" fill="none" xmlns="http://www.w3.org/2000/svg">
<path d="M28.7173 15.1304V7.85764H31.4446C32.0033 7.85764 32.4721 7.96181 32.8509 8.17014C33.232 8.37848 33.5196 8.66494 33.7138 9.02952C33.9103 9.39173 34.0085 9.80367 34.0085 10.2653C34.0085 10.7317 33.9103 11.146 33.7138 11.5082C33.5173 11.8704 33.2273 12.1557 32.8438 12.364C32.4602 12.57 31.9879 12.673 31.4268 12.673H29.6193V11.5899H31.2493C31.576 11.5899 31.8435 11.5331 32.0518 11.4194C32.2602 11.3058 32.4141 11.1495 32.5135 10.9507C32.6153 10.7518 32.6662 10.5234 32.6662 10.2653C32.6662 10.0073 32.6153 9.77999 32.5135 9.5835C32.4141 9.387 32.259 9.2343 32.0483 9.1254C31.84 9.01413 31.5713 8.9585 31.2422 8.9585H30.0348V15.1304H28.7173ZM37.4327 15.2369C36.8858 15.2369 36.4135 15.1233 36.0158 14.896C35.6204 14.6664 35.3162 14.342 35.1032 13.923C34.8901 13.5016 34.7836 13.0056 34.7836 12.4351C34.7836 11.874 34.8901 11.3816 35.1032 10.9578C35.3186 10.5316 35.6193 10.2002 36.0051 9.96347C36.391 9.72436 36.8444 9.6048 37.3652 9.6048C37.7014 9.6048 38.0186 9.65925 38.3169 9.76815C38.6176 9.87469 38.8828 10.0404 39.1124 10.2653C39.3444 10.4902 39.5267 10.7767 39.6593 11.1247C39.7918 11.4703 39.8581 11.8823 39.8581 12.3605V12.7547H35.3873V11.8882H38.6259C38.6235 11.642 38.5703 11.423 38.4661 11.2312C38.3619 11.0371 38.2163 10.8844 38.0293 10.7731C37.8446 10.6619 37.6292 10.6062 37.383 10.6062C37.1202 10.6062 36.8894 10.6701 36.6905 10.798C36.4917 10.9235 36.3366 11.0892 36.2253 11.2951C36.1164 11.4987 36.0608 11.7225 36.0584 11.9663V12.7227C36.0584 13.0399 36.1164 13.3122 36.2324 13.5395C36.3484 13.7644 36.5106 13.9372 36.7189 14.0579C36.9273 14.1763 37.1711 14.2355 37.4505 14.2355C37.6375 14.2355 37.8068 14.2094 37.9583 14.1574C38.1098 14.1029 38.2412 14.0236 38.3525 13.9194C38.4637 13.8153 38.5478 13.6862 38.6046 13.5324L39.8049 13.6673C39.7291 13.9845 39.5847 14.2615 39.3716 14.4983C39.1609 14.7326 38.891 14.9149 38.562 15.0451C38.2329 15.173 37.8565 15.2369 37.4327 15.2369ZM43.6694 9.67583V10.6701H40.5337V9.67583H43.6694ZM41.3079 8.36901H42.5934V13.4897C42.5934 13.6626 42.6194 13.7951 42.6715 13.8875C42.726 13.9774 42.797 14.039 42.8846 14.0721C42.9722 14.1053 43.0692 14.1218 43.1758 14.1218C43.2563 14.1218 43.3297 14.1159 43.396 14.1041C43.4646 14.0923 43.5167 14.0816 43.5522 14.0721L43.7688 15.0771C43.7002 15.1008 43.6019 15.1268 43.4741 15.1552C43.3486 15.1836 43.1947 15.2002 43.0124 15.2049C42.6905 15.2144 42.4004 15.1659 42.1424 15.0593C41.8844 14.9504 41.6796 14.7824 41.5281 14.5551C41.3789 14.3278 41.3055 14.0437 41.3079 13.7028V8.36901ZM49.9877 9.67583V10.6701H46.7633V9.67583H49.9877ZM47.5694 15.1304V9.16091C47.5694 8.79396 47.6452 8.48856 47.7967 8.24472C47.9506 8.00087 48.1565 7.81858 48.4146 7.69784C48.6726 7.5771 48.9591 7.51673 49.274 7.51673C49.4965 7.51673 49.6942 7.53449 49.867 7.57C50.0398 7.60551 50.1677 7.63747 50.2505 7.66588L49.9949 8.6602C49.9404 8.64363 49.8717 8.62706 49.7889 8.61048C49.706 8.59155 49.6137 8.58208 49.5119 8.58208C49.2728 8.58208 49.1035 8.64008 49.0041 8.75608C48.907 8.86972 48.8585 9.03307 48.8585 9.24614V15.1304H47.5694ZM50.9945 15.1304V9.67583H52.2409V10.5849H52.2978C52.3972 10.27 52.5676 10.0274 52.8091 9.85693C53.053 9.68411 53.3311 9.5977 53.6436 9.5977C53.7147 9.5977 53.794 9.60125 53.8816 9.60835C53.9715 9.61309 54.0461 9.62137 54.1053 9.63321V10.8157C54.0508 10.7968 53.9644 10.7802 53.8461 10.766C53.7301 10.7495 53.6176 10.7412 53.5087 10.7412C53.2743 10.7412 53.0636 10.7921 52.8766 10.8939C52.6919 10.9933 52.5463 11.1318 52.4398 11.3093C52.3333 11.4869 52.28 11.6917 52.28 11.9237V15.1304H50.9945ZM54.9593 15.1304V9.67583H56.2449V15.1304H54.9593ZM55.6056 8.90168C55.402 8.90168 55.2269 8.83421 55.0801 8.69926C54.9333 8.56195 54.8599 8.39742 54.8599 8.20565C54.8599 8.01153 54.9333 7.84699 55.0801 7.71205C55.2269 7.57474 55.402 7.50608 55.6056 7.50608C55.8116 7.50608 55.9868 7.57474 56.1312 7.71205C56.278 7.84699 56.3514 8.01153 56.3514 8.20565C56.3514 8.39742 56.278 8.56195 56.1312 8.69926C55.9868 8.83421 55.8116 8.90168 55.6056 8.90168ZM59.9815 15.2369C59.4347 15.2369 58.9624 15.1233 58.5646 14.896C58.1693 14.6664 57.8651 14.342 57.652 13.923C57.4389 13.5016 57.3324 13.0056 57.3324 12.4351C57.3324 11.874 57.4389 11.3816 57.652 10.9578C57.8674 10.5316 58.1681 10.2002 58.554 9.96347C58.9399 9.72436 59.3932 9.6048 59.9141 9.6048C60.2502 9.6048 60.5675 9.65925 60.8658 9.76815C61.1664 9.87469 61.4316 10.0404 61.6612 10.2653C61.8932 10.4902 62.0755 10.7767 62.2081 11.1247C62.3407 11.4703 62.407 11.8823 62.407 12.3605V12.7547H57.9361V11.8882H61.1747C61.1723 11.642 61.1191 11.423 61.0149 11.2312C60.9107 11.0371 60.7652 10.8844 60.5781 10.7731C60.3935 10.6619 60.178 10.6062 59.9318 10.6062C59.669 10.6062 59.4382 10.6701 59.2393 10.798C59.0405 10.9235 58.8854 11.0892 58.7741 11.2951C58.6652 11.4987 58.6096 11.7225 58.6072 11.9663V12.7227C58.6072 13.0399 58.6652 13.3122 58.7812 13.5395C58.8973 13.7644 59.0594 13.9372 59.2678 14.0579C59.4761 14.1763 59.7199 14.2355 59.9993 14.2355C60.1863 14.2355 60.3556 14.2094 60.5071 14.1574C60.6586 14.1029 60.79 14.0236 60.9013 13.9194C61.0125 13.8153 61.0966 13.6862 61.1534 13.5324L62.3537 13.6673C62.2779 13.9845 62.1335 14.2615 61.9205 14.4983C61.7098 14.7326 61.4399 14.9149 61.1108 15.0451C60.7817 15.173 60.4053 15.2369 59.9815 15.2369ZM64.78 11.9343V15.1304H63.4945V9.67583H64.7232V10.6027H64.7871C64.9126 10.2973 65.1126 10.0546 65.3873 9.87469C65.6642 9.69477 66.0063 9.6048 66.4135 9.6048C66.79 9.6048 67.1178 9.6853 67.3972 9.84628C67.6789 10.0073 67.8967 10.2405 68.0506 10.5459C68.2069 10.8513 68.2838 11.2218 68.2814 11.6574V15.1304H66.9959V11.8562C66.9959 11.4916 66.9012 11.2064 66.7118 11.0004C66.5248 10.7944 66.2656 10.6915 65.9341 10.6915C65.7092 10.6915 65.5092 10.7412 65.334 10.8406C65.1612 10.9377 65.025 11.0785 64.9256 11.2632C64.8285 11.4478 64.78 11.6716 64.78 11.9343ZM71.6124 15.2263C71.1839 15.2263 70.8004 15.1162 70.4618 14.896C70.1233 14.6758 69.8558 14.3562 69.6593 13.9372C69.4628 13.5182 69.3645 13.0092 69.3645 12.4102C69.3645 11.8041 69.464 11.2928 69.6628 10.8761C69.8641 10.4571 70.1351 10.141 70.476 9.92796C70.8169 9.71252 71.1969 9.6048 71.6159 9.6048C71.9355 9.6048 72.1983 9.65925 72.4043 9.76815C72.6103 9.87469 72.7736 10.0037 72.8944 10.1552C73.0151 10.3044 73.1086 10.4452 73.1749 10.5778H73.2282V7.85764H74.5172V15.1304H73.253V14.271H73.1749C73.1086 14.4036 73.0127 14.5444 72.8873 14.6936C72.7618 14.8404 72.5961 14.9658 72.3901 15.07C72.1841 15.1742 71.9249 15.2263 71.6124 15.2263ZM71.9711 14.1716C72.2433 14.1716 72.4753 14.0982 72.6671 13.9514C72.8588 13.8022 73.0044 13.5951 73.1039 13.3299C73.2033 13.0648 73.253 12.7558 73.253 12.4031C73.253 12.0504 73.2033 11.7438 73.1039 11.4834C73.0068 11.2229 72.8624 11.0205 72.6706 10.8761C72.4812 10.7317 72.248 10.6595 71.9711 10.6595C71.6846 10.6595 71.4455 10.7341 71.2537 10.8832C71.062 11.0324 70.9176 11.2383 70.8205 11.5011C70.7234 11.7639 70.6749 12.0646 70.6749 12.4031C70.6749 12.744 70.7234 13.0482 70.8205 13.3157C70.9199 13.5809 71.0655 13.7904 71.2573 13.9443C71.4514 14.0958 71.6893 14.1716 71.9711 14.1716ZM77.1726 7.85764V15.1304H75.8871V7.85764H77.1726ZM79.2935 17.1758C79.1183 17.1758 78.9561 17.1616 78.807 17.1332C78.6602 17.1072 78.543 17.0764 78.4554 17.0409L78.7537 16.0395C78.9408 16.0939 79.1077 16.12 79.2544 16.1176C79.4012 16.1152 79.5302 16.0691 79.6415 15.9791C79.7551 15.8915 79.851 15.7447 79.9292 15.5388L80.0392 15.244L78.0613 9.67583H79.4249L80.682 13.7951H80.7388L81.9995 9.67583H83.3667L81.1827 15.7909C81.0809 16.0797 80.946 16.3271 80.7779 16.5331C80.6098 16.7414 80.4038 16.9 80.16 17.0089C79.9185 17.1202 79.6297 17.1758 79.2935 17.1758Z" fill="black"/>
<path d="M16 23.9999V20.1299C16.0375 19.6531 15.9731 19.1737 15.811 18.7237C15.6489 18.2737 15.3929 17.8634 15.06 17.5199C18.2 17.1699 21.5 15.9799 21.5 10.5199C21.4997 9.12376 20.9627 7.78114 20 6.76994C20.4559 5.54844 20.4236 4.19829 19.91 2.99994C19.91 2.99994 18.73 2.64994 16 4.47994C13.708 3.85876 11.292 3.85876 9 4.47994C6.27 2.64994 5.09 2.99994 5.09 2.99994C4.57638 4.19829 4.54414 5.54844 5 6.76994C4.03013 7.78864 3.49252 9.1434 3.5 10.5499C3.5 15.9699 6.8 17.1599 9.94 17.5499C9.611 17.8899 9.35726 18.2953 9.19531 18.7399C9.03335 19.1844 8.96681 19.658 9 20.1299V23.9999M9 20.9999C4 22.4999 4 18.4999 2 17.9999L9 20.9999Z" stroke="#171B25" stroke-width="1.2" stroke-linecap="round" stroke-linejoin="round"/>
</svg>
