<svg width="73" height="26" viewBox="0 0 73 26" fill="none" xmlns="http://www.w3.org/2000/svg">
<g clip-path="url(#clip0_991_358)">
<path d="M7.29169 12.4811C7.39438 12.4154 7.5139 12.3804 7.63599 12.3804C7.75808 12.3804 7.87759 12.4154 7.98028 12.4811C8.01224 12.504 8.04863 12.52 8.08714 12.5281C8.12564 12.5362 8.16542 12.5363 8.20396 12.5283C8.2425 12.5204 8.27896 12.5045 8.31102 12.4818C8.34308 12.4591 8.37005 12.43 8.39022 12.3963C8.41039 12.3627 8.42332 12.3252 8.42819 12.2864C8.43306 12.2475 8.42977 12.208 8.41851 12.1705C8.40726 12.1329 8.3883 12.0981 8.36282 12.0683C8.33735 12.0384 8.30592 12.0141 8.27052 11.997C8.07035 11.8974 7.86018 11.8376 7.63999 11.752C7.4198 11.8356 7.20362 11.8974 7.00945 11.995C6.97572 12.0111 6.94574 12.0339 6.92142 12.0622C6.8971 12.0905 6.87899 12.1235 6.86825 12.1591C6.8575 12.1948 6.85436 12.2323 6.85903 12.2692C6.8637 12.3061 6.87608 12.3416 6.89536 12.3735C6.91277 12.408 6.93727 12.4384 6.96726 12.4628C6.99725 12.4872 7.03206 12.5051 7.06944 12.5152C7.10682 12.5253 7.14592 12.5275 7.18421 12.5217C7.2225 12.5158 7.25912 12.502 7.29169 12.4811V12.4811Z" fill="black"/>
<path d="M7.90805 14.2693C8.05868 14.4499 8.24726 14.5955 8.46051 14.6957C8.52527 14.7168 8.57943 14.7618 8.61183 14.8215C8.64422 14.8812 8.6524 14.9509 8.63466 15.0164C8.61865 15.1698 8.48253 15.1857 8.37844 15.1897C8.25866 15.1896 8.14016 15.1652 8.03015 15.118C7.84199 15.0443 7.69186 15.0722 7.6138 15.2176C7.59491 15.2524 7.58345 15.2906 7.58012 15.33C7.57679 15.3694 7.58166 15.409 7.59444 15.4464C7.60722 15.4838 7.62763 15.5182 7.65438 15.5474C7.68113 15.5766 7.71366 15.6 7.74991 15.6161C7.90327 15.7116 8.079 15.7657 8.25977 15.773C8.44055 15.7804 8.62012 15.7407 8.78079 15.6579C8.8265 15.6319 8.87825 15.6182 8.93091 15.6182C8.98358 15.6182 9.03533 15.6319 9.08104 15.6579C9.22921 15.7354 9.39407 15.7759 9.56145 15.7759C9.72882 15.7759 9.89369 15.7354 10.0419 15.6579C10.26 15.5523 10.3321 15.3969 10.242 15.2336C10.1519 15.0702 10.0178 15.0563 9.77963 15.132C9.62367 15.1689 9.46119 15.1689 9.30523 15.132C9.25919 15.132 9.21715 14.9845 9.21115 14.9009C9.22483 14.8341 9.26439 14.7754 9.32124 14.7375C9.53628 14.6135 9.73757 14.4673 9.92175 14.3012C10.011 14.2036 10.0754 14.0863 10.1097 13.9588C10.1441 13.8314 10.1473 13.6977 10.119 13.5688C10.0908 13.4399 10.032 13.3196 9.94757 13.2179C9.8631 13.1162 9.75541 13.0362 9.63351 12.9844C9.40482 12.898 9.16909 12.8313 8.92891 12.7852C8.6903 12.8324 8.45599 12.899 8.22832 12.9844C8.10935 13.0343 8.00373 13.1112 7.91982 13.2089C7.83592 13.3065 7.77605 13.4223 7.74496 13.5471C7.71388 13.6718 7.71243 13.802 7.74074 13.9274C7.76905 14.0528 7.82633 14.1698 7.90805 14.2693V14.2693ZM8.4485 13.5243C8.60103 13.4571 8.75908 13.4031 8.9209 13.3629C9.08279 13.4017 9.24141 13.453 9.39531 13.5163C9.43642 13.5321 9.47278 13.5581 9.50092 13.5919C9.52907 13.6257 9.54806 13.6661 9.55608 13.7092C9.56411 13.7523 9.56091 13.7968 9.54678 13.8384C9.53265 13.8799 9.50807 13.9172 9.47537 13.9466C9.41378 14.0346 9.33174 14.1064 9.23624 14.156C9.14075 14.2056 9.03463 14.2315 8.92691 14.2315C8.81919 14.2315 8.71307 14.2056 8.61757 14.156C8.52208 14.1064 8.44004 14.0346 8.37844 13.9466C8.25234 13.7793 8.26835 13.6199 8.4485 13.5243V13.5243Z" fill="black"/>
<path d="M16.6199 14.7844C16.6424 14.7523 16.6576 14.7157 16.6645 14.6772C16.6714 14.6387 16.6699 14.5992 16.66 14.5613C16.6501 14.5235 16.6321 14.4882 16.6072 14.4579C16.5823 14.4276 16.5511 14.4031 16.5158 14.386C16.3084 14.2969 16.0967 14.2185 15.8813 14.1509C15.6728 14.2185 15.4684 14.2977 15.2688 14.388C15.233 14.4031 15.2009 14.4258 15.1748 14.4544C15.1486 14.4831 15.129 14.517 15.1172 14.5539C15.1054 14.5907 15.1018 14.6297 15.1065 14.6681C15.1112 14.7065 15.1243 14.7435 15.1447 14.7764C15.1634 14.8101 15.1889 14.8395 15.2196 14.863C15.2502 14.8865 15.2854 14.9035 15.3228 14.9131C15.3603 14.9226 15.3993 14.9244 15.4375 14.9183C15.4757 14.9123 15.5123 14.8986 15.545 14.878C15.6473 14.8113 15.767 14.7758 15.8893 14.7758C16.0116 14.7758 16.1312 14.8113 16.2336 14.878C16.265 14.8975 16.3 14.9106 16.3366 14.9164C16.3732 14.9222 16.4105 14.9208 16.4465 14.912C16.4825 14.9033 16.5164 14.8875 16.5461 14.8656C16.5759 14.8437 16.601 14.8161 16.6199 14.7844V14.7844Z" fill="black"/>
<path d="M9.8822 12.4771C9.98263 12.4132 10.0993 12.3793 10.2185 12.3793C10.3377 12.3793 10.4544 12.4132 10.5548 12.4771C10.5869 12.5 10.6235 12.5159 10.6621 12.524C10.7008 12.532 10.7408 12.532 10.7794 12.5238C10.8181 12.5156 10.8546 12.4995 10.8866 12.4765C10.9186 12.4534 10.9455 12.424 10.9655 12.3901C10.9855 12.3562 10.9981 12.3185 11.0026 12.2794C11.0072 12.2403 11.0034 12.2008 10.9917 12.1632C10.98 12.1257 10.9606 12.0909 10.9346 12.0613C10.9087 12.0316 10.8768 12.0077 10.841 11.991C10.6408 11.8954 10.4407 11.8356 10.2125 11.7539C10.005 11.8217 9.80123 11.9001 9.60197 11.989C9.56557 12.0049 9.53314 12.0286 9.50701 12.0584C9.48088 12.0883 9.46168 12.1234 9.45078 12.1615C9.43988 12.1996 9.43755 12.2395 9.44397 12.2786C9.45038 12.3176 9.46537 12.3548 9.48787 12.3874C9.50709 12.4199 9.53277 12.4481 9.56334 12.4704C9.5939 12.4926 9.62871 12.5084 9.66563 12.5168C9.70254 12.5252 9.74079 12.526 9.77803 12.5192C9.81527 12.5123 9.85072 12.498 9.8822 12.4771V12.4771Z" fill="black"/>
<path d="M18.1371 14.871C18.2343 14.8084 18.3476 14.7751 18.4633 14.7751C18.5791 14.7751 18.6924 14.8084 18.7896 14.871C18.823 14.8945 18.861 14.9105 18.9012 14.9182C18.9413 14.9259 18.9826 14.925 19.0224 14.9156C19.0621 14.9062 19.0994 14.8884 19.1317 14.8636C19.1641 14.8387 19.1907 14.8073 19.21 14.7714C19.2304 14.7369 19.2431 14.6984 19.2471 14.6585C19.2512 14.6186 19.2464 14.5784 19.2333 14.5405C19.2202 14.5026 19.1989 14.468 19.1711 14.4391C19.1432 14.4102 19.1093 14.3876 19.0719 14.373C18.8765 14.2868 18.676 14.213 18.4713 14.1519C18.2672 14.2182 18.0667 14.2954 17.8708 14.3829C17.8336 14.3978 17.8 14.4207 17.7726 14.4499C17.7452 14.4791 17.7246 14.5139 17.7122 14.5519C17.6997 14.5899 17.6959 14.6301 17.7008 14.6698C17.7057 14.7095 17.7194 14.7475 17.7407 14.7814C17.7818 14.845 17.8464 14.89 17.9205 14.9068C17.9946 14.9235 18.0724 14.9107 18.1371 14.871V14.871Z" fill="black"/>
<mask id="path-6-outside-1_991_358" maskUnits="userSpaceOnUse" x="0" y="8.11523" width="27" height="18" fill="black">
<rect fill="white" y="8.11523" width="27" height="18"/>
<path d="M25.8954 16.4418C25.8341 16.3483 25.75 16.2719 25.6509 16.2196C25.5519 16.1674 25.4411 16.141 25.329 16.1429H21.4437C21.3976 15.607 21.0433 15.113 20.8432 14.6329C20.7933 14.5111 20.7648 14.3817 20.7591 14.2504C20.7533 13.4417 20.6014 12.6407 20.3107 11.8856C20.2863 11.7881 20.2321 11.7006 20.1555 11.6351C20.0789 11.5697 19.9837 11.5296 19.8832 11.5204C19.7826 11.5112 19.6817 11.5333 19.5944 11.5838C19.5071 11.6343 19.4377 11.7105 19.3959 11.802C19.2378 12.039 19.0676 12.2681 18.9055 12.4992C18.3727 12.2162 17.778 12.0681 17.174 12.0681C16.5701 12.0681 15.9754 12.2162 15.4426 12.4992C15.2744 12.2542 15.1063 12.0211 14.9462 11.784C14.9017 11.6983 14.8333 11.6272 14.749 11.5795C14.6648 11.5318 14.5685 11.5094 14.4717 11.5151C14.3708 11.5208 14.2746 11.5594 14.1979 11.6249C14.1212 11.6904 14.0683 11.7792 14.0474 11.8777C13.8951 12.3503 13.7727 12.8321 13.6811 13.32C13.589 13.9575 13.593 14.611 13.2988 15.2126C13.2499 15.3407 13.2183 15.4747 13.2047 15.611C13.1706 15.7903 13.1446 15.9716 13.1166 16.1469H12.1878L12.9184 14.8978C13.2607 14.8799 13.3748 14.8201 13.3828 14.6269C13.3908 14.4336 13.2887 14.3639 12.9825 14.2962V13.8639C13.2847 13.7922 13.3828 13.7085 13.3828 13.5372C13.3828 13.3658 13.2667 13.2901 12.9525 13.2583L12.5321 12.1008C12.5179 12.0515 12.5099 12.0006 12.5081 11.9494C12.4961 11.7342 12.4901 11.5171 12.4721 11.3019C12.433 10.6704 12.291 10.0493 12.0517 9.46312C12.0228 9.37073 11.9667 9.28907 11.8907 9.2287C11.8147 9.16834 11.7223 9.13202 11.6253 9.12445C11.5333 9.11847 11.4414 9.13826 11.36 9.18156C11.2786 9.22486 11.2111 9.28996 11.1649 9.36949C11.0028 9.61254 10.8327 9.8516 10.6625 10.0966C10.1292 9.81274 9.53382 9.6642 8.92905 9.6642C8.32428 9.6642 7.72885 9.81274 7.19558 10.0966C7.01943 9.85359 6.85929 9.60855 6.68314 9.36949C6.61583 9.27703 6.5273 9.2019 6.42493 9.15035C6.3681 9.12654 6.30696 9.1146 6.24531 9.11526C6.18366 9.11592 6.12279 9.12918 6.0665 9.15421C6.0102 9.17923 5.95967 9.2155 5.91803 9.26075C5.87638 9.30601 5.84452 9.35929 5.82442 9.4173C5.58015 9.98067 5.43589 10.5819 5.39805 11.1943C5.40189 11.4818 5.38113 11.769 5.336 12.053C5.22991 12.4614 5.05176 12.8499 4.89963 13.2682C4.73549 13.2563 4.53332 13.2503 4.48728 13.4893C4.43124 13.7862 4.68745 13.8161 4.87161 13.8679V14.3022C4.81164 14.3073 4.75211 14.3166 4.69346 14.3301C4.62571 14.3436 4.56583 14.3827 4.5263 14.4391C4.48677 14.4955 4.47064 14.5649 4.48128 14.6329C4.48069 14.6686 4.48785 14.704 4.50225 14.7368C4.51665 14.7695 4.53796 14.7988 4.56473 14.8226C4.59151 14.8464 4.62312 14.8642 4.65742 14.8748C4.69172 14.8854 4.7279 14.8885 4.76352 14.8839C4.96369 14.858 5.01573 14.9516 5.08379 15.109C5.19706 15.3365 5.32337 15.5573 5.46211 15.7704C5.52416 15.878 5.59222 15.9856 5.6863 16.133H1.66489C1.55244 16.1336 1.44196 16.1624 1.34368 16.2168C1.2454 16.2712 1.16249 16.3494 1.10263 16.4441C1.04276 16.5389 1.00787 16.6471 1.00118 16.7588C0.994498 16.8705 1.01623 16.9821 1.06438 17.0833L5.19789 25.8051L5.24392 25.9007C5.30398 25.9784 5.42007 26.0003 5.63025 26.0003H21.3476C21.5598 26.0003 21.6739 25.9784 21.7359 25.9007L21.7799 25.8051L25.9355 17.0833C25.984 16.9817 26.0057 16.8696 25.9987 16.7574C25.9917 16.6452 25.9562 16.5366 25.8954 16.4418ZM19.7923 12.2382H19.8543C19.9444 12.6367 20.0385 13.0192 20.1285 13.4097L20.0805 13.4276L19.4099 12.802L19.7923 12.2382ZM14.4898 12.2382H14.5478C14.6159 12.3339 14.6799 12.4375 14.748 12.5231L14.9482 12.812L14.2756 13.4276H14.2255L14.4898 12.2382ZM14.5738 13.9874C14.8458 13.6259 15.1882 13.3228 15.5807 13.0961C15.9731 12.8695 16.4075 12.7241 16.8578 12.6686C17.8186 12.563 18.6333 12.8997 19.3379 13.5272C20.0564 14.1676 20.5161 15.0464 20.631 15.9995C20.631 16.0413 20.631 16.0872 20.631 16.1429H18.4091C18.321 15.4497 17.7045 15.1847 17.0319 15.2305C16.4314 15.2684 16.0571 15.5752 15.959 16.1429H13.7071C13.7701 15.3525 14.0722 14.5995 14.5738 13.9834V13.9874ZM17.7926 16.1429H16.5635C16.6116 15.9218 16.7897 15.8162 17.132 15.8043C17.5083 15.7863 17.7225 15.8939 17.7926 16.1429ZM11.5453 9.84164H11.6113C11.7014 10.2401 11.7935 10.6286 11.8836 11.023L11.8435 11.0409L11.1589 10.4054C11.281 10.2281 11.4132 10.0369 11.5453 9.84164ZM6.24878 9.84164H6.30482L6.70516 10.4114L6.0366 11.023L5.98055 11.0131C6.06862 10.6213 6.15803 10.2295 6.24878 9.83766V9.84164ZM5.54418 14.8221C5.94452 14.7783 6.29682 14.7385 6.65112 14.7046C6.95538 14.6727 7.09349 14.5671 7.06947 14.3699C7.04545 14.1727 6.91134 14.1029 6.60708 14.1288C6.23276 14.1647 5.85845 14.2065 5.46611 14.2484V13.9137L6.59707 14.0292C6.64912 14.0292 6.69916 14.0432 6.7512 14.0452C6.78961 14.0487 6.82834 14.0447 6.86517 14.0333C6.902 14.0218 6.9362 14.0033 6.96578 13.9787C6.99537 13.954 7.01977 13.9238 7.03756 13.8897C7.05536 13.8557 7.0662 13.8185 7.06947 13.7802C7.07303 13.7421 7.06878 13.7036 7.05698 13.6672C7.04517 13.6308 7.02606 13.5971 7.00079 13.5682C6.97553 13.5394 6.94464 13.5159 6.90999 13.4992C6.87535 13.4826 6.83767 13.4731 6.79924 13.4714C6.43694 13.4316 6.07463 13.3957 5.71032 13.3579L5.54218 13.3359C5.75836 11.9414 6.93135 10.2959 8.89702 10.272C10.8146 10.252 12.0577 11.794 12.3259 13.334C12.0437 13.3658 11.7614 13.3997 11.4772 13.4296C11.3491 13.4455 11.221 13.4555 11.0949 13.4694C10.8947 13.4913 10.7706 13.6188 10.7906 13.7902C10.7959 13.8314 10.8099 13.871 10.8316 13.9064C10.8534 13.9419 10.8824 13.9723 10.9168 13.9958C10.9512 14.0194 10.9902 14.0354 11.0312 14.0428C11.0722 14.0503 11.1144 14.0491 11.1549 14.0392C11.5553 14.0013 11.9716 13.9535 12.4 13.9097V14.2424L11.4192 14.1508C11.3171 14.1508 11.219 14.1288 11.1109 14.1249C11.0728 14.1193 11.0339 14.1215 10.9966 14.1313C10.9594 14.1412 10.9245 14.1584 10.8942 14.1821C10.8639 14.2058 10.8387 14.2353 10.8202 14.269C10.8017 14.3026 10.7903 14.3397 10.7866 14.3779C10.7828 14.4162 10.7868 14.455 10.7985 14.4918C10.8101 14.5286 10.8291 14.5626 10.8544 14.5919C10.8797 14.6211 10.9107 14.6449 10.9455 14.6619C10.9802 14.6789 11.0181 14.6887 11.0569 14.6906C11.3491 14.7285 11.6433 14.7544 11.9356 14.7823L12.2979 14.8261C12.0377 15.2744 11.7915 15.7007 11.5433 16.125C11.5563 16.1366 11.5683 16.1493 11.5793 16.1629H11.3911C9.74974 16.1629 8.10769 16.1629 6.46496 16.1629C6.43656 16.1674 6.40754 16.1663 6.37957 16.1596C6.35159 16.153 6.32522 16.1409 6.30197 16.124C6.27871 16.1072 6.25903 16.0859 6.24407 16.0615C6.2291 16.037 6.21913 16.0099 6.21475 15.9816C6.13452 15.7953 6.03878 15.6161 5.9285 15.4457C5.81241 15.2425 5.6883 15.0512 5.54418 14.8181V14.8221ZM21.7799 23.9862L21.5538 24.4484L21.2335 25.0998L21.0814 25.4106H5.91249L5.76036 25.1078L5.2159 23.9942L1.66489 16.7406L5.42007 16.7765H5.94852L5.93251 16.7406H21.0613L21.0453 16.7785H21.5738L25.329 16.7406L21.7799 23.9862Z"/>
</mask>
<path d="M25.8954 16.4418C25.8341 16.3483 25.75 16.2719 25.6509 16.2196C25.5519 16.1674 25.4411 16.141 25.329 16.1429H21.4437C21.3976 15.607 21.0433 15.113 20.8432 14.6329C20.7933 14.5111 20.7648 14.3817 20.7591 14.2504C20.7533 13.4417 20.6014 12.6407 20.3107 11.8856C20.2863 11.7881 20.2321 11.7006 20.1555 11.6351C20.0789 11.5697 19.9837 11.5296 19.8832 11.5204C19.7826 11.5112 19.6817 11.5333 19.5944 11.5838C19.5071 11.6343 19.4377 11.7105 19.3959 11.802C19.2378 12.039 19.0676 12.2681 18.9055 12.4992C18.3727 12.2162 17.778 12.0681 17.174 12.0681C16.5701 12.0681 15.9754 12.2162 15.4426 12.4992C15.2744 12.2542 15.1063 12.0211 14.9462 11.784C14.9017 11.6983 14.8333 11.6272 14.749 11.5795C14.6648 11.5318 14.5685 11.5094 14.4717 11.5151C14.3708 11.5208 14.2746 11.5594 14.1979 11.6249C14.1212 11.6904 14.0683 11.7792 14.0474 11.8777C13.8951 12.3503 13.7727 12.8321 13.6811 13.32C13.589 13.9575 13.593 14.611 13.2988 15.2126C13.2499 15.3407 13.2183 15.4747 13.2047 15.611C13.1706 15.7903 13.1446 15.9716 13.1166 16.1469H12.1878L12.9184 14.8978C13.2607 14.8799 13.3748 14.8201 13.3828 14.6269C13.3908 14.4336 13.2887 14.3639 12.9825 14.2962V13.8639C13.2847 13.7922 13.3828 13.7085 13.3828 13.5372C13.3828 13.3658 13.2667 13.2901 12.9525 13.2583L12.5321 12.1008C12.5179 12.0515 12.5099 12.0006 12.5081 11.9494C12.4961 11.7342 12.4901 11.5171 12.4721 11.3019C12.433 10.6704 12.291 10.0493 12.0517 9.46312C12.0228 9.37073 11.9667 9.28907 11.8907 9.2287C11.8147 9.16834 11.7223 9.13202 11.6253 9.12445C11.5333 9.11847 11.4414 9.13826 11.36 9.18156C11.2786 9.22486 11.2111 9.28996 11.1649 9.36949C11.0028 9.61254 10.8327 9.8516 10.6625 10.0966C10.1292 9.81274 9.53382 9.6642 8.92905 9.6642C8.32428 9.6642 7.72885 9.81274 7.19558 10.0966C7.01943 9.85359 6.85929 9.60855 6.68314 9.36949C6.61583 9.27703 6.5273 9.2019 6.42493 9.15035C6.3681 9.12654 6.30696 9.1146 6.24531 9.11526C6.18366 9.11592 6.12279 9.12918 6.0665 9.15421C6.0102 9.17923 5.95967 9.2155 5.91803 9.26075C5.87638 9.30601 5.84452 9.35929 5.82442 9.4173C5.58015 9.98067 5.43589 10.5819 5.39805 11.1943C5.40189 11.4818 5.38113 11.769 5.336 12.053C5.22991 12.4614 5.05176 12.8499 4.89963 13.2682C4.73549 13.2563 4.53332 13.2503 4.48728 13.4893C4.43124 13.7862 4.68745 13.8161 4.87161 13.8679V14.3022C4.81164 14.3073 4.75211 14.3166 4.69346 14.3301C4.62571 14.3436 4.56583 14.3827 4.5263 14.4391C4.48677 14.4955 4.47064 14.5649 4.48128 14.6329C4.48069 14.6686 4.48785 14.704 4.50225 14.7368C4.51665 14.7695 4.53796 14.7988 4.56473 14.8226C4.59151 14.8464 4.62312 14.8642 4.65742 14.8748C4.69172 14.8854 4.7279 14.8885 4.76352 14.8839C4.96369 14.858 5.01573 14.9516 5.08379 15.109C5.19706 15.3365 5.32337 15.5573 5.46211 15.7704C5.52416 15.878 5.59222 15.9856 5.6863 16.133H1.66489C1.55244 16.1336 1.44196 16.1624 1.34368 16.2168C1.2454 16.2712 1.16249 16.3494 1.10263 16.4441C1.04276 16.5389 1.00787 16.6471 1.00118 16.7588C0.994498 16.8705 1.01623 16.9821 1.06438 17.0833L5.19789 25.8051L5.24392 25.9007C5.30398 25.9784 5.42007 26.0003 5.63025 26.0003H21.3476C21.5598 26.0003 21.6739 25.9784 21.7359 25.9007L21.7799 25.8051L25.9355 17.0833C25.984 16.9817 26.0057 16.8696 25.9987 16.7574C25.9917 16.6452 25.9562 16.5366 25.8954 16.4418ZM19.7923 12.2382H19.8543C19.9444 12.6367 20.0385 13.0192 20.1285 13.4097L20.0805 13.4276L19.4099 12.802L19.7923 12.2382ZM14.4898 12.2382H14.5478C14.6159 12.3339 14.6799 12.4375 14.748 12.5231L14.9482 12.812L14.2756 13.4276H14.2255L14.4898 12.2382ZM14.5738 13.9874C14.8458 13.6259 15.1882 13.3228 15.5807 13.0961C15.9731 12.8695 16.4075 12.7241 16.8578 12.6686C17.8186 12.563 18.6333 12.8997 19.3379 13.5272C20.0564 14.1676 20.5161 15.0464 20.631 15.9995C20.631 16.0413 20.631 16.0872 20.631 16.1429H18.4091C18.321 15.4497 17.7045 15.1847 17.0319 15.2305C16.4314 15.2684 16.0571 15.5752 15.959 16.1429H13.7071C13.7701 15.3525 14.0722 14.5995 14.5738 13.9834V13.9874ZM17.7926 16.1429H16.5635C16.6116 15.9218 16.7897 15.8162 17.132 15.8043C17.5083 15.7863 17.7225 15.8939 17.7926 16.1429ZM11.5453 9.84164H11.6113C11.7014 10.2401 11.7935 10.6286 11.8836 11.023L11.8435 11.0409L11.1589 10.4054C11.281 10.2281 11.4132 10.0369 11.5453 9.84164ZM6.24878 9.84164H6.30482L6.70516 10.4114L6.0366 11.023L5.98055 11.0131C6.06862 10.6213 6.15803 10.2295 6.24878 9.83766V9.84164ZM5.54418 14.8221C5.94452 14.7783 6.29682 14.7385 6.65112 14.7046C6.95538 14.6727 7.09349 14.5671 7.06947 14.3699C7.04545 14.1727 6.91134 14.1029 6.60708 14.1288C6.23276 14.1647 5.85845 14.2065 5.46611 14.2484V13.9137L6.59707 14.0292C6.64912 14.0292 6.69916 14.0432 6.7512 14.0452C6.78961 14.0487 6.82834 14.0447 6.86517 14.0333C6.902 14.0218 6.9362 14.0033 6.96578 13.9787C6.99537 13.954 7.01977 13.9238 7.03756 13.8897C7.05536 13.8557 7.0662 13.8185 7.06947 13.7802C7.07303 13.7421 7.06878 13.7036 7.05698 13.6672C7.04517 13.6308 7.02606 13.5971 7.00079 13.5682C6.97553 13.5394 6.94464 13.5159 6.90999 13.4992C6.87535 13.4826 6.83767 13.4731 6.79924 13.4714C6.43694 13.4316 6.07463 13.3957 5.71032 13.3579L5.54218 13.3359C5.75836 11.9414 6.93135 10.2959 8.89702 10.272C10.8146 10.252 12.0577 11.794 12.3259 13.334C12.0437 13.3658 11.7614 13.3997 11.4772 13.4296C11.3491 13.4455 11.221 13.4555 11.0949 13.4694C10.8947 13.4913 10.7706 13.6188 10.7906 13.7902C10.7959 13.8314 10.8099 13.871 10.8316 13.9064C10.8534 13.9419 10.8824 13.9723 10.9168 13.9958C10.9512 14.0194 10.9902 14.0354 11.0312 14.0428C11.0722 14.0503 11.1144 14.0491 11.1549 14.0392C11.5553 14.0013 11.9716 13.9535 12.4 13.9097V14.2424L11.4192 14.1508C11.3171 14.1508 11.219 14.1288 11.1109 14.1249C11.0728 14.1193 11.0339 14.1215 10.9966 14.1313C10.9594 14.1412 10.9245 14.1584 10.8942 14.1821C10.8639 14.2058 10.8387 14.2353 10.8202 14.269C10.8017 14.3026 10.7903 14.3397 10.7866 14.3779C10.7828 14.4162 10.7868 14.455 10.7985 14.4918C10.8101 14.5286 10.8291 14.5626 10.8544 14.5919C10.8797 14.6211 10.9107 14.6449 10.9455 14.6619C10.9802 14.6789 11.0181 14.6887 11.0569 14.6906C11.3491 14.7285 11.6433 14.7544 11.9356 14.7823L12.2979 14.8261C12.0377 15.2744 11.7915 15.7007 11.5433 16.125C11.5563 16.1366 11.5683 16.1493 11.5793 16.1629H11.3911C9.74974 16.1629 8.10769 16.1629 6.46496 16.1629C6.43656 16.1674 6.40754 16.1663 6.37957 16.1596C6.35159 16.153 6.32522 16.1409 6.30197 16.124C6.27871 16.1072 6.25903 16.0859 6.24407 16.0615C6.2291 16.037 6.21913 16.0099 6.21475 15.9816C6.13452 15.7953 6.03878 15.6161 5.9285 15.4457C5.81241 15.2425 5.6883 15.0512 5.54418 14.8181V14.8221ZM21.7799 23.9862L21.5538 24.4484L21.2335 25.0998L21.0814 25.4106H5.91249L5.76036 25.1078L5.2159 23.9942L1.66489 16.7406L5.42007 16.7765H5.94852L5.93251 16.7406H21.0613L21.0453 16.7785H21.5738L25.329 16.7406L21.7799 23.9862Z" fill="black"/>
<path d="M25.8954 16.4418C25.8341 16.3483 25.75 16.2719 25.6509 16.2196C25.5519 16.1674 25.4411 16.141 25.329 16.1429H21.4437C21.3976 15.607 21.0433 15.113 20.8432 14.6329C20.7933 14.5111 20.7648 14.3817 20.7591 14.2504C20.7533 13.4417 20.6014 12.6407 20.3107 11.8856C20.2863 11.7881 20.2321 11.7006 20.1555 11.6351C20.0789 11.5697 19.9837 11.5296 19.8832 11.5204C19.7826 11.5112 19.6817 11.5333 19.5944 11.5838C19.5071 11.6343 19.4377 11.7105 19.3959 11.802C19.2378 12.039 19.0676 12.2681 18.9055 12.4992C18.3727 12.2162 17.778 12.0681 17.174 12.0681C16.5701 12.0681 15.9754 12.2162 15.4426 12.4992C15.2744 12.2542 15.1063 12.0211 14.9462 11.784C14.9017 11.6983 14.8333 11.6272 14.749 11.5795C14.6648 11.5318 14.5685 11.5094 14.4717 11.5151C14.3708 11.5208 14.2746 11.5594 14.1979 11.6249C14.1212 11.6904 14.0683 11.7792 14.0474 11.8777C13.8951 12.3503 13.7727 12.8321 13.6811 13.32C13.589 13.9575 13.593 14.611 13.2988 15.2126C13.2499 15.3407 13.2183 15.4747 13.2047 15.611C13.1706 15.7903 13.1446 15.9716 13.1166 16.1469H12.1878L12.9184 14.8978C13.2607 14.8799 13.3748 14.8201 13.3828 14.6269C13.3908 14.4336 13.2887 14.3639 12.9825 14.2962V13.8639C13.2847 13.7922 13.3828 13.7085 13.3828 13.5372C13.3828 13.3658 13.2667 13.2901 12.9525 13.2583L12.5321 12.1008C12.5179 12.0515 12.5099 12.0006 12.5081 11.9494C12.4961 11.7342 12.4901 11.5171 12.4721 11.3019C12.433 10.6704 12.291 10.0493 12.0517 9.46312C12.0228 9.37073 11.9667 9.28907 11.8907 9.2287C11.8147 9.16834 11.7223 9.13202 11.6253 9.12445C11.5333 9.11847 11.4414 9.13826 11.36 9.18156C11.2786 9.22486 11.2111 9.28996 11.1649 9.36949C11.0028 9.61254 10.8327 9.8516 10.6625 10.0966C10.1292 9.81274 9.53382 9.6642 8.92905 9.6642C8.32428 9.6642 7.72885 9.81274 7.19558 10.0966C7.01943 9.85359 6.85929 9.60855 6.68314 9.36949C6.61583 9.27703 6.5273 9.2019 6.42493 9.15035C6.3681 9.12654 6.30696 9.1146 6.24531 9.11526C6.18366 9.11592 6.12279 9.12918 6.0665 9.15421C6.0102 9.17923 5.95967 9.2155 5.91803 9.26075C5.87638 9.30601 5.84452 9.35929 5.82442 9.4173C5.58015 9.98067 5.43589 10.5819 5.39805 11.1943C5.40189 11.4818 5.38113 11.769 5.336 12.053C5.22991 12.4614 5.05176 12.8499 4.89963 13.2682C4.73549 13.2563 4.53332 13.2503 4.48728 13.4893C4.43124 13.7862 4.68745 13.8161 4.87161 13.8679V14.3022C4.81164 14.3073 4.75211 14.3166 4.69346 14.3301C4.62571 14.3436 4.56583 14.3827 4.5263 14.4391C4.48677 14.4955 4.47064 14.5649 4.48128 14.6329C4.48069 14.6686 4.48785 14.704 4.50225 14.7368C4.51665 14.7695 4.53796 14.7988 4.56473 14.8226C4.59151 14.8464 4.62312 14.8642 4.65742 14.8748C4.69172 14.8854 4.7279 14.8885 4.76352 14.8839C4.96369 14.858 5.01573 14.9516 5.08379 15.109C5.19706 15.3365 5.32337 15.5573 5.46211 15.7704C5.52416 15.878 5.59222 15.9856 5.6863 16.133H1.66489C1.55244 16.1336 1.44196 16.1624 1.34368 16.2168C1.2454 16.2712 1.16249 16.3494 1.10263 16.4441C1.04276 16.5389 1.00787 16.6471 1.00118 16.7588C0.994498 16.8705 1.01623 16.9821 1.06438 17.0833L5.19789 25.8051L5.24392 25.9007C5.30398 25.9784 5.42007 26.0003 5.63025 26.0003H21.3476C21.5598 26.0003 21.6739 25.9784 21.7359 25.9007L21.7799 25.8051L25.9355 17.0833C25.984 16.9817 26.0057 16.8696 25.9987 16.7574C25.9917 16.6452 25.9562 16.5366 25.8954 16.4418ZM19.7923 12.2382H19.8543C19.9444 12.6367 20.0385 13.0192 20.1285 13.4097L20.0805 13.4276L19.4099 12.802L19.7923 12.2382ZM14.4898 12.2382H14.5478C14.6159 12.3339 14.6799 12.4375 14.748 12.5231L14.9482 12.812L14.2756 13.4276H14.2255L14.4898 12.2382ZM14.5738 13.9874C14.8458 13.6259 15.1882 13.3228 15.5807 13.0961C15.9731 12.8695 16.4075 12.7241 16.8578 12.6686C17.8186 12.563 18.6333 12.8997 19.3379 13.5272C20.0564 14.1676 20.5161 15.0464 20.631 15.9995C20.631 16.0413 20.631 16.0872 20.631 16.1429H18.4091C18.321 15.4497 17.7045 15.1847 17.0319 15.2305C16.4314 15.2684 16.0571 15.5752 15.959 16.1429H13.7071C13.7701 15.3525 14.0722 14.5995 14.5738 13.9834V13.9874ZM17.7926 16.1429H16.5635C16.6116 15.9218 16.7897 15.8162 17.132 15.8043C17.5083 15.7863 17.7225 15.8939 17.7926 16.1429ZM11.5453 9.84164H11.6113C11.7014 10.2401 11.7935 10.6286 11.8836 11.023L11.8435 11.0409L11.1589 10.4054C11.281 10.2281 11.4132 10.0369 11.5453 9.84164ZM6.24878 9.84164H6.30482L6.70516 10.4114L6.0366 11.023L5.98055 11.0131C6.06862 10.6213 6.15803 10.2295 6.24878 9.83766V9.84164ZM5.54418 14.8221C5.94452 14.7783 6.29682 14.7385 6.65112 14.7046C6.95538 14.6727 7.09349 14.5671 7.06947 14.3699C7.04545 14.1727 6.91134 14.1029 6.60708 14.1288C6.23276 14.1647 5.85845 14.2065 5.46611 14.2484V13.9137L6.59707 14.0292C6.64912 14.0292 6.69916 14.0432 6.7512 14.0452C6.78961 14.0487 6.82834 14.0447 6.86517 14.0333C6.902 14.0218 6.9362 14.0033 6.96578 13.9787C6.99537 13.954 7.01977 13.9238 7.03756 13.8897C7.05536 13.8557 7.0662 13.8185 7.06947 13.7802C7.07303 13.7421 7.06878 13.7036 7.05698 13.6672C7.04517 13.6308 7.02606 13.5971 7.00079 13.5682C6.97553 13.5394 6.94464 13.5159 6.90999 13.4992C6.87535 13.4826 6.83767 13.4731 6.79924 13.4714C6.43694 13.4316 6.07463 13.3957 5.71032 13.3579L5.54218 13.3359C5.75836 11.9414 6.93135 10.2959 8.89702 10.272C10.8146 10.252 12.0577 11.794 12.3259 13.334C12.0437 13.3658 11.7614 13.3997 11.4772 13.4296C11.3491 13.4455 11.221 13.4555 11.0949 13.4694C10.8947 13.4913 10.7706 13.6188 10.7906 13.7902C10.7959 13.8314 10.8099 13.871 10.8316 13.9064C10.8534 13.9419 10.8824 13.9723 10.9168 13.9958C10.9512 14.0194 10.9902 14.0354 11.0312 14.0428C11.0722 14.0503 11.1144 14.0491 11.1549 14.0392C11.5553 14.0013 11.9716 13.9535 12.4 13.9097V14.2424L11.4192 14.1508C11.3171 14.1508 11.219 14.1288 11.1109 14.1249C11.0728 14.1193 11.0339 14.1215 10.9966 14.1313C10.9594 14.1412 10.9245 14.1584 10.8942 14.1821C10.8639 14.2058 10.8387 14.2353 10.8202 14.269C10.8017 14.3026 10.7903 14.3397 10.7866 14.3779C10.7828 14.4162 10.7868 14.455 10.7985 14.4918C10.8101 14.5286 10.8291 14.5626 10.8544 14.5919C10.8797 14.6211 10.9107 14.6449 10.9455 14.6619C10.9802 14.6789 11.0181 14.6887 11.0569 14.6906C11.3491 14.7285 11.6433 14.7544 11.9356 14.7823L12.2979 14.8261C12.0377 15.2744 11.7915 15.7007 11.5433 16.125C11.5563 16.1366 11.5683 16.1493 11.5793 16.1629H11.3911C9.74974 16.1629 8.10769 16.1629 6.46496 16.1629C6.43656 16.1674 6.40754 16.1663 6.37957 16.1596C6.35159 16.153 6.32522 16.1409 6.30197 16.124C6.27871 16.1072 6.25903 16.0859 6.24407 16.0615C6.2291 16.037 6.21913 16.0099 6.21475 15.9816C6.13452 15.7953 6.03878 15.6161 5.9285 15.4457C5.81241 15.2425 5.6883 15.0512 5.54418 14.8181V14.8221ZM21.7799 23.9862L21.5538 24.4484L21.2335 25.0998L21.0814 25.4106H5.91249L5.76036 25.1078L5.2159 23.9942L1.66489 16.7406L5.42007 16.7765H5.94852L5.93251 16.7406H21.0613L21.0453 16.7785H21.5738L25.329 16.7406L21.7799 23.9862Z" stroke="black" stroke-width="0.2" mask="url(#path-6-outside-1_991_358)"/>
<path d="M18.6929 3.56813V5.75752C18.9456 5.80618 19.1883 5.89723 19.4106 6.02688C19.659 6.16997 19.862 6.37958 19.9966 6.63189C20.1313 6.88424 20.1921 7.16916 20.172 7.45423L20.1718 7.45698L20.1718 7.45697C20.1334 7.76182 20.0216 8.05291 19.8458 8.30546C19.6703 8.55767 19.4363 8.76398 19.1636 8.90691C19.0128 8.99568 18.8554 9.073 18.6929 9.13823V9.91108C18.6929 10.0216 18.6488 10.1276 18.5703 10.2057C18.4918 10.2838 18.3855 10.3276 18.2746 10.3276C18.1637 10.3276 18.0574 10.2838 17.9789 10.2057C17.9004 10.1276 17.8563 10.0216 17.8563 9.91108V9.35838C17.6581 9.38982 17.4582 9.40956 17.2577 9.41749V10.3653V10.3661C17.2559 10.4767 17.21 10.5819 17.1303 10.6588C17.0505 10.7356 16.9434 10.7777 16.8326 10.7759C16.7217 10.7741 16.616 10.7285 16.5389 10.6492C16.4618 10.5699 16.4194 10.4634 16.4211 10.353M18.6929 3.56813L16.4711 9.35725L16.4676 9.40713C16.4521 9.40606 16.4366 9.40495 16.4211 9.4038M18.6929 3.56813H18.6933H18.6951H18.6968H18.6985H18.7003H18.702H18.7038H18.7055H18.7073H18.709H18.7107H18.7125H18.7142H18.716H18.7177H18.7194H18.7212H18.7229H18.7247H18.7264H18.7282H18.7299H18.7317H18.7334H18.7351H18.7369H18.7386H18.7404H18.7421H18.7439H18.7456H18.7474H18.7491H18.7508H18.7526H18.7543H18.7561H18.7578H18.7596H18.7613H18.7631H18.7648H18.7666H18.7683H18.7701H18.7718H18.7735H18.7753H18.777H18.7788H18.7805H18.7823H18.784H18.7858H18.7875H18.7893H18.791H18.7928H18.7945H18.7963H18.798H18.7998H18.8015H18.8033H18.805H18.8068H18.8085H18.8103H18.812H18.8137H18.8155H18.8172H18.819H18.8207H18.8225H18.8242H18.826H18.8277H18.8295H18.8312H18.833H18.8347H18.8365H18.8382H18.84H18.8417H18.8435H18.8452H18.847H18.8487H18.8505H18.8522H18.854H18.8557H18.8575H18.8593H18.861H18.8628H18.8645H18.8663H18.868H18.8698H18.8715H18.8733H18.875H18.8768H18.8785H18.8803H18.882H18.8838H18.8855H18.8873H18.889H18.8908H18.8925H18.8943H18.896H18.8978H18.8995H18.9013H18.903H18.9048H18.9065H18.9083H18.9101H18.9118H18.9136H18.9153H18.9171H18.9188H18.9206H18.9223H18.9241H18.9258H18.9276H18.9293H18.9311H18.9328H18.9346H18.9363H18.9381H18.9398H18.9416H18.9434H18.9451H18.9469H18.9486H18.9504H18.9521H18.9539H18.9556H18.9574H18.9591H18.9609H18.9626H18.9644H18.9661H18.9679H18.9696H18.9714H18.9732H18.9749H18.9767H18.9784H18.9802H18.9819H18.9837H18.9854H18.9872H18.9889H18.9907H18.9924H18.9942H18.9959H18.9977H18.9994H19.0012H19.0029H19.0047H19.0065H19.0082H19.01H19.0117H19.0135H19.0152H19.017H19.0187H19.0205H19.0222H19.024H19.0257H19.0275H19.0292H19.031H19.0327H19.0345H19.0362H19.038H19.0397H19.0415H19.0433H19.045H19.0468H19.0485H19.0503H19.052H19.0538H19.0555H19.0573H19.059H19.0608H19.0625H19.0643H19.066H19.0678H19.0695H19.0713H19.073H19.0748H19.0765H19.0783H19.08H19.0818H19.0835H19.0853H19.087H19.0888H19.0905H19.0923H19.094H19.0958H19.0975H19.0993H19.101H19.1028H19.1045H19.1063H19.108H19.1098H19.1115H19.1133H19.115H19.1168H19.1185H19.1203H19.122H19.1238H19.1255H19.1273H19.129H19.1308H19.1325H19.1343H19.136H19.1378H19.1395H19.1413H19.143H19.1448H19.1465H19.1483H19.15H19.1518H19.1535H19.1553H19.157H19.1587H19.1605H19.1622H19.164H19.1657H19.1675H19.1692H19.171H19.1727H19.1745H19.1762H19.178H19.1797H19.1814H19.1832H19.1849H19.1867H19.1884H19.1902H19.1919H19.1937H19.1954H19.1972H19.1989H19.2006H19.2024H19.2041H19.2059H19.2076H19.2094H19.2111H19.2129H19.2146H19.2163H19.2181H19.2198H19.2216H19.2233H19.225H19.2268H19.2285H19.2303H19.232H19.2338H19.2355H19.2372H19.239H19.2407H19.2425H19.2442H19.2459H19.2477H19.2494H19.2512H19.2529H19.2546H19.2564H19.2581H19.2599H19.2616H19.2633H19.2651H19.2668H19.2686H19.2703H19.272H19.2738H19.2755H19.2772H19.279H19.2807H19.2825H19.2842H19.2859H19.2877H19.2894H19.2911H19.2929H19.2946H19.2964H19.2981H19.2998H19.3016H19.3033H19.305H19.3068H19.3085H19.3102H19.312H19.3137H19.3154H19.3172H19.3189H19.3206H19.3224H19.3241H19.3258H19.3276H19.3293H19.331H19.3328H19.3345H19.3362H19.3379H19.3397H19.3414H19.3431H19.3449H19.3466H19.3483H19.3501H19.3518H19.3535H19.3552H19.357H19.3587H19.3604H19.3622H19.3639H19.3656H19.3673H19.3691H19.3708H19.3725H19.3742H19.376H19.3777H19.3794H19.3812H19.3829H19.3846H19.3863H19.3881H19.3898H19.3915H19.3932H19.3949H19.3967H19.3984H19.4001H19.4018H19.4036H19.4053H19.407H19.4087H19.4104H19.4122H19.4139H19.4156H19.4173H19.4191H19.4208H19.4225H19.4242H19.4259H19.4276H19.4294H19.4311H19.4328H19.4345H19.4362H19.438H19.4397H19.4414H19.4431H19.4448H19.4465H19.4483H19.45H19.4517H19.4534H19.4551H19.4568H19.4585H19.4603H19.462H19.4637H19.4654H19.4671H19.4688H19.4705H19.4722H19.474H19.4757H19.4774H19.4791H19.4808H19.4825H19.4842H19.4859H19.4876H19.4893H19.4911H19.4928H19.4945H19.4962H19.4979H19.4996H19.5013H19.503H19.5047H19.5064H19.5081H19.5098H19.5115H19.5132H19.5149H19.5166H19.5183H19.5201H19.5218H19.5235H19.5252H19.5269H19.5286H19.5303H19.532H19.5337V3.56827L19.5374 3.568C19.6405 3.56033 19.737 3.51412 19.8075 3.43857C19.8779 3.36302 19.9171 3.2637 19.9171 3.16053C19.9171 3.05736 19.8779 2.95805 19.8075 2.8825C19.737 2.80695 19.6405 2.76074 19.5374 2.75307L19.5374 2.75294H19.5337H18.6909L18.6929 3.56813ZM16.4211 10.353C16.4211 10.3528 16.4211 10.3527 16.4211 10.3525L16.4711 10.3533H16.4211V10.353ZM16.4211 10.353V9.4038M16.4211 9.4038C15.8856 9.36414 15.3532 9.27864 14.8495 9.19541L14.8577 9.14608M16.4211 9.4038L14.8577 9.14608M14.8577 9.14608L14.8445 9.19429C14.7402 9.16564 14.6514 9.09712 14.5976 9.00357C14.5437 8.91 14.5292 8.79903 14.5572 8.69483L14.5576 8.69321L14.5577 8.69322C14.5889 8.59072 14.6584 8.5041 14.7518 8.45112C14.8446 8.39847 14.954 8.38298 15.0577 8.40773C15.0767 8.41081 15.0957 8.41389 15.1146 8.41697C15.5452 8.48694 15.9831 8.5581 16.4211 8.59218V6.42574C16.1467 6.39343 15.8787 6.31989 15.6263 6.20756C15.6262 6.20753 15.6261 6.20749 15.626 6.20745L15.6464 6.16177C15.3886 6.05048 15.1705 5.86465 15.0202 5.62841C14.8699 5.39217 14.7945 5.11642 14.8037 4.83696L14.8577 9.14608ZM16.0468 5.49532V5.49956C15.8633 5.42281 15.7239 5.30443 15.6457 5.16137C15.5593 5.00319 15.5448 4.80975 15.6356 4.59723C15.802 4.27197 16.0813 4.01823 16.4211 3.88267V5.62733C16.3172 5.59952 16.2152 5.56496 16.1159 5.52388L16.0468 5.49532ZM17.2771 6.47866L17.2771 6.47873H17.2798H17.2809H17.2821H17.2833H17.2844H17.2856H17.2868H17.288H17.2891H17.2903H17.2915H17.2927H17.2939H17.295H17.2962H17.2974H17.2986H17.2997H17.3009H17.3021H17.3033H17.3045H17.3056H17.3068H17.308H17.3092H17.3104H17.3115H17.3127H17.3139H17.3151H17.3163H17.3174H17.3186H17.3198H17.321H17.3222H17.3234H17.3245H17.3257H17.3269H17.3281H17.3293H17.3305H17.3317H17.3328H17.334H17.3352H17.3364H17.3376H17.3388H17.34H17.3412H17.3423H17.3435H17.3447H17.3459H17.3471H17.3483H17.3495H17.3507H17.3519H17.3531H17.3542H17.3554H17.3566H17.3578H17.359H17.3602H17.3614H17.3626H17.3638H17.365H17.3662H17.3674H17.3686H17.3698H17.371H17.3721H17.3733H17.3745H17.3757H17.3769H17.3781H17.3793H17.3805H17.3817H17.3829H17.3841H17.3853H17.3865H17.3877H17.3889H17.3901H17.3913H17.3925H17.3937H17.3949H17.3961H17.3973H17.3985H17.3997H17.4009H17.4021H17.4033H17.4045H17.4057H17.4069H17.4081H17.4093H17.4105H17.4117H17.4129H17.4141H17.4153H17.4166H17.4178H17.419H17.4202H17.4214H17.4226H17.4238H17.425H17.4262H17.4274H17.4286H17.4298H17.431H17.4322H17.4334H17.4346H17.4359H17.4371H17.4383H17.4395H17.4407H17.4419H17.4431H17.4443H17.4455H17.4467H17.4479H17.4492H17.4504H17.4516H17.4528H17.454H17.4552H17.4564H17.4576H17.4588H17.4601H17.4613H17.4625H17.4637H17.4649H17.4661H17.4673H17.4685H17.4698H17.471H17.4722H17.4734H17.4746H17.4758H17.477H17.4783H17.4795H17.4807H17.4819H17.4831H17.4843H17.4855H17.4868H17.488H17.4892H17.4904H17.4916H17.4928H17.4941H17.4953H17.4965H17.4977H17.4989H17.5002H17.5014H17.5026H17.5038H17.505H17.5062H17.5075H17.5087H17.5099H17.5111H17.5123H17.5136H17.5148H17.516H17.5172H17.5184H17.5197H17.5209H17.5221H17.5233H17.5246H17.5258H17.527H17.5282H17.5294H17.5307H17.5319H17.5331H17.5343H17.5356H17.5368H17.538H17.5392H17.5404H17.5417H17.5429H17.5441H17.5453H17.5466H17.5478H17.549H17.5502H17.5515H17.5527H17.5539H17.5551H17.5564H17.5576H17.5588H17.56H17.5613H17.5625H17.5637H17.5649H17.5662H17.5674H17.5686H17.5699H17.5711H17.5723H17.5735H17.5748H17.576H17.5772H17.5784H17.5797H17.5809H17.5821H17.5834H17.5846H17.5858H17.587H17.5883H17.5895H17.5907H17.592H17.5932H17.5944H17.5956H17.5969H17.5981H17.5993H17.6006H17.6018H17.603H17.6042H17.6055H17.6067H17.6079H17.6092H17.6104H17.6116H17.6129H17.6141H17.6153H17.6166H17.6178H17.619H17.6202H17.6215H17.6227H17.6239H17.6252H17.6264H17.6276H17.6289H17.6301H17.6313H17.6326H17.6338H17.635H17.6363H17.6375H17.6387H17.64H17.6412H17.6424H17.6437H17.6449H17.6461H17.6474H17.6486H17.6498H17.6511H17.6523H17.6535H17.6548H17.656H17.6572H17.6585H17.6597H17.6609H17.6622H17.6634H17.6646H17.6659H17.6671H17.6683H17.6696H17.6708H17.672H17.6733H17.6745H17.6757H17.677H17.6782H17.6794H17.6807H17.6819H17.6831H17.6844H17.6856H17.6869H17.6881H17.6893H17.6906H17.6918H17.693H17.6943H17.6955H17.6967H17.698H17.6992H17.7004H17.7017H17.7029H17.7041H17.7054H17.7066H17.7079H17.7091H17.7103H17.7116H17.7128H17.714H17.7153H17.7165H17.7177H17.719H17.7202H17.7215H17.7227H17.7239H17.7252H17.7264H17.7276H17.7289H17.7301H17.7313H17.7326H17.7338H17.7351H17.7363H17.7375H17.7388H17.74H17.7412H17.7425H17.7437H17.7449H17.7462H17.7474H17.7487H17.7499H17.7511H17.7524H17.7536H17.7548H17.7561H17.7573H17.7585H17.7598H17.761H17.7623H17.7635H17.7647H17.766H17.7672H17.7684H17.7697H17.7709H17.7722H17.7734H17.7746H17.7759H17.7771H17.7783H17.7796H17.7808H17.782H17.7833H17.7845H17.7858H17.787H17.7882H17.7895H17.7907H17.7919H17.7932H17.7944H17.7956H17.7969H17.7981H17.7994H17.8006H17.8018H17.8031H17.8043H17.8055H17.8068H17.808H17.8092H17.8105H17.8117H17.813H17.8142H17.8154H17.8167H17.8179H17.8191H17.8204H17.8216H17.8228H17.8241H17.8253H17.8266H17.8278H17.829H17.8303H17.8315H17.8327H17.834H17.8352H17.8364H17.8377H17.8389H17.8401H17.8414H17.8426H17.8438H17.8451H17.8463H17.8476H17.8488H17.85H17.8513H17.8525H17.8537H17.8543V8.5306L17.666 8.56481C17.5299 8.58459 17.393 8.59818 17.2557 8.60554V6.47751L17.2771 6.47866ZM18.8637 6.65888C18.9606 6.69489 19.049 6.75044 19.1233 6.82204C19.1976 6.89364 19.2563 6.97973 19.2955 7.07491C19.3348 7.17009 19.3539 7.27231 19.3516 7.37517C19.3493 7.47767 19.3258 7.5786 19.2826 7.67168C19.1518 7.92289 18.9443 8.12557 18.6909 8.25121V6.60071C18.7491 6.61681 18.8065 6.63608 18.8626 6.65846L18.8811 6.61201L18.8637 6.65888ZM17.2557 3.65758L17.4675 3.62958C17.5967 3.61744 17.7259 3.60833 17.8543 3.59955V5.68744H17.8539H17.8526H17.8512H17.8498H17.8485H17.8471H17.8457H17.8444H17.843H17.8417H17.8403H17.8389H17.8376H17.8362H17.8348H17.8335H17.8321H17.8308H17.8294H17.828H17.8267H17.8253H17.8239H17.8226H17.8212H17.8199H17.8185H17.8171H17.8158H17.8144H17.813H17.8117H17.8103H17.8089H17.8076H17.8062H17.8049H17.8035H17.8021H17.8008H17.7994H17.798H17.7967H17.7953H17.7939H17.7926H17.7912H17.7899H17.7885H17.7871H17.7858H17.7844H17.783H17.7817H17.7803H17.7789H17.7776H17.7762H17.7749H17.7735H17.7721H17.7708H17.7694H17.768H17.7667H17.7653H17.7639H17.7626H17.7612H17.7598H17.7585H17.7571H17.7558H17.7544H17.753H17.7517H17.7503H17.7489H17.7476H17.7462H17.7448H17.7435H17.7421H17.7407H17.7394H17.738H17.7366H17.7353H17.7339H17.7326H17.7312H17.7298H17.7285H17.7271H17.7257H17.7244H17.723H17.7216H17.7203H17.7189H17.7175H17.7162H17.7148H17.7134H17.7121H17.7107H17.7093H17.708H17.7066H17.7053H17.7039H17.7025H17.7012H17.6998H17.6984H17.6971H17.6957H17.6943H17.693H17.6916H17.6902H17.6889H17.6875H17.6861H17.6848H17.6834H17.682H17.6807H17.6793H17.6779H17.6766H17.6752H17.6738H17.6725H17.6711H17.6697H17.6684H17.667H17.6656H17.6643H17.6629H17.6616H17.6602H17.6588H17.6575H17.6561H17.6547H17.6534H17.652H17.6506H17.6493H17.6479H17.6465H17.6452H17.6438H17.6424H17.6411H17.6397H17.6383H17.637H17.6356H17.6342H17.6329H17.6315H17.6301H17.6288H17.6274H17.626H17.6247H17.6233H17.6219H17.6206H17.6192H17.6178H17.6165H17.6151H17.6137H17.6124H17.611H17.6096H17.6083H17.6069H17.6055H17.6042H17.6028H17.6014H17.6001H17.5987H17.5973H17.596H17.5946H17.5932H17.5919H17.5905H17.5891H17.5878H17.5864H17.585H17.5837H17.5823H17.5809H17.5796H17.5782H17.5768H17.5755H17.5741H17.5728H17.5714H17.57H17.5687H17.5673H17.5659H17.5646H17.5632H17.5618H17.5605H17.5591H17.5577H17.5564H17.555H17.5536H17.5523H17.5509H17.5495H17.5482H17.5468H17.5454H17.5441H17.5427H17.5413H17.54H17.5386H17.5372H17.5359H17.5345H17.5331H17.5318H17.5304H17.529H17.5277H17.5263H17.5249H17.5236H17.5222H17.5208H17.5195H17.5181H17.5167H17.5154H17.514H17.5126H17.5113H17.5099H17.5085H17.5072H17.5058H17.5044H17.5031H17.5017H17.5003H17.499H17.4976H17.4962H17.4949H17.4935H17.4921H17.4908H17.4894H17.488H17.4867H17.4853H17.4839H17.4826H17.4812H17.4798H17.4785H17.4771H17.4757H17.4744H17.473H17.4716H17.4703H17.4689H17.4675H17.4662H17.4648H17.4634H17.4621H17.4607H17.4594H17.458H17.4566H17.4553H17.4539H17.4525H17.4512H17.4498H17.4484H17.4471H17.4457H17.4443H17.443H17.4416H17.4402H17.4389H17.4375H17.4361H17.4348H17.4334H17.432H17.4307H17.4293H17.4279H17.4266H17.4252H17.4238H17.4225H17.4211H17.4197H17.4184H17.417H17.4156H17.4143H17.4129H17.4116H17.4102H17.4088H17.4075H17.4061H17.4047H17.4034H17.402H17.4006H17.3993H17.3979H17.3965H17.3952H17.3938H17.3924H17.3911H17.3897H17.3883H17.387H17.3856H17.3842H17.3829H17.3815H17.3802H17.3788H17.3774H17.3761H17.3747H17.3733H17.372H17.3706H17.3692H17.3679H17.3665H17.3651H17.3638H17.3624H17.361H17.3597H17.3583H17.357H17.3556H17.3542H17.3529H17.3515H17.3501H17.3488H17.3474H17.346H17.3447H17.3433H17.3419H17.3406H17.3392H17.3379H17.3365H17.3351H17.3338H17.3324H17.331H17.3297H17.3283H17.3269H17.3256H17.3242H17.3228H17.3215H17.3201H17.3188H17.3174H17.316H17.3147H17.3133H17.3119H17.3106H17.3092H17.3078H17.3065H17.3051H17.3038H17.3024H17.301H17.2997H17.2983H17.2969H17.2956H17.2942H17.2929H17.2915H17.2901H17.2888H17.2874H17.286H17.2847H17.2833H17.2819H17.2806H17.2792H17.2779H17.2765H17.2751H17.2738H17.2724H17.271H17.2697H17.2683H17.267H17.2656H17.2642H17.2629H17.2615H17.2601H17.2588H17.2574H17.2561H17.2557V3.65758Z" fill="black" stroke="black" stroke-width="0.1"/>
<path d="M20.7113 16.7798L20.6953 16.8176L20.8755 16.8137L20.7113 16.7798Z" fill="black"/>
<path d="M16.0515 20.621H14.6503V20.4218C14.6539 20.3752 14.6478 20.3285 14.6324 20.2844C14.617 20.2403 14.5926 20.1999 14.5607 20.1657C14.5288 20.1314 14.4902 20.1041 14.4473 20.0855C14.4043 20.0668 14.3579 20.0571 14.311 20.0571C14.2641 20.0571 14.2178 20.0668 14.1748 20.0855C14.1318 20.1041 14.0932 20.1314 14.0614 20.1657C14.0295 20.1999 14.0051 20.2403 13.9897 20.2844C13.9743 20.3285 13.9682 20.3752 13.9717 20.4218V20.621H13.0349V20.5094C13.0385 20.4629 13.0324 20.4161 13.017 20.3721C13.0016 20.328 12.9772 20.2876 12.9453 20.2533C12.9135 20.2191 12.8749 20.1918 12.8319 20.1731C12.7889 20.1544 12.7425 20.1448 12.6957 20.1448C12.6488 20.1448 12.6024 20.1544 12.5594 20.1731C12.5165 20.1918 12.4778 20.2191 12.446 20.2533C12.4141 20.2876 12.3897 20.328 12.3743 20.3721C12.3589 20.4161 12.3528 20.4629 12.3564 20.5094V20.621H12.2403C12.1543 20.621 12.0718 20.655 12.011 20.7155C11.9502 20.776 11.916 20.8581 11.916 20.9437C11.916 21.0293 11.9502 21.1114 12.011 21.1719C12.0718 21.2324 12.1543 21.2664 12.2403 21.2664H12.3564V22.3741H11.3555C11.2695 22.3741 11.187 22.4081 11.1262 22.4686C11.0654 22.5292 11.0312 22.6112 11.0312 22.6968C11.0312 22.7824 11.0654 22.8645 11.1262 22.9251C11.187 22.9856 11.2695 23.0196 11.3555 23.0196H12.3564V23.0793C12.3528 23.1259 12.3589 23.1726 12.3743 23.2167C12.3897 23.2608 12.4141 23.3012 12.446 23.3354C12.4778 23.3697 12.5165 23.397 12.5594 23.4156C12.6024 23.4343 12.6488 23.444 12.6957 23.444C12.7425 23.444 12.7889 23.4343 12.8319 23.4156C12.8749 23.397 12.9135 23.3697 12.9453 23.3354C12.9772 23.3012 13.0016 23.2608 13.017 23.2167C13.0324 23.1726 13.0385 23.1259 13.0349 23.0793V23.0196H13.9677C13.9771 23.1053 14.0192 23.1842 14.0854 23.2399C14.1515 23.2957 14.2366 23.324 14.3231 23.3192C14.4096 23.3143 14.4909 23.2766 14.5503 23.2138C14.6097 23.151 14.6426 23.068 14.6423 22.9817V21.2664H16.0435C16.1295 21.2664 16.212 21.2324 16.2728 21.1719C16.3336 21.1114 16.3678 21.0293 16.3678 20.9437C16.3678 20.8581 16.3336 20.776 16.2728 20.7155C16.212 20.655 16.1295 20.621 16.0435 20.621H16.0515ZM13.9637 22.3741H13.0349V21.2664H13.9637V22.3741Z" fill="black"/>
<path d="M9.55933 20.143H7.78583V19.3919H8.78668C8.87268 19.3919 8.95516 19.3579 9.01598 19.2974C9.07679 19.2369 9.11095 19.1548 9.11095 19.0692C9.11095 18.9836 9.07679 18.9015 9.01598 18.841C8.95516 18.7805 8.87268 18.7465 8.78668 18.7465H7.78583V18.4476C7.78942 18.4011 7.78332 18.3544 7.7679 18.3103C7.75248 18.2662 7.72807 18.2258 7.69621 18.1916C7.66436 18.1573 7.62573 18.13 7.58277 18.1113C7.53981 18.0927 7.49343 18.083 7.44654 18.083C7.39966 18.083 7.35328 18.0927 7.31032 18.1113C7.26735 18.13 7.22873 18.1573 7.19687 18.1916C7.16502 18.2258 7.14061 18.2662 7.12519 18.3103C7.10977 18.3544 7.10366 18.4011 7.10726 18.4476V18.7465H6.23251V17.8958C6.23251 17.806 6.19666 17.7198 6.13285 17.6563C6.06903 17.5928 5.98248 17.5571 5.89223 17.5571C5.80197 17.5571 5.71542 17.5928 5.6516 17.6563C5.58779 17.7198 5.55194 17.806 5.55194 17.8958V18.7465H4.98345C4.89745 18.7465 4.81497 18.7805 4.75416 18.841C4.69334 18.9015 4.65918 18.9836 4.65918 19.0692C4.65918 19.1548 4.69334 19.2369 4.75416 19.2974C4.81497 19.3579 4.89745 19.3919 4.98345 19.3919H5.55194V20.143H5.33375C5.24775 20.143 5.16527 20.177 5.10445 20.2375C5.04364 20.298 5.00948 20.3801 5.00948 20.4657C5.00948 20.5513 5.04364 20.6334 5.10445 20.6939C5.16527 20.7545 5.24775 20.7885 5.33375 20.7885H5.55194V21.173C5.55194 21.2628 5.58779 21.3489 5.6516 21.4124C5.71542 21.476 5.80197 21.5116 5.89223 21.5116C5.98248 21.5116 6.06903 21.476 6.13285 21.4124C6.19666 21.3489 6.23251 21.2628 6.23251 21.173V20.7885H7.10726V21.0156C7.10366 21.0621 7.10977 21.1089 7.12519 21.1529C7.14061 21.197 7.16502 21.2374 7.19687 21.2717C7.22873 21.3059 7.26735 21.3332 7.31032 21.3519C7.35328 21.3706 7.39966 21.3802 7.44654 21.3802C7.49343 21.3802 7.53981 21.3706 7.58277 21.3519C7.62573 21.3332 7.66436 21.3059 7.69621 21.2717C7.72807 21.2374 7.75248 21.197 7.7679 21.1529C7.78332 21.1089 7.78942 21.0621 7.78583 21.0156V20.7885H9.55933C9.64534 20.7885 9.72782 20.7545 9.78863 20.6939C9.84944 20.6334 9.88361 20.5513 9.88361 20.4657C9.88361 20.3801 9.84944 20.298 9.78863 20.2375C9.72782 20.177 9.64534 20.143 9.55933 20.143V20.143ZM7.10726 20.143H6.23251V19.3919H7.10726V20.143Z" fill="black"/>
<path d="M20.8113 20.5772C20.9016 20.5772 20.9881 20.5415 21.0519 20.478C21.1158 20.4145 21.1516 20.3283 21.1516 20.2385C21.1516 20.1487 21.1158 20.0625 21.0519 19.999C20.9881 19.9355 20.9016 19.8998 20.8113 19.8998H20.5851V18.1347C20.5851 18.0492 20.551 17.9671 20.4902 17.9065C20.4293 17.846 20.3469 17.812 20.2609 17.812C20.1749 17.812 20.0924 17.846 20.0316 17.9065C19.9707 17.9671 19.9366 18.0492 19.9366 18.1347V19.8998H19.1819V18.9037C19.1819 18.8181 19.1478 18.7361 19.087 18.6755C19.0262 18.615 18.9437 18.581 18.8577 18.581C18.7717 18.581 18.6892 18.615 18.6284 18.6755C18.5676 18.7361 18.5334 18.8181 18.5334 18.9037V19.8998H18.2311C18.1409 19.8998 18.0543 19.9355 17.9905 19.999C17.9267 20.0625 17.8908 20.1487 17.8908 20.2385C17.8908 20.3283 17.9267 20.4145 17.9905 20.478C18.0543 20.5415 18.1409 20.5772 18.2311 20.5772H18.5334V21.4458H17.6787C17.5884 21.4458 17.5019 21.4815 17.438 21.545C17.3742 21.6085 17.3384 21.6946 17.3384 21.7844C17.3384 21.8743 17.3742 21.9604 17.438 22.0239C17.5019 22.0874 17.5884 22.1231 17.6787 22.1231H18.5334V22.6889C18.5334 22.7745 18.5676 22.8566 18.6284 22.9171C18.6892 22.9776 18.7717 23.0116 18.8577 23.0116C18.9437 23.0116 19.0262 22.9776 19.087 22.9171C19.1478 22.8566 19.1819 22.7745 19.1819 22.6889V22.1191H20.0106C20.0407 22.1587 20.0796 22.1909 20.1242 22.213C20.1688 22.2351 20.218 22.2466 20.2679 22.2466C20.3177 22.2466 20.3669 22.2351 20.4115 22.213C20.4562 22.1909 20.495 22.1587 20.5251 22.1191H20.8113C20.9016 22.1191 20.9881 22.0835 21.0519 22.0199C21.1158 21.9564 21.1516 21.8703 21.1516 21.7805C21.1516 21.6906 21.1158 21.6045 21.0519 21.541C20.9881 21.4775 20.9016 21.4418 20.8113 21.4418H20.5851V20.5772H20.8113ZM19.9346 20.5772V21.4458H19.1819V20.5772H19.9346Z" fill="black"/>
<path d="M32.3977 12.8317V11.7273H38.2003V12.8317H35.9524V19H34.6456V12.8317H32.3977ZM39.2621 19V13.5455H40.5476V19H39.2621ZM39.9084 12.7713C39.7048 12.7713 39.5296 12.7038 39.3828 12.5689C39.236 12.4316 39.1626 12.267 39.1626 12.0753C39.1626 11.8812 39.236 11.7166 39.3828 11.5817C39.5296 11.4444 39.7048 11.3757 39.9084 11.3757C40.1143 11.3757 40.2895 11.4444 40.4339 11.5817C40.5807 11.7166 40.6541 11.8812 40.6541 12.0753C40.6541 12.267 40.5807 12.4316 40.4339 12.5689C40.2895 12.7038 40.1143 12.7713 39.9084 12.7713ZM44.2843 19.1065C43.7374 19.1065 43.2651 18.9929 42.8674 18.7656C42.472 18.536 42.1678 18.2116 41.9547 17.7926C41.7417 17.3712 41.6351 16.8752 41.6351 16.3047C41.6351 15.7436 41.7417 15.2512 41.9547 14.8274C42.1702 14.4013 42.4708 14.0698 42.8567 13.8331C43.2426 13.594 43.696 13.4744 44.2168 13.4744C44.553 13.4744 44.8702 13.5289 45.1685 13.6378C45.4692 13.7443 45.7343 13.91 45.964 14.1349C46.196 14.3598 46.3783 14.6463 46.5108 14.9943C46.6434 15.34 46.7097 15.7519 46.7097 16.2301V16.6243H42.2388V15.7578H45.4775C45.4751 15.5116 45.4218 15.2926 45.3176 15.1009C45.2135 14.9067 45.0679 14.754 44.8809 14.6428C44.6962 14.5315 44.4808 14.4759 44.2346 14.4759C43.9718 14.4759 43.7409 14.5398 43.5421 14.6676C43.3432 14.7931 43.1882 14.9588 43.0769 15.1648C42.968 15.3684 42.9123 15.5921 42.91 15.8359V16.5923C42.91 16.9096 42.968 17.1818 43.084 17.4091C43.2 17.634 43.3622 17.8068 43.5705 17.9276C43.7788 18.0459 44.0227 18.1051 44.302 18.1051C44.4891 18.1051 44.6583 18.0791 44.8098 18.027C44.9614 17.9725 45.0927 17.8932 45.204 17.7891C45.3153 17.6849 45.3993 17.5559 45.4561 17.402L46.6564 17.5369C46.5807 17.8542 46.4363 18.1312 46.2232 18.3679C46.0125 18.6023 45.7426 18.7846 45.4135 18.9148C45.0845 19.0426 44.708 19.1065 44.2843 19.1065ZM49.0827 15.804V19H47.7972V13.5455H49.0259V14.4723H49.0898C49.2153 14.1669 49.4154 13.9242 49.69 13.7443C49.967 13.5644 50.3091 13.4744 50.7163 13.4744C51.0927 13.4744 51.4206 13.5549 51.6999 13.7159C51.9817 13.8769 52.1995 14.1101 52.3533 14.4155C52.5096 14.7209 52.5865 15.0914 52.5842 15.527V19H51.2987V15.7259C51.2987 15.3613 51.204 15.076 51.0146 14.87C50.8275 14.6641 50.5683 14.5611 50.2369 14.5611C50.012 14.5611 49.8119 14.6108 49.6367 14.7102C49.4639 14.8073 49.3278 14.9482 49.2283 15.1328C49.1313 15.3175 49.0827 15.5412 49.0827 15.804ZM55.9151 19.0959C55.4866 19.0959 55.1031 18.9858 54.7646 18.7656C54.426 18.5455 54.1585 18.2259 53.962 17.8068C53.7655 17.3878 53.6673 16.8788 53.6673 16.2798C53.6673 15.6738 53.7667 15.1624 53.9656 14.7457C54.1668 14.3267 54.4379 14.0107 54.7788 13.7976C55.1197 13.5821 55.4996 13.4744 55.9187 13.4744C56.2383 13.4744 56.5011 13.5289 56.707 13.6378C56.913 13.7443 57.0763 13.8733 57.1971 14.0249C57.3178 14.174 57.4113 14.3149 57.4776 14.4474H57.5309V11.7273H58.82V19H57.5558V18.1406H57.4776C57.4113 18.2732 57.3155 18.4141 57.19 18.5632C57.0645 18.71 56.8988 18.8355 56.6928 18.9396C56.4869 19.0438 56.2276 19.0959 55.9151 19.0959ZM56.2738 18.0412C56.546 18.0412 56.7781 17.9678 56.9698 17.821C57.1616 17.6719 57.3072 17.4647 57.4066 17.1996C57.506 16.9344 57.5558 16.6255 57.5558 16.2727C57.5558 15.92 57.506 15.6134 57.4066 15.353C57.3095 15.0926 57.1651 14.8902 56.9734 14.7457C56.784 14.6013 56.5508 14.5291 56.2738 14.5291C55.9873 14.5291 55.7482 14.6037 55.5565 14.7528C55.3647 14.902 55.2203 15.108 55.1232 15.3707C55.0262 15.6335 54.9776 15.9342 54.9776 16.2727C54.9776 16.6136 55.0262 16.9179 55.1232 17.1854C55.2227 17.4505 55.3683 17.66 55.56 17.8139C55.7541 17.9654 55.9921 18.0412 56.2738 18.0412ZM61.7594 19.1101C61.4138 19.1101 61.1025 19.0485 60.8255 18.9254C60.5508 18.8 60.333 18.6153 60.1721 18.3714C60.0134 18.1276 59.9341 17.8269 59.9341 17.4695C59.9341 17.1617 59.9909 16.9072 60.1046 16.706C60.2182 16.5047 60.3733 16.3438 60.5698 16.223C60.7663 16.1023 60.9876 16.0111 61.2338 15.9496C61.4824 15.8857 61.7393 15.8395 62.0044 15.8111C62.324 15.7779 62.5833 15.7483 62.7821 15.7223C62.981 15.6939 63.1254 15.6513 63.2154 15.5945C63.3077 15.5353 63.3539 15.4441 63.3539 15.321V15.2997C63.3539 15.0322 63.2746 14.825 63.1159 14.6783C62.9573 14.5315 62.7289 14.4581 62.4306 14.4581C62.1157 14.4581 61.8659 14.5268 61.6813 14.6641C61.499 14.8014 61.3759 14.9635 61.312 15.1506L60.1117 14.9801C60.2064 14.6487 60.3626 14.3717 60.5804 14.1491C60.7982 13.9242 61.0646 13.7562 61.3794 13.6449C61.6943 13.5312 62.0423 13.4744 62.4235 13.4744C62.6863 13.4744 62.9479 13.5052 63.2083 13.5668C63.4687 13.6283 63.7066 13.7301 63.9221 13.8722C64.1375 14.0118 64.3103 14.2024 64.4405 14.4439C64.5731 14.6854 64.6394 14.9872 64.6394 15.3494V19H63.4036V18.2507H63.361C63.2828 18.4022 63.1728 18.5443 63.0307 18.6768C62.891 18.8071 62.7147 18.9124 62.5016 18.9929C62.2909 19.071 62.0435 19.1101 61.7594 19.1101ZM62.0932 18.1655C62.3513 18.1655 62.575 18.1146 62.7644 18.0128C62.9538 17.9086 63.0994 17.7713 63.2012 17.6009C63.3053 17.4304 63.3574 17.2446 63.3574 17.0433V16.4006C63.3172 16.4337 63.2485 16.4645 63.1515 16.4929C63.0568 16.5213 62.9502 16.5462 62.8319 16.5675C62.7135 16.5888 62.5963 16.6077 62.4803 16.6243C62.3643 16.6409 62.2637 16.6551 62.1784 16.6669C61.9867 16.6929 61.815 16.7356 61.6635 16.7947C61.512 16.8539 61.3925 16.9368 61.3049 17.0433C61.2173 17.1475 61.1735 17.2824 61.1735 17.4482C61.1735 17.6849 61.2599 17.8636 61.4327 17.9844C61.6055 18.1051 61.8257 18.1655 62.0932 18.1655ZM70.2431 14.9872L69.0712 15.1151C69.0381 14.9967 68.9801 14.8854 68.8972 14.7812C68.8167 14.6771 68.7078 14.593 68.5705 14.5291C68.4332 14.4652 68.2651 14.4332 68.0662 14.4332C67.7987 14.4332 67.5738 14.4912 67.3915 14.6072C67.2116 14.7232 67.1228 14.8736 67.1252 15.0582C67.1228 15.2169 67.1808 15.3459 67.2992 15.4453C67.4199 15.5447 67.6188 15.6264 67.8958 15.6903L68.8262 15.8892C69.3423 16.0005 69.7258 16.1768 69.9767 16.4183C70.2301 16.6598 70.3579 16.9759 70.3603 17.3665C70.3579 17.7098 70.2573 18.0128 70.0584 18.2756C69.8619 18.536 69.5885 18.7396 69.2381 18.8864C68.8877 19.0331 68.4853 19.1065 68.0307 19.1065C67.3631 19.1065 66.8257 18.9669 66.4185 18.6875C66.0113 18.4058 65.7686 18.014 65.6905 17.5121L66.9441 17.3913C67.0009 17.6375 67.1216 17.8234 67.3063 17.9489C67.4909 18.0743 67.7312 18.1371 68.0272 18.1371C68.3326 18.1371 68.5776 18.0743 68.7623 17.9489C68.9493 17.8234 69.0428 17.6683 69.0428 17.4837C69.0428 17.3274 68.9824 17.1984 68.8617 17.0966C68.7433 16.9948 68.5587 16.9167 68.3077 16.8622L67.3773 16.6669C66.8541 16.558 66.467 16.3745 66.2161 16.1165C65.9651 15.8561 65.8408 15.527 65.8432 15.1293C65.8408 14.7931 65.932 14.5019 66.1167 14.2557C66.3037 14.0071 66.5629 13.8153 66.8944 13.6804C67.2282 13.5431 67.6129 13.4744 68.0485 13.4744C68.6877 13.4744 69.1908 13.6106 69.5577 13.8828C69.927 14.1551 70.1555 14.5232 70.2431 14.9872Z" fill="black"/>
</g>
<defs>
<clipPath id="clip0_991_358">
<rect width="73" height="26" fill="white"/>
</clipPath>
</defs>
</svg>
