<svg width="90" height="26" viewBox="0 0 90 26" fill="none" xmlns="http://www.w3.org/2000/svg">
<path d="M32.6903 9.54563L34.5831 15.2701H34.6577L36.5469 9.54563H37.9957L35.4318 16.8184H33.8054L31.245 9.54563H32.6903ZM39.9 16.9284C39.5544 16.9284 39.2431 16.8669 38.9661 16.7438C38.6915 16.6183 38.4737 16.4337 38.3127 16.1898C38.1541 15.946 38.0748 15.6453 38.0748 15.2878C38.0748 14.9801 38.1316 14.7256 38.2452 14.5243C38.3588 14.3231 38.5139 14.1621 38.7104 14.0414C38.9069 13.9206 39.1283 13.8295 39.3745 13.7679C39.623 13.704 39.8799 13.6578 40.1451 13.6294C40.4647 13.5963 40.7239 13.5667 40.9228 13.5407C41.1216 13.5123 41.266 13.4696 41.356 13.4128C41.4483 13.3536 41.4945 13.2625 41.4945 13.1394V13.1181C41.4945 12.8506 41.4152 12.6434 41.2566 12.4966C41.098 12.3498 40.8695 12.2765 40.5712 12.2765C40.2563 12.2765 40.0066 12.3451 39.8219 12.4824C39.6396 12.6197 39.5165 12.7819 39.4526 12.9689L38.2523 12.7985C38.347 12.467 38.5033 12.19 38.7211 11.9675C38.9389 11.7426 39.2052 11.5745 39.5201 11.4632C39.8349 11.3496 40.1829 11.2928 40.5641 11.2928C40.8269 11.2928 41.0885 11.3236 41.3489 11.3851C41.6093 11.4467 41.8472 11.5485 42.0627 11.6905C42.2781 11.8302 42.4509 12.0208 42.5811 12.2623C42.7137 12.5037 42.78 12.8056 42.78 13.1678V16.8184H41.5442V16.0691H41.5016C41.4235 16.2206 41.3134 16.3626 41.1713 16.4952C41.0317 16.6254 40.8553 16.7308 40.6422 16.8113C40.4315 16.8894 40.1841 16.9284 39.9 16.9284ZM40.2338 15.9838C40.4919 15.9838 40.7156 15.9329 40.905 15.8311C41.0944 15.727 41.24 15.5897 41.3418 15.4192C41.446 15.2488 41.498 15.0629 41.498 14.8617V14.2189C41.4578 14.2521 41.3891 14.2828 41.2921 14.3113C41.1974 14.3397 41.0908 14.3645 40.9725 14.3858C40.8541 14.4071 40.7369 14.4261 40.6209 14.4426C40.5049 14.4592 40.4043 14.4734 40.3191 14.4853C40.1273 14.5113 39.9557 14.5539 39.8042 14.6131C39.6526 14.6723 39.5331 14.7551 39.4455 14.8617C39.3579 14.9658 39.3141 15.1008 39.3141 15.2665C39.3141 15.5033 39.4005 15.682 39.5733 15.8027C39.7462 15.9235 39.9663 15.9838 40.2338 15.9838ZM46.4519 16.9249C45.9074 16.9249 45.4398 16.8053 45.0492 16.5662C44.6609 16.3271 44.3614 15.9969 44.1507 15.5755C43.9424 15.1517 43.8382 14.664 43.8382 14.1124C43.8382 13.5584 43.9448 13.0695 44.1578 12.6458C44.3709 12.2196 44.6716 11.8882 45.0598 11.6515C45.4505 11.4123 45.9121 11.2928 46.4448 11.2928C46.8875 11.2928 47.2793 11.3745 47.6202 11.5378C47.9635 11.6988 48.2369 11.9273 48.4405 12.2232C48.6441 12.5167 48.7601 12.86 48.7885 13.253H47.5598C47.5101 12.9902 47.3917 12.7712 47.2047 12.5961C47.0201 12.4185 46.7727 12.3297 46.4625 12.3297C46.1998 12.3297 45.9689 12.4007 45.7701 12.5428C45.5712 12.6825 45.4161 12.8837 45.3049 13.1465C45.196 13.4093 45.1415 13.7241 45.1415 14.0911C45.1415 14.4628 45.196 14.7824 45.3049 15.0499C45.4138 15.315 45.5665 15.5198 45.763 15.6642C45.9618 15.8063 46.195 15.8773 46.4625 15.8773C46.6519 15.8773 46.8212 15.8418 46.9703 15.7708C47.1219 15.6974 47.2485 15.592 47.3503 15.4547C47.4521 15.3174 47.522 15.1505 47.5598 14.954H48.7885C48.7578 15.3399 48.6441 15.682 48.4476 15.9803C48.2511 16.2762 47.9836 16.5082 47.6451 16.6763C47.3065 16.842 46.9088 16.9249 46.4519 16.9249ZM53.3207 14.5243V11.3638H54.6062V16.8184H53.3597V15.8489H53.3029C53.1798 16.1543 52.9774 16.4041 52.6957 16.5982C52.4163 16.7923 52.0719 16.8894 51.6623 16.8894C51.3048 16.8894 50.9888 16.8101 50.7141 16.6515C50.4419 16.4905 50.2288 16.2573 50.0749 15.9519C49.921 15.6441 49.8441 15.2724 49.8441 14.8368V11.3638H51.1296V14.638C51.1296 14.9836 51.2243 15.2582 51.4137 15.4618C51.6031 15.6654 51.8517 15.7672 52.1594 15.7672C52.3488 15.7672 52.5323 15.7211 52.7099 15.6287C52.8874 15.5364 53.033 15.3991 53.1467 15.2168C53.2627 15.0321 53.3207 14.8013 53.3207 14.5243ZM57.2136 13.6223V16.8184H55.9281V11.3638H57.1568V12.2907H57.2207C57.3462 11.9853 57.5462 11.7426 57.8208 11.5627C58.0978 11.3828 58.4399 11.2928 58.8471 11.2928C59.2235 11.2928 59.5514 11.3733 59.8308 11.5343C60.1125 11.6953 60.3303 11.9284 60.4842 12.2338C60.6404 12.5392 60.7174 12.9097 60.715 13.3453V16.8184H59.4295V13.5442C59.4295 13.1796 59.3348 12.8944 59.1454 12.6884C58.9584 12.4824 58.6992 12.3794 58.3677 12.3794C58.1428 12.3794 57.9428 12.4292 57.7676 12.5286C57.5948 12.6257 57.4586 12.7665 57.3592 12.9512C57.2621 13.1358 57.2136 13.3596 57.2136 13.6223ZM63.5914 16.9284C63.2458 16.9284 62.9345 16.8669 62.6575 16.7438C62.3829 16.6183 62.1651 16.4337 62.0041 16.1898C61.8455 15.946 61.7662 15.6453 61.7662 15.2878C61.7662 14.9801 61.823 14.7256 61.9366 14.5243C62.0502 14.3231 62.2053 14.1621 62.4018 14.0414C62.5983 13.9206 62.8197 13.8295 63.0659 13.7679C63.3145 13.704 63.5713 13.6578 63.8365 13.6294C64.1561 13.5963 64.4153 13.5667 64.6142 13.5407C64.813 13.5123 64.9574 13.4696 65.0474 13.4128C65.1397 13.3536 65.1859 13.2625 65.1859 13.1394V13.1181C65.1859 12.8506 65.1066 12.6434 64.948 12.4966C64.7894 12.3498 64.5609 12.2765 64.2626 12.2765C63.9477 12.2765 63.698 12.3451 63.5133 12.4824C63.331 12.6197 63.2079 12.7819 63.144 12.9689L61.9437 12.7985C62.0384 12.467 62.1947 12.19 62.4125 11.9675C62.6303 11.7426 62.8966 11.5745 63.2115 11.4632C63.5263 11.3496 63.8743 11.2928 64.2555 11.2928C64.5183 11.2928 64.7799 11.3236 65.0403 11.3851C65.3007 11.4467 65.5386 11.5485 65.7541 11.6905C65.9695 11.8302 66.1423 12.0208 66.2725 12.2623C66.4051 12.5037 66.4714 12.8056 66.4714 13.1678V16.8184H65.2356V16.0691H65.193C65.1149 16.2206 65.0048 16.3626 64.8627 16.4952C64.7231 16.6254 64.5467 16.7308 64.3336 16.8113C64.1229 16.8894 63.8755 16.9284 63.5914 16.9284ZM63.9252 15.9838C64.1833 15.9838 64.407 15.9329 64.5964 15.8311C64.7858 15.727 64.9314 15.5897 65.0332 15.4192C65.1374 15.2488 65.1895 15.0629 65.1895 14.8617V14.2189C65.1492 14.2521 65.0806 14.2828 64.9835 14.3113C64.8888 14.3397 64.7823 14.3645 64.6639 14.3858C64.5455 14.4071 64.4283 14.4261 64.3123 14.4426C64.1963 14.4592 64.0957 14.4734 64.0105 14.4853C63.8187 14.5113 63.6471 14.5539 63.4956 14.6131C63.344 14.6723 63.2245 14.7551 63.1369 14.8617C63.0493 14.9658 63.0055 15.1008 63.0055 15.2665C63.0055 15.5033 63.0919 15.682 63.2647 15.8027C63.4376 15.9235 63.6577 15.9838 63.9252 15.9838ZM70.1433 16.9249C69.5988 16.9249 69.1312 16.8053 68.7406 16.5662C68.3523 16.3271 68.0529 15.9969 67.8422 15.5755C67.6338 15.1517 67.5297 14.664 67.5297 14.1124C67.5297 13.5584 67.6362 13.0695 67.8493 12.6458C68.0623 12.2196 68.363 11.8882 68.7512 11.6515C69.1419 11.4123 69.6035 11.2928 70.1362 11.2928C70.5789 11.2928 70.9707 11.3745 71.3116 11.5378C71.6549 11.6988 71.9283 11.9273 72.1319 12.2232C72.3355 12.5167 72.4515 12.86 72.4799 13.253H71.2512C71.2015 12.9902 71.0832 12.7712 70.8961 12.5961C70.7115 12.4185 70.4641 12.3297 70.1539 12.3297C69.8912 12.3297 69.6603 12.4007 69.4615 12.5428C69.2626 12.6825 69.1075 12.8837 68.9963 13.1465C68.8874 13.4093 68.8329 13.7241 68.8329 14.0911C68.8329 14.4628 68.8874 14.7824 68.9963 15.0499C69.1052 15.315 69.2579 15.5198 69.4544 15.6642C69.6532 15.8063 69.8864 15.8773 70.1539 15.8773C70.3433 15.8773 70.5126 15.8418 70.6618 15.7708C70.8133 15.6974 70.9399 15.592 71.0417 15.4547C71.1435 15.3174 71.2134 15.1505 71.2512 14.954H72.4799C72.4492 15.3399 72.3355 15.682 72.139 15.9803C71.9425 16.2762 71.675 16.5082 71.3365 16.6763C70.9979 16.842 70.6002 16.9249 70.1433 16.9249ZM73.5355 16.8184V11.3638H74.821V16.8184H73.5355ZM74.1818 10.5897C73.9782 10.5897 73.803 10.5222 73.6562 10.3873C73.5095 10.2499 73.4361 10.0854 73.4361 9.89364C73.4361 9.69951 73.5095 9.53498 73.6562 9.40004C73.803 9.26272 73.9782 9.19407 74.1818 9.19407C74.3878 9.19407 74.563 9.26272 74.7074 9.40004C74.8542 9.53498 74.9276 9.69951 74.9276 9.89364C74.9276 10.0854 74.8542 10.2499 74.7074 10.3873C74.563 10.5222 74.3878 10.5897 74.1818 10.5897ZM78.5222 16.9249C77.9895 16.9249 77.5279 16.8077 77.1373 16.5733C76.7466 16.339 76.4436 16.0111 76.2282 15.5897C76.0151 15.1683 75.9086 14.6758 75.9086 14.1124C75.9086 13.5489 76.0151 13.0553 76.2282 12.6316C76.4436 12.2078 76.7466 11.8787 77.1373 11.6444C77.5279 11.41 77.9895 11.2928 78.5222 11.2928C79.0549 11.2928 79.5165 11.41 79.9071 11.6444C80.2978 11.8787 80.5996 12.2078 80.8127 12.6316C81.0281 13.0553 81.1358 13.5489 81.1358 14.1124C81.1358 14.6758 81.0281 15.1683 80.8127 15.5897C80.5996 16.0111 80.2978 16.339 79.9071 16.5733C79.5165 16.8077 79.0549 16.9249 78.5222 16.9249ZM78.5293 15.8951C78.8181 15.8951 79.0596 15.8158 79.2537 15.6571C79.4479 15.4962 79.5923 15.2807 79.687 15.0108C79.784 14.7409 79.8326 14.4403 79.8326 14.1088C79.8326 13.775 79.784 13.4732 79.687 13.2033C79.5923 12.931 79.4479 12.7144 79.2537 12.5534C79.0596 12.3925 78.8181 12.312 78.5293 12.312C78.2334 12.312 77.9872 12.3925 77.7907 12.5534C77.5965 12.7144 77.4509 12.931 77.3539 13.2033C77.2592 13.4732 77.2118 13.775 77.2118 14.1088C77.2118 14.4403 77.2592 14.7409 77.3539 15.0108C77.4509 15.2807 77.5965 15.4962 77.7907 15.6571C77.9872 15.8158 78.2334 15.8951 78.5293 15.8951ZM78.0286 10.6465L78.824 9.02362H80.0811L78.9909 10.6465H78.0286ZM83.5124 13.6223V16.8184H82.2269V11.3638H83.4556V12.2907H83.5195C83.645 11.9853 83.8451 11.7426 84.1197 11.5627C84.3967 11.3828 84.7388 11.2928 85.146 11.2928C85.5224 11.2928 85.8503 11.3733 86.1296 11.5343C86.4113 11.6953 86.6291 11.9284 86.783 12.2338C86.9393 12.5392 87.0162 12.9097 87.0138 13.3453V16.8184H85.7283V13.5442C85.7283 13.1796 85.6336 12.8944 85.4442 12.6884C85.2572 12.4824 84.998 12.3794 84.6665 12.3794C84.4416 12.3794 84.2416 12.4292 84.0664 12.5286C83.8936 12.6257 83.7575 12.7665 83.658 12.9512C83.561 13.1358 83.5124 13.3596 83.5124 13.6223Z" fill="black"/>
<g clip-path="url(#clip0_991_365)">
<mask id="path-2-outside-1_991_365" maskUnits="userSpaceOnUse" x="-0.00195312" y="5.48926" width="22" height="20" fill="black">
<rect fill="white" x="-0.00195312" y="5.48926" width="22" height="20"/>
<path d="M21.8219 20.655C21.737 20.3603 21.5343 20.103 21.2515 19.9309C20.9687 19.7589 20.6251 19.6838 20.2846 19.7198C20.0713 19.7495 19.8636 19.8052 19.6675 19.8854C19.5599 19.9243 19.4479 19.9653 19.3381 19.9964L19.248 20.0237L17.2275 17.5842L17.3549 17.4731C17.6558 17.2139 17.9654 16.9431 18.0401 16.5437C18.085 16.3451 18.0768 16.1399 18.0161 15.9447C17.9555 15.7494 17.8441 15.5695 17.6909 15.4194C17.032 14.7471 16.1184 15.0296 15.4728 15.3882L15.3695 15.4447L15.3014 15.3589C15.2841 15.3389 15.268 15.3181 15.2531 15.2966C15.2201 15.2497 15.1826 15.2054 15.1411 15.1641L13.2326 13.4708C11.9706 12.3485 10.7063 11.2248 9.43981 10.0999C9.25954 9.91822 9.02994 9.78045 8.7728 9.69963C8.51567 9.61881 8.23952 9.59762 7.97056 9.63808H7.91126C7.70683 9.66486 7.50441 9.7026 7.30511 9.75109C7.17175 9.79596 7.02557 9.80123 6.88855 9.76609C6.75152 9.73096 6.63105 9.65732 6.54523 9.55624C6.34952 9.36245 6.14048 9.17958 5.91931 9.0087L5.8666 8.96389C5.70709 8.81977 5.4929 8.73339 5.26563 8.72151C5.03837 8.70963 4.81423 8.77309 4.63674 8.89958L4.56426 8.9405L4.41492 9.03208L3.70775 8.40466C3.10599 7.86881 2.50863 7.33492 1.90906 6.80687C1.81473 6.727 1.71577 6.65156 1.61258 6.58084C1.56865 6.55161 1.52693 6.52043 1.4874 6.48926H1.3117C1.11843 6.59838 1.01521 6.70749 0.99984 6.81076C0.984467 6.91404 1.06792 7.06018 1.25021 7.22385C1.7158 7.64084 2.18359 8.05392 2.65357 8.46896L3.01814 8.79436C3.2707 9.02039 3.52546 9.24837 3.78022 9.4705L3.85709 9.5387L3.79559 9.61469C3.37832 10.1447 3.41126 10.4915 3.92297 10.9436L3.98227 11.002C4.01399 11.0344 4.04931 11.0637 4.08769 11.0897C4.66529 11.4346 4.8278 11.8906 4.5972 12.5219C4.40174 13.0597 4.56865 13.5488 5.10672 14.0203C6.41565 15.1738 7.72239 16.3313 9.02693 17.4926L10.7839 19.0514L10.9398 19.1956L11.0716 19.3242L10.9947 19.4021C10.8172 19.5563 10.6877 19.7485 10.6188 19.9602C10.5499 20.172 10.544 20.3959 10.6016 20.6102C10.6558 20.8309 10.7734 21.0354 10.9432 21.2038C11.1129 21.3721 11.3289 21.4986 11.5701 21.5709C11.8164 21.6398 12.0785 21.6508 12.331 21.603C12.5835 21.5552 12.8177 21.4501 13.0108 21.2981C13.1272 21.2104 13.2304 21.1149 13.3271 21.037L13.4962 20.8967L13.5796 20.9512L15.7143 22.3327L16.3227 22.7224L16.2634 22.8121C15.8505 23.3966 15.789 23.8311 16.0569 24.2793C16.1602 24.4626 16.3109 24.6216 16.4969 24.7432C16.6828 24.8648 16.8986 24.9456 17.1265 24.9788C17.3693 25.01 17.617 24.9899 17.8494 24.9201C18.0818 24.8504 18.2923 24.733 18.464 24.5774C18.8659 24.2247 19.2634 23.8721 19.6609 23.5174C20.1309 23.1004 20.6009 22.6815 21.0774 22.2684C21.4435 21.9956 21.7197 21.6402 21.8769 21.2396V20.7759C21.878 20.7707 21.878 20.7654 21.8769 20.7603C21.8531 20.7276 21.8346 20.6922 21.8219 20.655V20.655ZM17.9325 19.6418C18.1653 19.9399 18.4069 20.2497 18.6616 20.5381L18.7319 20.618L18.6484 20.6901L18.2993 20.9746L18.1258 21.1168L18.0401 21.0409C17.308 20.3848 16.5562 19.7152 15.7846 19.0319L15.6946 18.952L16.6126 18.1473L16.7026 18.233C17.1525 18.6741 17.5636 19.1451 17.9325 19.6418V19.6418ZM5.20994 11.0157L5.12209 10.9397C4.91565 10.7643 4.69823 10.5753 4.483 10.3902L4.3139 10.2421L5.20994 9.43153L5.30218 9.51532C5.41858 9.62249 5.54157 9.73161 5.66236 9.84462L6.02253 10.1681L6.11038 10.2519L6.01595 10.3279L5.29999 10.9377L5.20994 11.0157ZM11.2978 18.5019C9.45518 16.8632 7.54889 15.1699 5.66895 13.5137C5.53854 13.4078 5.44156 13.2736 5.38763 13.1242C5.3337 12.9748 5.32469 12.8156 5.36148 12.6622C5.43972 12.0619 5.76225 11.5076 6.26851 11.1034C6.68584 10.7278 7.22198 10.4736 7.80584 10.3746C8.39223 10.2733 8.78974 10.4253 9.12356 10.889L9.18505 10.9689L9.10379 11.0332C9.02693 11.0975 8.94567 11.1599 8.86441 11.2281C8.68652 11.3742 8.50423 11.5223 8.33513 11.6782C8.26887 11.7322 8.22834 11.8067 8.22181 11.8863C8.21528 11.966 8.24324 12.0449 8.29999 12.1069C8.33867 12.1702 8.40129 12.2193 8.47681 12.2457C8.55234 12.2721 8.63593 12.274 8.71287 12.2511C8.82249 12.2145 8.921 12.1558 9.00057 12.0796C9.14113 11.9588 9.27729 11.8282 9.41126 11.7016L9.63088 11.5067L9.71873 11.4229L10.6872 12.2842L10.3029 12.6135L9.68359 13.161L9.65284 13.1902C9.58527 13.2466 9.52147 13.3065 9.46177 13.3695C9.42543 13.4023 9.39672 13.441 9.37727 13.4836C9.35783 13.5262 9.34803 13.5718 9.34844 13.6178C9.34885 13.6637 9.35945 13.7092 9.37965 13.7515C9.39985 13.7938 9.42925 13.8322 9.46616 13.8644C9.50308 13.8967 9.54679 13.9221 9.59481 13.9394C9.64282 13.9567 9.69419 13.9653 9.74599 13.965C9.79779 13.9646 9.849 13.9552 9.8967 13.9373C9.9444 13.9194 9.98766 13.8933 10.024 13.8605C10.3205 13.6111 10.6126 13.35 10.9025 13.0948L10.9793 13.0246C11.018 12.9871 11.0519 12.946 11.0804 12.9019C11.0979 12.8785 11.1155 12.8531 11.1353 12.8298L11.2231 12.7167L11.535 13.0071C11.7392 13.2019 11.9303 13.3753 12.1521 13.576L12.24 13.6559L12.1455 13.7358C12.0687 13.7982 11.994 13.8625 11.9127 13.9307C11.737 14.0729 11.5569 14.2191 11.3834 14.3749C11.3181 14.4261 11.2758 14.4965 11.2645 14.5732C11.2532 14.6499 11.2736 14.7276 11.3219 14.7919C11.3584 14.8575 11.4199 14.9095 11.4955 14.9388C11.571 14.968 11.6558 14.9726 11.7348 14.9517C11.8354 14.9249 11.9263 14.8752 11.9984 14.8075C12.1653 14.6633 12.3234 14.5113 12.4815 14.3652L12.7561 14.108L13.7136 14.9887L13.6236 15.0647C13.5379 15.1407 13.4501 15.2187 13.3578 15.2946C13.1009 15.5187 12.8373 15.7448 12.5913 15.9922C12.4834 16.0911 12.4221 16.2228 12.42 16.3605C12.4701 16.4794 12.57 16.5764 12.699 16.6313C12.8571 16.7132 13.0196 16.5885 13.0833 16.532C13.3512 16.2962 13.6148 16.0565 13.8893 15.8091L14.3088 15.433L14.8139 15.9591L14.7304 16.0351C14.0716 16.6196 13.3995 17.2042 12.7099 17.8277L11.5547 18.8507L11.4757 18.7318L11.4449 18.6792C11.4216 18.6362 11.3929 18.5957 11.3593 18.5584L11.2978 18.5019ZM12.5672 20.7077C12.4976 20.7733 12.414 20.826 12.3212 20.8628C12.2285 20.8996 12.1285 20.9197 12.0269 20.922V20.922C11.9407 20.9213 11.8555 20.9051 11.7766 20.8743C11.6977 20.8435 11.6267 20.7987 11.5679 20.7427C11.5044 20.6837 11.4551 20.6137 11.4231 20.5372C11.3911 20.4606 11.377 20.3791 11.3818 20.2976C11.3865 20.216 11.4099 20.1362 11.4506 20.063C11.4913 19.9898 11.5484 19.9247 11.6184 19.8717C13.1045 18.5454 14.5957 17.2211 16.0921 15.8987C16.1841 15.7968 16.3143 15.7276 16.459 15.7037C16.6037 15.6797 16.7532 15.7026 16.8805 15.7681C16.998 15.8435 17.1004 15.9357 17.1836 16.0409C17.2208 16.0896 17.2619 16.1359 17.3066 16.1793L17.3681 16.2416L17.3219 16.3118C17.2824 16.3702 17.2517 16.4267 17.2209 16.4794C17.1731 16.5761 17.1094 16.666 17.032 16.7463C15.5445 18.07 14.0562 19.3905 12.5672 20.7077V20.7077ZM15.8615 21.5416C15.2918 21.2078 14.7495 20.8386 14.2385 20.4368L14.1375 20.355L14.2341 20.2712L14.748 19.8386L15.095 19.5463L17.5152 21.7131L16.9135 22.2217L16.8256 22.1632C16.5116 21.9469 16.1755 21.7423 15.8505 21.5416H15.8615ZM21.095 21.0818C21.0708 21.1188 21.0467 21.1578 21.0247 21.1987C20.9731 21.3003 20.9043 21.3943 20.8205 21.4773C19.8542 22.3464 18.8637 23.2193 17.9083 24.065C17.7611 24.2017 17.5591 24.2815 17.3461 24.2871C17.177 24.2847 17.0154 24.2247 16.8948 24.1195C16.7742 24.0143 16.7038 23.872 16.6982 23.722C16.7003 23.6308 16.723 23.5409 16.7649 23.4576C16.8067 23.3743 16.867 23.2992 16.942 23.2368C17.6755 22.5717 18.412 21.9144 19.1514 21.2649L19.8607 20.6395C19.9543 20.5388 20.0823 20.4678 20.2253 20.4372C20.3682 20.4067 20.5186 20.4181 20.6536 20.4699C20.7727 20.518 20.8758 20.5926 20.9528 20.6865C21.0297 20.7804 21.078 20.8904 21.0928 21.0058V21.0486L21.095 21.0818Z"/>
</mask>
<path d="M21.8219 20.655C21.737 20.3603 21.5343 20.103 21.2515 19.9309C20.9687 19.7589 20.6251 19.6838 20.2846 19.7198C20.0713 19.7495 19.8636 19.8052 19.6675 19.8854C19.5599 19.9243 19.4479 19.9653 19.3381 19.9964L19.248 20.0237L17.2275 17.5842L17.3549 17.4731C17.6558 17.2139 17.9654 16.9431 18.0401 16.5437C18.085 16.3451 18.0768 16.1399 18.0161 15.9447C17.9555 15.7494 17.8441 15.5695 17.6909 15.4194C17.032 14.7471 16.1184 15.0296 15.4728 15.3882L15.3695 15.4447L15.3014 15.3589C15.2841 15.3389 15.268 15.3181 15.2531 15.2966C15.2201 15.2497 15.1826 15.2054 15.1411 15.1641L13.2326 13.4708C11.9706 12.3485 10.7063 11.2248 9.43981 10.0999C9.25954 9.91822 9.02994 9.78045 8.7728 9.69963C8.51567 9.61881 8.23952 9.59762 7.97056 9.63808H7.91126C7.70683 9.66486 7.50441 9.7026 7.30511 9.75109C7.17175 9.79596 7.02557 9.80123 6.88855 9.76609C6.75152 9.73096 6.63105 9.65732 6.54523 9.55624C6.34952 9.36245 6.14048 9.17958 5.91931 9.0087L5.8666 8.96389C5.70709 8.81977 5.4929 8.73339 5.26563 8.72151C5.03837 8.70963 4.81423 8.77309 4.63674 8.89958L4.56426 8.9405L4.41492 9.03208L3.70775 8.40466C3.10599 7.86881 2.50863 7.33492 1.90906 6.80687C1.81473 6.727 1.71577 6.65156 1.61258 6.58084C1.56865 6.55161 1.52693 6.52043 1.4874 6.48926H1.3117C1.11843 6.59838 1.01521 6.70749 0.99984 6.81076C0.984467 6.91404 1.06792 7.06018 1.25021 7.22385C1.7158 7.64084 2.18359 8.05392 2.65357 8.46896L3.01814 8.79436C3.2707 9.02039 3.52546 9.24837 3.78022 9.4705L3.85709 9.5387L3.79559 9.61469C3.37832 10.1447 3.41126 10.4915 3.92297 10.9436L3.98227 11.002C4.01399 11.0344 4.04931 11.0637 4.08769 11.0897C4.66529 11.4346 4.8278 11.8906 4.5972 12.5219C4.40174 13.0597 4.56865 13.5488 5.10672 14.0203C6.41565 15.1738 7.72239 16.3313 9.02693 17.4926L10.7839 19.0514L10.9398 19.1956L11.0716 19.3242L10.9947 19.4021C10.8172 19.5563 10.6877 19.7485 10.6188 19.9602C10.5499 20.172 10.544 20.3959 10.6016 20.6102C10.6558 20.8309 10.7734 21.0354 10.9432 21.2038C11.1129 21.3721 11.3289 21.4986 11.5701 21.5709C11.8164 21.6398 12.0785 21.6508 12.331 21.603C12.5835 21.5552 12.8177 21.4501 13.0108 21.2981C13.1272 21.2104 13.2304 21.1149 13.3271 21.037L13.4962 20.8967L13.5796 20.9512L15.7143 22.3327L16.3227 22.7224L16.2634 22.8121C15.8505 23.3966 15.789 23.8311 16.0569 24.2793C16.1602 24.4626 16.3109 24.6216 16.4969 24.7432C16.6828 24.8648 16.8986 24.9456 17.1265 24.9788C17.3693 25.01 17.617 24.9899 17.8494 24.9201C18.0818 24.8504 18.2923 24.733 18.464 24.5774C18.8659 24.2247 19.2634 23.8721 19.6609 23.5174C20.1309 23.1004 20.6009 22.6815 21.0774 22.2684C21.4435 21.9956 21.7197 21.6402 21.8769 21.2396V20.7759C21.878 20.7707 21.878 20.7654 21.8769 20.7603C21.8531 20.7276 21.8346 20.6922 21.8219 20.655V20.655ZM17.9325 19.6418C18.1653 19.9399 18.4069 20.2497 18.6616 20.5381L18.7319 20.618L18.6484 20.6901L18.2993 20.9746L18.1258 21.1168L18.0401 21.0409C17.308 20.3848 16.5562 19.7152 15.7846 19.0319L15.6946 18.952L16.6126 18.1473L16.7026 18.233C17.1525 18.6741 17.5636 19.1451 17.9325 19.6418V19.6418ZM5.20994 11.0157L5.12209 10.9397C4.91565 10.7643 4.69823 10.5753 4.483 10.3902L4.3139 10.2421L5.20994 9.43153L5.30218 9.51532C5.41858 9.62249 5.54157 9.73161 5.66236 9.84462L6.02253 10.1681L6.11038 10.2519L6.01595 10.3279L5.29999 10.9377L5.20994 11.0157ZM11.2978 18.5019C9.45518 16.8632 7.54889 15.1699 5.66895 13.5137C5.53854 13.4078 5.44156 13.2736 5.38763 13.1242C5.3337 12.9748 5.32469 12.8156 5.36148 12.6622C5.43972 12.0619 5.76225 11.5076 6.26851 11.1034C6.68584 10.7278 7.22198 10.4736 7.80584 10.3746C8.39223 10.2733 8.78974 10.4253 9.12356 10.889L9.18505 10.9689L9.10379 11.0332C9.02693 11.0975 8.94567 11.1599 8.86441 11.2281C8.68652 11.3742 8.50423 11.5223 8.33513 11.6782C8.26887 11.7322 8.22834 11.8067 8.22181 11.8863C8.21528 11.966 8.24324 12.0449 8.29999 12.1069C8.33867 12.1702 8.40129 12.2193 8.47681 12.2457C8.55234 12.2721 8.63593 12.274 8.71287 12.2511C8.82249 12.2145 8.921 12.1558 9.00057 12.0796C9.14113 11.9588 9.27729 11.8282 9.41126 11.7016L9.63088 11.5067L9.71873 11.4229L10.6872 12.2842L10.3029 12.6135L9.68359 13.161L9.65284 13.1902C9.58527 13.2466 9.52147 13.3065 9.46177 13.3695C9.42543 13.4023 9.39672 13.441 9.37727 13.4836C9.35783 13.5262 9.34803 13.5718 9.34844 13.6178C9.34885 13.6637 9.35945 13.7092 9.37965 13.7515C9.39985 13.7938 9.42925 13.8322 9.46616 13.8644C9.50308 13.8967 9.54679 13.9221 9.59481 13.9394C9.64282 13.9567 9.69419 13.9653 9.74599 13.965C9.79779 13.9646 9.849 13.9552 9.8967 13.9373C9.9444 13.9194 9.98766 13.8933 10.024 13.8605C10.3205 13.6111 10.6126 13.35 10.9025 13.0948L10.9793 13.0246C11.018 12.9871 11.0519 12.946 11.0804 12.9019C11.0979 12.8785 11.1155 12.8531 11.1353 12.8298L11.2231 12.7167L11.535 13.0071C11.7392 13.2019 11.9303 13.3753 12.1521 13.576L12.24 13.6559L12.1455 13.7358C12.0687 13.7982 11.994 13.8625 11.9127 13.9307C11.737 14.0729 11.5569 14.2191 11.3834 14.3749C11.3181 14.4261 11.2758 14.4965 11.2645 14.5732C11.2532 14.6499 11.2736 14.7276 11.3219 14.7919C11.3584 14.8575 11.4199 14.9095 11.4955 14.9388C11.571 14.968 11.6558 14.9726 11.7348 14.9517C11.8354 14.9249 11.9263 14.8752 11.9984 14.8075C12.1653 14.6633 12.3234 14.5113 12.4815 14.3652L12.7561 14.108L13.7136 14.9887L13.6236 15.0647C13.5379 15.1407 13.4501 15.2187 13.3578 15.2946C13.1009 15.5187 12.8373 15.7448 12.5913 15.9922C12.4834 16.0911 12.4221 16.2228 12.42 16.3605C12.4701 16.4794 12.57 16.5764 12.699 16.6313C12.8571 16.7132 13.0196 16.5885 13.0833 16.532C13.3512 16.2962 13.6148 16.0565 13.8893 15.8091L14.3088 15.433L14.8139 15.9591L14.7304 16.0351C14.0716 16.6196 13.3995 17.2042 12.7099 17.8277L11.5547 18.8507L11.4757 18.7318L11.4449 18.6792C11.4216 18.6362 11.3929 18.5957 11.3593 18.5584L11.2978 18.5019ZM12.5672 20.7077C12.4976 20.7733 12.414 20.826 12.3212 20.8628C12.2285 20.8996 12.1285 20.9197 12.0269 20.922V20.922C11.9407 20.9213 11.8555 20.9051 11.7766 20.8743C11.6977 20.8435 11.6267 20.7987 11.5679 20.7427C11.5044 20.6837 11.4551 20.6137 11.4231 20.5372C11.3911 20.4606 11.377 20.3791 11.3818 20.2976C11.3865 20.216 11.4099 20.1362 11.4506 20.063C11.4913 19.9898 11.5484 19.9247 11.6184 19.8717C13.1045 18.5454 14.5957 17.2211 16.0921 15.8987C16.1841 15.7968 16.3143 15.7276 16.459 15.7037C16.6037 15.6797 16.7532 15.7026 16.8805 15.7681C16.998 15.8435 17.1004 15.9357 17.1836 16.0409C17.2208 16.0896 17.2619 16.1359 17.3066 16.1793L17.3681 16.2416L17.3219 16.3118C17.2824 16.3702 17.2517 16.4267 17.2209 16.4794C17.1731 16.5761 17.1094 16.666 17.032 16.7463C15.5445 18.07 14.0562 19.3905 12.5672 20.7077V20.7077ZM15.8615 21.5416C15.2918 21.2078 14.7495 20.8386 14.2385 20.4368L14.1375 20.355L14.2341 20.2712L14.748 19.8386L15.095 19.5463L17.5152 21.7131L16.9135 22.2217L16.8256 22.1632C16.5116 21.9469 16.1755 21.7423 15.8505 21.5416H15.8615ZM21.095 21.0818C21.0708 21.1188 21.0467 21.1578 21.0247 21.1987C20.9731 21.3003 20.9043 21.3943 20.8205 21.4773C19.8542 22.3464 18.8637 23.2193 17.9083 24.065C17.7611 24.2017 17.5591 24.2815 17.3461 24.2871C17.177 24.2847 17.0154 24.2247 16.8948 24.1195C16.7742 24.0143 16.7038 23.872 16.6982 23.722C16.7003 23.6308 16.723 23.5409 16.7649 23.4576C16.8067 23.3743 16.867 23.2992 16.942 23.2368C17.6755 22.5717 18.412 21.9144 19.1514 21.2649L19.8607 20.6395C19.9543 20.5388 20.0823 20.4678 20.2253 20.4372C20.3682 20.4067 20.5186 20.4181 20.6536 20.4699C20.7727 20.518 20.8758 20.5926 20.9528 20.6865C21.0297 20.7804 21.078 20.8904 21.0928 21.0058V21.0486L21.095 21.0818Z" fill="#171B25"/>
<path d="M21.8219 20.655C21.737 20.3603 21.5343 20.103 21.2515 19.9309C20.9687 19.7589 20.6251 19.6838 20.2846 19.7198C20.0713 19.7495 19.8636 19.8052 19.6675 19.8854C19.5599 19.9243 19.4479 19.9653 19.3381 19.9964L19.248 20.0237L17.2275 17.5842L17.3549 17.4731C17.6558 17.2139 17.9654 16.9431 18.0401 16.5437C18.085 16.3451 18.0768 16.1399 18.0161 15.9447C17.9555 15.7494 17.8441 15.5695 17.6909 15.4194C17.032 14.7471 16.1184 15.0296 15.4728 15.3882L15.3695 15.4447L15.3014 15.3589C15.2841 15.3389 15.268 15.3181 15.2531 15.2966C15.2201 15.2497 15.1826 15.2054 15.1411 15.1641L13.2326 13.4708C11.9706 12.3485 10.7063 11.2248 9.43981 10.0999C9.25954 9.91822 9.02994 9.78045 8.7728 9.69963C8.51567 9.61881 8.23952 9.59762 7.97056 9.63808H7.91126C7.70683 9.66486 7.50441 9.7026 7.30511 9.75109C7.17175 9.79596 7.02557 9.80123 6.88855 9.76609C6.75152 9.73096 6.63105 9.65732 6.54523 9.55624C6.34952 9.36245 6.14048 9.17958 5.91931 9.0087L5.8666 8.96389C5.70709 8.81977 5.4929 8.73339 5.26563 8.72151C5.03837 8.70963 4.81423 8.77309 4.63674 8.89958L4.56426 8.9405L4.41492 9.03208L3.70775 8.40466C3.10599 7.86881 2.50863 7.33492 1.90906 6.80687C1.81473 6.727 1.71577 6.65156 1.61258 6.58084C1.56865 6.55161 1.52693 6.52043 1.4874 6.48926H1.3117C1.11843 6.59838 1.01521 6.70749 0.99984 6.81076C0.984467 6.91404 1.06792 7.06018 1.25021 7.22385C1.7158 7.64084 2.18359 8.05392 2.65357 8.46896L3.01814 8.79436C3.2707 9.02039 3.52546 9.24837 3.78022 9.4705L3.85709 9.5387L3.79559 9.61469C3.37832 10.1447 3.41126 10.4915 3.92297 10.9436L3.98227 11.002C4.01399 11.0344 4.04931 11.0637 4.08769 11.0897C4.66529 11.4346 4.8278 11.8906 4.5972 12.5219C4.40174 13.0597 4.56865 13.5488 5.10672 14.0203C6.41565 15.1738 7.72239 16.3313 9.02693 17.4926L10.7839 19.0514L10.9398 19.1956L11.0716 19.3242L10.9947 19.4021C10.8172 19.5563 10.6877 19.7485 10.6188 19.9602C10.5499 20.172 10.544 20.3959 10.6016 20.6102C10.6558 20.8309 10.7734 21.0354 10.9432 21.2038C11.1129 21.3721 11.3289 21.4986 11.5701 21.5709C11.8164 21.6398 12.0785 21.6508 12.331 21.603C12.5835 21.5552 12.8177 21.4501 13.0108 21.2981C13.1272 21.2104 13.2304 21.1149 13.3271 21.037L13.4962 20.8967L13.5796 20.9512L15.7143 22.3327L16.3227 22.7224L16.2634 22.8121C15.8505 23.3966 15.789 23.8311 16.0569 24.2793C16.1602 24.4626 16.3109 24.6216 16.4969 24.7432C16.6828 24.8648 16.8986 24.9456 17.1265 24.9788C17.3693 25.01 17.617 24.9899 17.8494 24.9201C18.0818 24.8504 18.2923 24.733 18.464 24.5774C18.8659 24.2247 19.2634 23.8721 19.6609 23.5174C20.1309 23.1004 20.6009 22.6815 21.0774 22.2684C21.4435 21.9956 21.7197 21.6402 21.8769 21.2396V20.7759C21.878 20.7707 21.878 20.7654 21.8769 20.7603C21.8531 20.7276 21.8346 20.6922 21.8219 20.655V20.655ZM17.9325 19.6418C18.1653 19.9399 18.4069 20.2497 18.6616 20.5381L18.7319 20.618L18.6484 20.6901L18.2993 20.9746L18.1258 21.1168L18.0401 21.0409C17.308 20.3848 16.5562 19.7152 15.7846 19.0319L15.6946 18.952L16.6126 18.1473L16.7026 18.233C17.1525 18.6741 17.5636 19.1451 17.9325 19.6418V19.6418ZM5.20994 11.0157L5.12209 10.9397C4.91565 10.7643 4.69823 10.5753 4.483 10.3902L4.3139 10.2421L5.20994 9.43153L5.30218 9.51532C5.41858 9.62249 5.54157 9.73161 5.66236 9.84462L6.02253 10.1681L6.11038 10.2519L6.01595 10.3279L5.29999 10.9377L5.20994 11.0157ZM11.2978 18.5019C9.45518 16.8632 7.54889 15.1699 5.66895 13.5137C5.53854 13.4078 5.44156 13.2736 5.38763 13.1242C5.3337 12.9748 5.32469 12.8156 5.36148 12.6622C5.43972 12.0619 5.76225 11.5076 6.26851 11.1034C6.68584 10.7278 7.22198 10.4736 7.80584 10.3746C8.39223 10.2733 8.78974 10.4253 9.12356 10.889L9.18505 10.9689L9.10379 11.0332C9.02693 11.0975 8.94567 11.1599 8.86441 11.2281C8.68652 11.3742 8.50423 11.5223 8.33513 11.6782C8.26887 11.7322 8.22834 11.8067 8.22181 11.8863C8.21528 11.966 8.24324 12.0449 8.29999 12.1069C8.33867 12.1702 8.40129 12.2193 8.47681 12.2457C8.55234 12.2721 8.63593 12.274 8.71287 12.2511C8.82249 12.2145 8.921 12.1558 9.00057 12.0796C9.14113 11.9588 9.27729 11.8282 9.41126 11.7016L9.63088 11.5067L9.71873 11.4229L10.6872 12.2842L10.3029 12.6135L9.68359 13.161L9.65284 13.1902C9.58527 13.2466 9.52147 13.3065 9.46177 13.3695C9.42543 13.4023 9.39672 13.441 9.37727 13.4836C9.35783 13.5262 9.34803 13.5718 9.34844 13.6178C9.34885 13.6637 9.35945 13.7092 9.37965 13.7515C9.39985 13.7938 9.42925 13.8322 9.46616 13.8644C9.50308 13.8967 9.54679 13.9221 9.59481 13.9394C9.64282 13.9567 9.69419 13.9653 9.74599 13.965C9.79779 13.9646 9.849 13.9552 9.8967 13.9373C9.9444 13.9194 9.98766 13.8933 10.024 13.8605C10.3205 13.6111 10.6126 13.35 10.9025 13.0948L10.9793 13.0246C11.018 12.9871 11.0519 12.946 11.0804 12.9019C11.0979 12.8785 11.1155 12.8531 11.1353 12.8298L11.2231 12.7167L11.535 13.0071C11.7392 13.2019 11.9303 13.3753 12.1521 13.576L12.24 13.6559L12.1455 13.7358C12.0687 13.7982 11.994 13.8625 11.9127 13.9307C11.737 14.0729 11.5569 14.2191 11.3834 14.3749C11.3181 14.4261 11.2758 14.4965 11.2645 14.5732C11.2532 14.6499 11.2736 14.7276 11.3219 14.7919C11.3584 14.8575 11.4199 14.9095 11.4955 14.9388C11.571 14.968 11.6558 14.9726 11.7348 14.9517C11.8354 14.9249 11.9263 14.8752 11.9984 14.8075C12.1653 14.6633 12.3234 14.5113 12.4815 14.3652L12.7561 14.108L13.7136 14.9887L13.6236 15.0647C13.5379 15.1407 13.4501 15.2187 13.3578 15.2946C13.1009 15.5187 12.8373 15.7448 12.5913 15.9922C12.4834 16.0911 12.4221 16.2228 12.42 16.3605C12.4701 16.4794 12.57 16.5764 12.699 16.6313C12.8571 16.7132 13.0196 16.5885 13.0833 16.532C13.3512 16.2962 13.6148 16.0565 13.8893 15.8091L14.3088 15.433L14.8139 15.9591L14.7304 16.0351C14.0716 16.6196 13.3995 17.2042 12.7099 17.8277L11.5547 18.8507L11.4757 18.7318L11.4449 18.6792C11.4216 18.6362 11.3929 18.5957 11.3593 18.5584L11.2978 18.5019ZM12.5672 20.7077C12.4976 20.7733 12.414 20.826 12.3212 20.8628C12.2285 20.8996 12.1285 20.9197 12.0269 20.922V20.922C11.9407 20.9213 11.8555 20.9051 11.7766 20.8743C11.6977 20.8435 11.6267 20.7987 11.5679 20.7427C11.5044 20.6837 11.4551 20.6137 11.4231 20.5372C11.3911 20.4606 11.377 20.3791 11.3818 20.2976C11.3865 20.216 11.4099 20.1362 11.4506 20.063C11.4913 19.9898 11.5484 19.9247 11.6184 19.8717C13.1045 18.5454 14.5957 17.2211 16.0921 15.8987C16.1841 15.7968 16.3143 15.7276 16.459 15.7037C16.6037 15.6797 16.7532 15.7026 16.8805 15.7681C16.998 15.8435 17.1004 15.9357 17.1836 16.0409C17.2208 16.0896 17.2619 16.1359 17.3066 16.1793L17.3681 16.2416L17.3219 16.3118C17.2824 16.3702 17.2517 16.4267 17.2209 16.4794C17.1731 16.5761 17.1094 16.666 17.032 16.7463C15.5445 18.07 14.0562 19.3905 12.5672 20.7077V20.7077ZM15.8615 21.5416C15.2918 21.2078 14.7495 20.8386 14.2385 20.4368L14.1375 20.355L14.2341 20.2712L14.748 19.8386L15.095 19.5463L17.5152 21.7131L16.9135 22.2217L16.8256 22.1632C16.5116 21.9469 16.1755 21.7423 15.8505 21.5416H15.8615ZM21.095 21.0818C21.0708 21.1188 21.0467 21.1578 21.0247 21.1987C20.9731 21.3003 20.9043 21.3943 20.8205 21.4773C19.8542 22.3464 18.8637 23.2193 17.9083 24.065C17.7611 24.2017 17.5591 24.2815 17.3461 24.2871C17.177 24.2847 17.0154 24.2247 16.8948 24.1195C16.7742 24.0143 16.7038 23.872 16.6982 23.722C16.7003 23.6308 16.723 23.5409 16.7649 23.4576C16.8067 23.3743 16.867 23.2992 16.942 23.2368C17.6755 22.5717 18.412 21.9144 19.1514 21.2649L19.8607 20.6395C19.9543 20.5388 20.0823 20.4678 20.2253 20.4372C20.3682 20.4067 20.5186 20.4181 20.6536 20.4699C20.7727 20.518 20.8758 20.5926 20.9528 20.6865C21.0297 20.7804 21.078 20.8904 21.0928 21.0058V21.0486L21.095 21.0818Z" stroke="black" stroke-width="0.2" mask="url(#path-2-outside-1_991_365)"/>
<path d="M22.8489 2.29573L22.849 2.2958L23.1386 2.46513C23.1387 2.46516 23.1387 2.46519 23.1387 2.46521C23.6067 2.73422 24.0926 3.02289 24.5567 3.31949C24.7911 3.46178 24.9593 3.67718 25.0266 3.92517C25.0939 4.17343 25.0549 4.43483 24.9178 4.65823C24.9178 4.65833 24.9177 4.65843 24.9176 4.65854L24.875 4.63238C24.6888 4.94577 24.4681 5.24209 24.2162 5.51701L22.8489 2.29573ZM22.8489 2.29573L22.4101 2.04072L22.8489 2.29573ZM13.7329 9.20665L13.7059 9.25551C13.6951 9.27846 13.6827 9.30109 13.6716 9.32117C13.6664 9.33066 13.6615 9.33958 13.6572 9.3477L13.6547 9.35256L13.6544 9.35239C13.6179 9.40656 13.588 9.46392 13.5652 9.52349C13.4597 9.80065 13.4646 10.0677 13.568 10.3087C13.6718 10.5504 13.8768 10.7701 14.1785 10.9473L14.1788 10.9474L15.2768 11.6001C15.8038 11.9119 16.3286 12.2217 16.8556 12.5294L16.8561 12.5297C16.9888 12.6092 17.1328 12.6731 17.2843 12.7197L17.2852 12.72C17.5704 12.8137 17.8842 12.8138 18.1693 12.7201C18.4678 12.615 18.7196 12.4286 18.8891 12.1891L18.89 12.1879L18.89 12.1879L19.8013 10.9761C19.8013 10.9761 19.8013 10.9761 19.8013 10.976C20.3921 10.1849 21.005 9.36828 21.6179 8.56915L21.6198 8.56669L21.6199 8.56675C21.7882 8.37333 21.9032 8.14832 21.9562 7.90963C22.0092 7.67096 21.9989 7.42466 21.9261 7.19001L21.926 7.1895C21.8155 6.81946 21.8434 6.42759 22.0052 6.07313M13.7329 9.20665L22.233 5.74888L22.1904 5.72279C22.1903 5.72292 22.1902 5.72305 22.1901 5.72318C22.1208 5.83649 22.0591 5.95334 22.0052 6.07313M13.7329 9.20665L16.8906 11.0763L16.8906 11.0763C17.0469 11.1688 17.1755 11.2165 17.2955 11.1948C17.4165 11.1729 17.5137 11.0835 17.615 10.9442C17.6151 10.9441 17.6152 10.944 17.6153 10.9438L19.8593 7.97894L19.8595 7.97859C19.9581 7.84593 20.0128 7.72941 19.9879 7.61585C19.9634 7.50351 19.865 7.41363 19.7161 7.32167L19.7161 7.32166L19.7153 7.32117L16.577 5.46494L16.5961 5.43432L16.5963 5.43408C16.6963 5.27131 16.8359 5.12958 17.0053 5.01925C17.1748 4.90891 17.3699 4.83279 17.5769 4.79659L17.5683 4.74734M13.7329 9.20665L22.2726 5.58054L22.2906 5.54421L19.3519 3.80536L19.3235 3.8487C19.3234 3.84879 19.3234 3.84887 19.3233 3.84895C19.1119 4.17977 18.7855 4.43934 18.3944 4.58942L18.3925 4.59017L18.3925 4.59013C18.1276 4.67936 17.8548 4.74843 17.5768 4.7966L17.5683 4.74734M22.0052 6.07313C22.0052 6.07309 22.0052 6.07305 22.0052 6.07301L22.0507 6.09377L22.0051 6.07326C22.0052 6.07322 22.0052 6.07318 22.0052 6.07313ZM17.5683 4.74734C17.3549 4.78466 17.1534 4.86319 16.9781 4.97734C16.8027 5.0915 16.6578 5.23849 16.5537 5.40789L19.2813 3.82179C19.0761 4.14304 18.7585 4.39615 18.3765 4.54274C18.1141 4.63115 17.8438 4.6996 17.5683 4.74734ZM23.7671 5.86318C23.9573 5.80024 24.1255 5.69245 24.2532 5.55062L20.7572 1.13867C20.5323 1.01957 20.2668 0.975711 20.0087 1.01501C19.7505 1.05432 19.5167 1.17419 19.3494 1.35301C19.1094 1.61428 18.8928 1.89182 18.7015 2.18308L18.6605 2.15447C18.6604 2.15466 18.6603 2.15485 18.6601 2.15505C18.5488 2.31487 18.4894 2.49968 18.4894 2.68872C18.4894 2.87799 18.5489 3.06302 18.6605 3.22297L18.6605 3.22301L18.662 3.22494C18.7027 3.27766 18.721 3.34032 18.7151 3.4024C18.7092 3.46455 18.6791 3.52411 18.6283 3.57055L18.6279 3.57015L18.6232 3.57589C18.5083 3.71711 18.3619 3.83655 18.1927 3.92668C18.0235 4.01681 17.8352 4.07567 17.6391 4.09951L17.639 4.09952C17.2774 4.14424 16.9319 4.26204 16.6291 4.44413C16.3266 4.62606 16.0746 4.86744 15.8928 5.15009C15.6082 5.55634 15.3005 5.96086 15.0019 6.35355L14.9812 6.38069C14.9812 6.38077 14.9811 6.38084 14.9811 6.38091C14.8492 6.55057 14.7195 6.72021 14.5899 6.89175L14.5898 6.89189L14.0958 7.55033C14.0958 7.55036 14.0957 7.55039 14.0957 7.55042C13.764 7.98892 13.4368 8.42544 13.1073 8.8658C12.9533 9.07151 12.8464 9.30259 12.7931 9.54577C12.7398 9.78898 12.7413 10.0392 12.7975 10.2819C12.8536 10.5245 12.9633 10.7546 13.1198 10.9588C13.2763 11.163 13.4764 11.3373 13.7084 11.4719C14.1198 11.7175 14.5333 11.9613 14.9466 12.205C15.1532 12.3269 15.3598 12.4487 15.5661 12.5707C15.5661 12.5708 15.5662 12.5708 15.5663 12.5708L16.4832 13.1236C16.716 13.2746 16.9814 13.3809 17.2625 13.4359C17.5438 13.491 17.8349 13.4935 18.1173 13.4433C18.3998 13.3931 18.6676 13.2912 18.9039 13.144C19.1397 12.997 19.3391 12.8078 19.4889 12.5881C20.4506 11.3154 21.408 10.0419 22.3609 8.76787L22.3612 8.76743C22.47 8.61872 22.5603 8.45986 22.6305 8.29363L22.6309 8.29263C22.7848 7.90524 22.7975 7.48443 22.6673 7.09013C22.6144 6.91046 22.6058 6.72289 22.642 6.5401C22.6784 6.35703 22.7589 6.18267 22.8786 6.02902L22.8788 6.02915L22.8812 6.0253C22.9085 5.98282 22.9508 5.94801 23.0031 5.92678C23.0553 5.90554 23.1142 5.8993 23.171 5.90921L23.1715 5.90929C23.371 5.94203 23.5767 5.92614 23.7671 5.86318ZM24.1474 4.49941L24.1472 4.49974C24.1386 4.5116 24.1299 4.52348 24.1213 4.53539C24.0062 4.69416 23.8879 4.8574 23.7602 5.01385L23.7599 5.0136L23.7565 5.01892C23.7215 5.07487 23.6725 5.12373 23.6128 5.16161C23.5531 5.1995 23.4843 5.22534 23.4114 5.23699C23.3384 5.24863 23.2634 5.24573 23.1919 5.22854C23.1205 5.21134 23.0546 5.18035 22.999 5.13814L22.9992 5.13787L22.9942 5.13494L21.5689 4.29122L19.5286 3.08314L19.5288 3.08289L19.5239 3.08066C19.4582 3.05075 19.4014 3.00837 19.3574 2.95702C19.3135 2.9057 19.2835 2.84673 19.2692 2.78459C19.2549 2.72248 19.2564 2.65836 19.2738 2.5968C19.2912 2.53521 19.3241 2.47735 19.3706 2.42768L19.3709 2.42797L19.3747 2.42266C19.4895 2.26251 19.6083 2.10564 19.7277 1.95023L19.7863 1.97565L19.8317 1.88673L19.7957 1.86548C19.9049 1.73647 20.014 1.66623 20.1285 1.64527C20.2555 1.622 20.3999 1.65739 20.5732 1.76212C20.8287 1.91648 21.1089 2.07986 21.3846 2.24061C21.4956 2.30532 21.6059 2.3696 21.7135 2.4327C21.7135 2.43272 21.7136 2.43274 21.7136 2.43275L22.8444 3.10098L22.8445 3.10101L23.9755 3.77127L23.9756 3.77133C24.1579 3.87886 24.2518 3.9865 24.2779 4.09772C24.3037 4.20795 24.2667 4.33786 24.1474 4.49941ZM24.1616 4.56495C24.0467 4.7235 23.9275 4.88785 23.7989 5.04546L24.1876 4.5291C24.179 4.54101 24.1703 4.55296 24.1616 4.56495ZM14.1894 8.64342L16.1407 6.04658L19.0717 7.78021L17.1204 10.3771L14.1894 8.64342Z" fill="#171B25" stroke="black" stroke-width="0.1"/>
<path d="M19.2322 9.65906L19.2322 9.65907C19.2535 9.63043 19.2748 9.60186 19.296 9.57331C19.4241 9.40152 19.5512 9.23089 19.6751 9.05597L19.676 9.05476L19.676 9.05477L20.1326 8.44912C20.1326 8.44906 20.1326 8.44901 20.1327 8.44895C20.17 8.3985 20.2075 8.34742 20.2451 8.29614C20.3593 8.14059 20.4748 7.98319 20.5925 7.83599M19.2322 9.65906L20.6317 7.86704M19.2322 9.65906L19.2316 9.65992C19.1614 9.75843 19.126 9.85891 19.1349 9.95326C19.144 10.0495 19.1984 10.1304 19.2891 10.1888C19.3626 10.2364 19.4533 10.2563 19.5421 10.2451L19.5421 10.2453L19.5461 10.2445C19.606 10.2319 19.6628 10.2087 19.713 10.1761C19.7628 10.1438 19.8053 10.1028 19.8377 10.0553M19.2322 9.65906L19.5358 10.1955C19.5899 10.1841 19.6409 10.1633 19.6858 10.1342C19.7307 10.1051 19.7685 10.0683 19.7972 10.026M20.5925 7.83599C20.5926 7.83593 20.5926 7.83587 20.5927 7.8358L20.6317 7.86704M20.5925 7.83599C20.5925 7.83606 20.5924 7.83613 20.5924 7.83619L20.6317 7.86704M20.5925 7.83599C20.6637 7.74525 20.7951 7.62046 20.9686 7.67095L20.9697 7.67127L20.9697 7.67128C21.0912 7.70974 21.1951 7.78531 21.262 7.88617L21.2669 7.89357L21.269 7.90221C21.2952 8.01233 21.2734 8.12682 21.2091 8.22233L21.2083 8.22345L21.2083 8.22344C20.9994 8.51614 20.7751 8.82044 20.5268 9.15187L20.5267 9.15206C20.3432 9.39457 20.1464 9.65183 19.9335 9.93013C19.9019 9.97138 19.87 10.0131 19.8377 10.0553M20.6317 7.86704C20.702 7.77741 20.814 7.67803 20.9546 7.71895C21.0662 7.75425 21.1602 7.82322 21.2203 7.91381C21.2432 8.00989 21.2244 8.1101 21.1676 8.19439C20.959 8.48667 20.735 8.79064 20.4868 9.12189C20.3034 9.3643 20.1067 9.62145 19.8937 9.89977C19.8619 9.94137 19.8297 9.98344 19.7972 10.026M19.8377 10.0553C19.838 10.0549 19.8383 10.0545 19.8386 10.054L19.7972 10.026M19.8377 10.0553C19.8375 10.0556 19.8372 10.056 19.8369 10.0564L19.7972 10.026" fill="#171B25" stroke="black" stroke-width="0.1"/>
<path d="M18.9957 10.5845L18.9961 10.5841L18.9898 10.58C18.9263 10.5386 18.8491 10.5189 18.7718 10.5234C18.6945 10.5279 18.6206 10.5565 18.5633 10.6053L18.563 10.6049L18.5584 10.6101C18.3372 10.8582 18.1374 11.1208 17.9607 11.3957L17.9604 11.3955L17.9578 11.4009C17.9234 11.4717 17.9202 11.5518 17.9489 11.6248C17.9774 11.6971 18.0346 11.7558 18.1074 11.7908C18.1775 11.8286 18.2595 11.8437 18.3399 11.8341C18.4208 11.8243 18.4963 11.79 18.5534 11.7357L18.5534 11.7357L18.554 11.735C18.6091 11.6805 18.6618 11.6193 18.7125 11.5602C18.734 11.5352 18.7551 11.5106 18.7759 11.4871L18.776 11.4872L18.7781 11.4845C18.8061 11.4481 18.834 11.4139 18.8639 11.3797C18.8819 11.3592 18.8967 11.3372 18.9096 11.317C18.9133 11.3112 18.9168 11.3057 18.9201 11.3004C18.9291 11.2862 18.9372 11.2734 18.946 11.2609C19.0062 11.1776 19.0614 11.0916 19.1114 11.0031L19.1116 11.0029C19.1511 10.9322 19.1612 10.8507 19.1394 10.7734C19.1181 10.6976 19.0679 10.6323 18.9994 10.5878L18.9957 10.5845Z" fill="#171B25" stroke="black" stroke-width="0.1"/>
<path d="M16.1655 7.79272L16.1664 7.79158L16.1553 7.78643L16.0677 7.7456C16.0099 7.71807 15.9505 7.69338 15.8897 7.67165L15.8897 7.67163L15.888 7.67109C15.8019 7.64365 15.734 7.62865 15.6778 7.63283C15.6164 7.63739 15.5728 7.66433 15.536 7.70789C15.4984 7.75238 15.4771 7.80933 15.4795 7.87497C15.4818 7.93957 15.5069 8.00959 15.5563 8.08296C15.573 8.10991 15.5943 8.1341 15.6191 8.15471L15.619 8.15489L15.6229 8.15755C15.6973 8.20827 15.7486 8.27913 15.77 8.35752C15.7914 8.43575 15.782 8.51819 15.7431 8.59161L15.7425 8.59131L15.7399 8.59885C15.6994 8.71718 15.6991 8.84365 15.7391 8.96208C15.7454 8.98784 15.7585 9.01132 15.7766 9.03072C15.7954 9.05081 15.819 9.06593 15.8451 9.07523L15.845 9.07529L15.8475 9.07602C15.8766 9.08479 15.9074 9.08751 15.9377 9.08404C15.9674 9.08064 15.9961 9.07138 16.0217 9.05665C16.1707 8.98295 16.2966 8.87619 16.3868 8.74602C16.477 8.61589 16.5284 8.46686 16.5355 8.31321C16.5601 8.10101 16.3996 7.972 16.2548 7.86426L16.1655 7.79272Z" fill="#171B25" stroke="black" stroke-width="0.1"/>
<path d="M16.4679 7.49579V7.49649L16.4762 7.49509C16.6512 7.46558 16.8074 7.37538 16.9095 7.24241L16.8698 7.21196L16.9101 7.24157C16.9299 7.21454 16.9435 7.18377 16.9497 7.15116C16.9558 7.11852 16.9542 7.08511 16.945 7.05315C16.9359 7.02121 16.9195 6.99172 16.8973 6.96643C16.8753 6.94138 16.8481 6.92098 16.8176 6.90618C16.7304 6.86068 16.6276 6.84668 16.5299 6.86645C16.4524 6.87687 16.3779 6.9007 16.3104 6.93678C16.2433 6.97264 16.1843 7.01997 16.1371 7.07637C16.1109 7.10149 16.0906 7.13165 16.0779 7.16505C16.0649 7.1995 16.0604 7.23628 16.065 7.27269C16.0696 7.30908 16.0831 7.34377 16.1041 7.37435C16.125 7.40491 16.1529 7.43056 16.1854 7.44983L16.1854 7.44985L16.1866 7.4505C16.2492 7.48539 16.3223 7.50108 16.3951 7.49579H16.4679Z" fill="#171B25" stroke="black" stroke-width="0.1"/>
<path d="M16.865 7.97954L16.8651 7.97943C16.802 7.93446 16.7598 7.87798 16.7555 7.80806C16.7514 7.74012 16.7841 7.67319 16.8382 7.60853L16.8384 7.60829L16.8384 7.60829C16.8877 7.55011 16.9492 7.50157 17.0192 7.46526C17.0892 7.42895 17.1664 7.4055 17.2462 7.39609L17.2487 7.3958L17.2487 7.39586C17.3379 7.38981 17.4272 7.41029 17.5027 7.45468C17.5353 7.47196 17.5639 7.49545 17.5863 7.52391C17.6089 7.55276 17.6246 7.586 17.6319 7.62147C17.6391 7.65696 17.6376 7.69345 17.6276 7.7283C17.6176 7.76311 17.5993 7.79512 17.5746 7.82231M16.865 7.97954L17.5376 7.78869M16.865 7.97954L16.8681 7.9814C16.9295 8.01891 17.0025 8.03703 17.0758 8.03363M16.865 7.97954L16.8941 7.93873C16.9475 7.97133 17.0117 7.98711 17.0764 7.98354M17.5746 7.82231C17.5746 7.82233 17.5746 7.82234 17.5746 7.82236L17.5376 7.78869M17.5746 7.82231C17.5746 7.8223 17.5746 7.82228 17.5746 7.82227L17.5376 7.78869M17.5746 7.82231C17.4697 7.93799 17.3203 8.0128 17.1573 8.03316L17.1548 8.03346L17.1548 8.0334C17.1285 8.03539 17.1021 8.03547 17.0758 8.03363M17.5376 7.78869C17.4414 7.89488 17.3031 7.96456 17.1511 7.98354C17.1262 7.98542 17.1012 7.98542 17.0764 7.98354M17.0758 8.03363C17.0769 8.03358 17.078 8.03353 17.0791 8.03347L17.0764 7.98354M17.0758 8.03363C17.0748 8.03356 17.0737 8.03348 17.0726 8.0334L17.0764 7.98354" fill="#171B25" stroke="black" stroke-width="0.1"/>
<path d="M17.3949 8.77618C17.4476 8.77636 17.5 8.77023 17.5509 8.75794C17.6002 8.7519 17.6479 8.73673 17.6907 8.71318C17.7344 8.6891 17.7724 8.65672 17.8016 8.61789L17.7616 8.58783L17.8024 8.61679C17.824 8.58642 17.838 8.55181 17.8432 8.51535C17.8484 8.47888 17.8445 8.44189 17.8319 8.40715C17.8193 8.37243 17.7985 8.3411 17.7713 8.31516C17.7452 8.29019 17.7138 8.27075 17.6793 8.25777C17.6109 8.22005 17.5348 8.19519 17.4556 8.1845C17.3756 8.17368 17.2939 8.17756 17.2156 8.19592C17.115 8.21429 17.0251 8.26728 16.9662 8.34534L16.9661 8.34526L16.9641 8.3483C16.9132 8.42707 16.9097 8.49951 16.9398 8.56281C16.9674 8.62064 17.0201 8.66395 17.0644 8.69638L17.0641 8.69691L17.0713 8.7006C17.1701 8.75083 17.2817 8.77679 17.3949 8.77618ZM17.3949 8.77618C17.3948 8.77618 17.3947 8.77618 17.3947 8.77618L17.3949 8.72618L17.3951 8.77618C17.3951 8.77618 17.395 8.77618 17.3949 8.77618Z" fill="#171B25" stroke="black" stroke-width="0.1"/>
<path d="M17.2759 8.99245L17.2758 8.99267C17.3487 9.04221 17.4025 9.09541 17.4231 9.15854C17.445 9.22553 17.4258 9.29054 17.3834 9.3526L17.3421 9.32436L17.3814 9.35528C17.3508 9.39411 17.3122 9.42676 17.2678 9.45157C17.2239 9.47619 17.1751 9.49269 17.1243 9.50031L17.2759 8.99245ZM17.2759 8.99245L17.2714 8.99001M17.2759 8.99245L17.2714 8.99001M17.2714 8.99001C17.1398 8.91909 16.9833 8.89579 16.8337 8.92419L17.2714 8.99001ZM16.641 9.4224C16.7465 9.48224 16.8687 9.51345 16.993 9.5127L16.6064 9.10028L16.5677 9.0686C16.5676 9.06871 16.5675 9.06882 16.5674 9.06893C16.5455 9.09578 16.5297 9.12669 16.5213 9.15986C16.5129 9.19318 16.5122 9.22776 16.5194 9.26136C16.5265 9.29494 16.5412 9.32649 16.5623 9.35415C16.5833 9.38178 16.6102 9.40491 16.641 9.4224L16.641 9.4224Z" fill="#171B25" stroke="black" stroke-width="0.1"/>
</g>
<defs>
<clipPath id="clip0_991_365">
<rect width="24" height="24" fill="white" transform="translate(1 1)"/>
</clipPath>
</defs>
</svg>
